<svg width="7" height="10" viewBox="0 0 7 10" fill="none" xmlns="http://www.w3.org/2000/svg">
<path d="M0.548274 4.6189C0.689274 4.6189 0.830258 4.56389 0.938258 4.45789L3.29727 2.09888L5.65628 4.45789C5.87128 4.67289 6.21825 4.67289 6.43325 4.45789C6.64825 4.24289 6.64825 3.89488 6.43325 3.68088L3.68527 0.93488C3.47027 0.718881 3.12226 0.718881 2.90826 0.93488L0.16125 3.68088C-0.05375 3.89488 -0.05375 4.24389 0.16125 4.45789C0.26725 4.56389 0.407274 4.6189 0.548274 4.6189Z" fill="#333333"/>
<path fill-rule="evenodd" clip-rule="evenodd" d="M3.35938 10C3.63552 10 3.85938 9.77614 3.85938 9.5V1.5C3.85938 1.22386 3.63552 1 3.35938 1C3.08323 1 2.85938 1.22386 2.85938 1.5V9.5C2.85938 9.77614 3.08323 10 3.35938 10Z" fill="#333333"/>
</svg>
