<svg width="18" height="18" viewBox="0 0 18 18" fill="none" xmlns="http://www.w3.org/2000/svg">
<path d="M16.8945 1L17.8945 1.00006C17.8945 0.734833 17.7892 0.480464 17.6017 0.292915C17.4141 0.105365 17.1598 0 16.8945 0V1ZM0.292893 16.1874C-0.0976311 16.5779 -0.0976311 17.2111 0.292893 17.6016C0.683417 17.9922 1.31658 17.9922 1.70711 17.6016L0.292893 16.1874ZM3.64829 0C3.09601 0 2.64829 0.447715 2.64829 1C2.64829 1.55228 3.09601 2 3.64829 2V0ZM15.8937 14.2454C15.8937 14.7977 16.3414 15.2454 16.8937 15.2454C17.446 15.2455 17.8937 14.7978 17.8937 14.2455L15.8937 14.2454ZM16.1874 0.292893L0.292893 16.1874L1.70711 17.6016L17.6016 1.70711L16.1874 0.292893ZM3.64829 2H16.8945V0H3.64829V2ZM15.8945 0.99994L15.8937 14.2454L17.8937 14.2455L17.8945 1.00006L15.8945 0.99994Z" fill="#333333"/>
</svg>
