<svg width="20" height="20" viewBox="0 0 20 20" fill="none" xmlns="http://www.w3.org/2000/svg">
<g clip-path="url(#clip0_62_26)">
<mask id="mask0_62_26" style="mask-type:luminance" maskUnits="userSpaceOnUse" x="0" y="0" width="20" height="20">
<path d="M20 0H0V20H20V0Z" fill="white"/>
</mask>
<g mask="url(#mask0_62_26)">
<path d="M10 1.66667C8.48214 1.66667 7.06287 1.96832 5.74219 2.57161C4.4215 3.17491 3.3724 3.98872 2.59487 5.01302C1.81734 6.03733 1.42857 7.1441 1.42857 8.33333C1.42857 9.30556 1.69457 10.2322 2.22656 11.1133C2.75856 11.9944 3.50818 12.7561 4.47545 13.3984L5.44643 14.0495L5.14509 15.2995C4.96652 16.0894 4.7061 16.8359 4.36384 17.5391C5.49479 16.9922 6.51786 16.25 7.43304 15.3125L7.91295 14.8177L8.54911 14.8958C9.0625 14.9653 9.54613 15 10 15C11.5179 15 12.9371 14.6984 14.2578 14.0951C15.5785 13.4918 16.6276 12.678 17.4051 11.6536C18.1827 10.6293 18.5714 9.52257 18.5714 8.33333C18.5714 7.1441 18.1827 6.03733 17.4051 5.01302C16.6276 3.98872 15.5785 3.17491 14.2578 2.57161C12.9371 1.96832 11.5179 1.66667 10 1.66667ZM20 8.33333C20 9.84375 19.5536 11.2391 18.6607 12.5195C17.7679 13.7999 16.5551 14.8112 15.0223 15.5534C13.4896 16.2956 11.8155 16.6667 10 16.6667C9.47917 16.6667 8.93973 16.6319 8.3817 16.5625C6.90848 18.0816 5.19717 19.1319 3.24777 19.7135C2.88318 19.8351 2.45908 19.9306 1.97545 20H1.91964C1.80804 20 1.70759 19.9544 1.6183 19.8633C1.52902 19.7721 1.46949 19.6528 1.43973 19.5052V19.4922C1.41741 19.4575 1.41555 19.4054 1.43415 19.3359C1.45275 19.2665 1.46019 19.2231 1.45647 19.2057C1.45275 19.1884 1.46949 19.1471 1.5067 19.082L1.57366 18.9648L1.65179 18.8542L1.74107 18.737C1.79315 18.6675 1.90848 18.5178 2.08705 18.2878C2.26563 18.0577 2.39397 17.8928 2.4721 17.793C2.55022 17.6931 2.66555 17.5217 2.81808 17.2786C2.97061 17.0356 3.09152 16.8142 3.1808 16.6146C3.27009 16.4149 3.37054 16.1589 3.48214 15.8464C3.59375 15.5339 3.69048 15.204 3.77232 14.8568C2.60417 14.0842 1.68341 13.1293 1.01004 11.9922C0.336682 10.855 0 9.63542 0 8.33333C0 6.82292 0.446429 5.42752 1.33929 4.14714C2.23214 2.86675 3.44494 1.85547 4.97768 1.11328C6.51042 0.371094 8.18452 0 10 0C11.8155 0 13.4896 0.371094 15.0223 1.11328C16.5551 1.85547 17.7679 2.86675 18.6607 4.14714C19.5536 5.42752 20 6.82292 20 8.33333Z" fill="#FF6356"/>
</g>
</g>
<defs>
<clipPath id="clip0_62_26">
<rect width="20" height="20" fill="white"/>
</clipPath>
</defs>
</svg>
