<svg width="50" height="50" viewBox="0 0 50 50" fill="none" xmlns="http://www.w3.org/2000/svg">
<path d="M15.149 40.9395C13.848 42.7309 11.7672 43.7911 9.55178 43.7911C7.33627 43.7911 5.2555 42.7309 3.95452 40.9395C1.72798 42.4503 -1.80649 48.441 2.80594 49.0771H16.2975C20.9538 48.5205 17.3667 42.4419 15.149 40.9395Z" fill="white"/>
<path d="M35.8164 29.0918C36.0373 35.9041 45.9067 35.895 46.1272 29.0918C45.9063 22.2796 36.0369 22.2711 35.8164 29.0918Z" fill="white"/>
<path d="M49.9525 38.5891C49.5174 36.4267 48.3158 34.4939 46.5685 33.1465C45.2719 34.9445 43.1889 36.0114 40.9713 36.0114C38.7536 36.0114 36.6706 34.9445 35.374 33.1465C33.6069 34.4718 30.8591 38.2711 32.4583 40.4535C32.8913 40.9836 33.5407 41.2929 34.2254 41.2929H47.717C48.4017 41.3083 49.0534 41.0101 49.4885 40.4822C49.9259 39.9543 50.0961 39.2584 49.9525 38.5891Z" fill="white"/>
<path d="M9.55766 42.0354C16.3699 41.8234 16.3608 31.9451 9.55766 31.7246C2.74544 31.9102 2.73695 41.8234 9.55766 42.0354Z" fill="white"/>
<path d="M34.1019 22.6943C34.5702 22.6943 35.0208 22.5087 35.3521 22.1774C35.6835 21.8461 35.869 21.3955 35.869 20.9272V17.8348C35.8712 17.6426 35.9529 17.4615 36.0965 17.3356C36.2401 17.2096 36.4301 17.15 36.62 17.1721C38.4357 17.1677 39.9068 15.6922 39.9068 13.8765V3.88348C39.9024 2.07001 38.4335 0.60109 36.62 0.59668H18.5691C16.7534 0.59668 15.2778 2.06781 15.2734 3.88348V13.8765C15.2734 15.6966 16.749 17.1721 18.5691 17.1721H27.0336C27.842 17.1699 28.6107 17.5101 29.1541 18.1086L32.8738 22.1376C33.1941 22.4778 33.6359 22.6788 34.1019 22.6943ZM19.7972 5.57974H30.073C30.5611 5.57974 30.9565 5.97513 30.9565 6.46329C30.9565 6.95145 30.5611 7.34684 30.073 7.34684H19.7972C19.3091 7.34684 18.9137 6.95145 18.9137 6.46329C18.9137 5.97513 19.3091 5.57974 19.7972 5.57974ZM19.7972 12.189C19.3091 12.189 18.9137 11.7936 18.9137 11.3054C18.9137 10.8173 19.3091 10.4219 19.7972 10.4219H35.3567C35.8449 10.4219 36.2403 10.8173 36.2403 11.3054C36.2403 11.7936 35.8449 12.189 35.3567 12.189H19.7972Z" fill="white"/>
<path d="M18.5671 18.9392C15.7729 18.9348 13.5088 16.6707 13.5044 13.8765V8.5752H4.81024C3.00118 8.57961 1.53226 10.0441 1.52344 11.8532V21.8552C1.52565 22.7498 1.89011 23.6047 2.53512 24.2253C3.1801 24.8438 4.04821 25.1752 4.94278 25.142C5.30725 25.1464 5.60105 25.4402 5.60546 25.8047V28.9324C5.6408 29.615 6.06711 30.218 6.70106 30.4765C7.33501 30.7349 8.06169 30.6068 8.56536 30.1429L8.64488 30.0546L12.2851 26.1051C12.8373 25.5286 13.606 25.2083 14.4056 25.2215H22.8345C23.7247 25.226 24.5773 24.8725 25.2024 24.2386C25.8254 23.6046 26.1677 22.7454 26.1478 21.8552V18.9395L18.5671 18.9392Z" fill="white"/>
</svg>
