<svg width="44" height="44" viewBox="0 0 44 44" fill="none" xmlns="http://www.w3.org/2000/svg">
<path d="M0 44V4.4C0 3.19 0.4312 2.15453 1.2936 1.2936C2.156 0.432667 3.19147 0.00146667 4.4 0H39.6C40.81 0 41.8462 0.4312 42.7086 1.2936C43.571 2.156 44.0015 3.19147 44 4.4V30.8C44 32.01 43.5695 33.0462 42.7086 33.9086C41.8477 34.771 40.8115 35.2015 39.6 35.2H8.8L0 44ZM22 28.6C22.6233 28.6 23.1462 28.3888 23.5686 27.9664C23.991 27.544 24.2015 27.0219 24.2 26.4C24.1985 25.7781 23.9873 25.256 23.5664 24.8336C23.1455 24.4112 22.6233 24.2 22 24.2C21.3767 24.2 20.8545 24.4112 20.4336 24.8336C20.0127 25.256 19.8015 25.7781 19.8 26.4C19.7985 27.0219 20.0097 27.5447 20.4336 27.9686C20.8575 28.3925 21.3796 28.6029 22 28.6ZM19.8 19.8H24.2V6.6H19.8V19.8Z" fill="white"/>
</svg>
