<svg width="19" height="13" viewBox="0 0 19 13" fill="none" xmlns="http://www.w3.org/2000/svg">
<path d="M17.6429 0H1.35714C0.997206 0 0.652012 0.136964 0.397498 0.380761C0.142984 0.624558 0 0.955218 0 1.3V11.7C0 12.0448 0.142984 12.3754 0.397498 12.6192C0.652012 12.863 0.997206 13 1.35714 13H17.6429C18.0028 13 18.348 12.863 18.6025 12.6192C18.857 12.3754 19 12.0448 19 11.7V1.3C19 0.955218 18.857 0.624558 18.6025 0.380761C18.348 0.136964 18.0028 0 17.6429 0ZM16.15 1.3L9.5 5.707L2.85 1.3H16.15ZM1.35714 11.7V1.8915L9.11321 7.033C9.2268 7.10848 9.36175 7.14893 9.5 7.14893C9.63825 7.14893 9.7732 7.10848 9.88679 7.033L17.6429 1.8915V11.7H1.35714Z" fill="white"/>
</svg>
