<svg width="18" height="19" viewBox="0 0 18 19" fill="none" xmlns="http://www.w3.org/2000/svg">
<path fill-rule="evenodd" clip-rule="evenodd" d="M3.42286 1.71258C4.77956 1.20385 6.61069 0.902344 8.60159 0.902344C10.5925 0.902344 12.4236 1.20385 13.7803 1.71258C14.4563 1.96606 15.048 2.28339 15.4822 2.66834C15.9156 3.05263 16.2488 3.55907 16.2488 4.1714C16.2488 4.78372 15.9156 5.29016 15.4822 5.67446C15.048 6.05941 14.4563 6.37673 13.7803 6.63021C12.4236 7.13894 10.5925 7.44045 8.60159 7.44045C6.61069 7.44045 4.77956 7.13894 3.42286 6.63021C2.74689 6.37673 2.15523 6.05941 1.72102 5.67446C1.28756 5.29016 0.954346 4.78372 0.954346 4.1714C0.954346 3.55907 1.28756 3.05263 1.72102 2.66834C2.15523 2.28339 2.74689 1.96606 3.42286 1.71258ZM2.573 3.62932C2.29746 3.8736 2.23862 4.05825 2.23862 4.1714C2.23862 4.28454 2.29746 4.46919 2.573 4.71347C2.84779 4.95709 3.28205 5.20582 3.87378 5.4277C5.0525 5.86969 6.72392 6.15618 8.60159 6.15618C10.4793 6.15618 12.1507 5.86969 13.3294 5.4277C13.9211 5.20582 14.3554 4.95709 14.6302 4.71347C14.9057 4.46919 14.9646 4.28454 14.9646 4.1714C14.9646 4.05825 14.9057 3.8736 14.6302 3.62932C14.3554 3.3857 13.9211 3.13698 13.3294 2.91509C12.1507 2.4731 10.4793 2.18661 8.60159 2.18661C6.72392 2.18661 5.0525 2.4731 3.87378 2.91509C3.28205 3.13698 2.84779 3.3857 2.573 3.62932Z" fill="#000"/>
<path fill-rule="evenodd" clip-rule="evenodd" d="M1.59648 3.5293C1.95112 3.5293 2.23862 3.81679 2.23862 4.17143V9.42527C2.23862 9.53841 2.29746 9.72306 2.573 9.96734C2.84779 10.211 3.28205 10.4597 3.87378 10.6816C5.0525 11.1236 6.72392 11.41 8.60159 11.41C9.3264 11.41 10.022 11.3677 10.673 11.2886C11.025 11.2459 11.3451 11.4966 11.3879 11.8487C11.4306 12.2007 11.1799 12.5208 10.8278 12.5635C10.1233 12.6491 9.37588 12.6943 8.60159 12.6943C6.61069 12.6943 4.77956 12.3928 3.42286 11.8841C2.74689 11.6306 2.15523 11.3133 1.72102 10.9283C1.28756 10.544 0.954346 10.0376 0.954346 9.42527V4.17143C0.954346 3.81679 1.24184 3.5293 1.59648 3.5293ZM15.6067 3.5293C15.9613 3.5293 16.2488 3.81679 16.2488 4.17143V9.42527C16.2488 9.77991 15.9613 10.0674 15.6067 10.0674C15.2521 10.0674 14.9646 9.77991 14.9646 9.42527V4.17143C14.9646 3.81679 15.2521 3.5293 15.6067 3.5293Z" fill="#000"/>
<path fill-rule="evenodd" clip-rule="evenodd" d="M1.59648 8.7832C1.95112 8.7832 2.23862 9.0707 2.23862 9.42534V14.6792C2.23862 14.7923 2.29746 14.977 2.573 15.2212C2.84779 15.4649 3.28205 15.7136 3.87378 15.9355C5.0525 16.3775 6.72392 16.664 8.60159 16.664C8.74632 16.664 8.89011 16.6623 9.03297 16.6589C9.38752 16.6505 9.68173 16.9311 9.69012 17.2856C9.69852 17.6402 9.4179 17.9344 9.06336 17.9428C8.91026 17.9464 8.75634 17.9482 8.60159 17.9482C6.6107 17.9482 4.77956 17.6467 3.42286 17.138C2.74689 16.8845 2.15523 16.5672 1.72102 16.1822C1.28756 15.7979 0.954346 15.2915 0.954346 14.6792V9.42534C0.954346 9.0707 1.24184 8.7832 1.59648 8.7832ZM14.7311 12.2858C15.0857 12.2858 15.3732 12.5733 15.3732 12.9279V16.6315L16.9039 15.1008C17.1547 14.85 17.5613 14.85 17.812 15.1008C18.0628 15.3515 18.0628 15.7581 17.812 16.0089L15.1851 18.6358C14.9344 18.8866 14.5278 18.8866 14.277 18.6358L11.6501 16.0089C11.3993 15.7581 11.3993 15.3515 11.6501 15.1008C11.9009 14.85 12.3074 14.85 12.5582 15.1008L14.0889 16.6315V12.9279C14.0889 12.5733 14.3764 12.2858 14.7311 12.2858Z" fill="#000"/>
</svg>
