<?xml version="1.0" encoding="utf-8"?>
<!-- Generator: Adobe Illustrator 16.0.0, SVG Export Plug-In . SVG Version: 6.00 Build 0)  -->
<!DOCTYPE svg PUBLIC "-//W3C//DTD SVG 1.1//EN" "http://www.w3.org/Graphics/SVG/1.1/DTD/svg11.dtd">
<svg version="1.1" id="Layer_1" xmlns="http://www.w3.org/2000/svg" xmlns:xlink="http://www.w3.org/1999/xlink" x="0px" y="0px"
	 width="20.688px" height="28px" viewBox="3.125 0 20.688 28" enable-background="new 3.125 0 20.688 28" xml:space="preserve">
<g transform="translate(0,-952.36218)">
	<path fill="#010101" d="M15.921,957.708c-1.637-1.66-4.355-1.859-6.056-0.182c-0.838,0.826-1.4,1.946-1.405,3.219l-0.044,11.293
		c-0.021,0.316,0.263,0.622,0.581,0.623c0.318,0.001,0.604-0.301,0.585-0.619l0.048-11.288c0.003-0.941,0.404-1.757,1.054-2.397
		c1.223-1.205,3.186-1.066,4.405,0.171c0.562,0.572,0.896,1.381,0.891,2.282L15.9,973.161c-0.001,0.534-0.193,1.019-0.507,1.329
		c-0.403,0.398-0.915,0.649-1.49,0.646c-1.11-0.009-1.973-0.884-1.964-1.993c0.031-4.084,0.061-8.164,0.093-12.246
		c0.046-0.514,0.363-0.845,0.752-0.868c0.466,0.059,0.769,0.411,0.776,0.763c-0.017,3.714-0.034,7.432-0.051,11.146
		c-0.021,0.315,0.263,0.622,0.581,0.623c0.318,0.002,0.605-0.299,0.584-0.619l0.051-11.146c-0.122-1.183-0.924-2.003-1.92-1.94
		c-1.062,0.01-1.846,0.917-1.937,1.942c-0.034,4.292-0.069,8.66-0.098,12.337c-0.015,1.736,1.389,3.161,3.125,3.175
		c0.931,0.003,1.739-0.419,2.316-0.988c0.57-0.562,0.85-1.353,0.857-2.157l0.076-12.351C17.152,959.62,16.707,958.51,15.921,957.708
		L15.921,957.708z"/>
</g>
</svg>
