<svg width="17" height="17" viewBox="0 0 17 17" fill="none" xmlns="http://www.w3.org/2000/svg">
<path d="M8.5 0C6.81886 0 5.17547 0.498516 3.77766 1.43251C2.37984 2.3665 1.29037 3.69402 0.647027 5.24719C0.00368277 6.80036 -0.164645 8.50943 0.163329 10.1583C0.491303 11.8071 1.30085 13.3217 2.4896 14.5104C3.67834 15.6992 5.1929 16.5087 6.84173 16.8367C8.49057 17.1646 10.1996 16.9963 11.7528 16.353C13.306 15.7096 14.6335 14.6202 15.5675 13.2223C16.5015 11.8245 17 10.1811 17 8.5C16.9974 6.24647 16.101 4.086 14.5075 2.49251C12.914 0.89903 10.7535 0.00264654 8.5 0ZM15.2975 5.33333H11.9492C11.5848 3.82199 10.9202 2.39935 9.995 1.15C11.1436 1.38604 12.2212 1.8872 13.1418 2.61351C14.0624 3.33981 14.8006 4.27118 15.2975 5.33333ZM16 8.5C16.0006 9.23397 15.893 9.96403 15.6808 10.6667H12.155C12.3928 9.23201 12.3928 7.76799 12.155 6.33333H15.6808C15.893 7.03597 16.0006 7.76602 16 8.5ZM8.5 16C8.47922 16.0001 8.45866 15.9958 8.43969 15.9873C8.42072 15.9788 8.40378 15.9664 8.39 15.9508C7.31667 14.795 6.52834 13.3108 6.08334 11.6667H10.9167C10.4717 13.3108 9.68334 14.795 8.61 15.9508C8.59623 15.9664 8.57929 15.9788 8.56032 15.9873C8.54135 15.9958 8.52078 16.0001 8.5 16ZM5.85917 10.6667C5.60251 9.23362 5.60251 7.76637 5.85917 6.33333H11.1408C11.3975 7.76637 11.3975 9.23362 11.1408 10.6667H5.85917ZM1 8.5C0.999442 7.76602 1.10699 7.03597 1.31917 6.33333H4.845C4.6072 7.76799 4.6072 9.23201 4.845 10.6667H1.31917C1.10699 9.96403 0.999442 9.23397 1 8.5ZM8.5 1C8.52078 0.999885 8.54135 1.00421 8.56032 1.01269C8.57929 1.02117 8.59623 1.03361 8.61 1.04917C9.68334 2.205 10.4717 3.68917 10.9167 5.33333H6.08334C6.52834 3.68917 7.31667 2.205 8.39 1.04917C8.40378 1.03361 8.42072 1.02117 8.43969 1.01269C8.45866 1.00421 8.47922 0.999885 8.5 1ZM7.005 1.15C6.07977 2.39935 5.41521 3.82199 5.05084 5.33333H1.7025C2.19938 4.27118 2.93756 3.33981 3.85817 2.61351C4.77879 1.8872 5.85638 1.38604 7.005 1.15ZM1.7025 11.6667H5.05084C5.41521 13.178 6.07977 14.6006 7.005 15.85C5.85638 15.614 4.77879 15.1128 3.85817 14.3865C2.93756 13.6602 2.19938 12.7288 1.7025 11.6667ZM9.995 15.85C10.9202 14.6006 11.5848 13.178 11.9492 11.6667H15.2975C14.8006 12.7288 14.0624 13.6602 13.1418 14.3865C12.2212 15.1128 11.1436 15.614 9.995 15.85Z" fill="black"/>
</svg>
