<svg width="19" height="15" viewBox="0 0 19 15" fill="none" xmlns="http://www.w3.org/2000/svg">
<path d="M9.35318 4.73684L12.0909 7.23158V7.10526C12.0909 6.47712 11.8179 5.8747 11.3321 5.43054C10.8462 4.98637 10.1872 4.73684 9.5 4.73684H9.35318ZM5.63955 5.36842L6.97818 6.59211C6.935 6.7579 6.90909 6.92368 6.90909 7.10526C6.90909 7.73341 7.18206 8.33582 7.66795 8.77999C8.15384 9.22416 8.81285 9.47368 9.5 9.47368C9.69 9.47368 9.88 9.45 10.0614 9.41053L11.4 10.6342C10.8214 10.8947 10.1823 11.0526 9.5 11.0526C8.35475 11.0526 7.2564 10.6367 6.44658 9.89647C5.63677 9.1562 5.18182 8.15217 5.18182 7.10526C5.18182 6.48158 5.35455 5.89737 5.63955 5.36842ZM0.863636 1.00263L2.83273 2.80263L3.22136 3.15789C1.79636 4.18421 0.673636 5.52632 0 7.10526C1.49409 10.5711 5.18182 13.0263 9.5 13.0263C10.8386 13.0263 12.1168 12.7895 13.2827 12.3632L13.6541 12.6947L16.1759 15L17.2727 13.9974L1.96045 0M9.5 3.15789C10.6453 3.15789 11.7436 3.57378 12.5534 4.31405C13.3632 5.05433 13.8182 6.05836 13.8182 7.10526C13.8182 7.61053 13.7059 8.1 13.5073 8.54211L16.0377 10.8553C17.3332 9.86842 18.3695 8.57368 19 7.10526C17.5059 3.63947 13.8182 1.18421 9.5 1.18421C8.29091 1.18421 7.13364 1.38158 6.04545 1.73684L7.91955 3.43421C8.41182 3.26053 8.93864 3.15789 9.5 3.15789Z" fill="white"/>
</svg>
