<svg width="18" height="20" viewBox="0 0 18 20" fill="none" xmlns="http://www.w3.org/2000/svg">
<path fill-rule="evenodd" clip-rule="evenodd" d="M3.09194 1.64895C4.47943 1.12866 6.35214 0.820312 8.38823 0.820312C10.4243 0.820312 12.297 1.12866 13.6845 1.64895C14.3758 1.90818 14.9809 2.23271 15.425 2.6264C15.8683 3.01941 16.2091 3.53735 16.2091 4.16358C16.2091 4.7898 15.8683 5.30774 15.425 5.70076C14.9809 6.09445 14.3758 6.41898 13.6845 6.67821C12.297 7.19849 10.4243 7.50684 8.38823 7.50684C6.35214 7.50684 4.47943 7.19849 3.09194 6.67821C2.40062 6.41898 1.79553 6.09445 1.35146 5.70076C0.908166 5.30774 0.567383 4.7898 0.567383 4.16358C0.567383 3.53735 0.908166 3.01941 1.35146 2.6264C1.79553 2.23271 2.40062 1.90818 3.09194 1.64895ZM2.22278 3.60919C1.94099 3.85902 1.88081 4.04786 1.88081 4.16358C1.88081 4.27929 1.94099 4.46813 2.22278 4.71796C2.50381 4.96711 2.94793 5.22148 3.55309 5.4484C4.75857 5.90043 6.46793 6.19342 8.38823 6.19342C10.3085 6.19342 12.0179 5.90043 13.2234 5.4484C13.8285 5.22148 14.2727 4.96711 14.5537 4.71796C14.8355 4.46813 14.8957 4.27929 14.8957 4.16358C14.8957 4.04786 14.8355 3.85902 14.5537 3.60919C14.2727 3.36004 13.8285 3.10567 13.2234 2.87875C12.0179 2.42673 10.3085 2.13374 8.38823 2.13374C6.46793 2.13374 4.75857 2.42673 3.55309 2.87875C2.94793 3.10567 2.50381 3.36004 2.22278 3.60919Z" fill="#000"/>
<path fill-rule="evenodd" clip-rule="evenodd" d="M1.2241 3.13867C1.58679 3.13867 1.88081 3.43269 1.88081 3.79538V9.16849C1.88081 9.2842 1.94099 9.47305 2.22278 9.72287C2.50381 9.97202 2.94793 10.2264 3.55309 10.4533C4.75857 10.9053 6.46793 11.1983 8.38823 11.1983C9.1295 11.1983 9.84093 11.155 10.5067 11.0742C10.8667 11.0304 11.194 11.2869 11.2378 11.6469C11.2815 12.007 11.0251 12.3343 10.665 12.378C9.94447 12.4655 9.18009 12.5118 8.38823 12.5118C6.35214 12.5118 4.47943 12.2034 3.09194 11.6831C2.40062 11.4239 1.79553 11.0994 1.35146 10.7057C0.908166 10.3127 0.567383 9.79471 0.567383 9.16849V3.79538C0.567383 3.43269 0.861403 3.13867 1.2241 3.13867ZM15.5524 3.13867C15.9151 3.13867 16.2091 3.43269 16.2091 3.79538V9.16849C16.2091 9.53118 15.9151 9.8252 15.5524 9.8252C15.1897 9.8252 14.8957 9.53118 14.8957 9.16849V3.79538C14.8957 3.43269 15.1897 3.13867 15.5524 3.13867Z" fill="#000"/>
<path fill-rule="evenodd" clip-rule="evenodd" d="M1.2241 8.77539C1.58679 8.77539 1.88081 9.06941 1.88081 9.4321V14.8052C1.88081 14.9209 1.94099 15.1098 2.22278 15.3596C2.50381 15.6087 2.94793 15.8631 3.55309 16.09C4.75857 16.5421 6.46793 16.835 8.38823 16.835C8.53625 16.835 8.6833 16.8333 8.82941 16.8299C9.192 16.8213 9.4929 17.1083 9.50148 17.4708C9.51006 17.8334 9.22308 18.1343 8.86049 18.1429C8.70391 18.1466 8.54649 18.1485 8.38823 18.1485C6.35214 18.1485 4.47944 17.8401 3.09194 17.3198C2.40062 17.0606 1.79553 16.7361 1.35147 16.3424C0.908166 15.9494 0.567383 15.4314 0.567383 14.8052V9.4321C0.567383 9.06941 0.861403 8.77539 1.2241 8.77539ZM14.1925 12.5498C14.449 12.2933 14.8648 12.2933 15.1212 12.5498L17.8078 15.2364C18.0642 15.4928 18.0642 15.9086 17.8078 16.1651C17.5513 16.4216 17.1355 16.4216 16.879 16.1651L15.3136 14.5996V18.3873C15.3136 18.75 15.0195 19.044 14.6569 19.044C14.2942 19.044 14.0001 18.75 14.0001 18.3873V14.5996L12.4347 16.1651C12.1782 16.4216 11.7624 16.4216 11.5059 16.1651C11.2495 15.9086 11.2495 15.4928 11.5059 15.2364L14.1925 12.5498Z" fill="#000"/>
</svg>
