<svg width="14" height="17" viewBox="0 0 14 17" fill="none" xmlns="http://www.w3.org/2000/svg">
<path d="M7 0C4.58763 0 2.625 1.90655 2.625 4.25V6.8H1.75C1.28587 6.8 0.840752 6.97911 0.512563 7.29792C0.184374 7.61673 0 8.04913 0 8.5V15.3C0 15.7509 0.184374 16.1833 0.512563 16.5021C0.840752 16.8209 1.28587 17 1.75 17H12.25C12.7141 17 13.1592 16.8209 13.4874 16.5021C13.8156 16.1833 14 15.7509 14 15.3V8.5C14 8.04913 13.8156 7.61673 13.4874 7.29792C13.1592 6.97911 12.7141 6.8 12.25 6.8H11.375V4.25C11.375 1.90655 9.41237 0 7 0ZM4.375 4.25C4.375 2.8441 5.55275 1.7 7 1.7C8.44725 1.7 9.625 2.8441 9.625 4.25V6.8H4.375V4.25ZM7.875 13.3645V15.3H6.125V13.3645C5.81909 13.1944 5.57345 12.9381 5.42048 12.6296C5.2675 12.3211 5.21437 11.9748 5.2681 11.6363C5.32182 11.2979 5.47988 10.9832 5.72142 10.7337C5.96296 10.4843 6.27665 10.3119 6.62113 10.2391C6.87699 10.1841 7.14229 10.1857 7.39746 10.2436C7.65264 10.3015 7.89118 10.4143 8.09549 10.5737C8.2998 10.7331 8.46467 10.935 8.57795 11.1646C8.69123 11.3941 8.75002 11.6454 8.75 11.9C8.7495 12.1973 8.66835 12.4892 8.51474 12.7463C8.36112 13.0034 8.14047 13.2167 7.875 13.3645Z" fill="white"/>
</svg>
