<svg width="408" height="59" viewBox="0 0 408 59" fill="none" xmlns="http://www.w3.org/2000/svg">
<path d="M197.873 33.7148H204.771C206.253 33.7148 207.516 33.938 208.561 34.3844C209.606 34.8307 210.405 35.4913 210.958 36.3661C211.521 37.232 211.802 38.3032 211.802 39.5798C211.802 40.5528 211.624 41.4097 211.266 42.1507C210.909 42.8916 210.405 43.5165 209.753 44.0253C209.101 44.5252 208.324 44.9135 207.422 45.1902L206.405 45.6857H200.203L200.177 43.021H204.824C205.628 43.021 206.297 42.8782 206.833 42.5925C207.369 42.3069 207.771 41.9186 208.039 41.4276C208.315 40.9277 208.454 40.3653 208.454 39.7404C208.454 39.062 208.32 38.4728 208.052 37.9729C207.793 37.4641 207.391 37.0758 206.847 36.808C206.302 36.5312 205.61 36.3929 204.771 36.3929H201.235V53.211H197.873V33.7148ZM209.003 53.211L204.422 44.4538L207.945 44.4404L212.592 53.0369V53.211H209.003Z" fill="#1CABE2"/>
<path d="M195.127 50.5463V53.211H184.774V50.5463H195.127ZM185.725 33.7148V53.211H182.363V33.7148H185.725ZM193.774 41.8561V44.4806H184.774V41.8561H193.774ZM195.06 33.7148V36.3929H184.774V33.7148H195.06Z" fill="#1CABE2"/>
<path d="M170.62 33.7148V53.211H167.258V33.7148H170.62ZM178.575 42.2444V44.909H169.762V42.2444H178.575ZM179.687 33.7148V36.3929H169.762V33.7148H179.687Z" fill="#1CABE2"/>
<path d="M160.909 48.1899C160.909 47.7882 160.846 47.4311 160.721 47.1187C160.605 46.8062 160.395 46.5206 160.092 46.2617C159.788 46.0028 159.36 45.7529 158.806 45.5118C158.261 45.2619 157.565 45.0075 156.717 44.7486C155.788 44.4629 154.931 44.146 154.145 43.7979C153.368 43.4408 152.69 43.0302 152.109 42.566C151.529 42.0929 151.078 41.5528 150.757 40.9458C150.435 40.3298 150.275 39.6201 150.275 38.8167C150.275 38.0223 150.44 37.2992 150.77 36.6475C151.109 35.9959 151.587 35.4335 152.203 34.9604C152.828 34.4783 153.565 34.1078 154.413 33.849C155.261 33.5812 156.199 33.4473 157.226 33.4473C158.672 33.4473 159.918 33.7151 160.962 34.2507C162.016 34.7863 162.824 35.5049 163.387 36.4065C163.958 37.3081 164.244 38.3034 164.244 39.3925H160.909C160.909 38.7498 160.77 38.1829 160.494 37.692C160.226 37.1921 159.815 36.7993 159.261 36.5136C158.717 36.228 158.025 36.0851 157.186 36.0851C156.391 36.0851 155.73 36.2056 155.203 36.4467C154.677 36.6877 154.284 37.0135 154.025 37.4242C153.766 37.8348 153.636 38.299 153.636 38.8167C153.636 39.1827 153.721 39.5175 153.891 39.821C154.06 40.1156 154.319 40.3923 154.668 40.6512C155.016 40.9011 155.453 41.1377 155.98 41.3609C156.507 41.584 157.127 41.7983 157.842 42.0036C158.922 42.325 159.864 42.682 160.668 43.0748C161.471 43.4587 162.141 43.8961 162.677 44.3871C163.213 44.878 163.614 45.436 163.882 46.0608C164.15 46.6768 164.284 47.3775 164.284 48.1631C164.284 48.9844 164.119 49.7253 163.788 50.3859C163.458 51.0375 162.985 51.5954 162.369 52.0596C161.762 52.5149 161.029 52.8675 160.172 53.1175C159.324 53.3585 158.378 53.479 157.333 53.479C156.395 53.479 155.471 53.354 154.56 53.1041C153.659 52.8541 152.837 52.4747 152.096 51.9659C151.355 51.4482 150.766 50.8054 150.328 50.0377C149.891 49.2611 149.672 48.355 149.672 47.3195H153.034C153.034 47.9533 153.141 48.4934 153.355 48.9397C153.578 49.3861 153.886 49.7521 154.279 50.0377C154.672 50.3145 155.127 50.5198 155.645 50.6537C156.172 50.7876 156.735 50.8545 157.333 50.8545C158.119 50.8545 158.775 50.7429 159.302 50.5198C159.837 50.2966 160.239 49.9842 160.507 49.5825C160.775 49.1807 160.909 48.7166 160.909 48.1899Z" fill="#1CABE2"/>
<path d="M146.645 33.7148V53.211H143.283L134.538 39.245V53.211H131.176V33.7148H134.538L143.31 47.7076V33.7148H146.645Z" fill="#1CABE2"/>
<path d="M120.579 36.3125L114.753 53.211H111.23L118.57 33.7148H120.82L120.579 36.3125ZM125.454 53.211L119.615 36.3125L119.36 33.7148H121.624L128.99 53.211H125.454ZM125.173 45.9803V48.6449H114.565V45.9803H125.173Z" fill="#1CABE2"/>
<path d="M95.7109 33.7148H102.608C104.091 33.7148 105.354 33.938 106.399 34.3844C107.443 34.8307 108.243 35.4913 108.796 36.3661C109.359 37.232 109.64 38.3032 109.64 39.5798C109.64 40.5528 109.461 41.4097 109.104 42.1507C108.747 42.8916 108.243 43.5165 107.591 44.0253C106.939 44.5252 106.162 44.9135 105.26 45.1902L104.242 45.6857H98.0414L98.0146 43.021H102.662C103.466 43.021 104.135 42.8782 104.671 42.5925C105.207 42.3069 105.609 41.9186 105.876 41.4276C106.153 40.9277 106.292 40.3653 106.292 39.7404C106.292 39.062 106.158 38.4728 105.89 37.9729C105.631 37.4641 105.229 37.0758 104.684 36.808C104.14 36.5312 103.448 36.3929 102.608 36.3929H99.0727V53.211H95.7109V33.7148ZM106.841 53.211L102.26 44.4538L105.783 44.4404L110.43 53.0369V53.211H106.841Z" fill="#1CABE2"/>
<path d="M87.0154 33.7148V53.211H83.6805V33.7148H87.0154ZM93.1361 33.7148V36.3929H77.6133V33.7148H93.1361Z" fill="#1CABE2"/>
<path d="M66.2164 41.8561V44.5207H55.8634V41.8561H66.2164ZM56.6938 33.7148V53.211H53.332V33.7148H56.6938ZM68.8013 33.7148V53.211H65.453V33.7148H68.8013Z" fill="#1CABE2"/>
<path d="M46.9831 48.1899C46.9831 47.7882 46.9206 47.4311 46.7956 47.1187C46.6795 46.8062 46.4697 46.5206 46.1661 46.2617C45.8625 46.0028 45.4339 45.7529 44.8803 45.5118C44.3357 45.2619 43.6392 45.0075 42.791 44.7486C41.8624 44.4629 41.0052 44.146 40.2195 43.7979C39.4427 43.4408 38.7641 43.0302 38.1837 42.566C37.6033 42.0929 37.1524 41.5528 36.831 40.9458C36.5095 40.3298 36.3488 39.6201 36.3488 38.8167C36.3488 38.0223 36.514 37.2992 36.8443 36.6475C37.1836 35.9959 37.6613 35.4335 38.2774 34.9604C38.9025 34.4783 39.6391 34.1078 40.4873 33.849C41.3356 33.5812 42.2731 33.4473 43.2999 33.4473C44.7464 33.4473 45.992 33.7151 47.0367 34.2507C48.0903 34.7863 48.8983 35.5049 49.4609 36.4065C50.0323 37.3081 50.318 38.3034 50.318 39.3925H46.9831C46.9831 38.7498 46.8447 38.1829 46.5679 37.692C46.3 37.1921 45.8893 36.7993 45.3357 36.5136C44.7911 36.228 44.0991 36.0851 43.2597 36.0851C42.4651 36.0851 41.8043 36.2056 41.2775 36.4467C40.7507 36.6877 40.3579 37.0135 40.0989 37.4242C39.84 37.8348 39.7105 38.299 39.7105 38.8167C39.7105 39.1827 39.7953 39.5175 39.965 39.821C40.1346 40.1156 40.3936 40.3923 40.7418 40.6512C41.09 40.9011 41.5275 41.1377 42.0543 41.3609C42.5812 41.584 43.2017 41.7983 43.916 42.0036C44.9964 42.325 45.9384 42.682 46.742 43.0748C47.5456 43.4587 48.2153 43.8961 48.751 44.3871C49.2867 44.878 49.6885 45.436 49.9564 46.0608C50.2243 46.6768 50.3582 47.3775 50.3582 48.1631C50.3582 48.9844 50.193 49.7253 49.8627 50.3859C49.5323 51.0375 49.0591 51.5954 48.443 52.0596C47.8358 52.5149 47.1036 52.8675 46.2465 53.1175C45.3982 53.3585 44.4518 53.479 43.4071 53.479C42.4695 53.479 41.5454 53.354 40.6347 53.1041C39.7328 52.8541 38.9114 52.4747 38.1703 51.9659C37.4292 51.4482 36.8399 50.8054 36.4024 50.0377C35.9649 49.2611 35.7461 48.355 35.7461 47.3195H39.1078C39.1078 47.9533 39.215 48.4934 39.4293 48.9397C39.6525 49.3861 39.9605 49.7521 40.3534 50.0377C40.7463 50.3145 41.2016 50.5198 41.7195 50.6537C42.2463 50.7876 42.8088 50.8545 43.4071 50.8545C44.1928 50.8545 44.8491 50.7429 45.3759 50.5198C45.9116 50.2966 46.3134 49.9842 46.5813 49.5825C46.8492 49.1807 46.9831 48.7166 46.9831 48.1899Z" fill="#1CABE2"/>
<path d="M26.1317 36.3125L20.3056 53.211H16.7832L24.1227 33.7148H26.3728L26.1317 36.3125ZM31.0069 53.211L25.1674 36.3125L24.913 33.7148H27.1764L34.5427 53.211H31.0069ZM30.7257 45.9803V48.6449H20.1181V45.9803H30.7257Z" fill="#1CABE2"/>
<path d="M12.1344 46.8642H15.4827C15.3755 48.1408 15.0184 49.2789 14.4112 50.2787C13.8041 51.2696 12.9513 52.0507 11.8531 52.622C10.7548 53.1933 9.41997 53.479 7.84849 53.479C6.64309 53.479 5.55823 53.2648 4.59391 52.8363C3.62959 52.3989 2.80367 51.7829 2.11615 50.9884C1.42862 50.185 0.901817 49.2165 0.535733 48.0828C0.178578 46.949 0 45.6814 0 44.2799V42.6597C0 41.2582 0.183042 39.9906 0.549126 38.8569C0.924139 37.7232 1.45987 36.7546 2.15633 35.9512C2.85278 35.1389 3.68763 34.5185 4.66088 34.09C5.64305 33.6615 6.74577 33.4473 7.96903 33.4473C9.52265 33.4473 10.8352 33.7329 11.9067 34.3042C12.9781 34.8756 13.8085 35.6656 14.3978 36.6743C14.9961 37.683 15.3621 38.8391 15.4961 40.1424H12.1477C12.0585 39.3032 11.862 38.5846 11.5584 37.9865C11.2638 37.3884 10.8263 36.9332 10.2459 36.6207C9.66552 36.2994 8.90656 36.1387 7.96903 36.1387C7.20114 36.1387 6.53148 36.2815 5.96003 36.5672C5.38858 36.8528 4.91089 37.2724 4.52694 37.8259C4.143 38.3793 3.85281 39.0622 3.65638 39.8746C3.46887 40.678 3.37512 41.5974 3.37512 42.6329V44.2799C3.37512 45.2619 3.45994 46.1546 3.62959 46.958C3.80817 47.7525 4.07604 48.4354 4.43319 49.0067C4.79927 49.578 5.26358 50.0199 5.8261 50.3323C6.38862 50.6447 7.06275 50.801 7.84849 50.801C8.80388 50.801 9.57623 50.6492 10.1655 50.3457C10.7638 50.0422 11.2147 49.6003 11.5183 49.0201C11.8308 48.4309 12.0361 47.7123 12.1344 46.8642Z" fill="#1CABE2"/>
<path d="M199.87 4.9209V24.417H196.508L187.762 10.451V24.417H184.4V4.9209H187.762L196.535 18.9137V4.9209H199.87Z" fill="#1CABE2"/>
<path d="M173.804 7.5186L167.978 24.417H164.455L171.795 4.9209H174.045L173.804 7.5186ZM178.679 24.417L172.839 7.5186L172.585 4.9209H174.848L182.215 24.417H178.679ZM178.398 17.1863V19.851H167.79V17.1863H178.398Z" fill="#1CABE2"/>
<path d="M161.793 4.9209V24.417H158.432V4.9209H161.793Z" fill="#1CABE2"/>
<path d="M140.924 4.9209H147.821C149.304 4.9209 150.567 5.14407 151.612 5.59041C152.656 6.03675 153.456 6.69733 154.009 7.57216C154.572 8.43806 154.853 9.50927 154.853 10.7858C154.853 11.7588 154.674 12.6158 154.317 13.3567C153.96 14.0976 153.456 14.7225 152.804 15.2314C152.152 15.7313 151.375 16.1196 150.473 16.3963L149.455 16.8917H143.254L143.227 14.2271H147.875C148.679 14.2271 149.348 14.0843 149.884 13.7986C150.42 13.5129 150.821 13.1246 151.089 12.6337C151.366 12.1338 151.505 11.5714 151.505 10.9465C151.505 10.2681 151.371 9.67888 151.103 9.17898C150.844 8.67015 150.442 8.28184 149.897 8.01403C149.353 7.7373 148.661 7.59894 147.821 7.59894H144.286V24.417H140.924V4.9209ZM152.054 24.417L147.473 15.6598L150.996 15.6464L155.643 24.243V24.417H152.054Z" fill="#1CABE2"/>
<path d="M130.333 7.5186L124.507 24.417H120.984L128.324 4.9209H130.574L130.333 7.5186ZM135.208 24.417L129.369 7.5186L129.114 4.9209H131.378L138.744 24.417H135.208ZM134.927 17.1863V19.851H124.319V17.1863H134.927Z" fill="#1CABE2"/>
<path d="M115.332 4.9209V24.417H111.997V4.9209H115.332ZM121.453 4.9209V7.59894H105.93V4.9209H121.453Z" fill="#1CABE2"/>
<path d="M103.532 4.9209V24.417H100.17V4.9209H103.532Z" fill="#1CABE2"/>
<path d="M95.938 4.9209V24.417H92.5763L83.8305 10.451V24.417H80.4688V4.9209H83.8305L92.6031 18.9137V4.9209H95.938Z" fill="#1CABE2"/>
<path d="M69.872 7.5186L64.0459 24.417H60.5234L67.863 4.9209H70.1131L69.872 7.5186ZM74.7471 24.417L68.9077 7.5186L68.6532 4.9209H70.9167L78.283 24.417H74.7471ZM74.4659 17.1863V19.851H63.8584V17.1863H74.4659Z" fill="#1CABE2"/>
<path d="M39.4052 4.9209H42.4053L48.0439 19.9581L53.6691 4.9209H56.6692L49.2225 24.417H46.8385L39.4052 4.9209ZM38.0391 4.9209H40.8918L41.3874 17.9362V24.417H38.0391V4.9209ZM55.1825 4.9209H58.0487V24.417H54.687V17.9362L55.1825 4.9209Z" fill="#1CABE2"/>
<path d="M31.0344 4.9209H34.3828V17.9496C34.3828 19.4314 34.0613 20.6722 33.4184 21.672C32.7756 22.6718 31.9005 23.4262 30.7934 23.935C29.6951 24.4349 28.4674 24.6848 27.1102 24.6848C25.7084 24.6848 24.4583 24.4349 23.3601 23.935C22.2618 23.4262 21.3957 22.6718 20.7618 21.672C20.1367 20.6722 19.8242 19.4314 19.8242 17.9496V4.9209H23.1725V17.9496C23.1725 18.8869 23.3333 19.659 23.6547 20.2661C23.9761 20.8642 24.4315 21.306 25.0208 21.5917C25.6101 21.8774 26.3066 22.0202 27.1102 22.0202C27.9138 22.0202 28.6058 21.8774 29.1862 21.5917C29.7755 21.306 30.2308 20.8642 30.5523 20.2661C30.8737 19.659 31.0344 18.8869 31.0344 17.9496V4.9209Z" fill="#1CABE2"/>
<path d="M13.5035 13.0621V15.7268H3.15048V13.0621H13.5035ZM3.98086 4.9209V24.417H0.619141V4.9209H3.98086ZM16.0884 4.9209V24.417H12.7401V4.9209H16.0884Z" fill="#1CABE2"/>
<line x1="229.496" y1="0.5" x2="229.496" y2="58.4597" stroke="#1CABE2" stroke-linecap="round"/>
<path d="M402.102 35.2559H404.664V38.5801H408.001V41.192H404.664V44.5756H402.102V41.192H398.646V38.5801H402.102V35.2559Z" fill="#1CABE2"/>
<path d="M351.454 33.9482C352.109 33.9482 352.824 34.0076 353.479 34.1857C354.135 34.3044 354.79 34.5419 355.386 34.8387C355.982 35.1355 356.518 35.4916 356.995 35.9072C357.471 36.3227 357.829 36.857 358.127 37.4506L356.637 38.1629C356.399 37.7474 356.101 37.3318 355.743 37.035C355.386 36.7382 354.969 36.4414 354.492 36.204C354.016 35.9665 353.539 35.7885 353.003 35.7291C352.466 35.6104 351.93 35.551 351.394 35.551C350.679 35.551 350.024 35.6697 349.309 35.8478C348.653 36.0259 347.998 36.3227 347.521 36.6789C346.985 37.035 346.568 37.5099 346.27 38.0442C345.972 38.5784 345.793 39.2314 345.793 39.9438V48.195C345.793 48.9074 345.972 49.5603 346.27 50.0946C346.568 50.6288 347.044 51.1037 347.521 51.4599C348.057 51.8161 348.653 52.1129 349.309 52.2316C349.964 52.4097 350.679 52.469 351.394 52.469C351.93 52.469 352.466 52.4097 353.003 52.291C353.539 52.1722 354.016 51.9942 354.492 51.8161C354.969 51.5786 355.386 51.3412 355.743 50.985C356.101 50.6882 356.399 50.2727 356.637 49.8571L358.127 50.5695C357.829 51.1631 357.471 51.6973 356.995 52.1129C356.518 52.5284 355.982 52.9439 355.386 53.2407C354.79 53.5376 354.135 53.775 353.479 53.8937C352.824 54.0124 352.109 54.1312 351.394 54.1312C350.441 54.1312 349.547 54.0124 348.713 53.775C347.819 53.5376 347.044 53.1814 346.389 52.6471C345.734 52.1722 345.138 51.5193 344.721 50.8069C344.304 50.0946 344.125 49.2042 344.125 48.195V39.8844C344.125 38.9346 344.363 38.0442 344.78 37.3318C345.197 36.5601 345.793 35.9665 346.449 35.4916C347.164 35.0167 347.938 34.6012 348.832 34.3638C349.726 34.1263 350.56 33.9482 351.454 33.9482Z" fill="#1CABE2"/>
<path d="M369.212 43.7427C369.212 43.2085 369.093 42.7929 368.854 42.3774C368.616 42.0212 368.318 41.6651 367.96 41.4276C367.603 41.1902 367.186 40.9527 366.709 40.834C366.233 40.7153 365.756 40.6559 365.279 40.6559C364.564 40.6559 363.849 40.7746 363.194 41.0121C362.539 41.2495 362.002 41.6057 361.645 42.0806L360.572 41.0714C361.168 40.4185 361.883 39.9436 362.777 39.6468C363.671 39.35 364.505 39.1719 365.458 39.1719C366.113 39.1719 366.828 39.2906 367.484 39.4687C368.139 39.6468 368.675 39.9436 369.212 40.2997C369.688 40.6559 370.105 41.1308 370.403 41.7244C370.701 42.318 370.82 42.971 370.82 43.6834V53.0625C369.033 53.6561 367.186 53.9529 365.279 53.9529H364.922C364.207 53.9529 363.551 53.8342 362.956 53.6561C362.36 53.478 361.824 53.1812 361.347 52.825C360.87 52.4689 360.513 51.994 360.274 51.4597C360.036 50.9255 359.857 50.2725 359.857 49.5008C359.857 48.6697 360.036 48.0167 360.334 47.4231C360.632 46.8889 361.049 46.414 361.585 46.0578C362.122 45.7016 362.717 45.4642 363.373 45.2861C364.028 45.108 364.684 45.0487 365.398 45.0487C366.054 45.0487 366.709 45.108 367.365 45.2268C368.02 45.3455 368.616 45.5236 369.212 45.761V43.7427ZM367.484 46.7108C366.828 46.5921 366.113 46.5327 365.458 46.5327C364.922 46.5327 364.386 46.5921 363.909 46.7108C363.432 46.8295 363.015 47.0076 362.658 47.245C362.3 47.4825 362.002 47.8387 361.764 48.1948C361.526 48.6104 361.407 49.0853 361.407 49.6789C361.407 50.7474 361.764 51.5191 362.419 51.994C363.075 52.4689 363.969 52.7063 364.981 52.7063H365.458C365.994 52.7063 366.59 52.7063 367.126 52.6469C367.841 52.5876 368.556 52.4689 369.212 52.2908V47.1857C368.735 47.0076 368.199 46.8295 367.484 46.7108Z" fill="#1CABE2"/>
<path d="M378.982 52.5872C379.4 52.5872 379.757 52.5279 380.174 52.4685C380.532 52.4092 380.889 52.2311 381.187 52.053C381.485 51.8749 381.723 51.5781 381.902 51.2813C382.081 50.9251 382.14 50.5096 382.14 50.0347C382.14 49.5598 382.021 49.1443 381.842 48.8475C381.664 48.5507 381.366 48.2538 381.068 48.0758C380.77 47.8977 380.412 47.7196 379.995 47.6009C379.578 47.4821 379.221 47.4228 378.863 47.3634C378.267 47.2447 377.672 47.126 377.076 46.9479C376.48 46.7698 375.944 46.5917 375.467 46.2949C374.991 45.9981 374.633 45.6419 374.276 45.167C373.978 44.6922 373.799 44.0985 373.799 43.3862C373.799 42.6739 373.978 42.0802 374.276 41.546C374.573 41.0117 374.991 40.5962 375.467 40.2994C375.944 39.9432 376.54 39.7058 377.135 39.5871C377.731 39.4683 378.327 39.3496 378.923 39.3496C379.638 39.3496 380.412 39.4683 381.127 39.7058C381.842 39.9432 382.438 40.2994 382.974 40.7743L381.962 41.9615C381.544 41.546 381.068 41.2492 380.591 41.0711C380.055 40.893 379.519 40.8336 378.982 40.8336C378.625 40.8336 378.208 40.893 377.791 40.9524C377.374 41.0117 377.016 41.1898 376.599 41.3679C376.242 41.546 375.944 41.8428 375.705 42.1396C375.467 42.4958 375.348 42.9113 375.348 43.3862C375.348 43.8611 375.467 44.2766 375.765 44.5734C376.003 44.8702 376.361 45.1077 376.718 45.2858C377.076 45.4638 377.493 45.5826 377.91 45.7013C378.327 45.82 378.744 45.8794 379.102 45.9387C379.638 46.0575 380.234 46.1762 380.77 46.3543C381.306 46.5324 381.783 46.7698 382.259 47.126C382.677 47.4228 383.034 47.8383 383.332 48.3132C383.63 48.7881 383.749 49.3817 383.749 50.0941C383.749 50.8064 383.63 51.4 383.332 51.9343C383.094 52.4685 382.736 52.884 382.259 53.1809C381.842 53.537 381.306 53.7745 380.77 53.8932C380.234 54.0713 379.638 54.1306 378.982 54.1306H378.744C377.672 54.1306 376.718 53.8932 375.825 53.4183C374.871 52.9434 374.097 52.1717 373.441 51.1626L374.633 50.3909C375.169 51.1032 375.825 51.6968 376.599 52.053C377.374 52.4092 378.148 52.5872 378.982 52.5872Z" fill="#1CABE2"/>
<path d="M392.029 39.1731C392.685 39.1731 393.4 39.2918 393.996 39.4699C394.651 39.648 395.247 39.9448 395.723 40.3603C396.26 40.7759 396.617 41.2508 396.975 41.785C397.273 42.3786 397.451 43.0316 397.451 43.8033V53.7761H395.902V43.7439C395.902 43.2097 395.783 42.7942 395.545 42.3786C395.306 42.0225 395.008 41.6663 394.651 41.4288C394.293 41.1914 393.876 41.0133 393.4 40.8352C392.923 40.7165 392.446 40.6571 391.97 40.6571C390.599 40.6571 389.289 40.8946 388.037 41.4288V53.7761H386.488V34.2461H388.037V40.0635C389.348 39.4699 390.659 39.1731 392.029 39.1731Z" fill="#1CABE2"/>
<path d="M248.499 16.3777H261.07V19.4645H248.499V27.7751H262.143V30.8619H245.4V4.9209H262.143V8.0077H248.499V16.3777Z" fill="#1CABE2"/>
<path d="M272.446 11.5107C273.518 11.5107 274.531 11.6888 275.544 12.045C276.557 12.4012 277.45 12.9354 278.165 13.7071C278.88 12.9948 279.714 12.4012 280.727 12.045C281.74 11.6888 282.634 11.5107 283.528 11.5107C284.541 11.5107 285.494 11.6295 286.388 11.8669C287.281 12.1044 287.996 12.5199 288.652 12.9948C289.307 13.529 289.784 14.182 290.141 14.9537C290.499 15.7254 290.677 16.6752 290.677 17.8031V30.8032H287.758V17.625C287.758 16.972 287.639 16.4378 287.4 15.9629C287.162 15.488 286.864 15.1318 286.447 14.8944C286.03 14.5975 285.613 14.4195 285.077 14.3601C284.541 14.2414 284.004 14.2414 283.468 14.2414C283.051 14.2414 282.574 14.3007 282.098 14.4195C281.621 14.5382 281.204 14.7163 280.847 14.9537C280.489 15.1912 280.191 15.488 279.953 15.8441C279.714 16.2003 279.595 16.5565 279.595 17.0314V30.9813H276.735V17.1501C276.735 16.6158 276.616 16.2003 276.378 15.7848C276.14 15.4286 275.782 15.0724 275.365 14.8944C274.948 14.6569 274.471 14.4788 273.935 14.3601C273.399 14.2414 272.863 14.182 272.267 14.182C271.611 14.182 270.956 14.2414 270.36 14.4195C269.764 14.5975 269.228 14.7756 268.871 15.0724V30.8626H265.951V13.2322C266.845 12.7573 267.858 12.3418 268.99 11.9856C270.181 11.6888 271.313 11.5107 272.446 11.5107Z" fill="#1CABE2"/>
<path d="M302.721 11.5107C303.615 11.5107 304.509 11.6295 305.402 11.9263C306.296 12.2231 307.071 12.5792 307.726 13.1135C308.441 13.6478 308.977 14.3007 309.394 15.0724C309.811 15.8441 310.05 16.7939 310.05 17.8624V24.9265C310.05 25.9356 309.811 26.8854 309.394 27.6571C308.977 28.4288 308.441 29.1411 307.726 29.6754C307.011 30.2096 306.236 30.6252 305.343 30.8626C304.449 31.1594 303.555 31.2781 302.602 31.2781C301.827 31.2781 301.053 31.2188 300.338 31.0407C299.623 30.8626 298.908 30.6252 298.193 30.269V37.6298H295.273V12.8761C296.525 12.4605 297.776 12.1044 299.027 11.8669C300.278 11.6295 301.529 11.5107 302.721 11.5107ZM302.662 28.4288C303.198 28.4288 303.734 28.3694 304.27 28.1913C304.806 28.0133 305.283 27.8352 305.7 27.5384C306.117 27.2416 306.475 26.8854 306.713 26.4105C306.951 25.995 307.071 25.4607 307.071 24.9265V17.8031C307.071 17.2688 306.951 16.7939 306.713 16.3784C306.475 15.9629 306.117 15.6067 305.76 15.3099C305.343 15.0131 304.866 14.7756 304.389 14.6569C303.853 14.4788 303.317 14.4195 302.781 14.4195C302.006 14.4195 301.232 14.4195 300.457 14.4788C299.682 14.5382 298.967 14.6569 298.253 14.835V27.6571C298.967 27.9539 299.682 28.132 300.457 28.3101C301.172 28.3694 301.887 28.4288 302.662 28.4288Z" fill="#1CABE2"/>
<path d="M313.561 17.8624C313.561 16.7939 313.799 15.9035 314.216 15.0724C314.633 14.3007 315.229 13.5884 315.884 13.1135C316.599 12.5792 317.374 12.1637 318.267 11.9263C319.161 11.6295 320.055 11.5107 321.008 11.5107C321.902 11.5107 322.796 11.6295 323.689 11.9263C324.583 12.2231 325.358 12.5792 326.073 13.1135C326.788 13.6478 327.324 14.3007 327.741 15.0724C328.158 15.8441 328.396 16.7939 328.396 17.8624V24.9265C328.396 25.995 328.218 26.9447 327.741 27.7164C327.324 28.4881 326.788 29.1411 326.073 29.6754C325.358 30.2096 324.583 30.6252 323.689 30.8626C322.796 31.1594 321.902 31.2781 321.008 31.2781C320.055 31.2781 319.161 31.1594 318.267 30.8626C317.374 30.5658 316.599 30.2096 315.884 29.6754C315.169 29.1411 314.633 28.4881 314.216 27.7164C313.799 26.9447 313.561 25.995 313.561 24.9265V17.8624ZM320.949 14.3007C320.412 14.3007 319.876 14.3601 319.34 14.4788C318.804 14.5975 318.327 14.835 317.91 15.1318C317.493 15.4286 317.135 15.7848 316.897 16.2597C316.659 16.6752 316.54 17.2095 316.54 17.8031V24.9858C316.54 25.5794 316.659 26.1137 316.897 26.5292C317.135 26.9447 317.493 27.3603 317.91 27.6571C318.327 27.9539 318.804 28.1913 319.34 28.3101C319.876 28.4288 320.412 28.5475 320.949 28.5475C321.485 28.5475 321.962 28.4881 322.498 28.3101C323.034 28.1913 323.511 27.9539 323.928 27.6571C324.345 27.3603 324.702 27.0041 324.941 26.5292C325.179 26.1137 325.298 25.5794 325.298 24.9858V17.8031C325.298 17.2095 325.179 16.6752 324.941 16.2597C324.702 15.8441 324.345 15.4286 323.928 15.1318C323.511 14.835 323.034 14.5975 322.498 14.4788C321.962 14.3601 321.425 14.3007 320.949 14.3007Z" fill="#1CABE2"/>
<path d="M344.248 12.162L348.121 28.0116H348.24L349.55 22.491L352.649 11.8652H355.509L349.789 30.8609H346.273L344.248 22.3722L342.937 16.0205L341.626 22.4316L339.541 30.8609H336.025L330.246 11.8652H333.225L336.383 22.491L337.634 28.0116H337.753L341.567 12.162H344.248Z" fill="#1CABE2"/>
<path d="M360.513 25.1617C360.513 25.7554 360.632 26.2302 360.871 26.6458C361.109 27.0613 361.467 27.4175 361.884 27.7143C362.301 28.0111 362.777 28.1892 363.314 28.3079C363.85 28.4266 364.386 28.486 364.922 28.486C365.756 28.486 366.65 28.3079 367.425 27.833C368.259 27.4175 368.855 26.7645 369.272 25.8741L371.834 27.0019C371.476 27.7143 371.059 28.3079 370.583 28.8422C370.106 29.3764 369.51 29.7919 368.914 30.1481C368.318 30.5043 367.663 30.7417 367.008 30.9198C366.293 31.0979 365.637 31.1573 364.922 31.1573C363.969 31.1573 363.075 31.0385 362.182 30.8011C361.288 30.5636 360.513 30.1481 359.798 29.6139C359.083 29.0796 358.547 28.4266 358.13 27.6549C357.713 26.8832 357.475 25.9334 357.475 24.8649V17.7415C357.475 16.673 357.713 15.7826 358.13 14.9516C358.547 14.1799 359.143 13.4675 359.798 12.9926C360.513 12.4584 361.288 12.1022 362.182 11.8054C363.075 11.5679 363.969 11.4492 364.922 11.4492C365.816 11.4492 366.71 11.5679 367.603 11.8054C368.497 12.0428 369.272 12.4584 369.927 12.9926C370.642 13.5269 371.178 14.1799 371.595 14.9516C372.012 15.7233 372.251 16.673 372.251 17.7415V22.7873H360.513V25.1617ZM369.45 17.6822C369.45 17.1479 369.331 16.6137 369.033 16.1981C368.735 15.7826 368.438 15.4264 368.021 15.1296C367.603 14.8328 367.127 14.5954 366.591 14.4767C366.054 14.2986 365.518 14.2392 364.982 14.2392C364.386 14.2392 363.79 14.2986 363.254 14.4767C362.718 14.6547 362.241 14.8328 361.824 15.1296C361.407 15.4264 361.109 15.7826 360.871 16.2575C360.632 16.673 360.513 17.2073 360.513 17.8009V20.4722H369.45V17.6822Z" fill="#1CABE2"/>
<path d="M383.21 14.3007C382.615 14.3007 382.078 14.3601 381.542 14.5382C381.006 14.6569 380.589 14.8944 380.172 15.1912C379.755 15.488 379.457 15.8441 379.218 16.319C378.98 16.7346 378.861 17.2688 378.861 17.8624V30.8626H375.941V17.8624C375.941 16.7939 376.18 15.8441 376.597 15.0724C377.014 14.3007 377.61 13.6478 378.265 13.1135C378.98 12.5792 379.695 12.2231 380.589 11.9263C381.423 11.6295 382.257 11.5107 383.091 11.5107C383.389 11.5107 383.627 11.5107 383.925 11.5701C384.223 11.5701 384.462 11.6295 384.759 11.6888V14.4195C384.462 14.3601 384.223 14.3601 383.985 14.3007C383.747 14.3007 383.508 14.3007 383.21 14.3007Z" fill="#1CABE2"/>
<path d="M401.205 4.9209V19.2864C401.205 19.9987 401.026 20.5924 400.609 21.0079C400.251 21.4828 399.775 21.7796 399.239 22.0764C399.06 22.1358 398.881 22.2545 398.702 22.2545C398.524 22.3138 398.345 22.3732 398.107 22.3732C397.928 22.4326 397.689 22.4326 397.451 22.4326C397.272 22.4326 397.034 22.4326 396.855 22.3732C396.677 22.3732 396.438 22.3138 396.26 22.2545C396.081 22.1951 395.842 22.1358 395.664 22.0764C395.127 21.8389 394.651 21.4828 394.293 21.0079C393.936 20.533 393.757 19.9394 393.757 19.227V4.9209H387.084V22.1357C387.084 23.6198 387.382 24.9851 387.978 26.113C388.574 27.2408 389.348 28.1906 390.301 28.9623C391.255 29.734 392.387 30.2683 393.638 30.6838C394.174 30.8619 394.77 30.9806 395.366 31.0993C396.081 31.2181 396.736 31.2774 397.451 31.2774C398.166 31.2774 398.881 31.2181 399.596 31.0993C400.132 30.9806 400.728 30.8619 401.264 30.6838C402.516 30.3276 403.588 29.734 404.601 28.9623C405.554 28.1906 406.388 27.2408 406.984 26.113C407.58 24.9851 407.878 23.6198 407.878 22.1357V4.9209H401.205Z" fill="#1CABE2"/>
<path d="M395.91 25.3996C395.91 26.2901 396.625 27.0024 397.519 27.0024C398.413 27.0024 399.128 26.2901 399.128 25.3996C399.128 24.5092 398.413 23.7969 397.519 23.7969C396.625 23.7969 395.91 24.5092 395.91 25.3996Z" fill="#009FE3"/>
<path d="M403.294 26.1102C402.4 27.5349 401.149 28.2472 400.196 28.6628C400.017 28.7221 399.838 28.7815 399.66 28.8408V31.0966C398.945 31.2153 398.23 31.2747 397.515 31.2747C396.8 31.2747 396.085 31.2153 395.429 31.0966V28.8408C395.251 28.7815 395.072 28.7221 394.893 28.6628C393.94 28.3066 392.689 27.5349 391.795 26.1102C391.437 25.576 391.676 24.8043 392.272 24.5668C392.748 24.3887 393.284 24.5668 393.582 24.9823C394.893 27.0006 397.098 27.0006 397.217 27.0006H397.872C397.991 27.0006 400.196 27.0006 401.507 24.9823C401.745 24.6262 402.222 24.3887 402.698 24.5074C403.354 24.6855 403.652 25.5166 403.294 26.1102Z" fill="#009FE3"/>
<path d="M395.074 23.4994C395.014 23.4994 394.955 23.4994 394.895 23.44L393.406 21.956C393.287 21.8372 393.287 21.6591 393.406 21.5998C393.525 21.4811 393.704 21.4811 393.763 21.5998L395.253 23.0838C395.372 23.2025 395.372 23.3806 395.253 23.44C395.193 23.4994 395.134 23.4994 395.074 23.4994Z" fill="#009FE3"/>
<path d="M396.624 22.6074C396.505 22.6074 396.386 22.548 396.386 22.4293L395.85 20.411C395.79 20.2923 395.909 20.1142 396.029 20.0549C396.148 19.9955 396.326 20.1142 396.386 20.2329L396.922 22.2512C396.982 22.37 396.863 22.548 396.744 22.6074C396.684 22.6074 396.624 22.6074 396.624 22.6074Z" fill="#1CABE2"/>
<path d="M398.414 22.6074H398.355C398.236 22.548 398.116 22.4293 398.176 22.2512L398.712 20.2329C398.772 20.1142 398.891 19.9955 399.07 20.0549C399.189 20.1142 399.308 20.2329 399.248 20.411L398.712 22.4293C398.653 22.548 398.533 22.6074 398.414 22.6074Z" fill="#1CABE2"/>
<path d="M399.958 23.4994C399.898 23.4994 399.838 23.4994 399.779 23.44C399.66 23.3213 399.66 23.1432 399.779 23.0838L401.268 21.5998C401.388 21.4811 401.566 21.4811 401.626 21.5998C401.745 21.7185 401.745 21.8966 401.626 21.956L400.136 23.44C400.077 23.4994 400.017 23.4994 399.958 23.4994Z" fill="#009FE3"/>
</svg>
