<svg width="215" height="47" viewBox="0 0 215 47" fill="none" xmlns="http://www.w3.org/2000/svg">
<g id="Maustats Platform White">
<g id="Group 3866">
<g id="Group">
<g id="Group_2">
<path id="Vector" fill-rule="evenodd" clip-rule="evenodd" d="M69.6 11.5C69.6 15.4 69.6 19.2 69.6 23.1C69.5 23.1 69.4 23.1 69.3 23.1C46.3 23.1 23.4 23.1 0.399977 23.1C0.299977 23.1 0.199976 23.1 0.0999756 23.1C0.0999756 19.2 0.0999756 15.4 0.0999756 11.5C0.199976 11.5 0.299975 11.5 0.499975 11.5C23.4 11.5 46.4 11.5 69.3 11.5C69.3 11.5 69.4 11.5 69.6 11.5Z" fill="#2A2B6A"/>
<path id="Vector_2" fill-rule="evenodd" clip-rule="evenodd" d="M69.6 11.5C69.5 11.5 69.4 11.5 69.2 11.5C46.3 11.5 23.3 11.5 0.400002 11.5C0.300002 11.5 0.2 11.5 0 11.5C0 7.7 0 3.9 0 0.200001C0 7.59959e-07 7.59959e-07 0 0.200001 0C23.2 0 46.2 0 69.3 0C69.5 0 69.5 7.59959e-07 69.5 0.200001C69.6 3.9 69.6 7.7 69.6 11.5Z" fill="#E92A3A"/>
<path id="Vector_3" fill-rule="evenodd" clip-rule="evenodd" d="M0.0999756 23.1001C0.199976 23.1001 0.299977 23.1001 0.399977 23.1001C23.4 23.1001 46.3 23.1001 69.3 23.1001C69.4 23.1001 69.5 23.1001 69.6 23.1001C69.6 27.0001 69.6 30.8001 69.6 34.7001C69.5 34.7001 69.3 34.7001 69.2 34.7001C46.3 34.7001 23.4 34.7001 0.399977 34.7001C0.299977 34.7001 0.199976 34.7001 0.0999756 34.7001C0.0999756 30.8001 0.0999756 27.0001 0.0999756 23.1001Z" fill="#FDD402"/>
<path id="Vector_4" fill-rule="evenodd" clip-rule="evenodd" d="M0.0999756 34.7C0.199976 34.7 0.299977 34.7 0.399977 34.7C23.3 34.7 46.2 34.7 69.2 34.7C69.3 34.7 69.5 34.7 69.6 34.7C69.6 38.5 69.6 42.2999 69.6 45.9999C69.6 46.1999 69.6 46.2 69.4 46.2C46.4 46.2 23.4 46.2 0.299976 46.2C0.0999763 46.2 0.0999756 46.1999 0.0999756 45.9999C0.0999756 42.1999 0.0999756 38.4 0.0999756 34.7Z" fill="#00A450"/>
</g>
</g>
</g>
<g id="MauStats Platform">
<path d="M79.525 20.9999V3.3749H81.575L88.525 19.0249H87.775L94.725 3.3749H96.75V20.9999H94.625V6.4749H95.4L88.875 20.9999H87.4L80.875 6.4749H81.65V20.9999H79.525Z" fill="white"/>
<path d="M99.2582 20.9999L107.058 3.3749H109.083L117.008 20.9999H114.608L112.433 15.9999L113.433 16.5999H102.708L103.808 15.9999L101.633 20.9999H99.2582ZM108.033 5.9749L104.133 15.2249L103.533 14.6999H112.608L112.133 15.2249L108.133 5.9749H108.033Z" fill="white"/>
<path d="M126.418 21.2249C124.001 21.2249 122.201 20.6166 121.018 19.3999C119.851 18.1666 119.268 16.3582 119.268 13.9749V3.3749H121.618V13.8999C121.618 15.6499 122.001 16.9666 122.768 17.8499C123.535 18.7332 124.751 19.1749 126.418 19.1749C128.018 19.1749 129.218 18.7332 130.018 17.8499C130.835 16.9666 131.243 15.6499 131.243 13.8999V3.3749H133.543V13.9749C133.543 16.3582 132.943 18.1666 131.743 19.3999C130.543 20.6166 128.768 21.2249 126.418 21.2249Z" fill="white"/>
<path d="M143.553 21.2249C142.136 21.2249 140.861 21.0416 139.728 20.6749C138.595 20.3082 137.611 19.7916 136.778 19.1249L137.578 17.2749C138.161 17.7082 138.753 18.0749 139.353 18.3749C139.953 18.6582 140.595 18.8749 141.278 19.0249C141.978 19.1582 142.736 19.2249 143.553 19.2249C145.003 19.2249 146.07 18.9666 146.753 18.4499C147.453 17.9166 147.803 17.2166 147.803 16.3499C147.803 15.5999 147.561 15.0249 147.078 14.6249C146.595 14.2249 145.753 13.9082 144.553 13.6749L141.878 13.1249C140.261 12.7916 139.053 12.2499 138.253 11.4999C137.47 10.7332 137.078 9.6999 137.078 8.3999C137.078 7.3499 137.353 6.43324 137.903 5.6499C138.47 4.8499 139.245 4.23324 140.228 3.7999C141.228 3.36657 142.395 3.1499 143.728 3.1499C144.961 3.1499 146.103 3.33324 147.153 3.6999C148.203 4.06657 149.086 4.60824 149.803 5.3249L149.003 7.0999C148.253 6.41657 147.445 5.9249 146.578 5.6249C145.728 5.30824 144.761 5.1499 143.678 5.1499C142.361 5.1499 141.32 5.43324 140.553 5.9999C139.786 6.56657 139.403 7.33324 139.403 8.2999C139.403 9.06657 139.645 9.6749 140.128 10.1249C140.611 10.5582 141.411 10.8916 142.528 11.1249L145.203 11.6499C146.903 11.9832 148.145 12.5082 148.928 13.2249C149.728 13.9416 150.128 14.9332 150.128 16.1999C150.128 17.1999 149.861 18.0832 149.328 18.8499C148.795 19.5999 148.036 20.1832 147.053 20.5999C146.07 21.0166 144.903 21.2249 143.553 21.2249Z" fill="white"/>
<path d="M157.285 20.9999V5.3499H151.185V3.3749H165.76V5.3499H159.635V20.9999H157.285Z" fill="white"/>
<path d="M164.517 20.9999L172.317 3.3749H174.342L182.267 20.9999H179.867L177.692 15.9999L178.692 16.5999H167.967L169.067 15.9999L166.892 20.9999H164.517ZM173.292 5.9749L169.392 15.2249L168.792 14.6999H177.867L177.392 15.2249L173.392 5.9749H173.292Z" fill="white"/>
<path d="M187.07 20.9999V5.3499H180.97V3.3749H195.545V5.3499H189.42V20.9999H187.07Z" fill="white"/>
<path d="M203.246 21.2249C201.829 21.2249 200.554 21.0416 199.421 20.6749C198.287 20.3082 197.304 19.7916 196.471 19.1249L197.271 17.2749C197.854 17.7082 198.446 18.0749 199.046 18.3749C199.646 18.6582 200.287 18.8749 200.971 19.0249C201.671 19.1582 202.429 19.2249 203.246 19.2249C204.696 19.2249 205.762 18.9666 206.446 18.4499C207.146 17.9166 207.496 17.2166 207.496 16.3499C207.496 15.5999 207.254 15.0249 206.771 14.6249C206.287 14.2249 205.446 13.9082 204.246 13.6749L201.571 13.1249C199.954 12.7916 198.746 12.2499 197.946 11.4999C197.162 10.7332 196.771 9.6999 196.771 8.3999C196.771 7.3499 197.046 6.43324 197.596 5.6499C198.162 4.8499 198.937 4.23324 199.921 3.7999C200.921 3.36657 202.087 3.1499 203.421 3.1499C204.654 3.1499 205.796 3.33324 206.846 3.6999C207.896 4.06657 208.779 4.60824 209.496 5.3249L208.696 7.0999C207.946 6.41657 207.137 5.9249 206.271 5.6249C205.421 5.30824 204.454 5.1499 203.371 5.1499C202.054 5.1499 201.012 5.43324 200.246 5.9999C199.479 6.56657 199.096 7.33324 199.096 8.2999C199.096 9.06657 199.337 9.6749 199.821 10.1249C200.304 10.5582 201.104 10.8916 202.221 11.1249L204.896 11.6499C206.596 11.9832 207.837 12.5082 208.621 13.2249C209.421 13.9416 209.821 14.9332 209.821 16.1999C209.821 17.1999 209.554 18.0832 209.021 18.8499C208.487 19.5999 207.729 20.1832 206.746 20.5999C205.762 21.0166 204.596 21.2249 203.246 21.2249Z" fill="white"/>
<path d="M79 43.9999V26.3749H87.65C89.6833 26.3749 91.2167 26.8749 92.25 27.8749C93.2833 28.8582 93.8 30.1999 93.8 31.8999C93.8 33.5832 93.2833 34.9249 92.25 35.9249C91.2167 36.9249 89.6833 37.4249 87.65 37.4249H83.625V43.9999H79ZM83.625 33.8749H87.05C87.8333 33.8749 88.4167 33.7082 88.8 33.3749C89.1833 33.0249 89.375 32.5332 89.375 31.8999C89.375 31.2666 89.1833 30.7749 88.8 30.4249C88.4167 30.0749 87.8333 29.8999 87.05 29.8999H83.625V33.8749Z" fill="white"/>
<path d="M96.0898 43.9999V26.3749H100.715V40.1749H108.265V43.9999H96.0898Z" fill="white"/>
<path d="M108.148 43.9999L116.398 26.3749H120.148L128.448 43.9999H123.823L121.698 39.1499L123.473 40.4249H113.123L114.873 39.1499L112.773 43.9999H108.148ZM118.248 31.1249L115.323 38.0999L114.623 36.9249H121.948L121.323 38.0999L118.373 31.1249H118.248Z" fill="white"/>
<path d="M131.585 43.9999V30.0999H126.235V26.3749H141.56V30.0999H136.21V43.9999H131.585Z" fill="white"/>
<path d="M143.502 43.9999V26.3749H155.877V29.8999H148.127V33.4749H155.302V36.9999H148.127V43.9999H143.502Z" fill="white"/>
<path d="M157.407 35.1749C157.407 33.3416 157.765 31.7499 158.482 30.3999C159.199 29.0332 160.224 27.9749 161.557 27.2249C162.89 26.4749 164.465 26.0999 166.282 26.0999C168.115 26.0999 169.699 26.4749 171.032 27.2249C172.365 27.9749 173.39 29.0332 174.107 30.3999C174.84 31.7499 175.207 33.3416 175.207 35.1749C175.207 36.9916 174.84 38.5832 174.107 39.9499C173.39 41.3166 172.365 42.3832 171.032 43.1499C169.699 43.8999 168.115 44.2749 166.282 44.2749C164.465 44.2749 162.89 43.8999 161.557 43.1499C160.24 42.3832 159.215 41.3166 158.482 39.9499C157.765 38.5832 157.407 36.9916 157.407 35.1749ZM162.232 35.1749C162.232 36.8249 162.565 38.1166 163.232 39.0499C163.899 39.9666 164.915 40.4249 166.282 40.4249C167.649 40.4249 168.674 39.9666 169.357 39.0499C170.04 38.1166 170.382 36.8249 170.382 35.1749C170.382 33.5249 170.04 32.2416 169.357 31.3249C168.674 30.4082 167.649 29.9499 166.282 29.9499C164.915 29.9499 163.899 30.4082 163.232 31.3249C162.565 32.2249 162.232 33.5082 162.232 35.1749Z" fill="white"/>
<path d="M177.975 43.9999V26.3749H186.3C188.333 26.3749 189.9 26.8582 191 27.8249C192.116 28.7916 192.675 30.1332 192.675 31.8499C192.675 32.9999 192.425 33.9832 191.925 34.7999C191.425 35.5999 190.7 36.2249 189.75 36.6749C188.8 37.1082 187.666 37.3249 186.35 37.3249L186.575 36.6999H187.825C188.558 36.6999 189.208 36.8999 189.775 37.2999C190.341 37.6999 190.808 38.2582 191.175 38.9749L193.85 43.9999H188.8L185.925 38.3749C185.741 38.0082 185.466 37.7582 185.1 37.6249C184.75 37.4916 184.35 37.4249 183.9 37.4249H182.6V43.9999H177.975ZM182.6 34.1499H185.5C186.4 34.1499 187.083 33.9749 187.55 33.6249C188.016 33.2582 188.25 32.7166 188.25 31.9999C188.25 31.2999 188.016 30.7749 187.55 30.4249C187.083 30.0749 186.4 29.8999 185.5 29.8999H182.6V34.1499Z" fill="white"/>
<path d="M195.872 43.9999V26.3749H199.872L205.647 39.2999H204.822L210.572 26.3749H214.597V43.9999H210.422V33.1999H211.497L206.497 43.9999H203.897L198.872 33.1999H200.022V43.9999H195.872Z" fill="white"/>
</g>
</g>
</svg>
