<svg width="562" height="99" viewBox="0 0 562 99" fill="none" xmlns="http://www.w3.org/2000/svg">
<line x1="209.611" y1="4.61548" x2="209.611" y2="94.3654" stroke="white" stroke-linecap="round"/>
<path d="M160.129 0C150.573 0 142.842 7.76042 142.842 17.2832C142.842 26.8059 150.604 34.5663 160.129 34.5663C169.654 34.5663 177.416 26.8059 177.416 17.2832C177.447 7.76042 169.685 0 160.129 0ZM173.612 7.63675C172.716 8.22419 171.788 8.78071 170.829 9.24448C170.272 8.10052 169.561 7.01839 168.757 5.99809C169.468 5.56524 170.149 5.07055 170.767 4.54495C171.85 5.47249 172.808 6.49278 173.612 7.63675ZM166.345 1.886C167.737 2.44252 169.035 3.18456 170.211 4.1121C169.623 4.60678 168.974 5.03964 168.293 5.44157C167.458 4.48311 166.5 3.58649 165.448 2.81354C165.788 2.53528 166.098 2.2261 166.345 1.886ZM167.675 5.81259C166.747 6.30727 165.757 6.70921 164.768 7.01839C164.335 6.05993 163.871 5.10147 163.314 4.20485C163.871 3.95751 164.397 3.64833 164.891 3.27731C165.912 4.05026 166.871 4.88505 167.675 5.81259ZM165.634 1.63866C165.386 1.91692 165.139 2.16426 164.861 2.41161C163.964 1.79325 162.974 1.23672 161.954 0.80387C163.252 0.95846 164.459 1.23672 165.634 1.63866ZM164.304 2.87538C163.902 3.18456 163.438 3.4319 162.974 3.61741C162.479 2.81354 161.892 2.04059 161.304 1.29856C162.356 1.73141 163.345 2.25702 164.304 2.87538ZM160.5 1.42223C161.15 2.19518 161.737 2.99905 162.294 3.86475C161.706 4.05026 161.119 4.14301 160.5 4.17393V1.42223ZM160.5 4.88505C161.242 4.85413 161.985 4.73046 162.665 4.48311C163.191 5.34882 163.654 6.27635 164.087 7.23481C162.912 7.54399 161.706 7.69858 160.5 7.7295V4.88505ZM159.758 1.45315V4.17393C159.17 4.14301 158.583 4.05026 157.995 3.86475C158.552 3.02996 159.139 2.2261 159.758 1.45315ZM157.315 3.61741C156.851 3.4319 156.387 3.15364 155.985 2.87538C156.913 2.25702 157.933 1.73141 158.985 1.29856C158.397 2.04059 157.841 2.81354 157.315 3.61741ZM158.335 0.80387C157.315 1.23672 156.325 1.79325 155.428 2.41161C155.15 2.16426 154.903 1.886 154.655 1.63866C155.83 1.2058 157.067 0.927542 158.335 0.80387ZM170.18 30.4852C167.891 29.2175 167.829 27.4861 167.953 26.8368C168.077 26.1876 168.51 26.4658 168.819 26.4658C170.334 26.4658 171.912 26.033 173.891 24.0233C176.086 21.7663 176.798 16.7576 173.396 13.4803C169.747 9.9556 165.85 10.574 163.345 13.7276C162.819 14.3769 161.582 14.8406 160.5 14.8097C158.892 14.7479 159.913 16.0155 159.913 16.2938C159.913 16.5721 159.665 16.7576 159.51 16.6957C158.954 16.5411 159.17 17.345 159.17 17.5923C159.17 17.8397 158.954 17.9634 158.83 17.9634C158.15 17.9634 158.335 18.5817 158.366 18.7363C158.397 18.8909 158.335 19.1692 158.088 19.2928C157.871 19.4165 157.624 19.9421 157.624 20.3441C157.624 21.0861 158.304 21.5808 159.418 22.4156C160.531 23.2503 160.686 24.0542 160.686 24.6107C160.717 25.1673 160.748 26.0948 161.026 26.7132C161.335 27.4552 161.273 28.7847 159.727 28.8465C157.841 28.9083 154.47 30.4542 154.16 30.547C153.078 30.918 151.686 31.0726 150.573 30.7943C149.986 30.3615 149.398 29.9286 148.872 29.403C148.656 28.6301 149.027 27.8262 149.429 27.2697C150.078 27.919 151.006 27.8571 151.532 27.888C152.058 27.919 154.655 27.517 155.026 27.3934C155.397 27.2697 155.552 27.3006 155.769 27.3934C156.758 27.7644 158.119 27.8571 158.676 25.9711C159.232 24.0851 157.933 24.6107 157.748 24.6726C157.593 24.7653 157.346 24.7344 157.439 24.5798C157.686 24.0851 157.315 24.147 157.098 24.116C156.573 24.0542 155.861 24.6417 155.645 24.8272C155.428 25.0436 155.181 25.0127 155.119 24.9818C154.408 24.6417 152.305 25.1363 151.655 23.9924C151.717 23.6832 151.13 19.0764 150.821 18.2725C150.759 18.087 150.697 17.8088 150.913 17.5305C151.439 16.7266 152.923 17.5923 153.727 17.5614C154.686 17.5305 154.841 17.1286 155.088 16.8194C155.336 16.5102 155.521 16.6957 155.645 16.603C155.83 16.4793 155.645 16.2629 155.707 16.1392C155.769 16.0155 155.83 16.0774 155.985 15.9228C156.14 15.7682 155.954 15.459 156.047 15.3662C156.294 15.0262 156.913 15.3044 156.542 14.3769C156.325 13.8822 156.634 13.3257 156.913 12.9546C157.377 12.3672 159.17 9.83192 156.016 7.23481C153.016 4.76137 149.955 4.94688 148.006 7.08022C146.058 9.21356 147.017 12.3054 147.233 13.1092C147.45 13.9131 146.862 14.6551 146.182 14.9952C145.656 15.2426 144.419 16.0774 143.491 16.8812C143.646 10.2339 147.697 4.35944 153.882 1.85508C154.16 2.19518 154.439 2.50436 154.748 2.78262C154.068 3.27731 152.552 4.6377 152.552 4.6377C152.552 4.6377 152.769 4.66862 152.954 4.73046C153.078 4.76137 153.356 4.85413 153.356 4.85413C153.356 4.85413 154.686 3.74108 155.305 3.27731C155.799 3.64833 156.325 3.95751 156.882 4.20485C156.573 4.69954 155.83 6.12177 155.83 6.12177C155.83 6.12177 156.016 6.21452 156.171 6.33819C156.325 6.43095 156.418 6.5237 156.418 6.5237C156.418 6.5237 157.253 4.9778 157.562 4.45219C158.243 4.66862 158.985 4.82321 159.727 4.85413V7.69858C159.325 7.69858 158.273 7.63675 157.841 7.60583L157.562 7.57491L157.717 7.79134C157.841 7.94593 157.902 8.13144 157.995 8.25511L158.026 8.31694H158.088C158.397 8.34786 159.356 8.37878 159.696 8.37878V13.573H160.407V12.3981C161.459 12.3363 162.356 12.2744 163.407 12.1817H163.438L164.366 11.3469L163.871 11.3778C162.758 11.5324 161.768 11.5943 160.871 11.6561C160.871 11.6561 160.562 11.687 160.407 11.687V8.4097C161.706 8.37878 163.005 8.19327 164.304 7.85317C164.644 8.71888 165.324 10.7904 165.324 10.7904L166.005 10.574C166.005 10.574 165.355 8.50245 165.015 7.66767C166.098 7.32757 167.149 6.89472 168.108 6.33819C168.912 7.32757 169.592 8.37878 170.149 9.52275C169.654 9.77009 168.695 10.0793 168.695 10.0793C169.437 10.172 169.994 10.3266 169.994 10.3266C169.994 10.3266 170.272 10.2029 170.427 10.1411C170.489 10.2957 170.613 10.6049 170.613 10.6049L171.54 11.0068L171.417 10.7595C171.417 10.7595 171.107 10.0174 171.046 9.86284C172.035 9.36815 172.994 8.81163 173.922 8.19327C175.684 10.8831 176.612 14.0368 176.612 17.2522C176.736 22.6629 174.169 27.4552 170.18 30.4852Z" fill="white"/>
<path d="M141.265 4.57458L140.987 4.82192C139.967 5.71855 137.647 8.09923 138.018 10.6963L138.049 10.8819L138.173 11.4075L138.482 11.0983C139.905 9.79972 140.956 7.60454 141.389 5.06926L141.513 4.35815L141.265 4.57458Z" fill="white"/>
<path d="M136.567 9.08994L136.443 9.39912C136.289 9.83197 135.979 10.7595 135.825 11.9653C135.608 13.6967 135.67 16.1083 137.155 17.9325L137.309 18.1489L137.495 18.3653L137.711 17.2523C137.959 15.3045 137.618 11.2233 136.907 9.39912L136.66 8.78076L136.567 9.08994Z" fill="white"/>
<path d="M134.835 16.1099L134.804 16.4191C134.68 18.1814 134.773 22.479 138.268 24.7669L138.67 25.0452L138.639 24.5505C138.577 22.9118 136.659 18.0268 135.237 16.2645L134.835 15.7698V16.1099Z" fill="white"/>
<path d="M135.454 23.8361L135.516 24.1453C136.042 26.6187 138.392 30.6381 142.011 31.813L142.505 31.9676L142.32 31.4729C141.639 29.6178 138.145 25.2893 135.887 23.867L135.393 23.5579L135.454 23.8361Z" fill="white"/>
<path d="M142.721 8.31807L142.443 8.50358C139.752 10.1422 138.484 12.1519 138.577 14.6254L138.608 15.1819L139.01 14.8418C140.463 13.636 142.288 10.5442 142.845 8.78184L143.03 8.13257L142.721 8.31807Z" fill="white"/>
<path d="M141.142 13.7273L140.925 13.9128C140.245 14.562 137.988 16.9427 138.204 19.9109C138.235 20.3746 138.328 20.8384 138.513 21.364L138.668 21.8278L138.946 21.4258C140.029 19.9109 141.42 15.9534 141.358 14.0983L141.327 13.5417L141.142 13.7273Z" fill="white"/>
<path d="M141.267 18.8296L141.113 19.046C139.968 20.7156 139.412 22.447 139.443 24.0238C139.474 25.1987 139.845 26.3118 140.556 27.363L140.803 27.7031L140.989 27.3321C141.484 26.4045 141.855 23.4364 141.793 21.0866C141.762 20.2518 141.7 19.5717 141.546 19.1079L141.391 18.5823L141.267 18.8296Z" fill="white"/>
<path d="M142.565 24.3002L142.503 24.5475C142.163 25.6296 142.008 26.7118 142.039 27.7012C142.101 29.9891 143.121 31.7823 145.039 33.019L145.379 33.2355L145.441 32.8026L145.472 32.4625C145.41 30.6074 144.018 25.9388 142.936 24.4857L142.627 24.0837L142.565 24.3002Z" fill="white"/>
<path d="M138.764 31.5659L138.919 31.8132C140.372 34.2557 142.846 37.4094 147.454 36.6055L147.825 36.5437L147.609 36.2345C146.743 34.9669 141.145 31.7823 139.166 31.4731L138.609 31.3804L138.764 31.5659Z" fill="white"/>
<path d="M145.596 37.749L144.885 37.9345L145.565 38.2128C148.503 39.4186 152.183 39.7587 154.317 39.0476C155.121 38.7693 155.616 38.3365 156.203 37.749C159.976 38.151 163.471 41.2737 165.543 43.809L165.667 43.9326L165.821 43.8708C166.038 43.778 166.409 43.5307 166.563 43.3452L166.718 43.1906L166.594 43.0051C164.46 40.2225 161.09 38.4601 160.966 38.3983C157.904 37.007 152.585 35.863 145.596 37.749Z" fill="white"/>
<path d="M145.754 29.9585L145.785 30.2059C146.218 32.9885 147.362 36.6059 152.032 36.204L152.341 36.173L152.279 35.8948C151.97 34.6271 147.671 30.9788 146.187 29.9585L145.754 29.7112V29.9585Z" fill="white"/>
<path d="M178.812 4.35815L178.936 5.06926C179.369 7.60454 180.452 9.79972 181.843 11.0983L182.183 11.4075L182.307 10.8819L182.338 10.6963C182.709 8.09923 180.39 5.71855 179.369 4.82192L179.091 4.57458L178.812 4.35815Z" fill="white"/>
<path d="M183.665 8.78076L183.418 9.39912C182.706 11.2233 182.366 15.3045 182.613 17.2523L182.83 18.3653L183.016 18.1489L183.17 17.9325C184.655 16.1083 184.716 13.6967 184.5 11.9653C184.345 10.7595 184.067 9.83197 183.881 9.39912L183.758 9.08994L183.665 8.78076Z" fill="white"/>
<path d="M185.489 15.8005L185.087 16.2952C183.664 18.0575 181.747 22.9426 181.685 24.5813L181.654 25.0759L182.056 24.7977C185.551 22.5097 185.644 18.1812 185.52 16.4498L185.489 16.1406V15.8005Z" fill="white"/>
<path d="M184.964 23.5273L184.47 23.8365C182.212 25.2588 178.717 29.5873 178.037 31.4424L177.852 31.937L178.346 31.7824C181.965 30.6076 184.315 26.5882 184.841 24.1148L184.903 23.8056L184.964 23.5273Z" fill="white"/>
<path d="M177.449 8.06787L177.635 8.71715C178.13 10.4795 179.892 13.6022 181.346 14.8389L181.748 15.179L181.779 14.6225C181.933 12.149 180.696 10.1394 178.037 8.43889L177.758 8.25338L177.449 8.06787Z" fill="white"/>
<path d="M178.996 13.5417L178.965 14.0983C178.903 15.9534 180.295 19.9109 181.377 21.4258L181.655 21.8278L181.81 21.364C181.996 20.8693 182.088 20.3746 182.119 19.9109C182.305 16.9736 180.078 14.593 179.398 13.9128L179.181 13.7273L178.996 13.5417Z" fill="white"/>
<path d="M178.934 18.613L178.779 19.1386C178.655 19.6024 178.563 20.2826 178.532 21.1174C178.47 23.4672 178.872 26.4353 179.336 27.3628L179.521 27.7338L179.769 27.3938C180.48 26.3425 180.851 25.2295 180.882 24.0546C180.913 22.4778 180.356 20.7464 179.212 19.0768L179.057 18.8604L178.934 18.613Z" fill="white"/>
<path d="M177.697 24.0837L177.387 24.4857C176.305 25.9079 174.913 30.6074 174.852 32.4625L174.882 32.8026L174.944 33.2355L175.285 33.019C177.233 31.7823 178.222 29.9891 178.284 27.7012C178.315 26.6809 178.161 25.6296 177.82 24.5475L177.759 24.3002L177.697 24.0837Z" fill="white"/>
<path d="M181.716 31.3188L181.19 31.4116C179.211 31.7208 173.614 34.9053 172.748 36.173L172.531 36.4822L172.902 36.544C177.541 37.3479 179.984 34.1942 181.438 31.7517L181.592 31.5044L181.716 31.3188Z" fill="white"/>
<path d="M159.42 38.4916C159.265 38.5535 155.925 40.2849 153.792 43.0984L153.668 43.2839L153.823 43.4385C153.977 43.5931 154.317 43.8714 154.565 43.9641L154.719 44.0259L154.843 43.9023C156.884 41.3361 160.41 38.2134 164.183 37.8423C164.77 38.4298 165.265 38.8626 166.069 39.1409C168.203 39.852 171.883 39.5119 174.821 38.3061L175.532 38.0279L174.821 37.8423C167.77 35.8636 162.42 37.0076 159.42 38.4916Z" fill="white"/>
<path d="M174.634 29.7112L174.201 29.9585C172.717 30.9788 168.418 34.6271 168.109 35.8948L168.047 36.173L168.356 36.204C173.026 36.6059 174.17 32.9885 174.603 30.2059L174.634 29.9585V29.7112Z" fill="white"/>
<path d="M55.0469 1.20483H60.9536V6.58457H57.8301H55.0469V1.20483ZM55.5108 12.7063H57.7992H60.4588V38.9557H55.4798V12.7063H55.5108Z" fill="white"/>
<path d="M17.9985 12.7366H22.9774V38.986H18.1222V35.1212H17.9985C16.0193 38.4294 12.6484 39.7589 8.99923 39.7589C3.49454 39.7589 0.371094 35.585 0.371094 30.298V12.7366H5.35005V28.2574C5.35005 32.8024 6.40151 36.1415 11.164 36.1415C13.2051 36.1415 15.9883 35.0903 17.0089 32.3695C17.9366 29.8961 17.9985 26.8352 17.9985 26.1859V12.7366Z" fill="white"/>
<path d="M32.9054 16.6028H32.9982C34.6681 13.3255 38.3173 11.9651 40.9459 11.9651C42.7705 11.9651 50.8729 12.4289 50.8729 20.8386V38.9874H45.894V22.4772C45.894 18.1487 44.0694 15.7989 39.8945 15.7989C39.8945 15.7989 37.1731 15.6443 35.0702 17.7468C34.328 18.4888 32.9672 19.6328 32.9672 24.7651V39.0493H27.9883V12.7999H32.8435V16.6028H32.9054Z" fill="white"/>
<path d="M81.2719 21.1476C81.0245 17.8703 79.4473 15.5823 75.9218 15.5823C71.1903 15.5823 69.3657 19.6635 69.3657 25.8162C69.3657 31.938 71.1903 36.0501 75.9218 36.0501C79.1999 36.0501 81.21 33.9167 81.4884 30.1756H86.4364C86.0035 36.0501 81.643 39.6366 75.8909 39.6366C67.5411 39.6366 64.2012 33.7312 64.2012 26.0326C64.2012 18.3959 68.0359 11.9958 76.3239 11.9958C81.8286 11.9958 85.9725 15.4896 86.2199 21.1476H81.2719Z" fill="white"/>
<path d="M93.8595 26.7747C93.4884 31.3505 95.3748 36.081 100.416 36.081C104.25 36.081 106.199 34.566 106.755 30.7631H111.951C111.178 36.6993 106.601 39.6366 100.354 39.6366C91.9731 39.6366 88.6641 33.7312 88.6641 26.0326C88.6641 18.3959 92.5297 11.9958 100.787 11.9958C108.58 12.1504 112.26 17.0973 112.26 24.3012V26.7437H93.8595V26.7747ZM107.034 23.3428C107.126 18.9833 105.147 15.6133 100.385 15.6133C96.2717 15.6133 93.8286 19.0761 93.8286 23.3428H107.034Z" fill="white"/>
<path d="M117.824 38.8639V16.232H113.34V12.8001H117.824V7.2039C117.979 1.48407 122.277 0 125.988 0C127.194 0 128.339 0.309179 129.514 0.525605V4.6377C128.679 4.60678 127.844 4.48311 127.009 4.48311C124.195 4.48311 122.586 5.22515 122.741 8.0696V12.8619H128.772V16.232H122.741V38.8639H117.824Z" fill="white"/>
<path d="M0.277344 56.9514H183.695V57.941H93.486H0.277344V56.9514Z" fill="white"/>
<path d="M3.33992 92.692V77.9441H0V76.1199H3.33992V72.5952C3.33992 69.7508 4.48416 68.4832 7.32928 68.4832C7.94778 68.4832 8.62814 68.6996 9.21572 68.8542V70.431C8.81369 70.3691 8.38074 70.3073 8.00963 70.3073C5.28821 70.3073 5.22636 71.6677 5.35006 74.0484V76.1508H9.12294V77.975H5.31914V92.7229H3.33992V92.692Z" fill="white"/>
<path d="M25.2673 84.4064C25.2673 88.7659 22.8242 93.1872 17.536 93.1872C12.2478 93.1872 9.80469 88.7659 9.80469 84.4064C9.80469 80.047 12.2478 75.6257 17.536 75.6257C22.8242 75.6257 25.2673 80.047 25.2673 84.4064ZM17.536 77.4499C13.5466 77.4499 11.9695 81.3456 11.9695 84.4064C11.9695 87.4673 13.5466 91.363 17.536 91.363C21.5253 91.363 23.1025 87.4673 23.1025 84.4064C23.1025 81.3146 21.5253 77.4499 17.536 77.4499Z" fill="white"/>
<path d="M30.1221 92.6899H28.1429V79.8589C28.1738 78.5604 28.0501 77.2618 27.9883 76.1178H30.0293L30.1221 78.5604H30.184C30.7716 76.8908 32.256 75.685 33.9259 75.6232C34.5754 75.5922 35.2557 75.6232 35.9051 75.6541V77.571C35.5031 77.5401 35.0702 77.4473 34.6681 77.4473C31.7302 77.4473 30.184 79.5497 30.1221 82.7343V92.6899Z" fill="white"/>
<path d="M45.4893 84.8702C45.5512 88.3949 47.1593 91.363 51.2414 91.363C53.5917 91.363 55.54 89.6934 56.0348 87.4055H58.1068C57.0863 91.363 54.6122 93.1872 50.6229 93.1872C45.6749 93.1872 43.3555 88.9205 43.3555 84.4064C43.3555 79.9233 45.8295 75.6257 50.7466 75.6257C56.2822 75.6257 58.2924 79.676 58.2924 84.8702H45.4893ZM56.1585 83.0461C55.942 79.8306 54.2102 77.4499 50.7775 77.4499C47.5304 77.4499 45.8295 80.1707 45.5512 83.0461H56.1585Z" fill="white"/>
<path d="M60.9808 76.1206L66.6711 89.9409L72.2067 76.1206H74.3715L67.8153 92.6617H65.5578L58.7852 76.1206H60.9808Z" fill="white"/>
<path d="M76.9444 84.8705C77.0062 88.3951 78.6143 91.3632 82.6965 91.3632C85.0468 91.3632 86.9951 89.6937 87.4899 87.4057H89.5619C88.5413 91.3632 86.0673 93.1874 82.078 93.1874C77.1299 93.1874 74.8105 88.9207 74.8105 84.4067C74.8105 79.9236 77.2846 75.626 82.2017 75.626C87.7373 75.626 89.7474 79.6762 89.7474 84.8705H76.9444ZM87.5827 83.0463C87.3662 79.8308 85.6344 77.4501 82.2017 77.4501C78.9545 77.4501 77.2536 80.1709 76.9753 83.0463H87.5827Z" fill="white"/>
<path d="M94.7842 92.6901H92.805V79.8592C92.8359 78.5606 92.7122 77.2621 92.6504 76.1181H94.6915L94.7842 78.5606H94.8461C95.4337 76.891 96.9181 75.6852 98.588 75.6234C99.2375 75.5925 99.9178 75.6234 100.567 75.6543V77.5712C100.165 77.5403 99.7323 77.4476 99.3302 77.4476C96.3923 77.4476 94.8461 79.55 94.7842 82.7345V92.6901Z" fill="white"/>
<path d="M104.836 76.1206L110.403 89.9719L115.938 76.1206H118.103L108.949 98.9999H106.784L109.289 92.6617L102.424 76.1206H104.836Z" fill="white"/>
<path d="M136.97 81.1911C136.815 78.6559 135.176 77.4191 132.455 77.4191C129.424 77.4191 127.538 80.5728 127.538 84.3448C127.538 88.1477 129.424 91.3322 132.455 91.3322C135.022 91.3322 136.815 89.7554 136.97 87.4675H139.104C138.578 91.2704 136.413 93.1564 132.64 93.1564C127.692 93.1564 125.373 88.8897 125.373 84.3757C125.373 79.8926 127.847 75.595 132.764 75.595C136.166 75.595 138.949 77.6356 139.104 81.1602H136.97V81.1911Z" fill="white"/>
<path d="M143.864 78.6249H143.926C145.07 76.5843 146.957 75.6259 149.121 75.6259C154.533 75.6259 154.966 80.4182 154.966 82.3351V92.6926H152.987V81.995C152.987 79.1196 151.348 77.45 148.626 77.45C145.348 77.45 143.864 80.2017 143.864 83.1699V92.6926H141.885V68.8857H143.864V78.6249Z" fill="white"/>
<path d="M160.44 71.3284H158.863H158.121V68.855H160.44V71.3284ZM160.255 92.6928H158.276V76.1207H159.482H160.255V92.6928Z" fill="white"/>
<path d="M166.132 92.693H164.152V84.3761V68.8552H165.668H166.132V92.693Z" fill="white"/>
<path d="M181.716 90.2502L181.654 90.1266C180.293 92.1053 178.283 93.1874 175.964 93.1874C171.047 93.1874 169.16 88.4879 169.16 84.3449C169.16 80.0473 171.047 75.626 175.964 75.626C178.19 75.626 180.479 76.6772 181.654 78.6251L181.716 78.5632V68.855H183.695V88.9517C183.695 90.2502 183.788 91.5488 183.85 92.6928H181.809L181.716 90.2502ZM176.304 77.4502C172.531 77.4502 171.325 80.9439 171.325 84.1285C171.325 87.1894 172.222 91.3942 176.026 91.3942C180.355 91.3942 181.654 87.8077 181.654 84.0357C181.654 80.6347 180.17 77.4502 176.304 77.4502Z" fill="white"/>
<path d="M539.344 54.7351H549.96C552.242 54.7351 554.186 55.0786 555.794 55.7656C557.402 56.4526 558.632 57.4694 559.484 58.8159C560.35 60.1487 560.783 61.7975 560.783 63.7623C560.783 65.2599 560.508 66.579 559.959 67.7194C559.409 68.8598 558.632 69.8216 557.629 70.6048C556.626 71.3742 555.43 71.9719 554.042 72.3979L552.475 73.1604H542.931L542.889 69.0591H550.043C551.28 69.0591 552.31 68.8392 553.135 68.3995C553.96 67.9599 554.578 67.3622 554.99 66.6065C555.416 65.837 555.629 64.9714 555.629 64.0096C555.629 62.9654 555.423 62.0585 555.011 61.2891C554.612 60.5059 553.994 59.9082 553.156 59.496C552.317 59.0701 551.252 58.8571 549.96 58.8571H544.518V84.7433H539.344V54.7351ZM556.475 84.7433L549.424 71.2643L554.846 71.2437L561.999 84.4753V84.7433H556.475Z" fill="white"/>
<path d="M535.117 80.6419V84.7433H519.181V80.6419H535.117ZM520.645 54.7351V84.7433H515.471V54.7351H520.645ZM533.035 67.266V71.3055H519.181V67.266H533.035ZM535.014 54.7351V58.8571H519.181V54.7351H535.014Z" fill="white"/>
<path d="M497.393 54.7351V84.7433H492.219V54.7351H497.393ZM509.638 67.8637V71.9651H496.074V67.8637H509.638ZM511.349 54.7351V58.8571H496.074V54.7351H511.349Z" fill="white"/>
<path d="M482.446 77.0153C482.446 76.397 482.35 75.8474 482.158 75.3665C481.979 74.8856 481.656 74.446 481.189 74.0475C480.721 73.649 480.062 73.2643 479.21 72.8933C478.371 72.5086 477.299 72.117 475.994 71.7186C474.564 71.2789 473.245 70.7911 472.036 70.2553C470.84 69.7057 469.796 69.0736 468.902 68.3591C468.009 67.6309 467.315 66.7996 466.82 65.8653C466.325 64.9173 466.078 63.8249 466.078 62.5883C466.078 61.3655 466.332 60.2525 466.841 59.2495C467.363 58.2465 468.098 57.3809 469.047 56.6527C470.009 55.9107 471.142 55.3405 472.448 54.942C473.754 54.5298 475.197 54.3237 476.777 54.3237C479.004 54.3237 480.921 54.7359 482.529 55.5603C484.15 56.3847 485.394 57.4908 486.26 58.8785C487.14 60.2663 487.579 61.7983 487.579 63.4746H482.446C482.446 62.4853 482.233 61.6128 481.807 60.8571C481.395 60.0877 480.763 59.4831 479.911 59.0434C479.072 58.6037 478.007 58.3839 476.715 58.3839C475.492 58.3839 474.475 58.5694 473.664 58.9404C472.853 59.3113 472.249 59.8129 471.85 60.4449C471.452 61.0769 471.252 61.7914 471.252 62.5883C471.252 63.1517 471.383 63.6669 471.644 64.1341C471.905 64.5875 472.304 65.0134 472.84 65.4119C473.376 65.7966 474.049 66.1607 474.86 66.5042C475.671 66.8477 476.626 67.1775 477.725 67.4935C479.388 67.9882 480.838 68.5378 482.075 69.1423C483.312 69.7331 484.343 70.4064 485.167 71.1621C485.992 71.9178 486.61 72.7765 487.023 73.7383C487.435 74.6864 487.641 75.765 487.641 76.9741C487.641 78.2382 487.387 79.3786 486.878 80.3954C486.37 81.3984 485.642 82.2571 484.693 82.9716C483.759 83.6724 482.632 84.2151 481.312 84.5998C480.007 84.9708 478.55 85.1563 476.942 85.1563C475.499 85.1563 474.077 84.9639 472.675 84.5792C471.287 84.1945 470.022 83.6105 468.882 82.8274C467.741 82.0304 466.834 81.0412 466.161 79.8595C465.487 78.6641 465.15 77.2695 465.15 75.6757H470.325C470.325 76.6512 470.49 77.4825 470.819 78.1695C471.163 78.8565 471.637 79.4198 472.242 79.8595C472.847 80.2855 473.547 80.6015 474.345 80.8076C475.155 81.0137 476.021 81.1167 476.942 81.1167C478.151 81.1167 479.162 80.945 479.972 80.6015C480.797 80.258 481.415 79.7771 481.828 79.1588C482.24 78.5405 482.446 77.826 482.446 77.0153Z" fill="white"/>
<path d="M460.492 54.7351V84.7433H455.317L441.856 63.247V84.7433H436.682V54.7351H441.856L455.359 76.2726V54.7351H460.492Z" fill="white"/>
<path d="M420.374 58.7334L411.406 84.7433H405.984L417.281 54.7351H420.745L420.374 58.7334ZM427.877 84.7433L418.889 58.7334L418.498 54.7351H421.981L433.32 84.7433H427.877ZM427.444 73.6139V77.7153H411.117V73.6139H427.444Z" fill="white"/>
<path d="M382.096 54.7351H392.712C394.994 54.7351 396.938 55.0786 398.546 55.7656C400.154 56.4526 401.384 57.4694 402.236 58.8159C403.102 60.1487 403.535 61.7975 403.535 63.7623C403.535 65.2599 403.26 66.579 402.711 67.7194C402.161 68.8598 401.384 69.8216 400.381 70.6048C399.378 71.3742 398.182 71.9719 396.794 72.3979L395.227 73.1604H385.683L385.641 69.0591H392.795C394.032 69.0591 395.062 68.8392 395.887 68.3995C396.712 67.9599 397.33 67.3622 397.742 66.6065C398.168 65.837 398.381 64.9714 398.381 64.0096C398.381 62.9654 398.175 62.0585 397.763 61.2891C397.364 60.5059 396.746 59.9082 395.908 59.496C395.069 59.0701 394.004 58.8571 392.712 58.8571H387.27V84.7433H382.096V54.7351ZM399.227 84.7433L392.176 71.2643L397.598 71.2437L404.751 84.4753V84.7433H399.227Z" fill="white"/>
<path d="M368.712 54.7351V84.7433H363.579V54.7351H368.712ZM378.133 54.7351V58.8571H354.24V54.7351H378.133Z" fill="white"/>
<path d="M336.699 67.266V71.3674H320.763V67.266H336.699ZM322.042 54.7351V84.7433H316.867V54.7351H322.042ZM340.677 54.7351V84.7433H335.524V54.7351H340.677Z" fill="white"/>
<path d="M307.097 77.0153C307.097 76.397 307 75.8474 306.808 75.3665C306.629 74.8856 306.306 74.446 305.839 74.0475C305.372 73.649 304.712 73.2643 303.86 72.8933C303.022 72.5086 301.95 72.117 300.644 71.7186C299.215 71.2789 297.896 70.7911 296.686 70.2553C295.49 69.7057 294.446 69.0736 293.553 68.3591C292.659 67.6309 291.965 66.7996 291.471 65.8653C290.976 64.9173 290.728 63.8249 290.728 62.5883C290.728 61.3655 290.983 60.2525 291.491 59.2495C292.013 58.2465 292.749 57.3809 293.697 56.6527C294.659 55.9107 295.793 55.3405 297.098 54.942C298.404 54.5298 299.847 54.3237 301.428 54.3237C303.654 54.3237 305.571 54.7359 307.179 55.5603C308.801 56.3847 310.045 57.4908 310.91 58.8785C311.79 60.2663 312.23 61.7983 312.23 63.4746H307.097C307.097 62.4853 306.884 61.6128 306.458 60.8571C306.045 60.0877 305.413 59.4831 304.561 59.0434C303.723 58.6037 302.658 58.3839 301.366 58.3839C300.143 58.3839 299.126 58.5694 298.315 58.9404C297.504 59.3113 296.899 59.8129 296.501 60.4449C296.102 61.0769 295.903 61.7914 295.903 62.5883C295.903 63.1517 296.033 63.6669 296.294 64.1341C296.556 64.5875 296.954 65.0134 297.49 65.4119C298.026 65.7966 298.7 66.1607 299.51 66.5042C300.321 66.8477 301.276 67.1775 302.376 67.4935C304.039 67.9882 305.489 68.5378 306.726 69.1423C307.962 69.7331 308.993 70.4064 309.818 71.1621C310.642 71.9178 311.261 72.7765 311.673 73.7383C312.085 74.6864 312.292 75.765 312.292 76.9741C312.292 78.2382 312.037 79.3786 311.529 80.3954C311.02 81.3984 310.292 82.2571 309.344 82.9716C308.409 83.6724 307.282 84.2151 305.963 84.5998C304.657 84.9708 303.2 85.1563 301.592 85.1563C300.149 85.1563 298.727 84.9639 297.325 84.5792C295.937 84.1945 294.673 83.6105 293.532 82.8274C292.391 82.0304 291.484 81.0412 290.811 79.8595C290.137 78.6641 289.801 77.2695 289.801 75.6757H294.975C294.975 76.6512 295.14 77.4825 295.47 78.1695C295.813 78.8565 296.288 79.4198 296.892 79.8595C297.497 80.2855 298.198 80.6015 298.995 80.8076C299.806 81.0137 300.672 81.1167 301.592 81.1167C302.802 81.1167 303.812 80.945 304.623 80.6015C305.447 80.258 306.066 79.7771 306.478 79.1588C306.89 78.5405 307.097 77.826 307.097 77.0153Z" fill="white"/>
<path d="M275 58.7334L266.033 84.7433H260.611L271.908 54.7351H275.372L275 58.7334ZM282.504 84.7433L273.516 58.7334L273.125 54.7351H276.608L287.947 84.7433H282.504ZM282.071 73.6139V77.7153H265.744V73.6139H282.071Z" fill="white"/>
<path d="M253.456 74.9749H258.61C258.445 76.9398 257.895 78.6916 256.961 80.2305C256.026 81.7556 254.714 82.9579 253.023 83.8372C251.333 84.7166 249.278 85.1563 246.86 85.1563C245.004 85.1563 243.334 84.8265 241.85 84.167C240.366 83.4937 239.095 82.5457 238.036 81.3228C236.978 80.0862 236.167 78.5954 235.604 76.8505C235.054 75.1055 234.779 73.1544 234.779 70.9972V68.5034C234.779 66.3462 235.061 64.3951 235.625 62.6502C236.202 60.9052 237.026 59.4144 238.098 58.1778C239.17 56.9275 240.455 55.9725 241.953 55.313C243.465 54.6535 245.162 54.3237 247.045 54.3237C249.436 54.3237 251.457 54.7634 253.106 55.6428C254.755 56.5221 256.033 57.7381 256.94 59.2907C257.861 60.8434 258.424 62.6227 258.631 64.6287H253.477C253.339 63.3372 253.037 62.2311 252.57 61.3105C252.116 60.3899 251.443 59.6892 250.55 59.2083C249.656 58.7137 248.488 58.4663 247.045 58.4663C245.863 58.4663 244.832 58.6862 243.953 59.1259C243.073 59.5655 242.338 60.2113 241.747 61.0632C241.156 61.9151 240.709 62.9662 240.407 64.2165C240.119 65.4531 239.974 66.8683 239.974 68.4622V70.9972C239.974 72.5086 240.105 73.8826 240.366 75.1192C240.641 76.3421 241.053 77.3932 241.603 78.2725C242.166 79.1519 242.881 79.832 243.747 80.3129C244.613 80.7938 245.65 81.0343 246.86 81.0343C248.33 81.0343 249.519 80.8007 250.426 80.3335C251.347 79.8664 252.041 79.1863 252.508 78.2932C252.989 77.3863 253.305 76.2802 253.456 74.9749Z" fill="white"/>
<path d="M542.416 10.4158V40.4239H537.241L523.78 18.9277V40.4239H518.605V10.4158H523.78L537.282 31.9532V10.4158H542.416Z" fill="white"/>
<path d="M502.297 14.4141L493.33 40.4239H487.908L499.205 10.4158H502.668L502.297 14.4141ZM509.801 40.4239L500.813 14.4141L500.421 10.4158H503.905L515.243 40.4239H509.801ZM509.368 29.2945V33.3959H493.041V29.2945H509.368Z" fill="white"/>
<path d="M483.809 10.4158V40.4239H478.635V10.4158H483.809Z" fill="white"/>
<path d="M451.688 10.4158H462.304C464.585 10.4158 466.53 10.7593 468.138 11.4463C469.746 12.1333 470.976 13.15 471.828 14.4966C472.694 15.8293 473.127 17.4781 473.127 19.4429C473.127 20.9406 472.852 22.2596 472.302 23.4001C471.753 24.5405 470.976 25.5023 469.973 26.2855C468.97 27.0549 467.774 27.6526 466.386 28.0785L464.819 28.8411H455.274L455.233 24.7397H462.387C463.623 24.7397 464.654 24.5199 465.479 24.0802C466.303 23.6405 466.922 23.0428 467.334 22.2871C467.76 21.5177 467.973 20.6521 467.973 19.6903C467.973 18.646 467.767 17.7392 467.355 16.9698C466.956 16.1866 466.338 15.5889 465.499 15.1767C464.661 14.7507 463.596 14.5378 462.304 14.5378H456.862V40.4239H451.688V10.4158ZM468.818 40.4239L461.768 26.945L467.19 26.9244L474.343 40.156V40.4239H468.818Z" fill="white"/>
<path d="M435.383 14.4141L426.416 40.4239H420.994L432.291 10.4158H435.754L435.383 14.4141ZM442.887 40.4239L433.899 14.4141L433.507 10.4158H436.991L448.329 40.4239H442.887ZM442.454 29.2945V33.3959H426.127V29.2945H442.454Z" fill="white"/>
<path d="M412.296 10.4158V40.4239H407.163V10.4158H412.296ZM421.717 10.4158V14.5378H397.824V10.4158H421.717Z" fill="white"/>
<path d="M394.133 10.4158V40.4239H388.959V10.4158H394.133Z" fill="white"/>
<path d="M382.445 10.4158V40.4239H377.271L363.809 18.9277V40.4239H358.635V10.4158H363.809L377.312 31.9532V10.4158H382.445Z" fill="white"/>
<path d="M342.327 14.4141L333.359 40.4239H327.938L339.234 10.4158H342.698L342.327 14.4141ZM349.83 40.4239L340.842 14.4141L340.451 10.4158H343.935L355.273 40.4239H349.83ZM349.398 29.2945V33.3959H333.071V29.2945H349.398Z" fill="white"/>
<path d="M295.429 10.4158H300.047L308.725 33.5608L317.384 10.4158H322.001L310.54 40.4239H306.87L295.429 10.4158ZM293.326 10.4158H297.717L298.48 30.4487V40.4239H293.326V10.4158ZM319.713 10.4158H324.125V40.4239H318.95V30.4487L319.713 10.4158Z" fill="white"/>
<path d="M282.546 10.4158H287.699V30.4693C287.699 32.7501 287.205 34.66 286.215 36.1989C285.226 37.7378 283.879 38.8988 282.175 39.682C280.484 40.4514 278.594 40.8361 276.505 40.8361C274.348 40.8361 272.424 40.4514 270.733 39.682C269.043 38.8988 267.71 37.7378 266.734 36.1989C265.772 34.66 265.291 32.7501 265.291 30.4693V10.4158H270.445V30.4693C270.445 31.912 270.692 33.1005 271.187 34.0348C271.682 34.9554 272.383 35.6355 273.29 36.0752C274.197 36.5149 275.269 36.7347 276.505 36.7347C277.742 36.7347 278.807 36.5149 279.701 36.0752C280.608 35.6355 281.309 34.9554 281.803 34.0348C282.298 33.1005 282.546 31.912 282.546 30.4693V10.4158Z" fill="white"/>
<path d="M255.562 22.9466V27.048H239.627V22.9466H255.562ZM240.905 10.4158V40.4239H235.73V10.4158H240.905ZM259.541 10.4158V40.4239H254.387V10.4158H259.541Z" fill="white"/>
</svg>
