<svg width="14" height="14" viewBox="0 0 14 14" fill="none" xmlns="http://www.w3.org/2000/svg">
<path d="M12.5335 3.4186H11.4125C11.336 3.4186 11.2642 3.38441 11.2164 3.32418C11.1048 3.18581 10.9852 3.05232 10.8592 2.92534C10.344 2.39883 9.73375 1.97924 9.06217 1.68976C8.3664 1.38974 7.61858 1.23583 6.86329 1.23721C6.0995 1.23721 5.35963 1.39023 4.66441 1.68976C3.99283 1.97924 3.38256 2.39883 2.86735 2.92534C2.35122 3.45008 1.93967 4.07202 1.6555 4.75674C1.3605 5.4665 1.21221 6.22022 1.21221 6.99999C1.21221 7.77975 1.3621 8.53347 1.6555 9.24324C1.93933 9.92859 2.34753 10.5456 2.86735 11.0746C3.38717 11.6037 3.99151 12.0204 4.66441 12.3102C5.35963 12.6097 6.0995 12.7628 6.86329 12.7628C7.62708 12.7628 8.36695 12.6114 9.06217 12.3102C9.73507 12.0204 10.3394 11.6037 10.8592 11.0746C10.9852 10.946 11.1032 10.8125 11.2164 10.6758C11.2642 10.6156 11.3376 10.5814 11.4125 10.5814H12.5335C12.634 10.5814 12.6961 10.6953 12.6403 10.7816C11.4173 12.7221 9.27744 14.0065 6.84575 14C3.02521 13.9902 -0.0379144 10.8239 0.000354714 6.92836C0.0386239 3.09464 3.09697 -9.53674e-07 6.86329 -9.53674e-07C9.2886 -9.53674e-07 11.4189 1.28279 12.6403 3.21837C12.6946 3.30464 12.634 3.4186 12.5335 3.4186ZM13.9511 7.10254L11.6884 8.9258C11.6039 8.99417 11.4811 8.93231 11.4811 8.82324V7.58603H6.47422C6.40406 7.58603 6.34666 7.52743 6.34666 7.4558V6.54417C6.34666 6.47255 6.40406 6.41394 6.47422 6.41394H11.4811V5.17673C11.4811 5.06767 11.6055 5.00581 11.6884 5.07418L13.9511 6.89743C13.9663 6.90961 13.9786 6.92518 13.9871 6.94295C13.9956 6.96071 14 6.98022 14 6.99999C14 7.01975 13.9956 7.03926 13.9871 7.05703C13.9786 7.0748 13.9663 7.09036 13.9511 7.10254Z" fill="#000000"/>
</svg>
