<svg width="47" height="47" viewBox="0 0 47 47" fill="none" xmlns="http://www.w3.org/2000/svg">
<g clip-path="url(#clip0_3582_389)">
<path d="M23.5 46.5C36.2025 46.5 46.5 36.2025 46.5 23.5C46.5 10.7975 36.2025 0.5 23.5 0.5C10.7975 0.5 0.5 10.7975 0.5 23.5C0.5 36.2025 10.7975 46.5 23.5 46.5Z" fill="white" stroke="#666666"/>
<path d="M22.9996 27.3996C25.4297 27.3996 27.3996 25.4297 27.3996 22.9996C27.3996 20.5696 25.4297 18.5996 22.9996 18.5996C20.5696 18.5996 18.5996 20.5696 18.5996 22.9996C18.5996 25.4297 20.5696 27.3996 22.9996 27.3996Z" fill="#2A2B6A"/>
<path d="M24.1 14.2759V12H21.9V14.2759C19.9643 14.523 18.1655 15.4058 16.7856 16.7856C15.4058 18.1655 14.523 19.9643 14.2759 21.9H12V24.1H14.2759C14.5227 26.0358 15.4053 27.8349 16.7852 29.2148C18.1651 30.5947 19.9642 31.4773 21.9 31.7241V34H24.1V31.7241C26.0359 31.4775 27.835 30.5949 29.215 29.215C30.5949 27.835 31.4775 26.0359 31.7241 24.1H34V21.9H31.7241C31.4773 19.9642 30.5947 18.1651 29.2148 16.7852C27.8349 15.4053 26.0358 14.5227 24.1 14.2759ZM23 29.6C19.3601 29.6 16.4 26.6399 16.4 23C16.4 19.3601 19.3601 16.4 23 16.4C26.6399 16.4 29.6 19.3601 29.6 23C29.6 26.6399 26.6399 29.6 23 29.6Z" fill="#2A2B6A"/>
</g>
<defs>
<clipPath id="clip0_3582_389">
<rect width="47" height="47" fill="white"/>
</clipPath>
</defs>
</svg>
