<svg width="55" height="42" viewBox="0 0 55 42" fill="none" xmlns="http://www.w3.org/2000/svg">
<path d="M30.2156 10.6311C29.9586 10.4481 29.6562 10.3394 29.3415 10.3169C29.0269 10.2944 28.712 10.3589 28.4316 10.5033C28.1511 10.6478 27.9159 10.8667 27.7515 11.136C27.5872 11.4054 27.5002 11.7147 27.5 12.0302V18.5133L16.4656 10.6311C16.2086 10.4481 15.9062 10.3394 15.5915 10.3169C15.2769 10.2944 14.962 10.3589 14.6816 10.5033C14.4011 10.6478 14.1659 10.8667 14.0015 11.136C13.8372 11.4054 13.7502 11.7147 13.75 12.0302V29.2177C13.7502 29.5332 13.8372 29.8425 14.0015 30.1118C14.1659 30.3812 14.4011 30.6 14.6816 30.7445C14.962 30.889 15.2769 30.9535 15.5915 30.931C15.9062 30.9085 16.2086 30.7997 16.4656 30.6168L27.5 22.7346V29.2177C27.5002 29.5332 27.5872 29.8425 27.7515 30.1118C27.9159 30.3812 28.1511 30.6 28.4316 30.7445C28.712 30.889 29.0269 30.9535 29.3415 30.931C29.6562 30.9085 29.9586 30.7997 30.2156 30.6168L42.2469 22.023C42.4697 21.864 42.6513 21.6541 42.7766 21.4108C42.9019 21.1674 42.9673 20.8977 42.9673 20.6239C42.9673 20.3502 42.9019 20.0805 42.7766 19.8371C42.6513 19.5938 42.4697 19.3839 42.2469 19.2249L30.2156 10.6311Z" fill="#2A2B6A"/>
<path d="M0 6.875C0 5.05164 0.724328 3.30295 2.01364 2.01364C3.30295 0.724328 5.05164 0 6.875 0H48.125C49.9484 0 51.697 0.724328 52.9864 2.01364C54.2757 3.30295 55 5.05164 55 6.875V34.375C55 36.1984 54.2757 37.947 52.9864 39.2364C51.697 40.5257 49.9484 41.25 48.125 41.25H6.875C5.05164 41.25 3.30295 40.5257 2.01364 39.2364C0.724328 37.947 0 36.1984 0 34.375V6.875ZM51.5625 6.875C51.5625 5.96332 51.2003 5.08898 50.5557 4.44432C49.911 3.79966 49.0367 3.4375 48.125 3.4375H6.875C5.96332 3.4375 5.08898 3.79966 4.44432 4.44432C3.79966 5.08898 3.4375 5.96332 3.4375 6.875V34.375C3.4375 35.2867 3.79966 36.161 4.44432 36.8057C5.08898 37.4503 5.96332 37.8125 6.875 37.8125H48.125C49.0367 37.8125 49.911 37.4503 50.5557 36.8057C51.2003 36.161 51.5625 35.2867 51.5625 34.375V6.875Z" fill="#2A2B6A"/>
</svg>
