<svg width="8" height="8" viewBox="0 0 8 8" fill="none" xmlns="http://www.w3.org/2000/svg">
<path d="M2.1927 1.10709C2.2924 1.20679 2.43099 1.26759 2.58231 1.269L5.91845 1.269V4.60514C5.91845 4.9092 6.1638 5.15455 6.46786 5.15455C6.77192 5.15455 7.01799 4.90847 7.01729 4.60512L7.01589 0.720284C7.01659 0.415521 6.77051 0.169442 6.46646 0.170856L2.58231 0.170144C2.27896 0.169437 2.03218 0.416223 2.03288 0.719572C2.03288 0.869478 2.093 1.00739 2.1927 1.10709Z" fill="#333333"/>
<path fill-rule="evenodd" clip-rule="evenodd" d="M0.375437 6.89985C0.570699 7.09511 0.887281 7.09511 1.08254 6.89985L6.7394 1.243C6.93466 1.04773 6.93466 0.731152 6.7394 0.53589C6.54414 0.340628 6.22755 0.340628 6.03229 0.53589L0.375437 6.19274C0.180175 6.38801 0.180175 6.70459 0.375437 6.89985Z" fill="#333333"/>
</svg>
