<svg width="17" height="20" viewBox="0 0 17 20" fill="none" xmlns="http://www.w3.org/2000/svg">
<path d="M-4.95127e-07 11.7241C-5.64252e-07 13.3609 0.498515 14.961 1.43251 16.322C2.3665 17.6829 3.69402 18.7437 5.24719 19.37C6.80036 19.9964 8.50943 20.1603 10.1583 19.841C11.8071 19.5217 13.3217 18.7335 14.5104 17.5761C15.6991 16.4187 16.5087 14.944 16.8367 13.3387C17.1646 11.7333 16.9963 10.0693 16.353 8.5571C15.7096 7.04489 14.6202 5.75237 13.2223 4.84301C11.8245 3.93365 10.1811 3.44828 8.5 3.44827L4.10833 3.44827L6.65833 0.965517L5.66667 -5.12756e-07L1.41667 4.13793L5.66666 8.27586L6.65833 7.31034L4.10833 4.82758L8.5 4.82758C9.90095 4.82758 11.2704 5.23206 12.4353 5.98986C13.6001 6.74767 14.508 7.82476 15.0441 9.08494C15.5803 10.3451 15.7205 11.7318 15.4472 13.0696C15.1739 14.4074 14.4993 15.6362 13.5087 16.6007C12.518 17.5652 11.2559 18.2221 9.88189 18.4882C8.50785 18.7543 7.08363 18.6177 5.78932 18.0957C4.49501 17.5737 3.38875 16.6898 2.61042 15.5557C1.8321 14.4215 1.41667 13.0881 1.41667 11.7241L-4.95127e-07 11.7241Z" fill="white"/>
</svg>
