
<svg width="21" height="25" viewBox="0 0 21 25" fill="none" xmlns="http://www.w3.org/2000/svg">
<path d="M1.52686e-06 14.6552C1.44045e-06 16.7012 0.615816 18.7012 1.76957 20.4024C2.92332 22.1036 4.5632 23.4296 6.48182 24.2125C8.40045 24.9955 10.5116 25.2004 12.5484 24.8012C14.5852 24.4021 16.4562 23.4168 17.9246 21.9701C19.3931 20.5233 20.3931 18.68 20.7982 16.6733C21.2034 14.6666 20.9954 12.5866 20.2007 10.6964C19.406 8.80611 18.0602 7.19047 16.3335 6.05376C14.6068 4.91706 12.5767 4.31034 10.5 4.31034L5.075 4.31034L8.225 1.2069L7 -6.33405e-07L1.75 5.17241L7 10.3448L8.225 9.13793L5.075 6.03448L10.5 6.03448C12.2306 6.03448 13.9223 6.54008 15.3612 7.48733C16.8002 8.43458 17.9217 9.78095 18.5839 11.3562C19.2462 12.9314 19.4195 14.6647 19.0819 16.337C18.7442 18.0092 17.9109 19.5453 16.6872 20.7509C15.4635 21.9565 13.9044 22.7776 12.207 23.1102C10.5097 23.4428 8.75037 23.2721 7.15152 22.6196C5.55267 21.9672 4.1861 20.8622 3.22464 19.4446C2.26318 18.0269 1.75 16.3602 1.75 14.6552L1.52686e-06 14.6552Z" fill="white"/>
</svg>
