<svg width="15" height="15" viewBox="0 0 15 15" fill="none" xmlns="http://www.w3.org/2000/svg">
<path d="M3.75 0V3.125C3.75 3.62228 3.94754 4.09919 4.29917 4.45083C4.65081 4.80246 5.12772 5 5.625 5H8.125C8.62228 5 9.09919 4.80246 9.45083 4.45083C9.80246 4.09919 10 3.62228 10 3.125V0H10.4737C11.1367 0.000141594 11.7725 0.263627 12.2413 0.7325L14.2675 2.75875C14.7364 3.22748 14.9999 3.86326 15 4.52625V12.5C15 13.163 14.7366 13.7989 14.2678 14.2678C13.7989 14.7366 13.163 15 12.5 15V9.375C12.5 8.87772 12.3025 8.40081 11.9508 8.04917C11.5992 7.69754 11.1223 7.5 10.625 7.5H4.375C3.34125 7.5 2.5 8.33625 2.5 9.3725V15C1.83696 15 1.20107 14.7366 0.732233 14.2678C0.263392 13.7989 0 13.163 0 12.5V2.5C0 1.83696 0.263392 1.20107 0.732233 0.732233C1.20107 0.263392 1.83696 0 2.5 0H3.75ZM5 0V3.125C5 3.29076 5.06585 3.44973 5.18306 3.56694C5.30027 3.68415 5.45924 3.75 5.625 3.75H8.125C8.29076 3.75 8.44973 3.68415 8.56694 3.56694C8.68415 3.44973 8.75 3.29076 8.75 3.125V0H5ZM3.75 15H11.25V9.375C11.25 9.20924 11.1842 9.05027 11.0669 8.93306C10.9497 8.81585 10.7908 8.75 10.625 8.75H4.375C4.02875 8.75 3.75 9.02875 3.75 9.3725V15Z" fill="#666666"/>
</svg>
