<svg width="15" height="19" viewBox="0 0 15 19" fill="none" xmlns="http://www.w3.org/2000/svg">
<path d="M0.703125 1.425C0.516645 1.425 0.337802 1.34993 0.20594 1.21631C0.0740789 1.08269 0 0.901467 0 0.7125C0 0.523533 0.0740789 0.342306 0.20594 0.208686C0.337802 0.0750667 0.516645 3.98218e-09 0.703125 0H14.2969C14.4834 3.98218e-09 14.6622 0.0750667 14.7941 0.208686C14.9259 0.342306 15 0.523533 15 0.7125C15 0.901467 14.9259 1.08269 14.7941 1.21631C14.6622 1.34993 14.4834 1.425 14.2969 1.425H0.703125ZM1.14375 10.4215C1.0785 10.4876 1.02674 10.5661 0.991427 10.6525C0.956113 10.7389 0.937938 10.8315 0.937938 10.925C0.937938 11.0185 0.956113 11.1111 0.991427 11.1975C1.02674 11.2839 1.0785 11.3624 1.14375 11.4285C1.209 11.4946 1.28646 11.5471 1.37172 11.5829C1.45697 11.6186 1.54835 11.6371 1.64062 11.6371C1.7329 11.6371 1.82428 11.6186 1.90953 11.5829C1.99479 11.5471 2.07225 11.4946 2.1375 11.4285L6.79688 6.70795V18.2875C6.79688 18.4765 6.87095 18.6577 7.00282 18.7913C7.13468 18.9249 7.31352 19 7.5 19C7.68648 19 7.86532 18.9249 7.99718 18.7913C8.12905 18.6577 8.20312 18.4765 8.20312 18.2875V6.70795L12.8625 11.4285C12.9943 11.562 13.173 11.6371 13.3594 11.6371C13.5457 11.6371 13.7245 11.562 13.8563 11.4285C13.988 11.295 14.0621 11.1138 14.0621 10.925C14.0621 10.7362 13.988 10.555 13.8563 10.4215L7.99687 4.484C7.93166 4.41782 7.85421 4.36532 7.76895 4.32949C7.68369 4.29367 7.5923 4.27523 7.5 4.27523C7.4077 4.27523 7.31631 4.29367 7.23105 4.32949C7.14579 4.36532 7.06834 4.41782 7.00313 4.484L1.14375 10.4215Z" fill="#999999"/>
</svg>
