<svg width="15" height="19" viewBox="0 0 15 19" fill="none" xmlns="http://www.w3.org/2000/svg">
<path d="M0.703125 17.575C0.516645 17.575 0.337802 17.6501 0.20594 17.7837C0.0740789 17.9173 0 18.0985 0 18.2875C0 18.4765 0.0740789 18.6577 0.20594 18.7913C0.337802 18.9249 0.516645 19 0.703125 19H14.2969C14.4834 19 14.6622 18.9249 14.7941 18.7913C14.9259 18.6577 15 18.4765 15 18.2875C15 18.0985 14.9259 17.9173 14.7941 17.7837C14.6622 17.6501 14.4834 17.575 14.2969 17.575H0.703125ZM1.14375 8.5785C1.0785 8.51238 1.02674 8.43388 0.991427 8.34749C0.956113 8.2611 0.937938 8.16851 0.937938 8.075C0.937938 7.98149 0.956113 7.8889 0.991427 7.80251C1.02674 7.71612 1.0785 7.63762 1.14375 7.5715C1.209 7.50538 1.28646 7.45293 1.37172 7.41715C1.45697 7.38136 1.54835 7.36294 1.64062 7.36294C1.7329 7.36294 1.82428 7.38136 1.90953 7.41715C1.99479 7.45293 2.07225 7.50538 2.1375 7.5715L6.79688 12.2921V0.7125C6.79688 0.523533 6.87095 0.342306 7.00282 0.208687C7.13468 0.0750656 7.31352 0 7.5 0C7.68648 0 7.86532 0.0750656 7.99718 0.208687C8.12905 0.342306 8.20312 0.523533 8.20312 0.7125V12.2921L12.8625 7.5715C12.9943 7.43796 13.173 7.36294 13.3594 7.36294C13.5457 7.36294 13.7245 7.43796 13.8563 7.5715C13.988 7.70504 14.0621 7.88615 14.0621 8.075C14.0621 8.26385 13.988 8.44496 13.8563 8.5785L7.99687 14.516C7.93166 14.5822 7.85421 14.6347 7.76895 14.6705C7.68369 14.7063 7.5923 14.7248 7.5 14.7248C7.4077 14.7248 7.31631 14.7063 7.23105 14.6705C7.14579 14.6347 7.06834 14.5822 7.00313 14.516L1.14375 8.5785Z" fill="#999999"/>
</svg>
