<svg width="31" height="18" viewBox="0 0 31 18" fill="none" xmlns="http://www.w3.org/2000/svg">
<path d="M0.358062 4.83C0.247532 4.93299 0.158879 5.05719 0.0973907 5.19519C0.0359027 5.33319 0.00283971 5.48216 0.000174541 5.63322C-0.00249063 5.78427 0.0252963 5.93431 0.0818779 6.0744C0.138459 6.21448 0.222676 6.34173 0.329504 6.44856C0.436333 6.55539 0.563584 6.6396 0.703666 6.69618C0.843748 6.75277 0.993792 6.78055 1.14485 6.77789C1.2959 6.77522 1.44487 6.74216 1.58287 6.68067C1.72087 6.61918 1.84507 6.53053 1.94806 6.42L4.52806 3.84L4.52806 16.875C4.52806 17.1734 4.64659 17.4595 4.85757 17.6705C5.06855 17.8815 5.35469 18 5.65306 18C5.95143 18 6.23758 17.8815 6.44856 17.6705C6.65954 17.4595 6.77806 17.1734 6.77806 16.875L6.77806 3.84L9.35806 6.42C9.46106 6.53053 9.58526 6.61918 9.72325 6.68067C9.86125 6.74216 10.0102 6.77522 10.1613 6.77789C10.3123 6.78055 10.4624 6.75277 10.6025 6.69618C10.7425 6.6396 10.8698 6.55538 10.9766 6.44856C11.0834 6.34173 11.1677 6.21448 11.2242 6.0744C11.2808 5.93431 11.3086 5.78427 11.3059 5.63322C11.3033 5.48216 11.2702 5.33319 11.2087 5.19519C11.1472 5.05719 11.0586 4.93299 10.9481 4.83L6.44806 0.33C6.23712 0.119324 5.95119 0.000989654 5.65306 0.000989667C5.35494 0.00098968 5.069 0.119324 4.85806 0.33L0.358062 4.83Z" fill="#2A2B6A"/>
<path d="M29.9476 13.171C30.0581 13.068 30.1468 12.9438 30.2083 12.8058C30.2698 12.6678 30.3028 12.5188 30.3055 12.3678C30.3082 12.2167 30.2804 12.0667 30.2238 11.9266C30.1672 11.7865 30.083 11.6592 29.9762 11.5524C29.8693 11.4456 29.7421 11.3614 29.602 11.3048C29.4619 11.2482 29.3119 11.2204 29.1608 11.2231C29.0098 11.2258 28.8608 11.2588 28.7228 11.3203C28.5848 11.3818 28.4606 11.4704 28.3576 11.581L25.7776 14.161L25.7776 1.12598C25.7776 0.827608 25.6591 0.54146 25.4481 0.330481C25.2371 0.119503 24.951 0.000976328 24.6526 0.000976315C24.3542 0.000976302 24.0681 0.119503 23.8571 0.330481C23.6461 0.541459 23.5276 0.827608 23.5276 1.12598L23.5276 14.161L20.9476 11.581C20.8446 11.4704 20.7204 11.3818 20.5824 11.3203C20.4444 11.2588 20.2954 11.2258 20.1444 11.2231C19.9933 11.2204 19.8433 11.2482 19.7032 11.3048C19.5631 11.3614 19.4359 11.4456 19.329 11.5524C19.2222 11.6592 19.138 11.7865 19.0814 11.9266C19.0248 12.0667 18.997 12.2167 18.9997 12.3678C19.0024 12.5188 19.0354 12.6678 19.0969 12.8058C19.1584 12.9438 19.2471 13.068 19.3576 13.171L23.8576 17.671C24.0685 17.8817 24.3545 18 24.6526 18C24.9507 18 25.2367 17.8817 25.4476 17.671L29.9476 13.171Z" fill="#2A2B6A"/>
</svg>
