<svg width="20" height="16" viewBox="0 0 20 16" fill="none" xmlns="http://www.w3.org/2000/svg">
<path d="M4.28071 0.293C4.46824 0.105529 4.72255 0.000213623 4.98771 0.000213623C5.25288 0.000213623 5.50718 0.105529 5.69471 0.293L9.69471 4.293C9.87687 4.4816 9.97766 4.7342 9.97539 4.9964C9.97311 5.2586 9.86794 5.50941 9.68253 5.69482C9.49712 5.88023 9.24631 5.9854 8.98411 5.98767C8.72192 5.98995 8.46931 5.88916 8.28071 5.707L5.98771 3.414V15C5.98771 15.2652 5.88235 15.5196 5.69482 15.7071C5.50728 15.8946 5.25293 16 4.98771 16C4.7225 16 4.46814 15.8946 4.28061 15.7071C4.09307 15.5196 3.98771 15.2652 3.98771 15V3.414L1.69471 5.707C1.50611 5.88916 1.25351 5.98995 0.99131 5.98767C0.729114 5.9854 0.478301 5.88023 0.292893 5.69482C0.107485 5.50941 0.00231622 5.2586 3.78026e-05 4.9964C-0.00224062 4.7342 0.0985537 4.4816 0.280712 4.293L4.28071 0.293ZM13.9877 12.586V1C13.9877 0.734784 14.0931 0.48043 14.2806 0.292893C14.4681 0.105357 14.7225 0 14.9877 0C15.2529 0 15.5073 0.105357 15.6948 0.292893C15.8824 0.48043 15.9877 0.734784 15.9877 1V12.586L18.2807 10.293C18.4693 10.1108 18.7219 10.01 18.9841 10.0123C19.2463 10.0146 19.4971 10.1198 19.6825 10.3052C19.8679 10.4906 19.9731 10.7414 19.9754 11.0036C19.9777 11.2658 19.8769 11.5184 19.6947 11.707L15.6947 15.707C15.5072 15.8945 15.2529 15.9998 14.9877 15.9998C14.7225 15.9998 14.4682 15.8945 14.2807 15.707L10.2807 11.707C10.0986 11.5184 9.99776 11.2658 10 11.0036C10.0023 10.7414 10.1075 10.4906 10.2929 10.3052C10.4783 10.1198 10.7291 10.0146 10.9913 10.0123C11.2535 10.01 11.5061 10.1108 11.6947 10.293L13.9877 12.586Z" fill="#666666"/>
</svg>
