<svg width="7" height="5" viewBox="0 0 7 5" fill="none" xmlns="http://www.w3.org/2000/svg">
<path id="Vector" d="M6.64979 1.3999e-06L0.34961 8.49116e-07C0.285824 0.000191578 0.2233 0.0169758 0.168768 0.0485467C0.114236 0.0801176 0.0697627 0.125279 0.0401329 0.179171C0.0105032 0.233063 -0.00316007 0.293644 0.000614096 0.354394C0.00438826 0.415143 0.0254563 0.47376 0.0615515 0.523935L3.21164 4.86501C3.34219 5.045 3.6565 5.045 3.78741 4.86501L6.9375 0.523936C6.97396 0.473865 6.99534 0.415219 6.99932 0.354368C7.0033 0.293518 6.98972 0.23279 6.96007 0.178784C6.93041 0.124778 6.88581 0.0795584 6.83111 0.0480389C6.7764 0.0165195 6.71369 -9.49156e-05 6.64979 1.3999e-06Z" fill="#333333"/>
</svg>
