<svg width="14" height="14" viewBox="0 0 14 14" fill="none" xmlns="http://www.w3.org/2000/svg">
<path d="M7 12.04C5.25 12.04 3.703 11.144 2.8 9.8C2.821 8.4 5.6 7.63 7 7.63C8.4 7.63 11.179 8.4 11.2 9.8C10.7372 10.4891 10.1121 11.0538 9.37969 11.4444C8.64728 11.835 7.83006 12.0396 7 12.04ZM7 2.1C7.55695 2.1 8.0911 2.32125 8.48492 2.71508C8.87875 3.1089 9.1 3.64305 9.1 4.2C9.1 4.75695 8.87875 5.2911 8.48492 5.68492C8.0911 6.07875 7.55695 6.3 7 6.3C6.44305 6.3 5.9089 6.07875 5.51508 5.68492C5.12125 5.2911 4.9 4.75695 4.9 4.2C4.9 3.64305 5.12125 3.1089 5.51508 2.71508C5.9089 2.32125 6.44305 2.1 7 2.1ZM7 0C6.08075 0 5.17049 0.18106 4.32122 0.532843C3.47194 0.884626 2.70026 1.40024 2.05025 2.05025C0.737498 3.36301 0 5.14348 0 7C0 8.85651 0.737498 10.637 2.05025 11.9497C2.70026 12.5998 3.47194 13.1154 4.32122 13.4672C5.17049 13.8189 6.08075 14 7 14C8.85651 14 10.637 13.2625 11.9497 11.9497C13.2625 10.637 14 8.85651 14 7C14 3.129 10.85 0 7 0Z" fill="#333333"/>
</svg>
