<svg width="41" height="43" viewBox="0 0 41 43" fill="none" xmlns="http://www.w3.org/2000/svg">
<path d="M20.5 0C17.8692 0 15.3462 1.03092 13.486 2.86597C11.6257 4.70102 10.5806 7.18988 10.5806 9.78503C10.5806 12.3802 11.6257 14.869 13.486 16.7041C15.3462 18.5391 17.8692 19.5701 20.5 19.5701C23.1308 19.5701 25.6538 18.5391 27.514 16.7041C29.3743 14.869 30.4194 12.3802 30.4194 9.78503C30.4194 7.18988 29.3743 4.70102 27.514 2.86597C25.6538 1.03092 23.1308 0 20.5 0ZM9.91936 24.7887C7.28858 24.7887 4.76555 25.8197 2.90531 27.6547C1.04507 29.4898 0 31.9786 0 34.5738V37.6737C0 39.6411 1.44426 41.3163 3.41226 41.6321C14.7283 43.456 26.2717 43.456 37.5877 41.6321C38.5395 41.4776 39.4048 40.995 40.0297 40.2701C40.6546 39.5453 40.9984 38.6252 41 37.6737V34.5738C41 31.9786 39.9549 29.4898 38.0947 27.6547C36.2345 25.8197 33.7114 24.7887 31.0806 24.7887H30.1813C29.6875 24.7905 29.2079 24.8653 28.7423 25.0132L26.4516 25.7516C22.5843 26.997 18.4157 26.997 14.5484 25.7516L12.2577 25.0132C11.7934 24.8662 11.309 24.7906 10.8214 24.7887H9.91936Z" fill="white"/>
</svg>
