<svg width="13" height="15" viewBox="0 0 13 15" fill="none" xmlns="http://www.w3.org/2000/svg">
<path d="M0.650391 10L12.3507 10C12.4692 9.99962 12.5853 9.96605 12.6866 9.90291C12.7878 9.83976 12.8704 9.74944 12.9255 9.64166C12.9805 9.53387 13.0059 9.41271 12.9989 9.29121C12.9919 9.16971 12.9527 9.05248 12.8857 8.95213L7.03552 0.269982C6.79307 -0.0899934 6.20935 -0.0899935 5.96624 0.269982L0.116076 8.95213C0.0483599 9.05227 0.00864986 9.16956 0.00125982 9.29126C-0.00613022 9.41296 0.0190825 9.53442 0.0741586 9.64243C0.129235 9.75044 0.212068 9.84088 0.313658 9.90392C0.415248 9.96696 0.531711 10.0002 0.650391 10Z" fill="#4C4EA0"/>
<path d="M0.650391 15L12.3507 15C12.4692 14.9996 12.5853 14.966 12.6866 14.9029C12.7878 14.8398 12.8704 14.7494 12.9255 14.6417C12.9805 14.5339 13.0059 14.4127 12.9989 14.2912C12.9919 14.1697 12.9527 14.0525 12.8857 13.9521L7.03552 5.26998C6.79307 4.91001 6.20935 4.91001 5.96624 5.26998L0.116076 13.9521C0.0483599 14.0523 0.00864986 14.1696 0.00125982 14.2913C-0.00613022 14.413 0.0190825 14.5344 0.0741586 14.6424C0.129235 14.7504 0.212068 14.8409 0.313658 14.9039C0.415248 14.967 0.531711 15.0002 0.650391 15Z" fill="#2A2B6A"/>
</svg>
