<svg width="13" height="10" viewBox="0 0 13 10" fill="none" xmlns="http://www.w3.org/2000/svg">
<path d="M12.3496 2.59307e-06L0.649276 1.5702e-06C0.530816 0.000383128 0.4147 0.0339518 0.313427 0.0970934C0.212154 0.160235 0.129559 0.250558 0.0745326 0.358342C0.019506 0.466126 -0.00586856 0.587289 0.00114064 0.708787C0.00814984 0.830286 0.0472769 0.94752 0.114311 1.04787L5.96448 9.73002C6.20693 10.09 6.79065 10.09 7.03376 9.73002L12.8839 1.04787C12.9516 0.94773 12.9914 0.830437 12.9987 0.708736C13.0061 0.587035 12.9809 0.465581 12.9258 0.357569C12.8708 0.249557 12.7879 0.159117 12.6863 0.096078C12.5848 0.0330388 12.4683 -0.000189461 12.3496 2.59307e-06Z" fill="#2A2B6A"/>
</svg>
