<svg width="13" height="10" viewBox="0 0 13 10" fill="none" xmlns="http://www.w3.org/2000/svg">
<path d="M0.650391 10H12.3507C12.4692 9.99962 12.5853 9.96605 12.6866 9.90291C12.7878 9.83976 12.8704 9.74944 12.9255 9.64166C12.9805 9.53387 13.0059 9.41271 12.9989 9.29121C12.9919 9.16971 12.9527 9.05248 12.8857 8.95213L7.03552 0.269981C6.79307 -0.0899938 6.20935 -0.0899938 5.96624 0.269981L0.116076 8.95213C0.0483604 9.05227 0.00865037 9.16956 0.00126034 9.29126C-0.0061297 9.41296 0.019083 9.53442 0.0741591 9.64243C0.129235 9.75044 0.212068 9.84088 0.313659 9.90392C0.415249 9.96696 0.531711 10.0002 0.650391 10Z" fill="#2A2B6A"/>
</svg>
