<svg width="10" height="13" viewBox="0 0 10 13" fill="none" xmlns="http://www.w3.org/2000/svg">
<path d="M2.65769e-06 0.650392L2.79721e-06 12.3507C0.000384366 12.4692 0.033953 12.5853 0.0970947 12.6866C0.160236 12.7878 0.25056 12.8704 0.358343 12.9255C0.466127 12.9805 0.58729 13.0059 0.708789 12.9989C0.830287 12.9919 0.947521 12.9527 1.04787 12.8857L9.73002 7.03552C10.09 6.79307 10.09 6.20935 9.73002 5.96624L1.04787 0.116076C0.94773 0.0483606 0.830437 0.00865048 0.708736 0.00126045C0.587035 -0.00612959 0.465581 0.0190831 0.357569 0.0741592C0.249557 0.129235 0.159117 0.212068 0.096078 0.313659C0.0330388 0.415249 -0.000189409 0.531711 2.65769e-06 0.650392Z" fill="#2A2B6A"/>
</svg>
