<svg width="15" height="13" viewBox="0 0 15 13" fill="none" xmlns="http://www.w3.org/2000/svg">
<path d="M10 12.3496L10 0.649275C9.99962 0.530815 9.96605 0.414699 9.90291 0.313426C9.83976 0.212153 9.74944 0.129558 9.64166 0.0745318C9.53387 0.0195053 9.41271 -0.00586927 9.29121 0.00113994C9.16971 0.00814915 9.05248 0.0472762 8.95213 0.11431L0.269981 5.96448C-0.0899937 6.20693 -0.0899937 6.79065 0.269981 7.03376L8.95213 12.8839C9.05227 12.9516 9.16956 12.9913 9.29126 12.9987C9.41296 13.0061 9.53442 12.9809 9.64243 12.9258C9.75044 12.8708 9.84088 12.7879 9.90392 12.6863C9.96696 12.5848 10.0002 12.4683 10 12.3496Z" fill="#4C4EA0"/>
<path d="M15 12.3496L15 0.649275C14.9996 0.530815 14.966 0.414699 14.9029 0.313426C14.8398 0.212153 14.7494 0.129558 14.6417 0.0745318C14.5339 0.0195053 14.4127 -0.00586927 14.2912 0.00113994C14.1697 0.00814915 14.0525 0.0472762 13.9521 0.11431L5.26998 5.96448C4.91001 6.20693 4.91001 6.79065 5.26998 7.03376L13.9521 12.8839C14.0523 12.9516 14.1696 12.9913 14.2913 12.9987C14.413 13.0061 14.5344 12.9809 14.6424 12.9258C14.7504 12.8708 14.8409 12.7879 14.9039 12.6863C14.967 12.5848 15.0002 12.4683 15 12.3496Z" fill="#2A2B6A"/>
</svg>
