<svg width="60" height="60" viewBox="0 0 60 60" fill="none" xmlns="http://www.w3.org/2000/svg">
<path d="M18.0002 8.00028C14.2871 8.00028 10.7261 9.47529 8.10058 12.1008C5.47505 14.7264 4.00004 18.2873 4.00004 22.0004V42.0006C4.00004 45.7137 5.47505 49.2747 8.10058 51.9002C10.7261 54.5257 14.2871 56.0007 18.0002 56.0007H38.0004C41.7134 56.0007 45.2744 54.5257 47.9 51.9002C50.5255 49.2747 52.0005 45.7137 52.0005 42.0006V32.0005C52.0005 31.4701 52.2112 30.9614 52.5863 30.5863C52.9614 30.2112 53.4701 30.0005 54.0005 30.0005C54.531 30.0005 55.0397 30.2112 55.4147 30.5863C55.7898 30.9614 56.0005 31.4701 56.0005 32.0005V42.0006C56.0005 46.7745 54.1041 51.353 50.7284 54.7286C47.3527 58.1043 42.7743 60.0008 38.0004 60.0008H18.0002C13.2262 60.0008 8.64781 58.1043 5.27213 54.7286C1.89644 51.353 0 46.7745 0 42.0006V22.0004C0 17.2265 1.89644 12.6481 5.27213 9.27237C8.64781 5.89669 13.2262 4.00024 18.0002 4.00024H28.0003C28.5307 4.00024 29.0394 4.21096 29.4145 4.58604C29.7896 4.96111 30.0003 5.46983 30.0003 6.00026C30.0003 6.5307 29.7896 7.03941 29.4145 7.41449C29.0394 7.78957 28.5307 8.00028 28.0003 8.00028H18.0002Z" fill="#036298"/>
<path d="M60.0002 12.0001C60.0002 15.1827 58.7359 18.235 56.4855 20.4855C54.235 22.7359 51.1827 24.0002 48.0001 24.0002C44.8175 24.0002 41.7652 22.7359 39.5148 20.4855C37.2643 18.235 36 15.1827 36 12.0001C36 8.81749 37.2643 5.76521 39.5148 3.51475C41.7652 1.26429 44.8175 0 48.0001 0C51.1827 0 54.235 1.26429 56.4855 3.51475C58.7359 5.76521 60.0002 8.81749 60.0002 12.0001Z" fill="#036298"/>
</svg>
