<svg width="6" height="9" viewBox="0 0 6 9" fill="none" xmlns="http://www.w3.org/2000/svg">
<path d="M1.12404e-06 0.450271L7.69966e-07 8.5505C0.000229707 8.63251 0.0203709 8.7129 0.0582559 8.78301C0.0961409 8.85312 0.150335 8.91031 0.215005 8.9484C0.279675 8.9865 0.352373 9.00406 0.425272 8.99921C0.498171 8.99436 0.568512 8.96727 0.628722 8.92086L5.83801 4.87075C6.054 4.70289 6.054 4.29878 5.83801 4.13048L0.628722 0.0803602C0.568638 0.0334801 0.498262 0.00598848 0.425241 0.000872297C0.352221 -0.00424388 0.279348 0.0132111 0.214541 0.0513407C0.149734 0.0894703 0.0954699 0.146816 0.0576463 0.217148C0.0198228 0.28748 -0.000114111 0.368107 1.12404e-06 0.450271Z" fill="black"/>
</svg>
