<svg width="18" height="18" viewBox="0 0 18 18" fill="none" xmlns="http://www.w3.org/2000/svg">
<g clip-path="url(#clip0_5799_40)">
<path d="M15.5 2.5H2.5C2.23478 2.5 1.98043 2.60536 1.79289 2.79289C1.60536 2.98043 1.5 3.23478 1.5 3.5V14.5C1.5 14.7652 1.60536 15.0196 1.79289 15.2071C1.98043 15.3946 2.23478 15.5 2.5 15.5H15.5C15.7652 15.5 16.0196 15.3946 16.2071 15.2071C16.3946 15.0196 16.5 14.7652 16.5 14.5V3.5C16.5 3.23478 16.3946 2.98043 16.2071 2.79289C16.0196 2.60536 15.7652 2.5 15.5 2.5ZM6.5 14.5H2.5V3.5H6.5V14.5ZM11.5 14.5H7.5V3.5H11.5V14.5Z" fill="#999"/>
</g>
<defs>
<clipPath id="clip0_5799_40">
<rect width="18" height="18" fill="white"/>
</clipPath>
</defs>
</svg>
