<svg width="29" height="24" viewBox="0 0 29 24" fill="none" xmlns="http://www.w3.org/2000/svg">
<path d="M8.83338 14H2.83337C2.30302 14 1.79429 14.2107 1.41909 14.5857C1.04409 14.9609 0.833374 15.4697 0.833374 16V22C0.833374 22.5304 1.04409 23.0391 1.41909 23.4143C1.79431 23.7893 2.30303 24 2.83337 24H8.83338C9.36373 24 9.87246 23.7893 10.2477 23.4143C10.6227 23.0391 10.8334 22.5303 10.8334 22V16C10.8334 15.4696 10.6227 14.9609 10.2477 14.5857C9.87244 14.2107 9.36372 14 8.83338 14ZM2.83337 22V16H8.83338V22H2.83337Z" fill="#000"/>
<path d="M13.8334 4H27.8334C28.1907 4 28.5209 3.80938 28.6994 3.5C28.878 3.19062 28.878 2.80937 28.6994 2.5C28.5209 2.19063 28.1907 2 27.8334 2H13.8334C13.476 2 13.1459 2.19062 12.9673 2.5C12.7887 2.80938 12.7887 3.19063 12.9673 3.5C13.1459 3.80937 13.476 4 13.8334 4Z" fill="#000"/>
<path d="M13.8334 8H22.8334C23.1907 8 23.5209 7.80938 23.6994 7.5C23.878 7.19062 23.878 6.80937 23.6994 6.5C23.5209 6.19063 23.1907 6 22.8334 6H13.8334C13.476 6 13.1459 6.19062 12.9673 6.5C12.7887 6.80938 12.7887 7.19063 12.9673 7.5C13.1459 7.80937 13.476 8 13.8334 8Z" fill="#000"/>
<path d="M27.8334 16H13.8334C13.476 16 13.1459 16.1906 12.9673 16.5C12.7887 16.8094 12.7887 17.1906 12.9673 17.5C13.1459 17.8094 13.476 18 13.8334 18H27.8334C28.1907 18 28.5209 17.8094 28.6994 17.5C28.878 17.1906 28.878 16.8094 28.6994 16.5C28.5209 16.1906 28.1907 16 27.8334 16Z" fill="#000"/>
<path d="M22.8334 20H13.8334C13.476 20 13.1459 20.1906 12.9673 20.5C12.7887 20.8094 12.7887 21.1906 12.9673 21.5C13.1459 21.8094 13.476 22 13.8334 22H22.8334C23.1907 22 23.5209 21.8094 23.6994 21.5C23.878 21.1906 23.878 20.8094 23.6994 20.5C23.5209 20.1906 23.1907 20 22.8334 20Z" fill="#000"/>
<path d="M9.83338 5C9.5682 5 9.31373 5.10536 9.12623 5.29286C8.93874 5.48036 8.83338 5.73482 8.83338 6V8H2.83337V2H5.83338C6.19074 2 6.52086 1.80938 6.69943 1.5C6.878 1.19062 6.878 0.809372 6.69943 0.5C6.52086 0.190629 6.19073 0 5.83338 0H2.83337C2.30302 0 1.79429 0.210714 1.41909 0.585714C1.04409 0.960937 0.833374 1.46966 0.833374 2V8C0.833374 8.53036 1.04409 9.03909 1.41909 9.41429C1.79431 9.78929 2.30303 10 2.83337 10H8.83338C9.36373 10 9.87246 9.78929 10.2477 9.41429C10.6227 9.03907 10.8334 8.53034 10.8334 8V6C10.8334 5.73482 10.728 5.48036 10.5405 5.29286C10.353 5.10536 10.0986 5 9.83338 5Z" fill="#000"/>
<path d="M9.12681 1.29271L5.83372 4.58557L5.54064 4.29249V4.29271C5.28662 4.0474 4.92212 3.95409 4.5815 4.0474C4.2411 4.14092 3.97504 4.407 3.8815 4.7474C3.78819 5.08802 3.8815 5.45254 4.12681 5.70654L5.12681 6.70654C5.31431 6.89404 5.56855 6.9994 5.83373 6.9994C6.0989 6.9994 6.35314 6.89404 6.54064 6.70654L10.5406 2.70654C10.7337 2.52038 10.8435 2.26413 10.846 1.99603C10.8482 1.72772 10.7429 1.46991 10.5531 1.2802C10.3634 1.09047 10.1056 0.985105 9.83732 0.98734C9.56923 0.989795 9.31299 1.09962 9.12681 1.29271Z" fill="#000"/>
</svg>
