<svg width="17" height="18" viewBox="0 0 17 18" fill="none" xmlns="http://www.w3.org/2000/svg">
<path id="Vector" d="M7.19231 2.57143H9.80769C9.80769 2.23044 9.66992 1.90341 9.42468 1.66229C9.17944 1.42117 8.84682 1.28571 8.5 1.28571C8.15318 1.28571 7.82056 1.42117 7.57532 1.66229C7.33008 1.90341 7.19231 2.23044 7.19231 2.57143ZM5.88462 2.57143C5.88462 1.88944 6.16016 1.23539 6.65064 0.753154C7.14112 0.270918 7.80636 0 8.5 0C9.19364 0 9.85888 0.270918 10.3494 0.753154C10.8398 1.23539 11.1154 1.88944 11.1154 2.57143H16.3462C16.5196 2.57143 16.6859 2.63916 16.8085 2.75972C16.9311 2.88028 17 3.04379 17 3.21429C17 3.38478 16.9311 3.5483 16.8085 3.66885C16.6859 3.78941 16.5196 3.85714 16.3462 3.85714H15.6086L14.0328 15.2203C13.926 15.9903 13.5389 16.6962 12.9434 17.2073C12.3479 17.7184 11.5842 18 10.7937 18H6.20631C5.41583 18 4.65213 17.7184 4.05659 17.2073C3.46106 16.6962 3.07403 15.9903 2.96715 15.2203L1.39138 3.85714H0.653846C0.480435 3.85714 0.314127 3.78941 0.191507 3.66885C0.0688871 3.5483 0 3.38478 0 3.21429C0 3.04379 0.0688871 2.88028 0.191507 2.75972C0.314127 2.63916 0.480435 2.57143 0.653846 2.57143H5.88462ZM7.19231 7.07143C7.19231 6.90093 7.12342 6.73742 7.0008 6.61686C6.87818 6.4963 6.71187 6.42857 6.53846 6.42857C6.36505 6.42857 6.19874 6.4963 6.07612 6.61686C5.9535 6.73742 5.88462 6.90093 5.88462 7.07143V13.5C5.88462 13.6705 5.9535 13.834 6.07612 13.9546C6.19874 14.0751 6.36505 14.1429 6.53846 14.1429C6.71187 14.1429 6.87818 14.0751 7.0008 13.9546C7.12342 13.834 7.19231 13.6705 7.19231 13.5V7.07143ZM10.4615 6.42857C10.6349 6.42857 10.8013 6.4963 10.9239 6.61686C11.0465 6.73742 11.1154 6.90093 11.1154 7.07143V13.5C11.1154 13.6705 11.0465 13.834 10.9239 13.9546C10.8013 14.0751 10.6349 14.1429 10.4615 14.1429C10.2881 14.1429 10.1218 14.0751 9.9992 13.9546C9.87658 13.834 9.80769 13.6705 9.80769 13.5V7.07143C9.80769 6.90093 9.87658 6.73742 9.9992 6.61686C10.1218 6.4963 10.2881 6.42857 10.4615 6.42857ZM4.26308 15.0467C4.32725 15.5087 4.55946 15.9321 4.91672 16.2387C5.27398 16.5453 5.7321 16.7142 6.20631 16.7143H10.7937C11.2681 16.7145 11.7266 16.5457 12.0841 16.2391C12.4416 15.9325 12.674 15.5089 12.7382 15.0467L14.2892 3.85714H2.71085L4.26308 15.0467Z" fill="black"/>
</svg>
