<svg width="19" height="21" viewBox="0 0 19 21" fill="none" xmlns="http://www.w3.org/2000/svg">
<path d="M9.41113 6.97518e-09C10.2413 -5.43467e-05 11.04 0.317554 11.6434 0.887672C12.2468 1.45779 12.6091 2.23719 12.6561 3.066L12.6611 3.25H17.9111C18.1012 3.25006 18.2841 3.32224 18.4229 3.45197C18.5618 3.5817 18.6462 3.7593 18.6592 3.94888C18.6721 4.13846 18.6126 4.32589 18.4927 4.4733C18.3728 4.62071 18.2014 4.7171 18.0131 4.743L17.9111 4.75H17.1151L15.8351 17.77C15.771 18.4191 15.4782 19.0243 15.0091 19.4775C14.54 19.9306 13.9251 20.2023 13.2741 20.244L13.0981 20.25H5.72413C5.07159 20.25 4.44032 20.0179 3.94314 19.5953C3.44595 19.1727 3.11525 18.587 3.01013 17.943L2.98713 17.769L1.70613 4.75H0.911133C0.729895 4.74999 0.554791 4.68436 0.418202 4.56523C0.281614 4.44611 0.192781 4.28155 0.168133 4.102L0.161133 4C0.16114 3.81876 0.226775 3.64366 0.3459 3.50707C0.465024 3.37048 0.629579 3.28165 0.809133 3.257L0.911133 3.25H6.16113C6.16113 2.38805 6.50354 1.5614 7.11304 0.951903C7.72253 0.34241 8.54918 6.97518e-09 9.41113 6.97518e-09ZM15.6081 4.75H3.21313L4.48013 17.622C4.50819 17.9092 4.63476 18.1779 4.83836 18.3824C5.04196 18.5869 5.31005 18.7147 5.59713 18.744L5.72413 18.75H13.0981C13.6981 18.75 14.2071 18.325 14.3231 17.748L14.3431 17.622L15.6071 4.75H15.6081ZM11.1611 7.5C11.3424 7.50001 11.5175 7.56564 11.6541 7.68477C11.7907 7.80389 11.8795 7.96845 11.9041 8.148L11.9111 8.25V15.25C11.9111 15.44 11.8389 15.6229 11.7092 15.7618C11.5794 15.9006 11.4018 15.9851 11.2123 15.998C11.0227 16.011 10.8352 15.9515 10.6878 15.8316C10.5404 15.7117 10.444 15.5402 10.4181 15.352L10.4111 15.25V8.25C10.4111 8.05109 10.4902 7.86032 10.6308 7.71967C10.7715 7.57902 10.9622 7.5 11.1611 7.5ZM7.66113 7.5C7.84237 7.50001 8.01747 7.56564 8.15406 7.68477C8.29065 7.80389 8.37948 7.96845 8.40413 8.148L8.41113 8.25V15.25C8.41107 15.44 8.33889 15.6229 8.20916 15.7618C8.07943 15.9006 7.90183 15.9851 7.71225 15.998C7.52267 16.011 7.33524 15.9515 7.18783 15.8316C7.04043 15.7117 6.94403 15.5402 6.91813 15.352L6.91113 15.25V8.25C6.91113 8.05109 6.99015 7.86032 7.1308 7.71967C7.27146 7.57902 7.46222 7.5 7.66113 7.5ZM9.41113 1.5C8.97194 1.50002 8.54881 1.66517 8.22574 1.96268C7.90267 2.26019 7.70327 2.6683 7.66713 3.106L7.66113 3.25H11.1611C11.1611 2.78587 10.9768 2.34075 10.6486 2.01256C10.3204 1.68437 9.87526 1.5 9.41113 1.5Z" fill="#000000"/>
</svg>
