<svg width="21" height="23" viewBox="0 0 21 23" fill="none" xmlns="http://www.w3.org/2000/svg">
<path d="M12.2635 3.40653C12.2635 2.86445 12.0482 2.34457 11.6649 1.96126C11.2816 1.57795 10.7617 1.36261 10.2196 1.36261C9.67752 1.36261 9.15764 1.57795 8.77433 1.96126C8.39102 2.34457 8.17568 2.86445 8.17568 3.40653H6.81307C6.81307 2.50306 7.17197 1.6366 7.81082 0.997751C8.44967 0.358902 9.31613 0 10.2196 0C11.1231 0 11.9895 0.358902 12.6284 0.997751C13.2672 1.6366 13.6261 2.50306 13.6261 3.40653H19.7579C19.9386 3.40653 20.1119 3.47831 20.2397 3.60608C20.3674 3.73385 20.4392 3.90715 20.4392 4.08784C20.4392 4.26853 20.3674 4.44183 20.2397 4.5696C20.1119 4.69737 19.9386 4.76915 19.7579 4.76915H19.003L17.2371 20.0713C17.1602 20.7354 16.8418 21.3481 16.3426 21.7928C15.8434 22.2375 15.1981 22.4832 14.5295 22.4831H5.90965C5.24109 22.4832 4.59581 22.2375 4.09659 21.7928C3.59736 21.3481 3.27903 20.7354 3.20214 20.0713L1.43483 4.76915H0.681307C0.521846 4.7692 0.367419 4.71332 0.244918 4.61123C0.122417 4.50915 0.0396037 4.36733 0.0109008 4.21048L0 4.08784C0 3.90715 0.0717805 3.73385 0.19955 3.60608C0.32732 3.47831 0.500613 3.40653 0.681307 3.40653H12.2635ZM17.6295 4.76915H2.80835L4.55522 19.9146C4.59367 20.2468 4.75294 20.5532 5.00269 20.7756C5.25245 20.998 5.57525 21.1207 5.90965 21.1205H14.5295C14.8637 21.1204 15.1862 20.9975 15.4357 20.7751C15.6851 20.5528 15.8442 20.2465 15.8826 19.9146L17.6295 4.76915ZM8.17568 8.17568C8.50952 8.17568 8.78886 8.38689 8.84609 8.66486L8.85699 8.77251V17.1185C8.85699 17.4469 8.55176 17.714 8.17568 17.714C7.84184 17.714 7.56251 17.5028 7.50528 17.2248L7.49437 17.1172V8.77387C7.49437 8.44412 7.7996 8.17704 8.17568 8.17704V8.17568ZM12.2635 8.17568C12.5974 8.17568 12.8767 8.38689 12.9339 8.66486L12.9448 8.77251V17.1185C12.9448 17.4469 12.6396 17.714 12.2635 17.714C11.9297 17.714 11.6503 17.5028 11.5931 17.2248L11.5822 17.1172V8.77387C11.5822 8.44412 11.8874 8.17704 12.2635 8.17704V8.17568Z" fill="#000"/>
</svg>
