<svg width="22" height="20" viewBox="0 0 22 20" fill="none" xmlns="http://www.w3.org/2000/svg">
<path d="M10.8147 14.233C10.8367 14.2601 10.8648 14.2821 10.8969 14.2972C10.929 14.3123 10.9643 14.3202 11 14.3202C11.0357 14.3202 11.071 14.3123 11.1031 14.2972C11.1352 14.2821 11.1633 14.2601 11.1853 14.233L14.4794 10.2074C14.6 10.0597 14.4912 9.84091 14.2941 9.84091H12.1147V0.227273C12.1147 0.102273 12.0088 0 11.8794 0H10.1147C9.98529 0 9.87941 0.102273 9.87941 0.227273V9.83807H7.70588C7.50882 9.83807 7.4 10.0568 7.52059 10.2045L10.8147 14.233ZM21.7647 13.2386H20C19.8706 13.2386 19.7647 13.3409 19.7647 13.4659V17.8409H2.23529V13.4659C2.23529 13.3409 2.12941 13.2386 2 13.2386H0.235294C0.105882 13.2386 0 13.3409 0 13.4659V19.0909C0 19.5938 0.420588 20 0.941176 20H21.0588C21.5794 20 22 19.5938 22 19.0909V13.4659C22 13.3409 21.8941 13.2386 21.7647 13.2386Z" fill="black"/>
</svg>
