<svg width="20" height="19" viewBox="0 0 20 19" fill="none" xmlns="http://www.w3.org/2000/svg">
<path d="M16.3643 0C15.5442 0 14.7231 0.31198 14.0991 0.934908L7.95537 7.08081L12.486 11.6114L18.6307 5.46768C19.8788 4.21857 19.8788 2.18401 18.6307 0.934908C18.0078 0.31198 17.1855 0 16.3643 0ZM7.09088 7.94529L5.25664 9.77729C6.87625 11.3969 8.29879 12.8182 9.78948 14.3089L11.6225 12.4748L7.09088 7.94529ZM5.00432 11.2528L2.4541 13.8019V15.8885H6.98469L8.31177 14.5613L5.00432 11.2528Z" fill="#2A2B6A"/>
<path d="M16.8299 16.3465C16.8299 17.2165 16.1226 17.9499 15.2526 17.9499H2.63049C1.76056 17.9499 1.05201 17.2154 1.05201 16.3465V3.72437C1.05201 2.85444 1.75947 2.17195 2.63049 2.17195H9.99179V1.12109H2.63049C1.17988 1.12109 0 2.27485 0 3.72437V16.3454C0 17.796 1.1788 18.9997 2.63049 18.9997H15.2504C16.701 18.9997 17.8807 17.7939 17.8807 16.3454V9.00896H16.8289L16.8299 16.3465Z" fill="#2A2B6A"/>
</svg>
