<svg width="17" height="17" viewBox="0 0 17 17" fill="none" xmlns="http://www.w3.org/2000/svg">
<g id="Group">
<path id="Vector (Stroke)" fill-rule="evenodd" clip-rule="evenodd" d="M13.1398 0.173957C13.4171 0.0591106 13.7143 0 14.0144 0C14.3145 0 14.6116 0.0591106 14.8889 0.173957C15.1662 0.288803 15.4181 0.457136 15.6303 0.669345C15.8425 0.881553 16.0108 1.13348 16.1257 1.41074C16.2405 1.68801 16.2996 1.98518 16.2996 2.28529C16.2996 2.58539 16.2405 2.88256 16.1257 3.15983C16.0108 3.43709 15.8425 3.68902 15.6303 3.90123L10.5771 8.95446C10.2251 9.30645 9.77774 9.54558 9.29032 9.64308C9.29028 9.64308 9.29035 9.64307 9.29032 9.64308L6.95385 10.1107C6.74075 10.1534 6.52044 10.0867 6.36674 9.93307C6.21305 9.77943 6.1463 9.55914 6.18887 9.34603L6.65564 7.00956C6.75346 6.5221 6.99345 6.07395 7.34519 5.72257L12.3984 0.669345C12.6106 0.457137 12.8626 0.288804 13.1398 0.173957ZM14.0144 1.3C13.885 1.3 13.7568 1.32549 13.6373 1.375C13.5178 1.42452 13.4091 1.49709 13.3177 1.58858L12.3537 2.55258L13.7474 3.94566L14.7111 2.98199C14.8026 2.8905 14.8751 2.78188 14.9246 2.66234C14.9742 2.5428 14.9996 2.41468 14.9996 2.28529C14.9996 2.15589 14.9742 2.02777 14.9246 1.90823C14.8751 1.78869 14.8026 1.68008 14.7111 1.58858C14.6196 1.49709 14.511 1.42452 14.3914 1.375C14.2719 1.32549 14.1437 1.3 14.0144 1.3ZM12.8282 4.8649L11.4344 3.47182L8.26443 6.64181C8.0942 6.81181 7.97776 7.0287 7.93038 7.26456C7.93037 7.26463 7.9304 7.26448 7.93038 7.26456L7.65468 8.64467L9.03518 8.36836C9.27125 8.32115 9.4875 8.20555 9.65783 8.03522L12.8282 4.8649Z" fill="black"/>
<path id="Vector (Stroke)_2" fill-rule="evenodd" clip-rule="evenodd" d="M2.4147 3.06562C2.11907 3.06562 1.83554 3.18307 1.62649 3.39211C1.41744 3.60116 1.3 3.88469 1.3 4.18033V13.8862C1.3 14.1818 1.41744 14.4654 1.62649 14.6744C1.83554 14.8835 2.11907 15.0009 2.4147 15.0009H12.1206C12.4162 15.0009 12.6997 14.8835 12.9088 14.6744C13.1178 14.4654 13.2353 14.1818 13.2353 13.8862V11.2391C13.2353 10.8802 13.5263 10.5891 13.8853 10.5891C14.2443 10.5891 14.5353 10.8802 14.5353 11.2391V13.8862C14.5353 14.5266 14.2809 15.1408 13.828 15.5936C13.3752 16.0465 12.761 16.3009 12.1206 16.3009H2.4147C1.77428 16.3009 1.16009 16.0465 0.70725 15.5936C0.254405 15.1408 0 14.5266 0 13.8862V4.18033C0 3.53991 0.254405 2.92572 0.70725 2.47288C1.16009 2.02003 1.77428 1.76562 2.4147 1.76562H5.06176C5.42074 1.76562 5.71176 2.05664 5.71176 2.41562C5.71176 2.77461 5.42074 3.06562 5.06176 3.06562H2.4147Z" fill="black"/>
</g>
</svg>
