<svg width="21" height="19" viewBox="0 0 21 19" fill="none" xmlns="http://www.w3.org/2000/svg">
<path d="M16.9595 0C16.1394 0 15.3183 0.31198 14.6943 0.934908L8.55059 7.08081L13.0812 11.6114L19.2259 5.46768C20.474 4.21857 20.474 2.18401 19.2259 0.934908C18.603 0.31198 17.7807 0 16.9595 0ZM7.6861 7.94529L5.85186 9.77729C7.47147 11.3969 8.894 12.8182 10.3847 14.3089L12.2177 12.4748L7.6861 7.94529ZM5.59953 11.2528L3.04932 13.8019V15.8885H7.57991L8.90699 14.5613L5.59953 11.2528Z" fill="#000"/>
<path d="M17.4247 16.347C17.4247 17.2169 16.7173 17.9504 15.8474 17.9504H3.22522C2.35528 17.9504 1.64674 17.2159 1.64674 16.347V3.72486C1.64674 2.85493 2.3542 2.17244 3.22522 2.17244H10.5865V1.12158H3.22522C1.77461 1.12158 0.594727 2.27534 0.594727 3.72486V16.3459C0.594727 17.7965 1.77352 19.0001 3.22522 19.0001H15.8451C17.2957 19.0001 18.4755 17.7944 18.4755 16.3459V9.00945H17.4236L17.4247 16.347Z" fill="#000"/>
</svg>
