<svg width="23" height="22" viewBox="0 0 23 22" fill="none" xmlns="http://www.w3.org/2000/svg">
<path fill-rule="evenodd" clip-rule="evenodd" d="M2.49832 2.43461e-07C2.49844 2.43461e-07 2.49821 2.43461e-07 2.49832 2.43461e-07H20.4913C22.5786 2.43461e-07 23.8316 2.35392 22.3605 3.91994L15.3426 11.3999C15.3425 11.4 15.3427 11.3998 15.3426 11.3999C15.3225 11.4215 15.3152 11.4444 15.3153 11.4631L15.3153 11.4642L15.3153 20.2602C15.3153 20.5893 15.2169 20.9099 15.034 21.1858C14.8514 21.4614 14.5928 21.6803 14.2902 21.8214C13.9879 21.9624 13.6516 22.0212 13.3182 21.9932C12.9847 21.9652 12.6635 21.8509 12.3909 21.6602L8.41949 18.8822C8.1914 18.7226 8.00356 18.5138 7.87316 18.2705C7.74268 18.0272 7.67396 17.7571 7.67396 17.4821L7.67396 11.4631C7.67398 11.4443 7.66696 11.4217 7.64677 11.4C7.64672 11.4 7.64683 11.4001 7.64677 11.4L0.628768 3.92118C0.628625 3.92103 0.62891 3.92133 0.628768 3.92118C0.309903 3.58157 0.0993742 3.15969 0.027475 2.70587C-0.044478 2.25171 0.0257601 1.78859 0.228006 1.373C0.4301 0.957726 0.754071 0.609976 1.1569 0.368134C1.55917 0.126626 2.02503 -0.000202821 2.49832 2.43461e-07ZM2.49699 2.2449C2.46163 2.24487 2.42917 2.25447 2.40374 2.26974C2.37857 2.28485 2.36304 2.30366 2.35476 2.32067C2.34664 2.33736 2.34456 2.35392 2.34701 2.36939C2.34948 2.38499 2.35719 2.40306 2.37351 2.42043L9.3928 9.90066C9.79442 10.3293 10.0203 10.885 10.02 11.4642C10.02 11.4646 10.02 11.465 10.02 11.4654L10.02 17.221L12.9692 19.284L12.9692 11.4654C12.9692 11.465 12.9692 11.4646 12.9692 11.4643C12.9689 10.8851 13.1942 10.33 13.5958 9.9013L20.6152 2.41972C20.6418 2.39143 20.6442 2.37575 20.6447 2.37181C20.6459 2.36292 20.6453 2.34449 20.6339 2.3211C20.6225 2.29769 20.605 2.27899 20.5861 2.26706C20.5714 2.25778 20.5446 2.2449 20.4913 2.2449L2.49699 2.2449Z" fill="black"/>
</svg>
