<svg width="31" height="31" viewBox="0 0 31 31" fill="none" xmlns="http://www.w3.org/2000/svg">
<rect width="31" height="30.1622" rx="15.0811" fill="#2A2B6A"/>
<path d="M13.7312 20.8048V19.0361H15.102L17.4235 16.3829L15.102 13.7298H13.6428L12.2278 21.3355C12.1098 21.9987 11.8372 22.5185 11.4097 22.8946C10.9823 23.2708 10.4369 23.4586 9.7736 23.458C9.11031 23.458 8.57231 23.2811 8.1596 22.9273C7.74688 22.5736 7.54053 22.1019 7.54053 21.5123C7.54053 21.0407 7.66582 20.661 7.91639 20.3732C8.16697 20.0855 8.48387 19.942 8.8671 19.9426C9.2356 19.9426 9.54896 20.0678 9.8072 20.3184C10.0654 20.569 10.1943 20.8712 10.1937 21.2249C10.1937 21.2986 10.1898 21.3649 10.1822 21.4239C10.1745 21.4829 10.1636 21.5492 10.1495 21.6229C10.2232 21.6081 10.286 21.5675 10.3378 21.5008C10.3897 21.4342 10.4301 21.3422 10.459 21.2249L11.8298 13.7298H9.3093V11.961H12.1614L12.6257 9.44049C12.7289 8.88038 13.0054 8.42345 13.4553 8.06969C13.9051 7.71594 14.4393 7.53906 15.0578 7.53906C15.7063 7.53906 16.237 7.73068 16.6497 8.11391C17.0624 8.49715 17.2688 8.97619 17.2688 9.55104C17.2688 9.99323 17.1435 10.3582 16.8929 10.6459C16.6423 10.9336 16.3254 11.0772 15.9422 11.0766C15.5737 11.0766 15.2603 10.9513 15.0021 10.7007C14.7438 10.4502 14.615 10.1406 14.6156 9.77213C14.6156 9.69843 14.6194 9.63211 14.6271 9.57315C14.6348 9.51419 14.6457 9.44786 14.6598 9.37416C14.5714 9.40364 14.5051 9.44786 14.4608 9.50682C14.4166 9.56578 14.3798 9.65421 14.3503 9.77213L13.9744 11.961H18.1531V13.7298H17.4456L18.5953 15.0342L19.745 13.7298H19.0375V11.961H23.4594V13.7298H22.0887L19.7671 16.3829L22.0887 19.0361H23.4594V20.8048H19.0375V19.0361H19.745L18.5953 17.7095L17.4456 19.0361H18.1531V20.8048H13.7312Z" fill="white"/>
</svg>
