<svg width="31" height="31" viewBox="0 0 31 31" fill="none" xmlns="http://www.w3.org/2000/svg">
<g clip-path="url(#clip0_306_5)">
<path fill-rule="evenodd" clip-rule="evenodd" d="M15.0811 0H15.9189C24.248 0 31 6.75204 31 15.0811C31 23.4102 24.248 30.1622 15.9189 30.1622H15.0811C6.75204 30.1622 0 23.4102 0 15.0811C0 6.75204 6.75204 0 15.0811 0ZM13.7312 19.0361V20.8048H18.1531V19.0361H17.4456L18.5953 17.7095L19.745 19.0361H19.0375V20.8048H23.4594V19.0361H22.0887L19.7671 16.3829L22.0887 13.7298H23.4594V11.961H19.0375V13.7298H19.745L18.5953 15.0342L17.4456 13.7298H18.1531V11.961H13.9744L14.3503 9.77213C14.3798 9.65421 14.4166 9.56578 14.4608 9.50682C14.5051 9.44786 14.5714 9.40364 14.6598 9.37416C14.6457 9.44786 14.6348 9.51419 14.6271 9.57315C14.6194 9.63211 14.6156 9.69843 14.6156 9.77213C14.615 10.1406 14.7438 10.4502 15.0021 10.7007C15.2603 10.9513 15.5737 11.0766 15.9422 11.0766C16.3254 11.0772 16.6423 10.9336 16.8929 10.6459C17.1435 10.3582 17.2688 9.99323 17.2688 9.55104C17.2688 8.97619 17.0624 8.49715 16.6497 8.11391C16.237 7.73068 15.7063 7.53906 15.0578 7.53906C14.4393 7.53906 13.9051 7.71594 13.4553 8.06969C13.0054 8.42345 12.7289 8.88038 12.6257 9.44049L12.1614 11.961H9.3093V13.7298H11.8298L10.459 21.2249C10.4301 21.3422 10.3897 21.4342 10.3378 21.5008C10.286 21.5675 10.2232 21.6081 10.1495 21.6229C10.1636 21.5492 10.1745 21.4829 10.1822 21.4239C10.1898 21.3649 10.1937 21.2986 10.1937 21.2249C10.1943 20.8712 10.0654 20.569 9.8072 20.3184C9.54896 20.0678 9.2356 19.9426 8.8671 19.9426C8.48387 19.942 8.16697 20.0855 7.91639 20.3732C7.66582 20.661 7.54053 21.0407 7.54053 21.5123C7.54053 22.1019 7.74688 22.5736 8.1596 22.9273C8.57231 23.2811 9.11031 23.458 9.7736 23.458C10.4369 23.4586 10.9823 23.2708 11.4097 22.8946C11.8372 22.5185 12.1098 21.9987 12.2278 21.3355L13.6428 13.7298H15.102L17.4235 16.3829L15.102 19.0361H13.7312Z" fill="black"/>
</g>
<defs>
<clipPath id="clip0_306_5">
<rect width="31" height="31" fill="white"/>
</clipPath>
</defs>
</svg>
