<svg width="12" height="12" viewBox="0 0 12 12" fill="none" xmlns="http://www.w3.org/2000/svg">
<path d="M5.93289 0C4.75947 0 3.61241 0.347958 2.63675 0.999871C1.6611 1.65179 0.900662 2.57838 0.451617 3.66247C0.00257053 4.74656 -0.11492 5.93947 0.114001 7.09033C0.342923 8.2412 0.907975 9.29834 1.7377 10.1281C2.56743 10.9578 3.62457 11.5228 4.77544 11.7518C5.92631 11.9807 7.11921 11.8632 8.2033 11.4142C9.2874 10.9651 10.214 10.2047 10.8659 9.22902C11.5178 8.25336 11.8658 7.1063 11.8658 5.93288C11.8639 4.35995 11.2383 2.85197 10.126 1.73974C9.0138 0.627511 7.50582 0.00184725 5.93289 0ZM10.6775 3.72259H8.34036C8.08603 2.6677 7.62218 1.67471 6.97638 0.802684C7.7781 0.967439 8.53024 1.31724 9.17282 1.82419C9.8154 2.33115 10.3306 2.98123 10.6775 3.72259ZM11.1678 5.93288C11.1682 6.44519 11.0931 6.95476 10.945 7.44519H8.48403C8.65001 6.44382 8.65001 5.42195 8.48403 4.42058H10.945C11.0931 4.91101 11.1682 5.42058 11.1678 5.93288ZM5.93289 11.1678C5.91838 11.1679 5.90403 11.1648 5.89079 11.1589C5.87755 11.153 5.86572 11.1443 5.85611 11.1335C5.10694 10.3267 4.55669 9.29078 4.24609 8.14318H7.61969C7.30908 9.29078 6.75884 10.3267 6.00967 11.1335C6.00005 11.1443 5.98823 11.153 5.97499 11.1589C5.96174 11.1648 5.94739 11.1679 5.93289 11.1678ZM4.08962 7.44519C3.91048 6.44494 3.91048 5.42083 4.08962 4.42058H7.77615C7.9553 5.42083 7.9553 6.44494 7.77615 7.44519H4.08962ZM0.697989 5.93288C0.697597 5.42058 0.772661 4.91101 0.920763 4.42058H3.38175C3.21577 5.42195 3.21577 6.44382 3.38175 7.44519H0.920763C0.772661 6.95476 0.697597 6.44519 0.697989 5.93288ZM5.93289 0.697986C5.94739 0.697906 5.96174 0.700927 5.97499 0.706845C5.98823 0.712764 6.00005 0.721444 6.00967 0.732304C6.75884 1.53906 7.30908 2.57499 7.61969 3.72259H4.24609C4.55669 2.57499 5.10694 1.53906 5.85611 0.732304C5.86572 0.721444 5.87755 0.712764 5.89079 0.706845C5.90403 0.700927 5.91838 0.697906 5.93289 0.697986ZM4.8894 0.802684C4.2436 1.67471 3.77974 2.6677 3.52542 3.72259H1.18832C1.53514 2.98123 2.05038 2.33115 2.69295 1.82419C3.33553 1.31724 4.08767 0.967439 4.8894 0.802684ZM1.18832 8.14318H3.52542C3.77974 9.19807 4.2436 10.1911 4.8894 11.0631C4.08767 10.8983 3.33553 10.5485 2.69295 10.0416C2.05038 9.53462 1.53514 8.88454 1.18832 8.14318ZM6.97638 11.0631C7.62218 10.1911 8.08603 9.19807 8.34036 8.14318H10.6775C10.3306 8.88454 9.8154 9.53462 9.17282 10.0416C8.53024 10.5485 7.7781 10.8983 6.97638 11.0631Z" fill="#2A2B6A"/>
</svg>
