<svg width="58" height="58" viewBox="0 0 58 58" fill="none" xmlns="http://www.w3.org/2000/svg">
<path d="M39.732 56.1508L52.9141 42.8589L46.6529 36.5455L33.4708 49.8374C33.2893 50.0206 33.1604 50.25 33.0977 50.5011L31.6367 58.0002L39.0724 56.527C39.3221 56.464 39.5505 56.3338 39.732 56.1508ZM57.1695 38.5679C57.7014 38.0314 58.0002 37.304 58.0002 36.5455C58.0002 35.787 57.7014 35.0595 57.1695 34.523L54.9199 32.2545C54.3879 31.7183 53.6663 31.417 52.9141 31.417C52.1618 31.417 51.4403 31.7183 50.9083 32.2545L48.6586 34.523L54.9199 40.8364L57.1695 38.5679Z" fill="#025532"/>
<path d="M10.2057 12.3529C11.3332 12.3529 12.2473 11.4312 12.2473 10.2942C12.2473 9.15727 11.3332 8.2356 10.2057 8.2356C9.07812 8.2356 8.16406 9.15727 8.16406 10.2942C8.16406 11.4312 9.07812 12.3529 10.2057 12.3529Z" fill="#025532"/>
<path d="M10.2057 28.8209C11.3332 28.8209 12.2473 27.8993 12.2473 26.7623C12.2473 25.6254 11.3332 24.7036 10.2057 24.7036C9.07812 24.7036 8.16406 25.6254 8.16406 26.7623C8.16406 27.8993 9.07812 28.8209 10.2057 28.8209Z" fill="#025532"/>
<path d="M10.2057 45.2891C11.3332 45.2891 12.2473 44.3675 12.2473 43.2306C12.2473 42.0936 11.3332 41.1719 10.2057 41.1719C9.07812 41.1719 8.16406 42.0936 8.16406 43.2306C8.16406 44.3675 9.07812 45.2891 10.2057 45.2891Z" fill="#025532"/>
<path d="M36.7491 0H4.08324C3.0003 0 1.96171 0.433782 1.19595 1.20592C0.430197 1.97805 0 3.0253 0 4.11726V49.4071C0 50.4991 0.430197 51.5464 1.19595 52.3186C1.96171 53.0907 3.0003 53.5244 4.08324 53.5244H27.6063V49.4071H4.08324V37.0553H40.8324V4.11726C40.8324 3.0253 40.4022 1.97805 39.6365 1.20592C38.8707 0.433782 37.8321 0 36.7491 0ZM36.7491 32.9381H4.08324V20.5863H36.7491V32.9381ZM36.7491 16.469H4.08324V4.11726H36.7491V16.469Z" fill="#025532"/>
</svg>
