<svg width="42" height="42" viewBox="0 0 42 42" fill="none" xmlns="http://www.w3.org/2000/svg">
<path d="M21 0C16.8466 0 12.7865 1.23163 9.33303 3.53914C5.8796 5.84665 3.18798 9.1264 1.59854 12.9636C0.0090989 16.8009 -0.406771 21.0233 0.403518 25.0969C1.21381 29.1705 3.21386 32.9123 6.15077 35.8492C9.08767 38.7861 12.8295 40.7862 16.9031 41.5965C20.9767 42.4068 25.1991 41.9909 29.0364 40.4015C32.8736 38.812 36.1534 36.1204 38.4609 32.667C40.7684 29.2135 42 25.1534 42 21C42 15.4304 39.7875 10.089 35.8492 6.15076C31.911 2.21249 26.5695 0 21 0ZM20.7113 33.9281C20.2829 33.9281 19.8642 33.8011 19.5081 33.5631C19.152 33.3252 18.8744 32.987 18.7105 32.5912C18.5466 32.1955 18.5037 31.7601 18.5872 31.34C18.6708 30.9199 18.8771 30.534 19.1799 30.2312C19.4828 29.9283 19.8687 29.722 20.2888 29.6385C20.7089 29.5549 21.1443 29.5978 21.54 29.7617C21.9357 29.9256 22.2739 30.2032 22.5119 30.5593C22.7499 30.9155 22.8769 31.3342 22.8769 31.7625C22.8769 32.3369 22.6487 32.8877 22.2426 33.2938C21.8364 33.7 21.2856 33.9281 20.7113 33.9281ZM22.5094 23.3494V25.6069C22.5066 26.066 22.3284 26.5067 22.0111 26.8386C21.6939 27.1705 21.2617 27.3684 20.8031 27.3919H20.6588C20.4267 27.4006 20.1952 27.3633 19.9776 27.2822C19.76 27.201 19.5607 27.0775 19.391 26.9189C19.2214 26.7603 19.0849 26.5696 18.9894 26.3579C18.8938 26.1463 18.8411 25.9178 18.8344 25.6856V22.0631C18.8127 21.8527 18.8341 21.6401 18.8971 21.4381C18.9601 21.2362 19.0635 21.0492 19.2009 20.8884C19.3384 20.7276 19.5071 20.5965 19.6967 20.5028C19.8864 20.4092 20.0932 20.3551 20.3044 20.3437C22.365 20.1862 25.7906 19.425 25.7906 16.0781C25.7906 13.6762 23.94 12.0487 21.2888 12.0487C20.2837 12.0653 19.2941 12.2991 18.3879 12.7341C17.4817 13.1691 16.6803 13.7949 16.0388 14.5687C15.7961 14.8266 15.4822 15.0064 15.1371 15.0854C14.792 15.1644 14.4311 15.139 14.1005 15.0123C13.7698 14.8857 13.4843 14.6636 13.2802 14.3743C13.0762 14.0849 12.9627 13.7415 12.9544 13.3875C12.9621 12.8927 13.165 12.421 13.5188 12.075C14.4935 10.9466 15.7038 10.0456 17.0644 9.4356C18.425 8.82559 19.9028 8.52137 21.3938 8.54437C26.25 8.54437 29.6363 11.5631 29.6363 15.8944C29.6363 19.8975 27.0506 22.575 22.5094 23.3494Z" fill="white"/>
</svg>
