<svg width="22" height="16" viewBox="0 0 22 16" fill="none" xmlns="http://www.w3.org/2000/svg">
<path fill-rule="evenodd" clip-rule="evenodd" d="M7.28491 0H18.3649C19.1606 0 19.9236 0.316071 20.4862 0.87868C21.0488 1.44129 21.3649 2.20435 21.3649 3V13C21.3649 13.7956 21.0488 14.5587 20.4862 15.1213C19.9236 15.6839 19.1606 16 18.3649 16H7.28491C6.85208 16 6.42438 15.9063 6.03116 15.7254C5.63795 15.5445 5.28854 15.2807 5.00691 14.952L0.72191 9.952C0.256055 9.40832 0 8.71596 0 8C0 7.28404 0.256055 6.59168 0.72191 6.048L5.00691 1.048C5.28854 0.719325 5.63795 0.455482 6.03116 0.274583C6.42438 0.0936843 6.85208 1.30469e-05 7.28491 0ZM9.65791 5.293C9.84544 5.10553 10.0997 5.00021 10.3649 5.00021C10.6301 5.00021 10.8844 5.10553 11.0719 5.293L12.3649 6.586L13.6579 5.293C13.7502 5.19749 13.8605 5.12131 13.9825 5.0689C14.1045 5.01649 14.2357 4.9889 14.3685 4.98775C14.5013 4.9866 14.633 5.0119 14.7559 5.06218C14.8788 5.11246 14.9904 5.18671 15.0843 5.28061C15.1782 5.3745 15.2524 5.48615 15.3027 5.60905C15.353 5.73194 15.3783 5.86362 15.3772 5.9964C15.376 6.12918 15.3484 6.2604 15.296 6.3824C15.2436 6.50441 15.1674 6.61475 15.0719 6.707L13.7789 8L15.0719 9.293C15.2541 9.4816 15.3549 9.7342 15.3526 9.9964C15.3503 10.2586 15.2451 10.5094 15.0597 10.6948C14.8743 10.8802 14.6235 10.9854 14.3613 10.9877C14.0991 10.99 13.8465 10.8892 13.6579 10.707L12.3649 9.414L11.0719 10.707C10.9797 10.8025 10.8693 10.8787 10.7473 10.9311C10.6253 10.9835 10.4941 11.0111 10.3613 11.0123C10.2285 11.0134 10.0969 10.9881 9.97396 10.9378C9.85106 10.8875 9.73941 10.8133 9.64551 10.7194C9.55162 10.6255 9.47737 10.5139 9.42709 10.391C9.37681 10.2681 9.3515 10.1364 9.35266 10.0036C9.35381 9.87082 9.3814 9.7396 9.43381 9.6176C9.48622 9.49559 9.5624 9.38525 9.65791 9.293L10.9509 8L9.65791 6.707C9.47044 6.51947 9.36512 6.26516 9.36512 6C9.36512 5.73484 9.47044 5.48053 9.65791 5.293Z" fill="black"/>
</svg>
