<svg width="15" height="14" viewBox="0 0 15 14" fill="none" xmlns="http://www.w3.org/2000/svg">
<path d="M7 6H7.5V10.5H8M14 7C14 8.72391 13.3152 10.3772 12.0962 11.5962C10.8772 12.8152 9.22391 13.5 7.5 13.5C5.77609 13.5 4.12279 12.8152 2.90381 11.5962C1.68482 10.3772 1 8.72391 1 7C1 5.27609 1.68482 3.62279 2.90381 2.40381C4.12279 1.18482 5.77609 0.5 7.5 0.5C9.22391 0.5 10.8772 1.18482 12.0962 2.40381C13.3152 3.62279 14 5.27609 14 7Z" stroke="black" stroke-linecap="round" stroke-linejoin="round"/>
<path d="M8 3.75C8 3.88261 7.94732 4.00979 7.85355 4.10355C7.75979 4.19732 7.63261 4.25 7.5 4.25C7.36739 4.25 7.24021 4.19732 7.14645 4.10355C7.05268 4.00979 7 3.88261 7 3.75C7 3.61739 7.05268 3.49021 7.14645 3.39645C7.24021 3.30268 7.36739 3.25 7.5 3.25C7.63261 3.25 7.75979 3.30268 7.85355 3.39645C7.94732 3.49021 8 3.61739 8 3.75Z" fill="black" stroke="black" stroke-width="0.5"/>
</svg>
