<svg width="6" height="19" viewBox="0 0 6 19" fill="none" xmlns="http://www.w3.org/2000/svg">
<path d="M3.26113 18.864C2.56513 18.048 1.96813 17.121 1.47013 16.083C0.978131 15.045 0.603131 13.959 0.345131 12.825C0.0931307 11.685 -0.0208695 10.554 0.0031304 9.432C-0.0208695 8.31 0.0931307 7.179 0.345131 6.039C0.603131 4.899 0.978131 3.813 1.47013 2.781C1.96813 1.743 2.56513 0.816 3.26113 0L5.07913 1.332C4.34713 2.214 3.77413 3.096 3.36013 3.978C2.94613 4.854 2.65213 5.745 2.47813 6.651C2.31013 7.551 2.22313 8.478 2.21713 9.432C2.22313 10.386 2.31013 11.316 2.47813 12.222C2.65213 13.122 2.94613 14.013 3.36013 14.895C3.77413 15.771 4.34713 16.65 5.07913 17.532L3.26113 18.864Z" fill="#666666"/>
</svg>
