<svg width="15" height="15" viewBox="0 0 15 15" fill="none" xmlns="http://www.w3.org/2000/svg">
<path fill-rule="evenodd" clip-rule="evenodd" d="M9.61575 2.2107C9.82412 2.00232 10.0715 1.83703 10.3438 1.72425C10.616 1.61148 10.9078 1.55343 11.2025 1.55343C11.4972 1.55343 11.789 1.61148 12.0613 1.72425C12.3335 1.83703 12.5809 2.00232 12.7893 2.2107C12.9977 2.41908 13.163 2.66646 13.2757 2.93872C13.3885 3.21098 13.4466 3.50278 13.4466 3.79748C13.4466 4.09217 13.3885 4.38398 13.2757 4.65623C13.163 4.92849 12.9977 5.17588 12.7893 5.38425L12.0877 6.08373C11.9403 6.23649 11.8588 6.44103 11.8607 6.6533C11.8626 6.86557 11.9479 7.06858 12.0981 7.21862C12.2482 7.36865 12.4513 7.4537 12.6636 7.45544C12.8759 7.45718 13.0803 7.37548 13.233 7.22794L13.9335 6.52846C14.6292 5.79837 15.0119 4.82518 14.9997 3.81676C14.9876 2.80834 14.5816 1.84465 13.8685 1.13154C13.1553 0.418429 12.1917 0.0124352 11.1832 0.000280929C10.1748 -0.0118733 9.20163 0.370776 8.47154 1.06649L5.60994 3.92485C4.88618 4.64944 4.47964 5.6317 4.47964 6.65584C4.47964 7.67998 4.88618 8.66223 5.60994 9.38682C5.76256 9.53436 5.96702 9.61606 6.1793 9.61432C6.39157 9.61258 6.59466 9.52753 6.74483 9.3775C6.89501 9.22746 6.98025 9.02445 6.98219 8.81218C6.98414 8.59991 6.90263 8.39537 6.75523 8.24261C6.33468 7.82162 6.09846 7.2509 6.09846 6.65584C6.09846 6.06078 6.33468 5.49005 6.75523 5.06906L9.61575 2.2107ZM9.45383 5.54185C9.30067 5.39481 9.09587 5.31381 8.88357 5.31633C8.67126 5.31884 8.46844 5.40465 8.3188 5.55528C8.16916 5.70591 8.08469 5.9093 8.08357 6.12162C8.08246 6.33393 8.16481 6.53819 8.31286 6.69038C9.19368 7.56472 9.19584 8.98959 8.31718 9.86609L5.45234 12.7234C5.24368 12.9317 4.99602 13.097 4.7235 13.2097C4.45098 13.3223 4.15893 13.3802 3.86404 13.38C3.56915 13.3798 3.27718 13.3215 3.00481 13.2085C2.73245 13.0954 2.48501 12.9299 2.27663 12.7212C1.85579 12.2998 1.61959 11.7285 1.62 11.1329C1.6204 10.5373 1.85738 9.96634 2.27879 9.5455L2.97719 8.8471C3.12019 8.69363 3.19804 8.49065 3.19434 8.28091C3.19064 8.07117 3.10568 7.87106 2.95735 7.72273C2.80902 7.5744 2.60891 7.48944 2.39917 7.48574C2.18943 7.48204 1.98645 7.55989 1.83298 7.70289L1.1335 8.40129C0.40834 9.12559 0.000607975 10.1083 6.79367e-07 11.1332C-0.000606616 12.1581 0.405961 13.1413 1.13026 13.8665C1.85457 14.5917 2.83727 14.9994 3.8622 15C4.88712 15.0006 5.87031 14.594 6.59547 13.8697L9.46031 11.0125C9.82013 10.6534 10.1055 10.2267 10.2999 9.75707C10.4944 9.28739 10.5941 8.78392 10.5934 8.27559C10.5927 7.76725 10.4916 7.26406 10.2958 6.79492C10.1001 6.32578 9.81356 5.89994 9.45275 5.54185H9.45383Z" fill="white"/>
</svg>
