<svg width="11" height="15" viewBox="0 0 11 15" fill="none" xmlns="http://www.w3.org/2000/svg">
<path d="M0.515625 13.875C0.378873 13.875 0.247721 13.9343 0.151023 14.0398C0.0543246 14.1452 0 14.2883 0 14.4375C0 14.5867 0.0543246 14.7298 0.151023 14.8352C0.247721 14.9407 0.378873 15 0.515625 15H10.4844C10.6211 15 10.7523 14.9407 10.849 14.8352C10.9457 14.7298 11 14.5867 11 14.4375C11 14.2883 10.9457 14.1452 10.849 14.0398C10.7523 13.9343 10.6211 13.875 10.4844 13.875H0.515625ZM0.83875 6.7725C0.790899 6.7203 0.752943 6.65833 0.727046 6.59013C0.70115 6.52192 0.687821 6.44882 0.687821 6.375C0.687821 6.30118 0.70115 6.22808 0.727046 6.15987C0.752943 6.09167 0.790899 6.0297 0.83875 5.9775C0.8866 5.9253 0.943407 5.88389 1.00593 5.85564C1.06845 5.82739 1.13545 5.81285 1.20312 5.81285C1.2708 5.81285 1.3378 5.82739 1.40032 5.85564C1.46284 5.88389 1.51965 5.9253 1.5675 5.9775L4.98438 9.70425V0.5625C4.98438 0.413316 5.0387 0.270241 5.1354 0.164752C5.2321 0.0592632 5.36325 0 5.5 0C5.63675 0 5.7679 0.0592632 5.8646 0.164752C5.9613 0.270241 6.01562 0.413316 6.01562 0.5625V9.70425L9.4325 5.9775C9.52914 5.87208 9.66021 5.81285 9.79688 5.81285C9.93354 5.81285 10.0646 5.87208 10.1613 5.9775C10.2579 6.08292 10.3122 6.22591 10.3122 6.375C10.3122 6.52409 10.2579 6.66708 10.1613 6.7725L5.86437 11.46C5.81655 11.5122 5.75975 11.5537 5.69723 11.582C5.63471 11.6103 5.56768 11.6248 5.5 11.6248C5.43232 11.6248 5.36529 11.6103 5.30277 11.582C5.24025 11.5537 5.18345 11.5122 5.13563 11.46L0.83875 6.7725Z" fill="#999999"/>
</svg>
