<svg width="11" height="15" viewBox="0 0 11 15" fill="none" xmlns="http://www.w3.org/2000/svg">
<path d="M0.515625 1.125C0.378873 1.125 0.247721 1.06574 0.151023 0.960248C0.0543246 0.854758 0 0.711684 0 0.5625C0 0.413316 0.0543246 0.270242 0.151023 0.164752C0.247721 0.0592632 0.378873 3.14382e-09 0.515625 0H10.4844C10.6211 3.14382e-09 10.7523 0.0592632 10.849 0.164752C10.9457 0.270242 11 0.413316 11 0.5625C11 0.711684 10.9457 0.854758 10.849 0.960248C10.7523 1.06574 10.6211 1.125 10.4844 1.125H0.515625ZM0.83875 8.2275C0.790899 8.2797 0.752943 8.34167 0.727046 8.40987C0.70115 8.47808 0.687821 8.55118 0.687821 8.625C0.687821 8.69882 0.70115 8.77192 0.727046 8.84013C0.752943 8.90833 0.7909 8.9703 0.83875 9.0225C0.8866 9.0747 0.943407 9.11611 1.00593 9.14436C1.06845 9.17261 1.13545 9.18715 1.20312 9.18715C1.2708 9.18715 1.3378 9.17261 1.40032 9.14436C1.46284 9.11611 1.51965 9.0747 1.5675 9.0225L4.98438 5.29575V14.4375C4.98438 14.5867 5.0387 14.7298 5.1354 14.8352C5.2321 14.9407 5.36325 15 5.5 15C5.63675 15 5.7679 14.9407 5.8646 14.8352C5.9613 14.7298 6.01562 14.5867 6.01562 14.4375V5.29575L9.4325 9.0225C9.52914 9.12792 9.66021 9.18715 9.79688 9.18715C9.93354 9.18715 10.0646 9.12792 10.1613 9.0225C10.2579 8.91708 10.3122 8.77409 10.3122 8.625C10.3122 8.47591 10.2579 8.33292 10.1613 8.2275L5.86438 3.54C5.81655 3.48775 5.75975 3.4463 5.69723 3.41802C5.6347 3.38974 5.56768 3.37518 5.5 3.37518C5.43232 3.37518 5.3653 3.38974 5.30277 3.41802C5.24025 3.4463 5.18345 3.48775 5.13563 3.54L0.83875 8.2275Z" fill="#999999"/>
</svg>
