<svg width="59" height="86" viewBox="0 0 59 86" fill="none" xmlns="http://www.w3.org/2000/svg">
<path d="M29.5 0C13.1907 0 0 13.459 0 30.1C0 52.675 29.5 86 29.5 86C29.5 86 59 52.675 59 30.1C59 13.459 45.8093 0 29.5 0ZM29.5 40.85C26.7058 40.85 24.026 39.7174 22.0501 37.7014C20.0743 35.6854 18.9643 32.9511 18.9643 30.1C18.9643 27.2489 20.0743 24.5146 22.0501 22.4986C24.026 20.4826 26.7058 19.35 29.5 19.35C32.2942 19.35 34.974 20.4826 36.9499 22.4986C38.9257 24.5146 40.0357 27.2489 40.0357 30.1C40.0357 32.9511 38.9257 35.6854 36.9499 37.7014C34.974 39.7174 32.2942 40.85 29.5 40.85Z" fill="#333333"/>
</svg>
