<svg width="12" height="11" viewBox="0 0 12 11" fill="none" xmlns="http://www.w3.org/2000/svg">
<path d="M6.17012 0.861296C6.17012 1.0823 6.08612 1.30324 5.91912 1.47024L2.22812 5.16128L5.91912 8.85525C6.25612 9.19125 6.25612 9.73526 5.91912 10.0713C5.58312 10.4083 5.03813 10.4083 4.70313 10.0713L0.404125 5.77127C0.0671256 5.43327 0.0671256 4.88927 0.404125 4.55227L4.70313 0.25125C5.03813 -0.0837501 5.58312 -0.08375 5.91912 0.25125C6.08612 0.42025 6.17012 0.640296 6.17012 0.861296Z" fill="#3E3E3E"/>
<path d="M11.0188 0.861296C11.0188 1.0823 10.9348 1.30324 10.7678 1.47024L7.07676 5.16128L10.7678 8.85525C11.1048 9.19125 11.1048 9.73526 10.7678 10.0713C10.4318 10.4083 9.88676 10.4083 9.55176 10.0713L5.25276 5.77127C4.91576 5.43327 4.91576 4.88927 5.25276 4.55227L9.55176 0.25125C9.88676 -0.0837501 10.4318 -0.08375 10.7678 0.25125C10.9348 0.42025 11.0188 0.640296 11.0188 0.861296Z" fill="#3E3E3E"/>
</svg>
