<svg width="12" height="11" viewBox="0 0 12 11" fill="none" xmlns="http://www.w3.org/2000/svg">
<path d="M6.43345 9.88331L6.43345 9.88331L10.1245 6.19227L10.4779 5.83886L10.1246 5.48531L6.4336 1.79133L6.43293 1.79067C6.29189 1.65005 6.29189 1.42344 6.43293 1.28282L6.43398 1.28177C6.57489 1.14044 6.80208 1.1412 6.94129 1.28124L6.9423 1.28226L11.2408 5.58176C11.2409 5.5818 11.2409 5.58184 11.2409 5.58188C11.3835 5.72503 11.3828 5.95276 11.2413 6.09417L11.2413 6.09426L6.94234 10.3952C6.94232 10.3952 6.9423 10.3952 6.94228 10.3953C6.80326 10.5342 6.57547 10.5354 6.43424 10.396C6.36369 10.3239 6.3289 10.232 6.3289 10.1387C6.3289 10.0437 6.36478 9.95198 6.43345 9.88331Z" fill="#3E3E3E" stroke="black"/>
<path d="M1.58482 9.88331L1.58482 9.88331L5.27582 6.19227L5.62923 5.83886L5.27596 5.48531L1.58496 1.79133L1.58429 1.79067C1.44326 1.65005 1.44326 1.42344 1.5843 1.28282L1.58535 1.28177C1.72626 1.14044 1.95345 1.1412 2.09266 1.28124L2.09367 1.28226L6.39219 5.58176C6.39223 5.5818 6.39227 5.58184 6.3923 5.58188C6.53491 5.72503 6.53412 5.95276 6.39271 6.09417L6.39263 6.09426L2.09371 10.3952C2.09369 10.3952 2.09367 10.3952 2.09365 10.3953C1.95463 10.5342 1.72684 10.5354 1.5856 10.396C1.51506 10.3239 1.48027 10.232 1.48027 10.1387C1.48027 10.0437 1.51615 9.95198 1.58482 9.88331Z" fill="#3E3E3E" stroke="black"/>
</svg>
