<svg width="18" height="16" viewBox="0 0 18 16" fill="none" xmlns="http://www.w3.org/2000/svg">
<path d="M2.53683 15.68L0.691864 13.9733L15.4632 0.32L17.3081 2.03733L2.53683 15.68ZM13.8488 16C13.0878 16 12.3921 15.8293 11.7617 15.488C11.139 15.1396 10.6393 14.6773 10.2627 14.1013C9.88597 13.5182 9.69763 12.8711 9.69763 12.16C9.69763 11.4631 9.88981 10.8231 10.2742 10.24C10.6586 9.65689 11.1659 9.19111 11.7963 8.84267C12.4266 8.49422 13.1108 8.32 13.8488 8.32C14.6099 8.32 15.3056 8.49422 15.9359 8.84267C16.5663 9.184 17.066 9.64622 17.435 10.2293C17.8117 10.8053 18 11.4489 18 12.16C18 12.8711 17.8117 13.5182 17.435 14.1013C17.066 14.6773 16.5663 15.1396 15.9359 15.488C15.3056 15.8293 14.6099 16 13.8488 16ZM13.8488 13.8027C14.164 13.8027 14.4561 13.728 14.7252 13.5787C15.0019 13.4293 15.221 13.2302 15.3824 12.9813C15.5439 12.7324 15.6246 12.4587 15.6246 12.16C15.6246 11.8613 15.5439 11.5876 15.3824 11.3387C15.221 11.0898 15.0019 10.8907 14.7252 10.7413C14.4561 10.592 14.164 10.5173 13.8488 10.5173C13.5259 10.5173 13.23 10.592 12.9609 10.7413C12.6919 10.8907 12.4728 11.0898 12.3037 11.3387C12.1422 11.5876 12.0615 11.8613 12.0615 12.16C12.0615 12.4587 12.1422 12.7324 12.3037 12.9813C12.4728 13.2302 12.6919 13.4293 12.9609 13.5787C13.23 13.728 13.5259 13.8027 13.8488 13.8027ZM4.15118 7.68C3.39013 7.68 2.69443 7.50933 2.06406 7.168C1.4337 6.81956 0.930173 6.35733 0.553491 5.78133C0.184497 5.19822 0 4.55111 0 3.84C0 3.14311 0.192184 2.50311 0.576553 1.92C0.960922 1.33689 1.46829 0.871111 2.09865 0.522666C2.72902 0.174222 3.4132 0 4.15118 0C4.91224 0 5.6041 0.174222 6.22678 0.522666C6.85714 0.864 7.36067 1.32622 7.73735 1.90933C8.11403 2.48533 8.30237 3.12889 8.30237 3.84C8.30237 4.55111 8.11403 5.19822 7.73735 5.78133C7.36067 6.35733 6.85714 6.81956 6.22678 7.168C5.6041 7.50933 4.91224 7.68 4.15118 7.68ZM4.15118 5.48267C4.47405 5.48267 4.77002 5.408 5.03908 5.25867C5.30814 5.10933 5.52338 4.91022 5.68482 4.66133C5.84625 4.41244 5.92697 4.13867 5.92697 3.84C5.92697 3.54133 5.84625 3.26755 5.68482 3.01867C5.52338 2.76978 5.30814 2.57067 5.03908 2.42133C4.77002 2.272 4.47405 2.19733 4.15118 2.19733C3.82831 2.19733 3.53235 2.272 3.26329 2.42133C2.99423 2.57067 2.77899 2.76978 2.61755 3.01867C2.45612 3.26755 2.3754 3.54133 2.3754 3.84C2.3754 4.13867 2.45612 4.41244 2.61755 4.66133C2.77899 4.91022 2.99423 5.10933 3.26329 5.25867C3.53235 5.408 3.82831 5.48267 4.15118 5.48267Z" fill="#666666"/>
</svg>
