<svg width="25" height="24" viewBox="0 0 25 24" fill="none" xmlns="http://www.w3.org/2000/svg">
<path d="M5.25853 4.55673C5.43582 4.55673 5.61311 4.48989 5.7503 4.35693C7.69695 2.4553 10.2683 1.40775 12.9903 1.40775C14.4796 1.40775 15.9549 1.73137 17.2972 2.34485L16.7119 3.18134C16.6008 3.34033 16.6676 3.48385 16.8604 3.50004L20.3527 3.80536C20.5447 3.82225 20.6362 3.6928 20.5546 3.51762L19.0722 0.339802C18.9906 0.164625 18.833 0.150555 18.7219 0.309551L18.1147 1.177C16.5276 0.408044 14.7681 0 12.991 0C9.89898 0 6.97865 1.18966 4.76747 3.35018C4.48958 3.62174 4.48466 4.06708 4.75551 4.34497C4.8927 4.48567 5.07562 4.55673 5.25853 4.55673Z" fill="black"/>
<path d="M10.1923 21.7461C7.57023 21.0103 5.37804 19.307 4.01883 16.9509C3.2731 15.6607 2.81651 14.2219 2.6758 12.7516L3.69381 12.8402C3.88587 12.8571 3.97733 12.7277 3.89572 12.5525L2.41339 9.37537C2.33178 9.20019 2.17419 9.18612 2.06303 9.34512L0.0537683 12.2162C-0.0573886 12.3752 0.00944624 12.5187 0.202212 12.5349L1.25609 12.6271C1.38554 14.3866 1.91178 16.1144 2.80033 17.6537C4.34457 20.3314 6.83504 22.266 9.81236 23.1011C9.87638 23.1187 9.9404 23.1279 10.003 23.1279C10.3105 23.1279 10.5926 22.9245 10.6798 22.6143C10.7839 22.24 10.5658 21.851 10.1923 21.7461Z" fill="black"/>
<path d="M24.3923 8.86118C24.2959 8.4848 23.9125 8.25826 23.5361 8.35394C23.1597 8.44962 22.9332 8.83374 23.0289 9.21013C23.7036 11.8469 23.3251 14.597 21.9631 16.9538C21.2194 18.2427 20.1923 19.343 18.99 20.1992L18.5657 19.2895C18.4834 19.1144 18.3258 19.1003 18.2147 19.2593L16.2061 22.1311C16.095 22.2894 16.1618 22.4329 16.3546 22.4498L19.8469 22.7551C20.0389 22.7713 20.1304 22.6418 20.0481 22.4666L19.5936 21.4916C21.0527 20.5003 22.2944 19.1953 23.1823 17.6574C24.7293 14.9811 25.1585 11.8568 24.3923 8.86118Z" fill="black"/>
<path d="M15.3841 15.2129C15.3841 15.3924 15.4169 15.5581 15.4823 15.71C15.5478 15.8481 15.646 15.9517 15.777 16.0208C15.8425 16.076 15.9145 16.1174 15.9931 16.1451C16.0716 16.1589 16.1567 16.1658 16.2484 16.1658C16.3663 16.1658 16.471 16.152 16.5627 16.1244C16.6675 16.0829 16.7526 16.0277 16.8181 15.9586C16.9097 15.862 16.9817 15.7515 17.0341 15.6272C17.0865 15.5029 17.1127 15.3648 17.1127 15.2129C17.1127 15.061 17.0865 14.9228 17.0341 14.7986C16.9948 14.6743 16.9294 14.5776 16.8377 14.5085C16.7591 14.4395 16.6675 14.3842 16.5627 14.3428C16.471 14.3014 16.3663 14.2807 16.2484 14.2807C16.1175 14.2807 15.9931 14.3083 15.8752 14.3635C15.7704 14.405 15.6788 14.4671 15.6002 14.55C15.5347 14.6328 15.4823 14.7295 15.4431 14.84C15.4038 14.9505 15.3841 15.0748 15.3841 15.2129ZM18.0163 17.0773C17.7806 17.312 17.5121 17.4985 17.2109 17.6366C16.9097 17.7747 16.5889 17.8437 16.2484 17.8437C15.9079 17.8437 15.5806 17.7747 15.2663 17.6366C14.9651 17.4985 14.7032 17.312 14.4806 17.0773C14.2448 16.8425 14.0615 16.5663 13.9306 16.2486C13.7996 15.931 13.7341 15.5857 13.7341 15.2129C13.7341 14.8538 13.7996 14.5154 13.9306 14.1978C14.0615 13.8802 14.2448 13.604 14.4806 13.3692C14.7032 13.1344 14.9651 12.948 15.2663 12.8099C15.5806 12.6717 15.9079 12.6027 16.2484 12.6027C16.5889 12.6027 16.9097 12.6717 17.2109 12.8099C17.5121 12.948 17.7806 13.1344 18.0163 13.3692C18.2389 13.604 18.4157 13.8802 18.5466 14.1978C18.6907 14.5154 18.7627 14.8538 18.7627 15.2129C18.7627 15.5857 18.6907 15.931 18.5466 16.2486C18.4157 16.5663 18.2389 16.8425 18.0163 17.0773ZM9.4127 9.45392C9.4127 9.60583 9.43234 9.74394 9.47162 9.86823C9.524 9.99253 9.59603 10.0961 9.6877 10.179C9.76627 10.248 9.85139 10.3033 9.94305 10.3447C10.0478 10.3861 10.1591 10.4068 10.277 10.4068C10.3817 10.4068 10.4734 10.393 10.552 10.3654C10.6436 10.3378 10.7222 10.2964 10.7877 10.2411C10.9056 10.1583 10.9907 10.0478 11.0431 9.90966C11.1085 9.77156 11.1413 9.61965 11.1413 9.45392C11.1413 9.31582 11.1216 9.19152 11.0823 9.08104C11.0431 8.97056 10.9907 8.87388 10.9252 8.79102C10.8466 8.70816 10.7484 8.64601 10.6306 8.60458C10.5258 8.54934 10.4079 8.52172 10.277 8.52172C10.1591 8.52172 10.0478 8.54243 9.94305 8.58386C9.85139 8.61148 9.77281 8.65982 9.70734 8.72887C9.61567 8.81174 9.54365 8.91531 9.49127 9.03961C9.43889 9.1639 9.4127 9.30201 9.4127 9.45392ZM12.0448 11.3183C11.8091 11.5531 11.5407 11.7395 11.2395 11.8776C10.9383 12.0158 10.6175 12.0848 10.277 12.0848C9.9365 12.0848 9.60912 12.0158 9.29484 11.8776C8.99365 11.7395 8.73174 11.5531 8.50912 11.3183C8.27341 11.0836 8.09008 10.8073 7.95912 10.4897C7.82817 10.1721 7.7627 9.8268 7.7627 9.45392C7.7627 9.09485 7.82817 8.75649 7.95912 8.43885C8.09008 8.12121 8.27341 7.84501 8.50912 7.61023C8.73174 7.37545 8.99365 7.18901 9.29484 7.05091C9.60912 6.9128 9.9365 6.84375 10.277 6.84375C10.6175 6.84375 10.9383 6.9128 11.2395 7.05091C11.5407 7.18901 11.8091 7.37545 12.0448 7.61023C12.2675 7.84501 12.4442 8.12121 12.5752 8.43885C12.7192 8.75649 12.7913 9.09485 12.7913 9.45392C12.7913 9.8268 12.7192 10.1721 12.5752 10.4897C12.4442 10.8073 12.2675 11.0836 12.0448 11.3183ZM11.2002 17.5123H9.4127C10.3948 15.7722 11.3704 14.0459 12.3395 12.3334C13.3085 10.6209 14.2841 8.8946 15.2663 7.15449H17.0538C16.0716 8.8946 15.096 10.6209 14.127 12.3334C13.1579 14.0459 12.1823 15.7722 11.2002 17.5123Z" fill="black"/>
</svg>
