<svg width="48" height="58" viewBox="0 0 48 58" fill="none" xmlns="http://www.w3.org/2000/svg">
<path d="M32.552 26.8935C36.1818 24.1869 38.5455 19.8065 38.5455 14.8718C38.5455 6.67147 32.0204 0 24 0C15.9796 0 9.45453 6.67147 9.45453 14.8718C9.45453 19.8065 11.8181 24.1869 15.448 26.8935C6.42482 30.4239 0 39.3687 0 49.8205C0 54.3307 3.58878 58 8 58H40C44.4112 58 48 54.3307 48 49.8205C48 39.3687 41.5752 30.4239 32.552 26.8935ZM13.8182 14.8718C13.8182 9.1316 18.3858 4.46158 24 4.46158C29.6142 4.46158 34.1818 9.1316 34.1818 14.8718C34.1818 20.612 29.6142 25.2821 24 25.2821C18.3858 25.2821 13.8182 20.612 13.8182 14.8718ZM40 53.5384H8C5.99493 53.5384 4.36369 51.8706 4.36369 49.8204C4.36369 38.7499 13.1724 29.7435 24.0001 29.7435C34.8278 29.7435 43.6365 38.7498 43.6365 49.8204C43.6364 51.8706 42.0052 53.5384 40 53.5384Z" fill="#AB5404"/>
</svg>
