<svg width="57" height="57" viewBox="0 0 57 57" fill="none" xmlns="http://www.w3.org/2000/svg">
<path d="M41.6154 35.0603C40.7271 36.4928 39.7567 37.9862 38.7057 39.5391C47.5453 40.8611 52.0714 43.6925 52.0714 45.1014C52.0714 46.9774 44.0517 51.3742 28.4994 51.3742C12.9483 51.3742 4.92859 46.9774 4.92859 45.1014C4.92859 43.6925 9.45341 40.8623 18.2956 39.5391C17.2432 37.9862 16.2742 36.4928 15.3846 35.0603C6.6605 36.7052 0 40.087 0 45.1014C0 52.4564 14.3385 56.3053 28.4994 56.3053C42.6627 56.3053 57 52.4564 57 45.1014C57.0012 40.087 50.342 36.7052 41.6154 35.0603Z" fill="#8F0404"/>
<path d="M28.5634 0.466797C19.3225 0.466797 11.832 7.95722 11.832 17.1957C11.832 23.8239 20.4381 36.505 25.3058 43.1469C26.0674 44.1856 27.2763 44.7993 28.5634 44.7993C29.8481 44.7993 31.0606 44.1856 31.8185 43.1469C36.6862 36.505 45.2936 23.8239 45.2936 17.1957C45.2936 7.95722 37.8031 0.466797 28.5634 0.466797ZM28.5634 27.5834C23.1031 27.5834 18.6615 23.1418 18.6615 17.684C18.6615 12.2249 23.1031 7.78328 28.5634 7.78328C34.0225 7.78328 38.4628 12.2249 38.4628 17.684C38.4628 23.1418 34.0225 27.5834 28.5634 27.5834Z" fill="#8F0404"/>
<path d="M28.561 11.6616C25.24 11.6616 22.5391 14.3626 22.5391 17.6835C22.5391 21.002 25.24 23.7042 28.561 23.7042C31.8807 23.7042 34.5829 21.0032 34.5829 17.6835C34.5829 14.3614 31.8807 11.6616 28.561 11.6616Z" fill="#8F0404"/>
</svg>
