<svg width="16" height="18" viewBox="0 0 16 18" fill="none" xmlns="http://www.w3.org/2000/svg">
<path d="M15.8373 8.26739C15.6279 7.23091 15.2186 6.24643 14.6329 5.3703C14.0574 4.50835 13.3242 3.76598 12.4729 3.1833C11.6075 2.59049 10.6352 2.1761 9.61155 1.9638C9.07386 1.85339 8.5264 1.79911 7.97777 1.8018V0L4.44444 2.7L7.97777 5.4V3.6018C8.40799 3.6 8.83822 3.6414 9.25333 3.7278C10.0489 3.89286 10.8046 4.21489 11.4773 4.6755C12.1408 5.12841 12.7118 5.70656 13.1591 6.3783C13.8536 7.418 14.224 8.64482 14.2222 9.89999C14.2221 10.7423 14.0558 11.5761 13.7333 12.3525C13.5765 12.7265 13.3848 13.0845 13.1609 13.4217C12.9361 13.7568 12.6807 14.0699 12.3982 14.3568C11.5378 15.2264 10.4454 15.8228 9.2551 16.0731C8.42731 16.2423 7.57446 16.2423 6.74666 16.0731C5.95071 15.9079 5.1947 15.5855 4.52177 15.1245C3.85909 14.672 3.2887 14.0945 2.84178 13.4235C2.14805 12.3827 1.77751 11.1556 1.77778 9.89999H0C0.000945929 11.5143 0.477232 13.0917 1.368 14.4306C1.94386 15.2911 2.67632 16.0327 3.52622 16.6158C4.84677 17.5207 6.40543 18.003 7.99999 18C8.54157 17.9999 9.08177 17.9448 9.61244 17.8353C10.6353 17.6214 11.607 17.2072 12.4729 16.6158C12.898 16.3257 13.2943 15.9945 13.656 15.6267C14.0182 15.2589 14.3456 14.8576 14.6338 14.4279C15.5268 13.0912 16.0027 11.5138 16 9.89999C15.9999 9.35165 15.9454 8.8047 15.8373 8.26739Z" fill="black"/>
</svg>
