<svg width="42" height="39" viewBox="0 0 42 39" fill="none" xmlns="http://www.w3.org/2000/svg">
<path d="M31.76 31.8398C31.3852 31.4769 30.8907 31.2634 30.3696 31.2394C29.8484 31.2155 29.3365 31.3828 28.93 31.7098C26.6788 33.4424 23.9759 34.4896 21.1449 34.7259C18.314 34.9623 15.4749 34.3777 12.9675 33.0423C10.4602 31.7069 8.39078 29.6772 7.00709 27.1962C5.6234 24.7151 4.98404 21.8879 5.16554 19.0529C5.34704 16.2179 6.34172 13.4952 8.03049 11.2109C9.71927 8.92656 12.0306 7.1773 14.6878 6.17253C17.3449 5.16776 20.2354 4.95005 23.0131 5.54545C25.7908 6.14086 28.3381 7.52416 30.35 9.52976L26.23 13.6498L41.08 17.1898L37.54 2.33976L33.33 6.54976C30.7445 3.96471 27.4681 2.18051 23.8939 1.41121C20.3196 0.641915 16.5993 0.920193 13.1793 2.21266C9.75928 3.50513 6.78478 5.7569 4.61267 8.69781C2.44055 11.6387 1.16308 15.1439 0.933499 18.7928C0.703921 22.4417 1.53199 26.0793 3.31837 29.2693C5.10474 32.4592 7.77355 35.0661 11.0046 36.777C14.2357 38.4879 17.8918 39.2303 21.5342 38.9151C25.1767 38.5998 28.6509 37.2404 31.54 34.9998C31.78 34.8169 31.9783 34.5849 32.1215 34.3193C32.2647 34.0537 32.3495 33.7606 32.3703 33.4596C32.3912 33.1586 32.3475 32.8566 32.2422 32.5738C32.137 32.291 31.9726 32.0339 31.76 31.8198V31.8398Z" fill="black"/>
</svg>
