<svg width="6" height="19" viewBox="0 0 6 19" fill="none" xmlns="http://www.w3.org/2000/svg">
<path d="M1.818 18.864L0 17.532C0.732 16.65 1.305 15.771 1.719 14.895C2.133 14.013 2.424 13.122 2.592 12.222C2.766 11.316 2.856 10.386 2.862 9.432C2.856 8.478 2.766 7.551 2.592 6.651C2.424 5.745 2.133 4.854 1.719 3.978C1.305 3.096 0.732 2.214 0 1.332L1.818 0C2.514 0.816 3.108 1.743 3.6 2.781C4.098 3.813 4.473 4.899 4.725 6.039C4.983 7.179 5.1 8.31 5.076 9.432C5.1 10.554 4.983 11.685 4.725 12.825C4.473 13.959 4.098 15.045 3.6 16.083C3.108 17.121 2.514 18.048 1.818 18.864Z" fill="#666666"/>
</svg>
