<svg width="12" height="15" viewBox="0 0 12 15" fill="none" xmlns="http://www.w3.org/2000/svg">
<path d="M12 13.44L12 0.96C12 0.705392 11.9027 0.461212 11.7296 0.281177C11.5565 0.101143 11.3217 -2.96478e-08 11.0769 -4.0349e-08L0.923077 -4.84188e-07C0.678262 -4.94889e-07 0.443474 0.101142 0.270363 0.281177C0.0972526 0.461212 -9.04383e-08 0.705392 -1.01568e-07 0.96L-6.47086e-07 13.44C-6.58215e-07 13.6946 0.097252 13.9388 0.270362 14.1188C0.443473 14.2989 0.678261 14.4 0.923076 14.4L11.0769 14.4C11.3217 14.4 11.5565 14.2989 11.7296 14.1188C11.9027 13.9388 12 13.6946 12 13.44ZM0.923077 4.8L0.923077 0.96L11.0769 0.96L11.0769 4.8L0.923077 4.8ZM0.923076 9.6L0.923077 5.76L11.0769 5.76L11.0769 9.6L0.923076 9.6Z" fill="#999"/>
</svg>
