<svg width="21" height="21" viewBox="0 0 21 21" fill="none" xmlns="http://www.w3.org/2000/svg">
<path fill-rule="evenodd" clip-rule="evenodd" d="M9.34085 0.000976584C7.85123 0.00110348 6.38324 0.357445 5.05936 1.04027C3.73548 1.7231 2.59409 2.71261 1.73042 3.92625C0.866746 5.13988 0.305842 6.54246 0.0944992 8.01695C-0.116843 9.49144 0.0275043 10.9951 0.5155 12.4025C1.00349 13.8098 1.82099 15.0801 2.89977 16.1073C3.97856 17.1344 5.28735 17.8888 6.71696 18.3073C8.14657 18.7258 9.65554 18.7964 11.118 18.5131C12.5804 18.2299 13.9539 17.601 15.1239 16.679L19.1375 20.6925C19.3448 20.8927 19.6224 21.0034 19.9105 21.0009C20.1987 20.9984 20.4743 20.8829 20.6781 20.6791C20.8819 20.4753 20.9975 20.1997 21 19.9116C21.0025 19.6234 20.8917 19.3458 20.6915 19.1385L16.6779 15.1251C17.7637 13.7476 18.4398 12.0923 18.6287 10.3486C18.8177 8.60491 18.5119 6.84322 17.7464 5.26517C16.9808 3.68712 15.7865 2.35647 14.2999 1.4255C12.8134 0.494533 11.0948 0.000858815 9.34085 0.000976584ZM2.19724 9.34227C2.19724 7.44773 2.94987 5.6308 4.28955 4.29116C5.62924 2.95153 7.44625 2.19893 9.34085 2.19893C11.2355 2.19893 13.0525 2.95153 14.3921 4.29116C15.7318 5.6308 16.4845 7.44773 16.4845 9.34227C16.4845 11.2368 15.7318 13.0537 14.3921 14.3934C13.0525 15.733 11.2355 16.4856 9.34085 16.4856C7.44625 16.4856 5.62924 15.733 4.28955 14.3934C2.94987 13.0537 2.19724 11.2368 2.19724 9.34227Z" fill="#000000"/>
<path d="M8.57617 5.00098H10.2418V6.66764H8.57617V5.00098ZM8.57617 8.33431H10.2418V13.3343H8.57617V8.33431Z" fill="#000000"/>
</svg>
