<svg width="38" height="39" viewBox="0 0 38 39" fill="none" xmlns="http://www.w3.org/2000/svg">
<g id="Group 4710">
<path id="Rectangle 769" d="M0 4C0 1.79086 1.79086 0 4 0H34C36.2091 0 38 1.79086 38 4V35C38 37.2091 36.2091 39 34 39H4C1.79086 39 0 37.2091 0 35V4Z" fill="#DBDDEF"/>
<path id="Vector" d="M28 28.0063L22.6927 22.6989C23.968 21.1678 24.604 19.2039 24.4683 17.2158C24.3326 15.2277 23.4357 13.3685 21.9641 12.0249C20.4924 10.6813 18.5595 9.95673 16.5673 10.002C14.5751 10.0473 12.677 10.8589 11.2679 12.2679C9.85885 13.677 9.04727 15.5751 9.002 17.5673C8.95673 19.5595 9.68127 21.4924 11.0249 22.9641C12.3685 24.4357 14.2277 25.3326 16.2158 25.4683C18.2039 25.604 20.1678 24.968 21.6989 23.6927L27.0063 29L28 28.0063ZM10.4307 17.7556C10.4307 16.5047 10.8016 15.2818 11.4966 14.2417C12.1916 13.2015 13.1794 12.3909 14.3352 11.9121C15.4909 11.4334 16.7626 11.3082 17.9896 11.5522C19.2165 11.7963 20.3435 12.3987 21.2281 13.2832C22.1126 14.1678 22.715 15.2948 22.9591 16.5217C23.2031 17.7486 23.0779 19.0204 22.5991 20.1761C22.1204 21.3318 21.3097 22.3196 20.2696 23.0146C19.2295 23.7096 18.0066 24.0806 16.7556 24.0806C15.0787 24.0787 13.471 23.4118 12.2853 22.226C11.0995 21.0402 10.4325 19.4325 10.4307 17.7556Z" fill="#666666"/>
</g>
</svg>
