<svg width="6" height="7" viewBox="0 0 6 7" fill="none" xmlns="http://www.w3.org/2000/svg">
<path fill-rule="evenodd" clip-rule="evenodd" d="M3 0.625C3.20711 0.625 3.375 0.792893 3.375 1L3.375 6C3.375 6.20711 3.20711 6.375 3 6.375C2.79289 6.375 2.625 6.20711 2.625 6L2.625 1C2.625 0.792893 2.79289 0.625 3 0.625Z" fill="black"/>
<path fill-rule="evenodd" clip-rule="evenodd" d="M2.73483 0.734835C2.88128 0.588388 3.11872 0.588388 3.26517 0.734835L5.26517 2.73483C5.41161 2.88128 5.41161 3.11872 5.26517 3.26517C5.11872 3.41161 4.88128 3.41161 4.73484 3.26517L3 1.53033L1.26517 3.26517C1.11872 3.41161 0.881282 3.41161 0.734835 3.26517C0.588388 3.11872 0.588388 2.88128 0.734835 2.73483L2.73483 0.734835Z" fill="black"/>
</svg>
