<svg width="3" height="16" viewBox="0 0 3 16" fill="none" xmlns="http://www.w3.org/2000/svg">
<path d="M0.252796 0.666645C0.0879736 0.913319 0 1.20333 0 1.5C0 1.89783 0.158036 2.27936 0.43934 2.56066C0.720644 2.84196 1.10217 3 1.5 3C1.79667 3 2.08668 2.91203 2.33336 2.7472C2.58003 2.58238 2.77229 2.34811 2.88582 2.07403C2.99935 1.79994 3.02906 1.49834 2.97118 1.20737C2.9133 0.916394 2.77044 0.649119 2.56066 0.43934C2.35088 0.229562 2.08361 0.0867006 1.79263 0.0288227C1.50166 -0.0290551 1.20006 0.000649913 0.925975 0.114181C0.651886 0.227713 0.417618 0.419972 0.252796 0.666645Z" fill="black"/>
<path d="M0.252796 7.06508C0.0879736 7.31176 0 7.60177 0 7.89844C0 8.29626 0.158036 8.67779 0.43934 8.9591C0.720644 9.2404 1.10217 9.39844 1.5 9.39844C1.79667 9.39844 2.08668 9.31046 2.33336 9.14564C2.58003 8.98082 2.77229 8.74655 2.88582 8.47246C2.99935 8.19837 3.02906 7.89677 2.97118 7.6058C2.9133 7.31483 2.77044 7.04756 2.56066 6.83778C2.35088 6.628 2.08361 6.48514 1.79263 6.42726C1.50166 6.36938 1.20006 6.39909 0.925975 6.51262C0.651886 6.62615 0.417618 6.81841 0.252796 7.06508Z" fill="black"/>
<path d="M0.252796 13.4674C0.0879736 13.7141 0 14.0041 0 14.3008C0 14.6986 0.158036 15.0801 0.43934 15.3614C0.720644 15.6427 1.10217 15.8008 1.5 15.8008C1.79667 15.8008 2.08668 15.7128 2.33336 15.548C2.58003 15.3832 2.77229 15.1489 2.88582 14.8748C2.99935 14.6007 3.02906 14.2991 2.97118 14.0081C2.9133 13.7172 2.77044 13.4499 2.56066 13.2401C2.35088 13.0303 2.08361 12.8875 1.79263 12.8296C1.50166 12.7717 1.20006 12.8014 0.925975 12.915C0.651886 13.0285 0.417618 13.2208 0.252796 13.4674Z" fill="black"/>
</svg>
