<svg width="20" height="20" viewBox="0 0 20 20" fill="none" xmlns="http://www.w3.org/2000/svg">
<path d="M19 12C18.7348 12 18.4804 12.1054 18.2929 12.2929C18.1054 12.4804 18 12.7348 18 13V17C18 17.2652 17.8946 17.5196 17.7071 17.7071C17.5196 17.8946 17.2652 18 17 18H3C2.73478 18 2.48043 17.8946 2.29289 17.7071C2.10536 17.5196 2 17.2652 2 17V13C2 12.7348 1.89464 12.4804 1.70711 12.2929C1.51957 12.1054 1.26522 12 1 12C0.734784 12 0.48043 12.1054 0.292893 12.2929C0.105357 12.4804 0 12.7348 0 13V17C0 17.7956 0.316071 18.5587 0.87868 19.1213C1.44129 19.6839 2.20435 20 3 20H17C17.7956 20 18.5587 19.6839 19.1213 19.1213C19.6839 18.5587 20 17.7956 20 17V13C20 12.7348 19.8946 12.4804 19.7071 12.2929C19.5196 12.1054 19.2652 12 19 12Z" fill="black"/>
<path d="M10.3798 0.0799995C10.5026 0.127594 10.6147 0.198959 10.7098 0.29L14.7098 4.29C14.8031 4.38324 14.877 4.49393 14.9275 4.61575C14.9779 4.73757 15.0039 4.86814 15.0039 5C15.0039 5.13186 14.9779 5.26243 14.9275 5.38425C14.877 5.50607 14.8031 5.61676 14.7098 5.71C14.6166 5.80324 14.5059 5.8772 14.3841 5.92766C14.2622 5.97812 14.1317 6.00409 13.9998 6.00409C13.868 6.00409 13.7374 5.97812 13.6156 5.92766C13.4937 5.8772 13.3831 5.80324 13.2898 5.71L10.9998 3.41L10.9998 13C10.9998 13.2652 10.8945 13.5196 10.7069 13.7071C10.5194 13.8946 10.265 14 9.99981 14C9.7346 14 9.48024 13.8946 9.29271 13.7071C9.10517 13.5196 8.99981 13.2652 8.99981 13L8.99982 3.41L6.70981 5.71C6.52151 5.8983 6.26612 6.00409 5.99982 6.00409C5.73351 6.00409 5.47812 5.8983 5.28982 5.71C5.10151 5.5217 4.99572 5.2663 4.99572 5C4.99572 4.7337 5.10151 4.4783 5.28982 4.29L9.28982 0.289999C9.38492 0.198959 9.49706 0.127594 9.61982 0.0799995C9.73952 0.0270944 9.86894 -0.000233145 9.99982 -0.000233134C10.1307 -0.000233123 10.2601 0.0270944 10.3798 0.0799995Z" fill="black"/>
</svg>
