<svg width="24" height="18" viewBox="0 0 24 18" fill="none" xmlns="http://www.w3.org/2000/svg">
<path d="M16.9297 5.91083L10.7659 12.0747M10.7647 5.92384L16.9297 12.0889" stroke="#666666" stroke-width="1.7" stroke-miterlimit="10" stroke-linecap="round"/>
<path d="M22.8858 9V12.9988C22.8861 13.5241 22.7829 14.0444 22.5821 14.5298C22.3812 15.0153 22.0867 15.4564 21.7154 15.8279C21.344 16.1995 20.9031 16.4943 20.4178 16.6954C19.9325 16.8965 19.4123 17 18.887 17H7.99195C6.93147 16.999 5.9148 16.5769 5.16557 15.8264L1.5548 10.8929C1.19255 10.328 1 9.67107 1 9C1 8.32894 1.19255 7.67196 1.5548 7.10707L5.16793 2.17362C5.53906 1.80186 5.97979 1.50687 6.46496 1.3055C6.95012 1.10413 7.4702 1.00032 7.9955 1H18.887C19.4123 1 19.9325 1.10351 20.4178 1.30462C20.9031 1.50573 21.344 1.80049 21.7154 2.17206C22.0867 2.54364 22.3812 2.98474 22.5821 3.47018C22.7829 3.95561 22.8861 4.47585 22.8858 5.00118V9Z" stroke="#666666" stroke-width="1.7" stroke-linecap="round" stroke-linejoin="round"/>
</svg>
