<svg width="7" height="25" viewBox="0 0 7 25" fill="none" xmlns="http://www.w3.org/2000/svg">
<path d="M4.49445 25C3.53523 23.9186 2.71246 22.69 2.02612 21.3144C1.34805 19.9388 0.831228 18.4995 0.475655 16.9967C0.128352 15.4858 -0.0287621 13.987 0.00431428 12.5C-0.0287621 11.013 0.128352 9.51415 0.475655 8.00334C0.831228 6.49253 1.34805 5.05328 2.02612 3.68559C2.71246 2.30996 3.53523 1.08143 4.49445 0L7 1.76527C5.99117 2.93416 5.20146 4.10305 4.63089 5.27195C4.06032 6.43289 3.65514 7.61371 3.41533 8.81441C3.1838 10.0072 3.06389 11.2357 3.05562 12.5C3.06389 13.7643 3.1838 14.9968 3.41533 16.1975C3.65514 17.3903 4.06032 18.5711 4.63089 19.74C5.20146 20.9009 5.99117 22.0658 7 23.2347L4.49445 25Z" fill="#666666"/>
</svg>
