<svg width="21" height="19" viewBox="0 0 21 19" fill="none" xmlns="http://www.w3.org/2000/svg">
<path d="M2.95964 18.62L0.807175 16.5933L18.0404 0.38L20.1928 2.41933L2.95964 18.62ZM16.157 19C15.2691 19 14.4574 18.7973 13.722 18.392C12.9955 17.9782 12.4126 17.4293 11.9731 16.7453C11.5336 16.0529 11.3139 15.2844 11.3139 14.44C11.3139 13.6124 11.5381 12.8524 11.9865 12.16C12.435 11.4676 13.0269 10.9144 13.7623 10.5007C14.4978 10.0869 15.296 9.88 16.157 9.88C17.0448 9.88 17.8565 10.0869 18.5919 10.5007C19.3274 10.906 19.9103 11.4549 20.3408 12.1473C20.7803 12.8313 21 13.5956 21 14.44C21 15.2844 20.7803 16.0529 20.3408 16.7453C19.9103 17.4293 19.3274 17.9782 18.5919 18.392C17.8565 18.7973 17.0448 19 16.157 19ZM16.157 16.3907C16.5247 16.3907 16.8655 16.302 17.1794 16.1247C17.5022 15.9473 17.7578 15.7109 17.9462 15.4153C18.1345 15.1198 18.2287 14.7947 18.2287 14.44C18.2287 14.0853 18.1345 13.7602 17.9462 13.4647C17.7578 13.1691 17.5022 12.9327 17.1794 12.7553C16.8655 12.578 16.5247 12.4893 16.157 12.4893C15.7803 12.4893 15.435 12.578 15.1211 12.7553C14.8072 12.9327 14.5516 13.1691 14.3543 13.4647C14.1659 13.7602 14.0717 14.0853 14.0717 14.44C14.0717 14.7947 14.1659 15.1198 14.3543 15.4153C14.5516 15.7109 14.8072 15.9473 15.1211 16.1247C15.435 16.302 15.7803 16.3907 16.157 16.3907ZM4.84305 9.12C3.95516 9.12 3.1435 8.91733 2.40807 8.512C1.67265 8.09822 1.0852 7.54933 0.64574 6.86533C0.215247 6.17289 0 5.40444 0 4.56C0 3.73244 0.224215 2.97244 0.672646 2.28C1.12108 1.58756 1.713 1.03444 2.44843 0.620666C3.18386 0.206889 3.98206 0 4.84305 0C5.73094 0 6.53812 0.206889 7.26457 0.620666C8 1.026 8.58744 1.57489 9.02691 2.26733C9.46637 2.95133 9.6861 3.71556 9.6861 4.56C9.6861 5.40444 9.46637 6.17289 9.02691 6.86533C8.58744 7.54933 8 8.09822 7.26457 8.512C6.53812 8.91733 5.73094 9.12 4.84305 9.12ZM4.84305 6.51067C5.21973 6.51067 5.56502 6.422 5.87892 6.24467C6.19283 6.06733 6.44395 5.83089 6.63229 5.53533C6.82063 5.23978 6.9148 4.91467 6.9148 4.56C6.9148 4.20533 6.82063 3.88022 6.63229 3.58467C6.44395 3.28911 6.19283 3.05267 5.87892 2.87533C5.56502 2.698 5.21973 2.60933 4.84305 2.60933C4.46637 2.60933 4.12108 2.698 3.80717 2.87533C3.49327 3.05267 3.24215 3.28911 3.05381 3.58467C2.86547 3.88022 2.7713 4.20533 2.7713 4.56C2.7713 4.91467 2.86547 5.23978 3.05381 5.53533C3.24215 5.83089 3.49327 6.06733 3.80717 6.24467C4.12108 6.422 4.46637 6.51067 4.84305 6.51067Z" fill="#666666"/>
</svg>
