<svg width="7" height="25" viewBox="0 0 7 25" fill="none" xmlns="http://www.w3.org/2000/svg">
<path d="M2.50555 25C3.46477 23.9186 4.28754 22.69 4.97388 21.3144C5.65195 19.9388 6.16877 18.4995 6.52434 16.9967C6.87165 15.4858 7.02876 13.987 6.99569 12.5C7.02876 11.013 6.87165 9.51415 6.52434 8.00334C6.16877 6.49253 5.65195 5.05328 4.97388 3.68559C4.28754 2.30996 3.46477 1.08143 2.50555 0L-1.03253e-08 1.76527C1.00883 2.93416 1.79854 4.10305 2.36911 5.27195C2.93968 6.43289 3.34486 7.61371 3.58467 8.81441C3.8162 10.0072 3.93611 11.2357 3.94438 12.5C3.93611 13.7643 3.8162 14.9968 3.58467 16.1975C3.34486 17.3903 2.93968 18.5711 2.36911 19.74C1.79854 20.9009 1.00883 22.0658 -1.03253e-08 23.2347L2.50555 25Z" fill="#666666"/>
</svg>
