<svg width="23" height="14" viewBox="0 0 23 14" fill="none" xmlns="http://www.w3.org/2000/svg">
<path d="M13.3554 2.3355C13.3554 2.12927 13.4335 1.93148 13.5727 1.78565C13.7118 1.63982 13.9005 1.5579 14.0973 1.5579H22.2581C22.4549 1.5579 22.6436 1.63982 22.7827 1.78565C22.9218 1.93148 23 2.12927 23 2.3355C23 2.54174 22.9218 2.73952 22.7827 2.88535C22.6436 3.03118 22.4549 3.11311 22.2581 3.11311H14.0973C13.9005 3.11311 13.7118 3.03118 13.5727 2.88535C13.4335 2.73952 13.3554 2.54174 13.3554 2.3355ZM22.2581 6.22354H14.0973C13.9005 6.22354 13.7118 6.30547 13.5727 6.4513C13.4335 6.59713 13.3554 6.79491 13.3554 7.00115C13.3554 7.20738 13.4335 7.40517 13.5727 7.551C13.7118 7.69683 13.9005 7.77876 14.0973 7.77876H22.2581C22.4549 7.77876 22.6436 7.69683 22.7827 7.551C22.9218 7.40517 23 7.20738 23 7.00115C23 6.79491 22.9218 6.59713 22.7827 6.4513C22.6436 6.30547 22.4549 6.22354 22.2581 6.22354ZM22.2581 10.8892H16.323C16.1262 10.8892 15.9375 10.9711 15.7984 11.1169C15.6592 11.2628 15.5811 11.4606 15.5811 11.6668C15.5811 11.873 15.6592 12.0708 15.7984 12.2166C15.9375 12.3625 16.1262 12.4444 16.323 12.4444H22.2581C22.4549 12.4444 22.6436 12.3625 22.7827 12.2166C22.9218 12.0708 23 11.873 23 11.6668C23 11.4606 22.9218 11.2628 22.7827 11.1169C22.6436 10.9711 22.4549 10.8892 22.2581 10.8892ZM13.3322 13.0276C13.3564 13.1265 13.3619 13.2295 13.3481 13.3306C13.3344 13.4317 13.3018 13.529 13.2522 13.617C13.2026 13.7049 13.137 13.7817 13.0591 13.843C12.9811 13.9043 12.8924 13.949 12.798 13.9743C12.7376 13.9914 12.6752 13.9999 12.6126 13.9996C12.448 13.9997 12.2881 13.9425 12.158 13.8369C12.0279 13.7313 11.935 13.5834 11.8939 13.4164C11.3226 11.0894 9.08022 9.33397 6.67741 9.33397C4.2746 9.33397 2.03223 11.0884 1.46097 13.4164C1.41178 13.6162 1.28888 13.7873 1.11931 13.8921C0.949746 13.997 0.747398 14.0269 0.556785 13.9753C0.366171 13.9238 0.202905 13.7949 0.102904 13.6172C0.0029029 13.4395 -0.0256422 13.2274 0.0235484 13.0276C0.541947 10.9174 2.04892 9.20858 3.96115 8.36196C3.22485 7.76754 2.68453 6.94647 2.41596 6.0139C2.14739 5.08133 2.16404 4.08404 2.46359 3.16189C2.76313 2.23975 3.33054 1.439 4.08624 0.871952C4.84194 0.304905 5.74802 0 6.67741 0C7.6068 0 8.51288 0.304905 9.26858 0.871952C10.0243 1.439 10.5917 2.23975 10.8912 3.16189C11.1908 4.08404 11.2074 5.08133 10.9389 6.0139C10.6703 6.94647 10.13 7.76754 9.39367 8.36196C11.3068 9.20858 12.8138 10.9174 13.3322 13.0276ZM6.67834 7.77876C7.26527 7.77876 7.83902 7.59633 8.32703 7.25455C8.81505 6.91278 9.19541 6.42699 9.42002 5.85864C9.64463 5.29028 9.7034 4.66488 9.58889 4.06151C9.47439 3.45815 9.19175 2.90392 8.77673 2.46892C8.36171 2.03392 7.83293 1.73768 7.25728 1.61766C6.68163 1.49764 6.08495 1.55924 5.54269 1.79466C5.00044 2.03008 4.53697 2.42876 4.21089 2.94026C3.88481 3.45177 3.71076 4.05314 3.71076 4.66833C3.71076 5.49326 4.02341 6.28441 4.57994 6.86773C5.13647 7.45105 5.89129 7.77876 6.67834 7.77876Z" fill="black"/>
</svg>
