<svg width="23" height="23" viewBox="0 0 23 23" fill="none" xmlns="http://www.w3.org/2000/svg">
<path d="M13.1429 6.81482C13.1429 6.47785 13.0465 6.14846 12.866 5.86829C12.6855 5.58812 12.4289 5.36975 12.1287 5.2408C11.8285 5.11185 11.4982 5.07811 11.1795 5.14385C10.8608 5.20959 10.5681 5.37185 10.3383 5.61011C10.1086 5.84838 9.9521 6.15195 9.88871 6.48244C9.82532 6.81293 9.85785 7.15548 9.9822 7.46679C10.1065 7.77811 10.3171 8.04419 10.5873 8.23139C10.8574 8.4186 11.1751 8.51852 11.5 8.51852C11.9357 8.51852 12.3536 8.33902 12.6617 8.01952C12.9698 7.70001 13.1429 7.26667 13.1429 6.81482ZM18.0714 6.81482C18.0714 5.00741 17.3791 3.27404 16.1467 1.99601C14.9143 0.717987 13.2429 0 11.5 0C9.75715 0 8.08568 0.717987 6.8533 1.99601C5.62092 3.27404 4.92857 5.00741 4.92857 6.81482C4.92857 13.1984 10.8408 16.7751 11.0893 16.9252C11.2134 16.9988 11.3539 17.0375 11.4969 17.0375C11.6399 17.0375 11.7804 16.9988 11.9046 16.9252C12.1592 16.7751 18.0714 13.2037 18.0714 6.81482ZM16.4286 6.81482C16.4286 11.3083 12.7486 14.2909 11.5 15.1736C10.2525 14.2919 6.57143 11.3083 6.57143 6.81482C6.57143 5.45926 7.09069 4.15923 8.01497 3.20071C8.93926 2.24219 10.1929 1.7037 11.5 1.7037C12.8071 1.7037 14.0607 2.24219 14.985 3.20071C15.9093 4.15923 16.4286 5.45926 16.4286 6.81482ZM3.82272 14.0162C4.02489 13.9469 4.2451 13.9617 4.43692 14.0576C4.62874 14.1534 4.77718 14.3228 4.85095 14.5299C4.92472 14.737 4.91805 14.9658 4.83235 15.1679C4.74665 15.37 4.58861 15.5297 4.39156 15.6134C2.69634 16.264 1.64286 17.135 1.64286 17.8889C1.64286 19.3115 5.39268 21.2963 11.5 21.2963C17.6073 21.2963 21.3571 19.3115 21.3571 17.8889C21.3571 17.135 20.3037 16.264 18.6084 15.6144C18.4114 15.5308 18.2534 15.3711 18.1677 15.1689C18.0819 14.9668 18.0753 14.7381 18.149 14.5309C18.2228 14.3238 18.3713 14.1545 18.5631 14.0586C18.7549 13.9628 18.9751 13.948 19.1773 14.0172C21.6426 14.9596 23 16.3353 23 17.8889C23 21.209 17.0744 23 11.5 23C5.92558 23 -7.15256e-07 21.209 -7.15256e-07 17.8889C-7.15256e-07 16.3353 1.35741 14.9596 3.82272 14.0162Z" fill="black"/>
</svg>
