<svg width="34" height="34" viewBox="0 0 34 34" fill="none" xmlns="http://www.w3.org/2000/svg">
<path fill-rule="evenodd" clip-rule="evenodd" d="M0 4.25C0 1.90279 1.90279 0 4.25 0H29.75C32.0973 0 34 1.90281 34 4.25V17C34 17.9389 33.2389 18.7 32.3 18.7C31.3611 18.7 30.6 17.9389 30.6 17V4.25C30.6 3.78054 30.2195 3.4 29.75 3.4H4.25C3.78056 3.4 3.4 3.78056 3.4 4.25V29.75C3.4 30.2195 3.78054 30.6 4.25 30.6H17C17.9389 30.6 18.7 31.3611 18.7 32.3C18.7 33.2389 17.9389 34 17 34H4.25C1.90281 34 0 32.0973 0 29.75V4.25Z" fill="#2A2B6A"/>
<path fill-rule="evenodd" clip-rule="evenodd" d="M23.8 20.4C21.9222 20.4 20.4 21.9222 20.4 23.8C20.4 25.6778 21.9222 27.2 23.8 27.2C25.6778 27.2 27.2 25.6778 27.2 23.8C27.2 21.9222 25.6778 20.4 23.8 20.4ZM17 23.8C17 20.0445 20.0445 17 23.8 17C27.5555 17 30.6 20.0445 30.6 23.8C30.6 27.5555 27.5555 30.6 23.8 30.6C20.0445 30.6 17 27.5555 17 23.8Z" fill="#2A2B6A"/>
<path fill-rule="evenodd" clip-rule="evenodd" d="M26.7227 26.1381C27.3092 25.4049 28.379 25.2861 29.1121 25.8726L33.3621 29.2726C34.0953 29.8591 34.2142 30.9289 33.6276 31.662C33.0411 32.3952 31.9713 32.5141 31.2382 31.9275L26.9882 28.5275C26.255 27.941 26.1362 26.8712 26.7227 26.1381Z" fill="#2A2B6A"/>
<path fill-rule="evenodd" clip-rule="evenodd" d="M6.80005 10.2C6.80005 9.26112 7.56116 8.5 8.50005 8.5H25.5C26.4389 8.5 27.2 9.26112 27.2 10.2C27.2 11.1389 26.4389 11.9 25.5 11.9H8.50005C7.56116 11.9 6.80005 11.1389 6.80005 10.2Z" fill="#2A2B6A"/>
<path fill-rule="evenodd" clip-rule="evenodd" d="M6.80005 17.0008C6.80005 16.0619 7.56116 15.3008 8.50005 15.3008H15.3C16.2389 15.3008 17 16.0619 17 17.0008C17 17.9397 16.2389 18.7008 15.3 18.7008H8.50005C7.56116 18.7008 6.80005 17.9397 6.80005 17.0008Z" fill="#2A2B6A"/>
</svg>
