<svg width="78" height="77" viewBox="0 0 78 77" fill="none" xmlns="http://www.w3.org/2000/svg">
<g clip-path="url(#clip0_3357_1998)">
<path d="M51.0284 47.935C50.3739 48.7557 49.5707 49.4905 48.6354 50.0577L39.3412 55.2912C38.928 55.5189 38.5149 55.6307 38.0786 55.6307C36.9911 55.6307 36.0128 54.9218 35.4013 53.7357C34.8128 52.5455 34.727 51.0759 35.183 49.8041L39.1659 37.8372C39.5593 36.677 40.1244 35.5728 40.8185 34.6704L43.2347 31.5294L13.9899 31.5251C13.4016 31.5251 12.9025 30.902 12.9025 30.1114C12.9025 29.3465 13.4016 28.6976 13.9899 28.6976H45.4135L58.2514 12.0084C57.4019 11.2178 56.3574 10.7924 55.2469 10.7924L6.57022 10.7881C3.63178 10.7881 1.23877 13.9033 1.23877 17.719V57.495C1.23877 61.315 3.63178 64.4259 6.57022 64.4259H12.2057L17.4942 74.3001C18.6478 76.4787 21.13 76.4787 22.2802 74.3001L27.5687 64.4259H55.2506C58.189 64.4259 60.582 61.315 60.582 57.495V35.517L51.0284 47.935ZM32.5086 46.4912H13.9888C13.4004 46.4912 12.9014 45.8682 12.9014 45.0775C12.9014 44.3127 13.4004 43.6638 13.9888 43.6638H32.5086C33.1167 43.6638 33.5961 44.3126 33.5961 45.0775C33.5961 45.8681 33.1167 46.4912 32.5086 46.4912ZM39.886 49.0952C40.3851 49.7439 40.7553 50.483 40.9735 51.2737L38.4714 52.6874C37.6451 53.1385 36.7956 52.0387 37.1658 50.9601L38.2533 47.7074C38.8614 48.0469 39.4299 48.5022 39.886 49.0952ZM41.1487 39.0233L47.6568 47.5096L42.9996 50.1393C42.6525 49.035 42.1072 47.9909 41.4098 47.0843C40.7553 46.2635 39.972 45.5846 39.1259 45.1034L41.1487 39.0233ZM65.9545 6.01013L73.0477 15.2614L49.5043 45.8986L42.388 36.6473L65.9545 6.01013ZM75.9231 11.523L74.5745 13.2503L67.4813 4.02925L68.8299 2.27607C69.8082 1.00425 71.0941 0.351074 72.3765 0.351074C73.6589 0.351074 74.9447 0.999898 75.9231 2.27607C77.8798 4.81982 77.8798 8.94922 75.9231 11.523Z" fill="black"/>
</g>
<defs>
<clipPath id="clip0_3357_1998">
<rect width="77" height="77" fill="white" transform="translate(0.5)"/>
</clipPath>
</defs>
</svg>
