<svg width="42" height="33" viewBox="0 0 42 33" fill="none" xmlns="http://www.w3.org/2000/svg">
<path fill-rule="evenodd" clip-rule="evenodd" d="M36.75 0C33.8639 0 31.5 2.39377 31.5 5.31625C31.5 6.27333 31.7592 7.16652 32.201 7.94417L23.2819 15.5561H10.4851V13.487C10.4855 13.4719 10.4855 13.4568 10.4851 13.4417C10.4297 12.2573 9.47945 11.2064 8.24787 11.2064H2.23722C1.00563 11.2064 0 12.2411 0 13.487V19.5584C0 20.8055 1.00563 21.8389 2.23722 21.8389H8.24787C9.47945 21.8389 10.4152 20.7884 10.4851 19.6188C10.4857 19.5987 10.4857 19.5785 10.4851 19.5584V17.4893H23.2819L32.1861 25.086C31.7546 25.8569 31.5 26.7388 31.5 27.6837C31.5 30.6062 33.8639 33 36.75 33C39.6361 33 42 30.6062 42 27.6837C42 24.7613 39.6361 22.3826 36.75 22.3826C35.4873 22.3826 34.3169 22.8315 33.4091 23.5909L25.1165 16.5227L33.424 9.42426C34.3294 10.1756 35.4949 10.6174 36.75 10.6174C39.6361 10.6174 42 8.23873 42 5.31625C42 2.39377 39.6361 0 36.75 0ZM2.23722 13.1396H8.24787C8.43388 13.1396 8.56045 13.2805 8.57599 13.5172V19.5281C8.55466 19.7837 8.43242 19.9057 8.24787 19.9057H2.23722C2.04777 19.9057 1.90909 19.7502 1.90909 19.5583V13.487C1.90909 13.3035 2.04777 13.1396 2.23722 13.1396Z" fill="#2A2B6A"/>
</svg>
