<svg width="78" height="78" viewBox="0 0 78 78" fill="none" xmlns="http://www.w3.org/2000/svg">
<g clip-path="url(#clip0_3348_1975)">
<path d="M10.7667 0.5C5.09654 0.5 0.5 5.09654 0.5 10.7667V26.1667C0.5 31.8368 5.09654 36.4333 10.7667 36.4333H26.1667C31.8368 36.4333 36.4333 31.8368 36.4333 26.1667V10.7667C36.4333 5.09654 31.8368 0.5 26.1667 0.5H10.7667Z" fill="black"/>
<path d="M10.7667 41.5669C5.09654 41.5669 0.5 46.1634 0.5 51.8335V67.2335C0.5 72.9037 5.09654 77.5002 10.7667 77.5002H26.1667C31.8368 77.5002 36.4333 72.9037 36.4333 67.2335V51.8335C36.4333 46.1634 31.8368 41.5669 26.1667 41.5669H10.7667Z" fill="black"/>
<path d="M51.8335 41.5669C46.1634 41.5669 41.5669 46.1634 41.5669 51.8335V67.2335C41.5669 72.9037 46.1634 77.5002 51.8335 77.5002H67.2335C72.9037 77.5002 77.5002 72.9037 77.5002 67.2335V51.8335C77.5002 46.1634 72.9037 41.5669 67.2335 41.5669H51.8335Z" fill="black"/>
<path fill-rule="evenodd" clip-rule="evenodd" d="M77.5002 10.7667C77.5002 5.09654 72.9037 0.5 67.2335 0.5H51.8335C46.1634 0.5 41.5669 5.09654 41.5669 10.7667V26.1667C41.5669 31.8368 46.1634 36.4333 51.8335 36.4333H67.2335C72.9037 36.4333 77.5002 31.8368 77.5002 26.1667V10.7667ZM50.5502 14.6167C50.5502 16.0342 51.6993 17.1833 53.1169 17.1833C54.5344 17.1833 55.6835 16.0342 55.6835 14.6167V12.05C55.6835 10.6325 54.5344 9.48333 53.1169 9.48333C51.6993 9.48333 50.5502 10.6325 50.5502 12.05V14.6167ZM65.9502 17.1833C64.5326 17.1833 63.3835 16.0342 63.3835 14.6167V12.05C63.3835 10.6325 64.5326 9.48333 65.9502 9.48333C67.3678 9.48333 68.5169 10.6325 68.5169 12.05V14.6167C68.5169 16.0342 67.3678 17.1833 65.9502 17.1833ZM50.5502 23.6C50.5502 22.1824 51.6993 21.0333 53.1169 21.0333H65.9502C67.3678 21.0333 68.5169 22.1824 68.5169 23.6C68.5169 25.0176 67.3678 26.1667 65.9502 26.1667H53.1169C51.6993 26.1667 50.5502 25.0176 50.5502 23.6Z" fill="black"/>
</g>
<defs>
<clipPath id="clip0_3348_1975">
<rect width="77" height="77" fill="white" transform="translate(0.5 0.5)"/>
</clipPath>
</defs>
</svg>
