<svg width="77" height="77" viewBox="0 0 77 77" fill="none" xmlns="http://www.w3.org/2000/svg">
<g clip-path="url(#clip0_152_11)">
<path d="M1 10.2667C1 5.14882 5.14882 1 10.2667 1H25.6667C30.7845 1 34.9333 5.14882 34.9333 10.2667V25.6667C34.9333 30.7845 30.7845 34.9333 25.6667 34.9333H10.2667C5.14882 34.9333 1 30.7845 1 25.6667V10.2667Z" stroke="black" stroke-width="2"/>
<path d="M1 51.3335C1 46.2157 5.14882 42.0669 10.2667 42.0669H25.6667C30.7845 42.0669 34.9333 46.2157 34.9333 51.3335V66.7335C34.9333 71.8514 30.7845 76.0002 25.6667 76.0002H10.2667C5.14882 76.0002 1 71.8514 1 66.7335V51.3335Z" stroke="black" stroke-width="2"/>
<path d="M42.0667 51.3335C42.0667 46.2157 46.2155 42.0669 51.3333 42.0669H66.7333C71.8512 42.0669 76 46.2157 76 51.3335V66.7335C76 71.8514 71.8512 76.0002 66.7333 76.0002H51.3333C46.2155 76.0002 42.0667 71.8514 42.0667 66.7335V51.3335Z" stroke="black" stroke-width="2"/>
<path d="M66.7333 1C71.8512 1 76 5.14882 76 10.2667V25.6667C76 30.7845 71.8512 34.9333 66.7333 34.9333H51.3333C46.2155 34.9333 42.0667 30.7845 42.0667 25.6667V10.2667C42.0667 5.14882 46.2155 1 51.3333 1H66.7333ZM49.05 14.1167C49.05 16.0865 50.6469 17.6833 52.6167 17.6833C54.5865 17.6833 56.1833 16.0865 56.1833 14.1167V11.55C56.1833 9.58025 54.5865 7.98333 52.6167 7.98333C50.6468 7.98333 49.05 9.58023 49.05 11.55V14.1167ZM61.8833 14.1167C61.8833 16.0865 63.4801 17.6833 65.45 17.6833C67.4199 17.6833 69.0167 16.0865 69.0167 14.1167V11.55C69.0167 9.58022 67.4199 7.98333 65.45 7.98333C63.4801 7.98333 61.8833 9.58023 61.8833 11.55V14.1167ZM52.6167 19.5333C50.6468 19.5333 49.05 21.1301 49.05 23.1C49.05 25.0699 50.6468 26.6667 52.6167 26.6667H65.45C67.4199 26.6667 69.0167 25.0699 69.0167 23.1C69.0167 21.1301 67.4199 19.5333 65.45 19.5333H52.6167Z" stroke="black" stroke-width="2"/>
</g>
<defs>
<clipPath id="clip0_152_11">
<rect width="77" height="77" fill="white"/>
</clipPath>
</defs>
</svg>
