<svg width="18" height="18" viewBox="0 0 18 18" fill="none" xmlns="http://www.w3.org/2000/svg">
<path d="M15.75 2.8125C15.75 2.06658 15.4537 1.35121 14.9262 0.823762C14.3988 0.296316 13.6834 0 12.9375 0H2.8125C2.06658 0 1.35121 0.296316 0.823762 0.823762C0.296316 1.35121 0 2.06658 0 2.8125V12.9375C0 13.6834 0.296316 14.3988 0.823762 14.9262C1.35121 15.4537 2.06658 15.75 2.8125 15.75H7.875V14.625H2.8125C2.36495 14.625 1.93572 14.4472 1.61926 14.1307C1.30279 13.8143 1.125 13.3851 1.125 12.9375V4.5H14.625V7.0515C14.967 7.24897 15.2511 7.533 15.4485 7.87503C15.646 8.21706 15.75 8.60505 15.75 9V2.8125ZM2.8125 1.125H12.9375C13.3851 1.125 13.8143 1.30279 14.1307 1.61926C14.4472 1.93572 14.625 2.36495 14.625 2.8125V3.375H1.125V2.8125C1.125 2.36495 1.30279 1.93572 1.61926 1.61926C1.93572 1.30279 2.36495 1.125 2.8125 1.125ZM13.5 7.875C13.2016 7.875 12.9155 7.99353 12.7045 8.20451C12.4935 8.41548 12.375 8.70163 12.375 9V16.875C12.375 17.1734 12.4935 17.4595 12.7045 17.6705C12.9155 17.8815 13.2016 18 13.5 18C13.7984 18 14.0845 17.8815 14.2955 17.6705C14.5065 17.4595 14.625 17.1734 14.625 16.875V9C14.625 8.70163 14.5065 8.41548 14.2955 8.20451C14.0845 7.99353 13.7984 7.875 13.5 7.875ZM10.125 12.375C9.82663 12.375 9.54048 12.4935 9.32951 12.7045C9.11853 12.9155 9 13.2016 9 13.5V16.875C9 17.1734 9.11853 17.4595 9.32951 17.6705C9.54048 17.8815 9.82663 18 10.125 18C10.4234 18 10.7095 17.8815 10.9205 17.6705C11.1315 17.4595 11.25 17.1734 11.25 16.875V13.5C11.25 13.2016 11.1315 12.9155 10.9205 12.7045C10.7095 12.4935 10.4234 12.375 10.125 12.375ZM15.75 11.25C15.75 10.9516 15.8685 10.6655 16.0795 10.4545C16.2905 10.2435 16.5766 10.125 16.875 10.125C17.1734 10.125 17.4595 10.2435 17.6705 10.4545C17.8815 10.6655 18 10.9516 18 11.25V16.875C18 17.1734 17.8815 17.4595 17.6705 17.6705C17.4595 17.8815 17.1734 18 16.875 18C16.5766 18 16.2905 17.8815 16.0795 17.6705C15.8685 17.4595 15.75 17.1734 15.75 16.875V11.25Z" fill="black"/>
</svg>
