<svg width="78" height="77" viewBox="0 0 78 77" fill="none" xmlns="http://www.w3.org/2000/svg">
<g clip-path="url(#clip0_3357_1991)">
<path d="M23.7514 63.751C21.7477 66.566 18.5434 68.2322 15.1316 68.2322C11.7197 68.2322 8.51529 66.566 6.51178 63.751C3.0829 66.1252 -2.36018 75.5392 4.74296 76.5388H25.5199C32.6906 75.6641 27.1665 66.112 23.7514 63.751Z" fill="black"/>
<path d="M55.5771 45.1318C55.9173 55.8367 71.1162 55.8226 71.4558 45.1318C71.1156 34.4269 55.9169 34.4136 55.5771 45.1318Z" fill="black"/>
<path d="M77.3481 60.0571C76.6779 56.659 74.8274 53.6217 72.1367 51.5044C70.1398 54.3298 66.9321 56.0064 63.5169 56.0064C60.1016 56.0064 56.8938 54.3298 54.897 51.5044C52.1757 53.587 47.9441 59.5573 50.407 62.9868C51.0737 63.8198 52.0737 64.3059 53.1283 64.3059H73.9052C74.9598 64.3302 75.9633 63.8616 76.6334 63.0319C77.3069 62.2024 77.5691 61.1088 77.3481 60.0571Z" fill="black"/>
<path d="M15.1391 65.4722C25.6299 65.1391 25.6161 49.6162 15.1391 49.2695C4.64831 49.5612 4.63525 65.1391 15.1391 65.4722Z" fill="black"/>
<path d="M52.9378 35.0792C53.659 35.0792 54.3529 34.7877 54.8631 34.2671C55.3734 33.7464 55.6591 33.0383 55.6591 32.3025V27.4429C55.6625 27.1409 55.7885 26.8563 56.0095 26.6584C56.2306 26.4606 56.5232 26.3669 56.8157 26.4017C59.6118 26.3946 61.8773 24.0759 61.8773 21.2227V5.51946C61.8706 2.66974 59.6084 0.361422 56.8157 0.354492H29.0173C26.2211 0.354492 23.9488 2.66626 23.9419 5.51946V21.2227C23.9419 24.083 26.2143 26.4017 29.0173 26.4017H42.0526C43.2977 26.398 44.4815 26.9326 45.3182 27.8733L51.0465 34.2046C51.5398 34.739 52.2201 35.055 52.9378 35.0792ZM30.9085 8.18501H46.7333C47.485 8.18501 48.0939 8.80634 48.0939 9.57345C48.0939 10.3406 47.485 10.9619 46.7333 10.9619H30.9085C30.1569 10.9619 29.548 10.3406 29.548 9.57345C29.548 8.80634 30.1569 8.18501 30.9085 8.18501ZM30.9085 18.5709C30.1569 18.5709 29.548 17.9496 29.548 17.1826C29.548 16.4154 30.1569 15.794 30.9085 15.794H54.8702C55.622 15.794 56.2309 16.4154 56.2309 17.1826C56.2309 17.9496 55.622 18.5709 54.8702 18.5709H30.9085Z" fill="black"/>
<path d="M29.0172 29.1783C24.7141 29.1714 21.2274 25.6135 21.2206 21.2227V12.8921H7.83169C5.04574 12.899 2.7836 15.2004 2.77002 18.0432V33.7608C2.77342 35.1664 3.33469 36.5098 4.32801 37.4852C5.32128 38.4571 6.65817 38.9778 8.0358 38.9257C8.59709 38.9327 9.04954 39.3943 9.05633 39.967V44.8821C9.11075 45.9546 9.76729 46.9022 10.7436 47.3084C11.7198 47.7144 12.8389 47.5131 13.6146 46.7843L13.737 46.6454L19.343 40.439C20.1934 39.5331 21.3771 39.0298 22.6086 39.0507H35.5891C36.9599 39.0576 38.273 38.5022 39.2357 37.506C40.1949 36.5098 40.7221 35.1595 40.6916 33.7608V29.179L29.0172 29.1783Z" fill="black"/>
</g>
<defs>
<clipPath id="clip0_3357_1991">
<rect width="77" height="77" fill="white" transform="translate(0.5)"/>
</clipPath>
</defs>
</svg>
