<svg width="87" height="68" viewBox="0 0 87 68" fill="none" xmlns="http://www.w3.org/2000/svg">
<g clip-path="url(#clip0_3348_1980)">
<path d="M19.33 38.14C26.22 38.14 32.23 34.41 35.52 28.88H42.83L48.66 23.45H54.99L59.87 27.84L64.75 23.45H69.61L76.41 28.66L86.11 17.45L77.15 9.76H35.51C32.23 4.23 26.21 0.5 19.32 0.5C8.94 0.5 0.5 8.94 0.5 19.32C0.5 29.7 8.94 38.14 19.32 38.14H19.33ZM76.04 12.75L81.87 17.76V17.45L77.15 12.534H59.87V23.8L61 12.76L46 9.76L36.95 12.76V25.88C37.72 23.83 38.15 21.63 38.15 19.32C38.15 17.01 37.71 14.8 36.95 12.76H76.03L76.04 12.75ZM9.58 15.29C11.8 15.29 13.61 17.1 13.61 19.32C13.61 21.54 11.8 23.35 9.58 23.35C7.36 23.35 5.55 21.54 5.55 19.32C5.55 17.1 7.36 15.29 9.58 15.29Z" fill="black"/>
<path d="M0.5 66.6098H85.48V43.0098H0.5V66.6098ZM62.62 52.9198L64.25 50.3998L66.79 52.0498V49.2398H69.79V52.0498L72.33 50.3998L73.96 52.9198L71.04 54.8098L73.96 56.6998L72.33 59.2198L69.79 57.5698V60.3798H66.79V57.5698L64.25 59.2198L62.62 56.6998L65.54 54.8098L62.62 52.9198ZM45.75 52.9198L47.38 50.3998L49.92 52.0498V49.2398H52.92V52.0498L55.46 50.3998L57.09 52.9198L54.17 54.8098L57.09 56.6998L55.46 59.2198L52.92 57.5698V60.3798H49.92V57.5698L47.38 59.2198L45.75 56.6998L48.67 54.8098L45.75 52.9198ZM28.88 52.9198L30.51 50.3998L33.05 52.0498V49.2398H36.05V52.0498L38.59 50.3998L40.22 52.9198L37.3 54.8098L40.22 56.6998L38.59 59.2198L36.05 57.5698V60.3798H33.05V57.5698L30.51 59.2198L28.88 56.6998L31.8 54.8098L28.88 52.9198ZM12.01 52.9198L13.64 50.3998L16.18 52.0498V49.2398H19.18V52.0498L21.72 50.3998L23.35 52.9198L20.43 54.8098L23.35 56.6998L21.72 59.2198L19.18 57.5698V60.3798H16.18V57.5698L13.64 59.2198L12.01 56.6998L14.93 54.8098L12.01 52.9198Z" fill="black"/>
</g>
<defs>
<clipPath id="clip0_3348_1980">
<rect width="86" height="67" fill="white" transform="translate(0.5 0.5)"/>
</clipPath>
</defs>
</svg>
