<svg width="37" height="37" viewBox="0 0 37 37" fill="none" xmlns="http://www.w3.org/2000/svg">
<path d="M2.05556 16.4444H14.3889C14.9341 16.4444 15.4569 16.2279 15.8424 15.8424C16.2279 15.4569 16.4444 14.9341 16.4444 14.3889V2.05556C16.4444 1.51039 16.2279 0.98755 15.8424 0.602058C15.4569 0.216567 14.9341 0 14.3889 0H2.05556C1.51039 0 0.98755 0.216567 0.602058 0.602058C0.216567 0.98755 0 1.51039 0 2.05556V14.3889C0 14.9341 0.216567 15.4569 0.602058 15.8424C0.98755 16.2279 1.51039 16.4444 2.05556 16.4444ZM4.11111 4.11111H12.3333V12.3333H4.11111V4.11111ZM34.9444 0H22.6111C22.0659 0 21.5431 0.216567 21.1576 0.602058C20.7721 0.98755 20.5556 1.51039 20.5556 2.05556V14.3889C20.5556 14.9341 20.7721 15.4569 21.1576 15.8424C21.5431 16.2279 22.0659 16.4444 22.6111 16.4444H34.9444C35.4896 16.4444 36.0125 16.2279 36.3979 15.8424C36.7834 15.4569 37 14.9341 37 14.3889V2.05556C37 1.51039 36.7834 0.98755 36.3979 0.602058C36.0125 0.216567 35.4896 0 34.9444 0ZM32.8889 12.3333H24.6667V4.11111H32.8889V12.3333ZM14.3889 37C14.9341 37 15.4569 36.7834 15.8424 36.3979C16.2279 36.0125 16.4444 35.4896 16.4444 34.9444V22.6111C16.4444 22.0659 16.2279 21.5431 15.8424 21.1576C15.4569 20.7721 14.9341 20.5556 14.3889 20.5556H2.05556C1.51039 20.5556 0.98755 20.7721 0.602058 21.1576C0.216567 21.5431 0 22.0659 0 22.6111V34.9444C0 35.4896 0.216567 36.0125 0.602058 36.3979C0.98755 36.7834 1.51039 37 2.05556 37H14.3889ZM4.11111 24.6667H12.3333V32.8889H4.11111V24.6667ZM30.8333 22.6111H26.7222V26.7222H22.6111V30.8333H26.7222V34.9444H30.8333V30.8333H34.9444V26.7222H30.8333V22.6111Z" fill="#2A2B6A"/>
</svg>
