<svg width="15" height="16" viewBox="0 0 15 16" fill="none" xmlns="http://www.w3.org/2000/svg">
<path d="M15.0002 6.47166L14.9751 2.15726L11.2126 0.0251465L7.50018 2.20743C7.50018 3.61211 7.4751 5.06697 7.4751 6.49674C8.22761 6.92316 9.03029 7.39975 9.13062 7.44992C9.23096 7.50008 10.4601 8.22751 11.2627 8.67902V8.65394L15.0002 6.47166ZM13.7711 2.8596L13.7962 5.7944L11.2627 7.27433L8.72928 5.84456L8.7042 2.90977L11.2377 1.42983L13.7711 2.8596ZM7.7761 6.37132L7.72593 2.33285L11.2126 0.301065V0.852909L8.17744 2.60877L8.20253 6.0954L11.2377 7.82617L14.2477 6.07031L14.7494 6.34624L11.2627 8.37802L7.7761 6.37132Z" fill="black"/>
<path d="M3.78747 12.968L7.55003 15.1002L11.2624 12.9179L11.2122 8.60349C9.98314 7.90114 8.75404 7.17372 7.52494 6.44629C6.79752 6.87271 5.96975 7.3493 5.86942 7.39947C5.76908 7.44964 4.53998 8.15198 3.7373 8.62857H3.76239L3.78747 12.968ZM7.55003 13.6955L4.99149 12.2406L4.96641 9.30583L7.47477 7.82589L10.0333 9.28075L10.0584 12.2155L7.55003 13.6955ZM7.47477 6.7473L10.9865 8.72891L11.0116 12.7674L10.535 12.4915L10.5099 8.97974L7.47477 7.27405L4.46473 9.055L4.48982 12.5416L4.01323 12.8426L3.98814 8.80416L7.47477 6.7473Z" fill="black"/>
<path d="M3.71239 0L0 2.18228L0.0250837 6.49668L3.76255 8.60371C4.99166 7.90136 6.24584 7.19902 7.47494 6.49668C7.47494 5.64383 7.47494 4.69065 7.47494 4.59032C7.47494 4.4649 7.47494 3.06021 7.47494 2.13211H7.44986L3.71239 0ZM1.20402 2.88462L3.73747 1.40469L6.27092 2.83446L6.29601 5.76925L3.76255 7.24919L1.2291 5.79433L1.20402 2.88462ZM7.24919 6.32109L3.76255 8.35287L0.250837 6.37126L0.727427 6.09534L3.76255 7.82611L6.7726 6.07025V2.55854L3.73747 0.827763L3.71239 0.275922L7.2241 2.25753L7.24919 6.32109Z" fill="black"/>
</svg>
