<svg width="18" height="18" viewBox="0 0 18 18" fill="none" xmlns="http://www.w3.org/2000/svg">
<g clip-path="url(#clip0_515_7)">
<path d="M14.1428 11.7094H15.4286V14.7909H14.1428V11.7094ZM11.5714 8.62793H12.8571V14.7909H11.5714V8.62793ZM5.7857 14.7909C4.93353 14.79 4.11656 14.465 3.51398 13.8873C2.91141 13.3096 2.57243 12.5264 2.57141 11.7094H3.85713C3.85713 12.0751 3.97023 12.4326 4.18215 12.7366C4.39406 13.0407 4.69526 13.2777 5.04766 13.4176C5.40006 13.5575 5.78784 13.5941 6.16194 13.5228C6.53605 13.4515 6.87969 13.2754 7.1494 13.0168C7.41912 12.7582 7.6028 12.4288 7.67721 12.0701C7.75163 11.7115 7.71343 11.3397 7.56746 11.0019C7.4215 10.664 7.17431 10.3753 6.85715 10.1721C6.54 9.96897 6.16713 9.86053 5.7857 9.86053V8.62793C6.63818 8.62793 7.45574 8.95259 8.05854 9.53048C8.66134 10.1084 8.99998 10.8922 8.99998 11.7094C8.99998 12.5267 8.66134 13.3105 8.05854 13.8884C7.45574 14.4663 6.63818 14.7909 5.7857 14.7909Z" fill="black"/>
<path d="M16.7143 0H1.28571C0.944722 0 0.617695 0.129863 0.376577 0.36102C0.135459 0.592178 0 0.905695 0 1.2326V16.0238C0 16.3507 0.135459 16.6642 0.376577 16.8954C0.617695 17.1265 0.944722 17.2564 1.28571 17.2564H16.7143C17.0551 17.2559 17.3819 17.1259 17.6229 16.8948C17.8639 16.6638 17.9995 16.3506 18 16.0238V1.2326C18 0.905695 17.8645 0.592178 17.6234 0.36102C17.3823 0.129863 17.0553 0 16.7143 0ZM16.7143 5.5467H7.71429V1.2326H16.7143V5.5467ZM6.42857 1.2326V5.5467H1.28571V1.2326H6.42857ZM1.28571 16.0238V6.7793H16.7143L16.7156 16.0238H1.28571Z" fill="black"/>
</g>
<defs>
<clipPath id="clip0_515_7">
<rect width="18" height="18" fill="white"/>
</clipPath>
</defs>
</svg>
