<svg width="40" height="40" viewBox="0 0 40 40" fill="none" xmlns="http://www.w3.org/2000/svg">
<path d="M27.4014 38.7249L36.4925 29.558L32.1744 25.2039L23.0833 34.3708C22.9581 34.4971 22.8692 34.6553 22.826 34.8285L21.8184 40.0003L26.9465 38.9843C27.1187 38.9409 27.2762 38.8511 27.4014 38.7249ZM39.4273 26.5987C39.7941 26.2287 40.0002 25.727 40.0002 25.2039C40.0002 24.6808 39.7941 24.1791 39.4273 23.8091L37.8758 22.2446C37.5089 21.8748 37.0113 21.667 36.4925 21.667C35.9737 21.667 35.4761 21.8748 35.1092 22.2446L33.5577 23.8091L37.8758 28.1632L39.4273 26.5987Z" fill="#333333"/>
<path d="M7.03888 8.51919C7.8165 8.51919 8.4469 7.88355 8.4469 7.09944C8.4469 6.31533 7.8165 5.67969 7.03888 5.67969C6.26125 5.67969 5.63086 6.31533 5.63086 7.09944C5.63086 7.88355 6.26125 8.51919 7.03888 8.51919Z" fill="#333333"/>
<path d="M7.03888 19.8766C7.8165 19.8766 8.4469 19.241 8.4469 18.4569C8.4469 17.6728 7.8165 17.0371 7.03888 17.0371C6.26125 17.0371 5.63086 17.6728 5.63086 18.4569C5.63086 19.241 6.26125 19.8766 7.03888 19.8766Z" fill="#333333"/>
<path d="M7.03888 31.234C7.8165 31.234 8.4469 30.5984 8.4469 29.8143C8.4469 29.0302 7.8165 28.3945 7.03888 28.3945C6.26125 28.3945 5.63086 29.0302 5.63086 29.8143C5.63086 30.5984 6.26125 31.234 7.03888 31.234Z" fill="#333333"/>
<path d="M25.3443 0H2.81604C2.06918 0 1.35291 0.299161 0.824798 0.831671C0.296689 1.36418 0 2.08642 0 2.8395V34.074C0 34.8271 0.296689 35.5494 0.824798 36.0819C1.35291 36.6144 2.06918 36.9135 2.81604 36.9135H19.0389V34.074H2.81604V25.5555H28.1604V2.8395C28.1604 2.08642 27.8637 1.36418 27.3356 0.831671C26.8075 0.299161 26.0912 0 25.3443 0ZM25.3443 22.716H2.81604V14.1975H25.3443V22.716ZM25.3443 11.358H2.81604V2.8395H25.3443V11.358Z" fill="#333333"/>
</svg>
