<svg width="35" height="35" viewBox="0 0 35 35" fill="none" xmlns="http://www.w3.org/2000/svg">
<path d="M3.01744 10.8622H8.44848V9.65527H1.81055V13.276H3.01744V10.8622Z" fill="#000000"/>
<path d="M31.9828 13.276H33.1897V9.65527H26.5518V10.8622H31.9828V13.276Z" fill="#000000"/>
<path d="M19.3925 18.6796C19.9531 18.4515 20.5318 18.2989 21.1208 18.2059V16.293H23.5346V18.1951C24.1646 18.2916 24.7704 18.4654 25.3449 18.7032V14.4827H9.65527V16.217C10.6045 15.8766 11.6207 15.6896 12.6725 15.6896C15.2504 15.6896 17.6739 16.774 19.3925 18.6796Z" fill="#000000"/>
<path d="M25.3449 7.24146H9.65527V13.2759H25.3449V7.24146ZM13.8794 11.4656H11.4656V9.0518H13.8794V11.4656ZM18.707 11.4656H16.2932V9.0518H18.707V11.4656Z" fill="#000000"/>
<path d="M21.5177 28.8719C21.4507 28.6655 21.3638 28.4579 21.2594 28.2546L21.12 27.983L21.4598 27.3047L20.3681 26.2131L19.6899 26.5528L19.4183 26.4134C19.2143 26.309 19.0068 26.2227 18.801 26.1552L18.5113 26.061L18.2718 25.3447H16.7275L16.4886 26.0604L16.1989 26.1546C15.9925 26.2215 15.7849 26.3084 15.5816 26.4128L15.31 26.5522L14.6318 26.2125L13.5401 27.3041L13.8799 27.9824L13.7405 28.254C13.6361 28.4579 13.5498 28.6655 13.4822 28.8713L13.3881 29.1609L12.6724 29.4005V30.9447L13.3881 31.1837L13.4822 31.4733C13.5492 31.6797 13.6361 31.8873 13.7405 32.0907L13.8799 32.3622L13.5401 33.0399L14.6318 34.1321L15.31 33.7924L15.5816 33.9318C15.7856 34.0362 15.9931 34.1225 16.1989 34.1901L16.4886 34.2842L16.7281 34.9999H18.2724L18.5113 34.2842L18.801 34.1901C19.0074 34.1231 19.215 34.0362 19.4183 33.9318L19.6899 33.7924L20.3681 34.1321L21.4598 33.0399L21.12 32.3622L21.2594 32.0907C21.3638 31.8867 21.4501 31.6791 21.5177 31.4733L21.6118 31.1837L22.3275 30.9441V29.3999L21.6118 29.1609L21.5177 28.8719ZM17.4999 32.5861C16.1669 32.5861 15.0862 31.5053 15.0862 30.1723C15.0862 28.8393 16.1669 27.7585 17.4999 27.7585C18.833 27.7585 19.9137 28.8393 19.9137 30.1723C19.9137 31.5053 18.833 32.5861 17.4999 32.5861Z" fill="#000000"/>
<path d="M4.82759 20.2655V14.4827H0V22.9309H3.81319C4.0081 21.9763 4.35871 21.082 4.82759 20.2655ZM3.62069 21.724H1.2069V20.5171H3.62069V21.724ZM3.62069 19.3103H1.2069V18.1034H3.62069V19.3103ZM3.62069 16.8965H1.2069V15.6896H3.62069V16.8965Z" fill="#000000"/>
<path d="M30.1724 14.4827V22.9309H34.9999V14.4827H30.1724ZM33.7931 21.724H31.3793V20.5171H33.7931V21.724ZM33.7931 19.3103H31.3793V18.1034H33.7931V19.3103ZM33.7931 16.8965H31.3793V15.6896H33.7931V16.8965Z" fill="#000000"/>
<path d="M30.7759 24.1379C30.3233 24.1379 29.8713 24.2127 29.4326 24.3599L28.8478 24.5561L28.6638 23.9671C27.7954 21.1822 25.2489 19.3103 22.3276 19.3103C21.344 19.3103 20.3875 19.5281 19.4847 19.9578L19.0569 20.1611L18.7576 19.7942C17.2586 17.9525 15.0403 16.8965 12.6724 16.8965C8.79888 16.8965 5.46483 19.7888 4.9169 23.6243L4.84147 24.1517L4.23259 24.1391H4.23078C1.89422 24.1391 0 26.0333 0 28.362C0 30.6907 1.89543 32.5861 4.22414 32.5861H12.4178L12.5312 32.3592C12.4986 32.2862 12.4684 32.2126 12.4395 32.139L11.4655 31.8143V28.531L12.4395 28.2063C12.4684 28.1327 12.4992 28.0591 12.5312 27.9861L12.0714 27.067L14.3934 24.7449L15.3125 25.2048C15.3855 25.1722 15.4591 25.142 15.5328 25.113L15.858 24.1379H19.1414L19.466 25.1118C19.5397 25.1408 19.6133 25.1716 19.6863 25.2036L20.6053 24.7437L22.9274 27.0658L22.4676 27.9848C22.5002 28.0579 22.5303 28.1315 22.5593 28.2051L23.5345 28.5304V31.8137L22.5605 32.1384C22.5316 32.212 22.5008 32.2856 22.4688 32.3586L22.5822 32.5861H30.7759C33.1046 32.5861 35 30.6907 35 28.362C35 26.0333 33.1046 24.1379 30.7759 24.1379ZM5.43103 31.3792H4.22414C2.56043 31.3792 1.2069 30.0257 1.2069 28.362H2.41379C2.41379 29.3601 3.22603 30.1723 4.22414 30.1723H5.43103V31.3792ZM7.84483 31.3792H6.63793V30.1723H7.84483V31.3792ZM13.7598 19.4195C13.4032 19.3471 13.0369 19.3103 12.6724 19.3103C10.0993 19.3103 7.86112 21.1369 7.3506 23.6545L6.16724 23.4143C6.79241 20.3367 9.52784 18.1034 12.6724 18.1034C13.1172 18.1034 13.5637 18.148 13.9988 18.2361L13.7598 19.4195ZM15.9304 20.3959C15.5949 20.1436 15.2292 19.9306 14.8436 19.7617L15.3282 18.6561C15.7983 18.8625 16.2454 19.1226 16.6552 19.4304L15.9304 20.3959ZM26.2446 24.3642C25.5953 22.7608 24.0577 21.7241 22.3276 21.7241C21.9703 21.7241 21.6149 21.7687 21.2703 21.8574L20.971 20.688C21.4128 20.5751 21.8696 20.5172 22.3276 20.5172C24.5525 20.5172 26.5288 21.8496 27.3634 23.9116L26.2446 24.3642Z" fill="#000000"/>
<path d="M25.3449 0.603448C25.3449 0.270948 25.0746 0 24.7415 0H10.2587C9.92562 0 9.65527 0.270948 9.65527 0.603448V6.03448H25.3449V0.603448ZM18.707 4.22414H16.2932V1.81034H18.707V4.22414ZM23.5346 4.22414H21.1208V1.81034H23.5346V4.22414Z" fill="#000000"/>
</svg>
