<svg width="21" height="21" viewBox="0 0 21 21" fill="none" xmlns="http://www.w3.org/2000/svg">
<path fill-rule="evenodd" clip-rule="evenodd" d="M12.9885 11.749H12.9885C13.3126 11.9352 13.6187 12.1503 13.9035 12.3909C11.4057 12.7071 9.57523 14.996 10.0858 17.5534C10.2832 18.5225 10.8344 19.3823 11.6011 20.0001H0.671141C0.315831 20.0001 0 19.6843 0 19.329V17.1576C0 14.8284 1.26332 12.815 3.11883 11.749C3.15847 11.7515 3.19795 11.754 3.23728 11.7564C3.82466 11.7933 4.37736 11.828 4.89538 11.828H4.97434C5.92183 12.5781 7.02724 13.0123 8.05369 13.0123C9.08014 13.0123 10.1855 12.6176 11.133 11.828H11.212C11.8042 11.828 12.3964 11.7885 12.9885 11.749Z" fill="black"/>
<path d="M1.42106 10.2492C2.52647 10.4071 3.94771 10.565 5.36895 10.5255C6.15852 11.2756 7.10602 11.7494 7.97455 11.7494C8.84309 11.7494 9.79058 11.3151 10.5802 10.5255C12.0014 10.565 13.4226 10.4466 14.528 10.2492C14.9228 10.1702 15.0018 9.65701 14.6465 9.45962C13.7779 9.02535 12.9884 8.07786 12.9884 6.18287C12.9884 0.261044 9.43527 -0.489055 7.93507 0.221564C6.43488 -0.489055 2.88178 0.261044 2.88178 6.18287C2.88178 8.11734 2.0922 9.02535 1.22366 9.45962C0.947312 9.61753 1.02627 10.1702 1.42106 10.2492ZM4.77676 5.74861C6.23748 5.66965 8.2509 4.91955 9.39579 3.53779C9.7511 4.32737 10.3828 4.95903 11.1723 5.31434C11.2118 5.66965 11.2118 6.02496 11.2118 6.41975C11.2118 8.70952 9.23788 10.565 7.97455 10.565C6.71123 10.565 4.73728 8.70952 4.73728 6.41975C4.77676 6.18287 4.77676 5.98548 4.77676 5.74861Z" fill="black"/>
<path d="M19.142 16.6732H15.9021C15.7775 16.6732 15.684 16.5797 15.684 16.4551V13.2151C15.684 13.0905 15.5906 12.9971 15.4659 12.9971C13.2852 13.1217 11.6341 15.1466 12.0702 17.4208C12.3506 18.8539 13.5033 20.0066 14.9363 20.2869C17.2105 20.7231 19.2355 19.072 19.3601 16.8912C19.3913 16.7666 19.2666 16.6732 19.142 16.6732Z" fill="black"/>
<path d="M16.8987 12C16.7741 12 16.6807 12.0935 16.6807 12.2181V15.458C16.6807 15.5826 16.7741 15.6761 16.8987 15.6761H20.1387C20.2633 15.6761 20.3568 15.5826 20.3568 15.458C20.2321 13.5888 18.7679 12.1246 16.8987 12Z" fill="black"/>
</svg>
