<svg width="17" height="13" viewBox="0 0 17 13" fill="none" xmlns="http://www.w3.org/2000/svg">
<path d="M1.75646 5.58842H3.72144C3.90007 5.58842 4.01916 5.46888 4.01916 5.28957C4.01916 5.11026 3.90007 4.99072 3.72144 4.99072H1.75646C1.57783 4.99072 1.45874 5.11026 1.45874 5.28957C1.45874 5.46888 1.57783 5.58842 1.75646 5.58842Z" fill="black"/>
<path d="M3.72144 6.51489H1.75646C1.57783 6.51489 1.45874 6.63443 1.45874 6.81374C1.45874 6.99305 1.57783 7.11259 1.75646 7.11259H3.72144C3.90007 7.11259 4.01916 6.99305 4.01916 6.81374C4.01916 6.63443 3.8703 6.51489 3.72144 6.51489Z" fill="black"/>
<path d="M3.72144 8.06885H1.75646C1.57783 8.06885 1.45874 8.18839 1.45874 8.3677C1.45874 8.54701 1.57783 8.66655 1.75646 8.66655H3.72144C3.90007 8.66655 4.01916 8.54701 4.01916 8.3677C4.01916 8.18839 3.8703 8.06885 3.72144 8.06885Z" fill="black"/>
<path d="M3.72144 9.59302H1.75646C1.57783 9.59302 1.45874 9.71256 1.45874 9.89187C1.45874 10.0712 1.57783 10.1907 1.75646 10.1907H3.72144C3.90007 10.1907 4.01916 10.0712 4.01916 9.89187C4.01916 9.71256 3.8703 9.59302 3.72144 9.59302Z" fill="black"/>
<path d="M15.4816 2.21149H12.1173V0.298851C12.1173 0.11954 11.9982 0 11.8196 0H5.15061C4.97198 0 4.85289 0.11954 4.85289 0.298851V2.21149H1.48862C0.654991 2.21149 0 2.86897 0 3.70575V12.7011C0 12.8805 0.119089 13 0.297723 13H5.15061H7.56217H9.43783H11.8494H16.7023C16.8809 13 17 12.8805 17 12.7011V3.70575C16.9702 2.86897 16.3152 2.21149 15.4816 2.21149ZM4.85289 12.3724H0.595447V3.70575C0.595447 3.1977 0.982487 2.8092 1.48862 2.8092H4.85289V12.3724ZM6.49037 1.55402H7.74081C7.91944 1.55402 8.03853 1.67356 8.03853 1.85287C8.03853 2.03218 7.91944 2.15172 7.74081 2.15172H6.49037C6.31173 2.15172 6.19264 2.03218 6.19264 1.85287C6.19264 1.67356 6.34151 1.55402 6.49037 1.55402ZM6.49037 2.77931H7.74081C7.91944 2.77931 8.03853 2.89885 8.03853 3.07816C8.03853 3.25747 7.91944 3.37701 7.74081 3.37701H6.49037C6.31173 3.37701 6.19264 3.25747 6.19264 3.07816C6.19264 2.89885 6.34151 2.77931 6.49037 2.77931ZM6.49037 3.97471H7.74081C7.91944 3.97471 8.03853 4.09425 8.03853 4.27356C8.03853 4.45287 7.91944 4.57241 7.74081 4.57241H6.49037C6.31173 4.57241 6.19264 4.45287 6.19264 4.27356C6.19264 4.09425 6.34151 3.97471 6.49037 3.97471ZM6.49037 5.2H7.74081C7.91944 5.2 8.03853 5.31954 8.03853 5.49885C8.03853 5.67816 7.91944 5.7977 7.74081 5.7977H6.49037C6.31173 5.7977 6.19264 5.67816 6.19264 5.49885C6.19264 5.31954 6.34151 5.2 6.49037 5.2ZM6.49037 6.42529H7.74081C7.91944 6.42529 8.03853 6.54483 8.03853 6.72414C8.03853 6.90345 7.91944 7.02299 7.74081 7.02299H6.49037C6.31173 7.02299 6.19264 6.90345 6.19264 6.72414C6.19264 6.54483 6.34151 6.42529 6.49037 6.42529ZM6.49037 8.24828C6.31173 8.24828 6.19264 8.12874 6.19264 7.94943C6.19264 7.77012 6.31173 7.65058 6.49037 7.65058H7.74081C7.91944 7.65058 8.03853 7.77012 8.03853 7.94943C8.03853 8.12874 7.91944 8.24828 7.74081 8.24828H6.49037ZM9.11033 12.3724H7.83012V10.7586C7.83012 10.4 8.12785 10.131 8.45534 10.131C8.78284 10.131 9.08056 10.4299 9.08056 10.7586V12.3724H9.11033ZM10.4799 8.24828H9.22942C9.05079 8.24828 8.9317 8.12874 8.9317 7.94943C8.9317 7.77012 9.05079 7.65058 9.22942 7.65058H10.4799C10.6585 7.65058 10.7776 7.77012 10.7776 7.94943C10.7776 8.12874 10.6287 8.24828 10.4799 8.24828ZM10.4799 7.02299H9.22942C9.05079 7.02299 8.9317 6.90345 8.9317 6.72414C8.9317 6.54483 9.05079 6.42529 9.22942 6.42529H10.4799C10.6585 6.42529 10.7776 6.54483 10.7776 6.72414C10.7776 6.90345 10.6287 7.02299 10.4799 7.02299ZM10.4799 5.7977H9.22942C9.05079 5.7977 8.9317 5.67816 8.9317 5.49885C8.9317 5.31954 9.05079 5.2 9.22942 5.2H10.4799C10.6585 5.2 10.7776 5.31954 10.7776 5.49885C10.7776 5.67816 10.6287 5.7977 10.4799 5.7977ZM10.4799 4.57241H9.22942C9.05079 4.57241 8.9317 4.45287 8.9317 4.27356C8.9317 4.09425 9.05079 3.97471 9.22942 3.97471H10.4799C10.6585 3.97471 10.7776 4.09425 10.7776 4.27356C10.7776 4.45287 10.6287 4.57241 10.4799 4.57241ZM10.4799 3.37701H9.22942C9.05079 3.37701 8.9317 3.25747 8.9317 3.07816C8.9317 2.89885 9.05079 2.77931 9.22942 2.77931H10.4799C10.6585 2.77931 10.7776 2.89885 10.7776 3.07816C10.7776 3.25747 10.6287 3.37701 10.4799 3.37701ZM10.4799 2.15172H9.22942C9.05079 2.15172 8.9317 2.03218 8.9317 1.85287C8.9317 1.67356 9.05079 1.55402 9.22942 1.55402H10.4799C10.6585 1.55402 10.7776 1.67356 10.7776 1.85287C10.7776 2.03218 10.6287 2.15172 10.4799 2.15172ZM16.3748 12.3724H12.1173V2.8092H15.4816C15.9877 2.8092 16.3748 3.1977 16.3748 3.70575V12.3724Z" fill="black"/>
<path d="M15.2136 4.99072H13.2487C13.07 4.99072 12.9509 5.11026 12.9509 5.28957C12.9509 5.46888 13.07 5.58842 13.2487 5.58842H15.2136C15.3923 5.58842 15.5113 5.46888 15.5113 5.28957C15.5113 5.11026 15.3923 4.99072 15.2136 4.99072Z" fill="black"/>
<path d="M15.2136 6.51489H13.2487C13.07 6.51489 12.9509 6.63443 12.9509 6.81374C12.9509 6.99305 13.07 7.11259 13.2487 7.11259H15.2136C15.3923 7.11259 15.5113 6.99305 15.5113 6.81374C15.5113 6.63443 15.3923 6.51489 15.2136 6.51489Z" fill="black"/>
<path d="M15.2136 8.06885H13.2487C13.07 8.06885 12.9509 8.18839 12.9509 8.3677C12.9509 8.54701 13.07 8.66655 13.2487 8.66655H15.2136C15.3923 8.66655 15.5113 8.54701 15.5113 8.3677C15.5113 8.18839 15.3923 8.06885 15.2136 8.06885Z" fill="black"/>
<path d="M15.2136 9.59302H13.2487C13.07 9.59302 12.9509 9.71256 12.9509 9.89187C12.9509 10.0712 13.07 10.1907 13.2487 10.1907H15.2136C15.3923 10.1907 15.5113 10.0712 15.5113 9.89187C15.5113 9.71256 15.3923 9.59302 15.2136 9.59302Z" fill="black"/>
</svg>
