<svg width="36" height="36" viewBox="0 0 36 36" fill="none" xmlns="http://www.w3.org/2000/svg">
<path d="M7.71429 33.4286V25.4957L11.0443 28.8129L12.8571 27L6.42857 20.5714L0 27L1.81286 28.8129L5.14286 25.4957V33.4286C5.14286 34.8467 6.29614 36 7.71429 36H19.2857V33.4286H7.71429ZM29.5714 19.2857C25.9071 19.2857 23.1429 20.9443 23.1429 23.1429V32.1429C23.1429 34.3414 25.9071 36 29.5714 36C33.2357 36 36 34.3414 36 32.1429V23.1429C36 20.9443 33.2357 19.2857 29.5714 19.2857ZM29.5714 21.8571C32.0606 21.8571 33.4286 22.8227 33.4286 23.1429C33.4286 23.463 32.0606 24.4286 29.5714 24.4286C27.0823 24.4286 25.7143 23.463 25.7143 23.1429C25.7143 22.8227 27.0823 21.8571 29.5714 21.8571ZM29.5714 33.4286C27.0823 33.4286 25.7143 32.463 25.7143 32.1429V26.2543C26.7763 26.721 28.0929 27 29.5714 27C31.05 27 32.3666 26.721 33.4286 26.2543V32.1429C33.4286 32.463 32.0606 33.4286 29.5714 33.4286ZM34.1871 7.18714L30.8571 10.5043V2.57143C30.8571 1.15329 29.7039 0 28.2857 0H16.7143V2.57143H28.2857V10.5043L24.9557 7.18714L23.1429 9L29.5714 15.4286L36 9L34.1871 7.18714ZM6.42857 16.7143C10.0929 16.7143 12.8571 15.0557 12.8571 12.8571V3.85714C12.8571 1.65857 10.0929 0 6.42857 0C2.76429 0 0 1.65857 0 3.85714V12.8571C0 15.0557 2.76429 16.7143 6.42857 16.7143ZM6.42857 2.57143C8.91771 2.57143 10.2857 3.537 10.2857 3.85714C10.2857 4.17729 8.91771 5.14286 6.42857 5.14286C3.93943 5.14286 2.57143 4.17729 2.57143 3.85714C2.57143 3.537 3.93943 2.57143 6.42857 2.57143ZM2.57143 6.96857C3.63343 7.43529 4.95 7.71429 6.42857 7.71429C7.90714 7.71429 9.22371 7.43529 10.2857 6.96857V12.8571C10.2857 13.1773 8.91771 14.1429 6.42857 14.1429C3.93943 14.1429 2.57143 13.1773 2.57143 12.8571V6.96857Z" fill="#2A2B6A"/>
</svg>
