<svg width="73" height="73" viewBox="0 0 73 73" fill="none" xmlns="http://www.w3.org/2000/svg">
<g clip-path="url(#clip0_4752_2)">
<path d="M0 73V7.3C0 5.2925 0.7154 3.57457 2.1462 2.1462C3.577 0.717834 5.29493 0.00243333 7.3 0H65.7C67.7075 0 69.4266 0.7154 70.8574 2.1462C72.2882 3.577 73.0024 5.29493 73 7.3V51.1C73 53.1075 72.2858 54.8266 70.8574 56.2574C69.4291 57.6882 67.7099 58.4024 65.7 58.4H14.6L0 73ZM36.5 47.45C37.5342 47.45 38.4016 47.0996 39.1024 46.3988C39.8032 45.698 40.1524 44.8317 40.15 43.8C40.1476 42.7683 39.7972 41.902 39.0988 41.2012C38.4004 40.5004 37.5342 40.15 36.5 40.15C35.4658 40.15 34.5996 40.5004 33.9012 41.2012C33.2028 41.902 32.8524 42.7683 32.85 43.8C32.8476 44.8317 33.198 45.6992 33.9012 46.4025C34.6044 47.1057 35.4707 47.4549 36.5 47.45ZM32.85 32.85H40.15V10.95H32.85V32.85Z" fill="black"/>
</g>
<defs>
<clipPath id="clip0_4752_2">
<rect width="73" height="73" fill="white"/>
</clipPath>
</defs>
</svg>
