<svg width="32" height="32" viewBox="0 0 32 32" fill="none" xmlns="http://www.w3.org/2000/svg">
<path d="M26.8571 21.7143H24V10.2857H26.8571C29.7143 10.2857 32 8 32 5.14286C32 2.28571 29.7143 0 26.8571 0C24 0 21.7143 2.28571 21.7143 5.14286V8H10.2857V5.14286C10.2857 2.28571 8 0 5.14286 0C2.28571 0 0 2.28571 0 5.14286C0 8 2.28571 10.2857 5.14286 10.2857H8V21.7143H5.14286C2.28571 21.7143 0 24 0 26.8571C0 29.7143 2.28571 32 5.14286 32C8 32 10.2857 29.7143 10.2857 26.8571V24H21.7143V26.8571C21.7143 29.7143 24 32 26.8571 32C29.7143 32 32 29.7143 32 26.8571C32 24 29.7143 21.7143 26.8571 21.7143ZM24 5.14286C24 3.54286 25.2571 2.28571 26.8571 2.28571C28.4571 2.28571 29.7143 3.54286 29.7143 5.14286C29.7143 6.74286 28.4571 8 26.8571 8H24V5.14286ZM8 26.8571C8 28.4571 6.74286 29.7143 5.14286 29.7143C3.54286 29.7143 2.28571 28.4571 2.28571 26.8571C2.28571 25.2571 3.54286 24 5.14286 24H8V26.8571ZM8 8H5.14286C3.54286 8 2.28571 6.74286 2.28571 5.14286C2.28571 3.54286 3.54286 2.28571 5.14286 2.28571C6.74286 2.28571 8 3.54286 8 5.14286V8ZM21.7143 21.7143H10.2857V10.2857H21.7143V21.7143ZM26.8571 29.7143C25.2571 29.7143 24 28.4571 24 26.8571V24H26.8571C28.4571 24 29.7143 25.2571 29.7143 26.8571C29.7143 28.4571 28.4571 29.7143 26.8571 29.7143Z" fill="black"/>
</svg>
