<svg width="28" height="35" viewBox="0 0 28 35" fill="none" xmlns="http://www.w3.org/2000/svg">
<path d="M28 7C28 3.206 21.5897 0 14 0C6.41025 0 0 3.206 0 7V10.5C0 14.294 6.41025 17.5 14 17.5C21.5897 17.5 28 14.294 28 10.5V7ZM14 29.75C6.41025 29.75 0 26.544 0 22.75V28C0 31.794 6.41025 35 14 35C21.5897 35 28 31.794 28 28V22.75C28 26.544 21.5897 29.75 14 29.75Z" fill="#2A2B6A"/>
<path d="M28 14C28 17.794 21.5897 21 14 21C6.41025 21 0 17.794 0 14V19.25C0 23.044 6.41025 26.25 14 26.25C21.5897 26.25 28 23.044 28 19.25V14Z" fill="#2A2B6A"/>
</svg>
