<svg width="42" height="33" viewBox="0 0 42 33" fill="none" xmlns="http://www.w3.org/2000/svg">
<path fill-rule="evenodd" clip-rule="evenodd" d="M36.4032 0C33.5443 0 31.2027 2.34163 31.2027 5.20045C31.2027 6.13669 31.4594 7.01042 31.8971 7.77113L23.0622 15.2172H10.3862V13.1932C10.3865 13.1784 10.3865 13.1636 10.3862 13.1489C10.3313 11.9903 9.38999 10.9623 8.17003 10.9623H2.2161C0.996142 10.9623 0 11.9745 0 13.1932V19.1324C0 20.3524 0.996142 21.3632 2.2161 21.3632H8.17003C9.38999 21.3632 10.3169 20.3356 10.3862 19.1915C10.3868 19.1718 10.3868 19.1521 10.3862 19.1324V17.1083H23.0622L31.8823 24.5396C31.4549 25.2937 31.2027 26.1564 31.2027 27.0807C31.2027 29.9396 33.5443 32.2812 36.4032 32.2812C39.262 32.2812 41.6036 29.9396 41.6036 27.0807C41.6036 24.2219 39.262 21.8951 36.4032 21.8951C35.1524 21.8951 33.993 22.3341 33.0938 23.077L24.8794 16.1628L33.1085 9.21898C34.0054 9.95393 35.1599 10.3861 36.4032 10.3861C39.262 10.3861 41.6036 8.05927 41.6036 5.20045C41.6036 2.34163 39.262 0 36.4032 0ZM2.2161 12.8534H8.17003C8.35428 12.8534 8.47966 12.9912 8.49506 13.2227V19.1028C8.47392 19.3527 8.35284 19.4721 8.17003 19.4721H2.2161C2.02845 19.4721 1.89107 19.32 1.89107 19.1323V13.1932C1.89107 13.0137 2.02845 12.8534 2.2161 12.8534Z" fill="black"/>
</svg>
