<svg width="36" height="35" viewBox="0 0 36 35" fill="none" xmlns="http://www.w3.org/2000/svg">
<path d="M26.0848 21.6836C25.528 22.5815 24.9198 23.5175 24.261 24.491C29.8018 25.3196 32.6388 27.0943 32.6388 27.9774C32.6388 29.1533 27.612 31.9093 17.8636 31.9093C8.11608 31.9093 3.08928 29.1533 3.08928 27.9774C3.08928 27.0943 5.92547 25.3203 11.4678 24.491C10.8082 23.5175 10.2008 22.5815 9.6432 21.6836C4.17485 22.7147 0 24.8344 0 27.9774C0 32.5876 8.9875 35.0001 17.8636 35.0001C26.7413 35.0001 35.728 32.5876 35.728 27.9774C35.7288 24.8344 31.5547 22.7147 26.0848 21.6836Z" fill="black"/>
<path d="M17.9039 0C12.1116 0 7.4165 4.69505 7.4165 10.4858C7.4165 14.6404 12.8109 22.5891 15.862 26.7522C16.3394 27.4033 17.0971 27.788 17.9039 27.788C18.7091 27.788 19.4691 27.4033 19.9442 26.7522C22.9953 22.5891 28.3904 14.6404 28.3904 10.4858C28.3904 4.69505 23.6954 0 17.9039 0ZM17.9039 16.9969C14.4813 16.9969 11.6973 14.2129 11.6973 10.7918C11.6973 7.37004 14.4813 4.58603 17.9039 4.58603C21.3257 4.58603 24.1089 7.37004 24.1089 10.7918C24.1089 14.2129 21.3257 16.9969 17.9039 16.9969Z" fill="black"/>
<path d="M17.903 7.01733C15.8214 7.01733 14.1284 8.71033 14.1284 10.7919C14.1284 12.8719 15.8214 14.5657 17.903 14.5657C19.9838 14.5657 21.6776 12.8727 21.6776 10.7919C21.6776 8.70955 19.9838 7.01733 17.903 7.01733Z" fill="black"/>
</svg>
