<svg width="40" height="40" viewBox="0 0 40 40" fill="none" xmlns="http://www.w3.org/2000/svg">
<path d="M12 5.33366C9.52465 5.33366 7.15068 6.31699 5.40034 8.06733C3.65 9.81767 2.66667 12.1916 2.66667 14.667V28.0003C2.66667 30.4757 3.65 32.8496 5.40034 34.6C7.15068 36.3503 9.52465 37.3337 12 37.3337H25.3333C27.8087 37.3337 30.1827 36.3503 31.933 34.6C33.6833 32.8496 34.6667 30.4757 34.6667 28.0003V21.3337C34.6667 20.98 34.8071 20.6409 35.0572 20.3908C35.3072 20.1408 35.6464 20.0003 36 20.0003C36.3536 20.0003 36.6928 20.1408 36.9428 20.3908C37.1929 20.6409 37.3333 20.98 37.3333 21.3337V28.0003C37.3333 31.1829 36.069 34.2352 33.8186 36.4856C31.5682 38.736 28.5159 40.0003 25.3333 40.0003H12C8.8174 40.0003 5.76515 38.736 3.51472 36.4856C1.26428 34.2352 0 31.1829 0 28.0003V14.667C0 11.4844 1.26428 8.43215 3.51472 6.18171C5.76515 3.93127 8.8174 2.66699 12 2.66699H18.6667C19.0203 2.66699 19.3594 2.80747 19.6095 3.05752C19.8595 3.30756 20 3.6467 20 4.00033C20 4.35395 19.8595 4.69309 19.6095 4.94313C19.3594 5.19318 19.0203 5.33366 18.6667 5.33366H12Z" fill="#333333"/>
<path d="M40 8C40 10.1217 39.1571 12.1566 37.6569 13.6569C36.1566 15.1571 34.1217 16 32 16C29.8783 16 27.8434 15.1571 26.3431 13.6569C24.8429 12.1566 24 10.1217 24 8C24 5.87827 24.8429 3.84344 26.3431 2.34315C27.8434 0.842855 29.8783 0 32 0C34.1217 0 36.1566 0.842855 37.6569 2.34315C39.1571 3.84344 40 5.87827 40 8Z" fill="#333333"/>
</svg>
