<svg width="25" height="20" viewBox="0 0 25 20" fill="none" xmlns="http://www.w3.org/2000/svg">
<path d="M3.72073 5.00055H1.47399V17.474C1.47399 17.7832 1.60048 18.0643 1.80326 18.2681C2.00705 18.4709 2.28814 18.5974 2.59734 18.5974C2.90553 18.5974 3.18664 18.4709 3.39041 18.2671L3.40346 18.255C3.59922 18.0522 3.7207 17.7762 3.7207 17.474V15.7533C3.7207 15.6117 3.83615 15.4963 3.9777 15.4963C4.11925 15.4963 4.2347 15.6117 4.2347 15.7533V17.474C4.2347 17.9077 4.06303 18.3042 3.78495 18.5974H22.4616C22.9084 18.5974 23.316 18.4136 23.6101 18.1185C23.9053 17.8233 24.089 17.4167 24.089 16.97V8.14361C24.089 8.00206 24.2044 7.88661 24.346 7.88661C24.4875 7.88661 24.603 8.00206 24.603 8.14361V16.97C24.603 17.5593 24.362 18.0954 23.9745 18.4829C23.587 18.8704 23.0509 19.1113 22.4617 19.1113H2.59635C2.1456 19.1113 1.736 18.9266 1.43986 18.6305C1.14372 18.3323 0.958984 17.9227 0.958984 17.473V4.74248C0.958984 4.60093 1.07443 4.48548 1.21598 4.48548H3.71973V1.36833C3.71973 1.22678 3.83518 1.11133 3.97673 1.11133H24.346C24.4876 1.11133 24.603 1.22678 24.603 1.36833V5.50037C24.603 5.64192 24.4876 5.75737 24.346 5.75737C24.2045 5.75737 24.089 5.64192 24.089 5.50037V1.62533H4.23373V14.4501C4.23373 14.5917 4.11828 14.7071 3.97673 14.7071C3.83518 14.7071 3.71973 14.5917 3.71973 14.4501V4.99948L3.72073 5.00055ZM14.1022 5.15415C13.9607 5.15415 13.8452 5.0387 13.8452 4.89715C13.8452 4.7556 13.9607 4.64015 14.1022 4.64015H21.8312C21.9728 4.64015 22.0882 4.7556 22.0882 4.89715C22.0882 5.0387 21.9728 5.15415 21.8312 5.15415H14.1022ZM6.49376 16.5654C6.35221 16.5654 6.23676 16.45 6.23676 16.3084C6.23676 16.1669 6.35221 16.0514 6.49376 16.0514H18.0667C18.2083 16.0514 18.3237 16.1669 18.3237 16.3084C18.3237 16.45 18.2083 16.5654 18.0667 16.5654H6.49376ZM6.49376 13.7122C6.35221 13.7122 6.23676 13.5968 6.23676 13.4552C6.23676 13.3137 6.35221 13.1982 6.49376 13.1982H21.8315C21.9731 13.1982 22.0885 13.3137 22.0885 13.4552C22.0885 13.5968 21.9731 13.7122 21.8315 13.7122H6.49376ZM6.49376 10.859C6.35221 10.859 6.23676 10.7436 6.23676 10.602C6.23676 10.4605 6.35221 10.345 6.49376 10.345H21.8315C21.9731 10.345 22.0885 10.4605 22.0885 10.602C22.0885 10.7436 21.9731 10.859 21.8315 10.859H6.49376ZM14.1022 8.00582C13.9607 8.00582 13.8452 7.89037 13.8452 7.74882C13.8452 7.60727 13.9607 7.49182 14.1022 7.49182H21.8312C21.9728 7.49182 22.0882 7.60727 22.0882 7.74882C22.0882 7.89037 21.9728 8.00582 21.8312 8.00582H14.1022ZM6.49376 3.65687H12.1999C12.3415 3.65687 12.4569 3.77232 12.4569 3.91387V8.63829C12.4569 8.77984 12.3415 8.89529 12.1999 8.89529H6.49376C6.35221 8.89529 6.23676 8.77984 6.23676 8.63829V3.91387C6.23676 3.77232 6.35221 3.65687 6.49376 3.65687ZM11.9419 4.17087H6.75076V8.38026H11.9419V4.17087ZM24.0892 6.80306C24.0892 6.66151 24.2047 6.54606 24.3462 6.54606C24.4878 6.54606 24.6032 6.66151 24.6032 6.80306V6.8402C24.6032 6.98175 24.4878 7.0972 24.3462 7.0972C24.2047 7.0972 24.0892 6.98175 24.0892 6.8402V6.80306Z" fill="#333333" stroke="#333333" stroke-width="0.5"/>
</svg>
