<svg width="38" height="35" viewBox="0 0 38 35" fill="none" xmlns="http://www.w3.org/2000/svg">
<path d="M20.5027 22.8725L16.1155 18.48L16.1673 18.4275C19.0935 15.1324 21.2798 11.2337 22.5755 7H27.6364V3.5H15.5455V0H12.0909V3.5H0V7H19.2936C18.1364 10.36 16.3055 13.5625 13.8182 16.3625C12.2118 14.56 10.8818 12.5825 9.82818 10.5H6.37364C7.63455 13.3525 9.36182 16.0475 11.5209 18.48L2.72909 27.265L5.18182 29.75L13.8182 21L19.19 26.4425L20.5027 22.8725ZM30.2273 14H26.7727L19 35H22.4545L24.3891 29.75H32.5936L34.5455 35H38L30.2273 14ZM25.7018 26.25L28.5 18.6725L31.2982 26.25H25.7018Z" fill="#2A2B6A"/>
</svg>
