<svg width="32" height="38" viewBox="0 0 32 38" fill="none" xmlns="http://www.w3.org/2000/svg">
<path fill-rule="evenodd" clip-rule="evenodd" d="M1.46591 1.01181C2.11377 0.36396 2.99244 0 3.90865 0H28.0905C29.0067 0 29.8853 0.363959 30.5332 1.01181C31.1811 1.65967 31.545 2.53835 31.545 3.45455V19C31.545 19.9539 30.7717 20.7273 29.8177 20.7273C28.8638 20.7273 28.0905 19.9539 28.0905 19V3.45455H3.90865L3.90865 34.5455H15.9996C16.9535 34.5455 17.7268 35.3188 17.7268 36.2727C17.7268 37.2267 16.9535 38 15.9996 38H3.90865C2.99245 38 2.11377 37.636 1.46591 36.9882C0.818062 36.3403 0.454102 35.4617 0.454102 34.5455V3.45455C0.454102 2.53834 0.818062 1.65967 1.46591 1.01181ZM25.9314 23.3182C26.8853 23.3182 27.6586 24.0915 27.6586 25.0455V36.2727C27.6586 37.2267 26.8853 38 25.9314 38C24.9774 38 24.2041 37.2267 24.2041 36.2727V25.0455C24.2041 24.0915 24.9774 23.3182 25.9314 23.3182Z" fill="#2A2B6A"/>
<path fill-rule="evenodd" clip-rule="evenodd" d="M24.7097 22.961C25.3842 22.2864 26.4778 22.2864 27.1524 22.961L31.0387 26.8473C31.7133 27.5219 31.7133 28.6155 31.0387 29.2901C30.3642 29.9646 29.2706 29.9646 28.596 29.2901L25.931 26.6251L23.266 29.2901C22.5915 29.9646 21.4978 29.9646 20.8233 29.2901C20.1487 28.6155 20.1487 27.5219 20.8233 26.8473L24.7097 22.961Z" fill="#2A2B6A"/>
<path fill-rule="evenodd" clip-rule="evenodd" d="M7.36328 12.0906C7.36328 11.1366 8.13661 10.3633 9.09055 10.3633H22.9087C23.8627 10.3633 24.636 11.1366 24.636 12.0906C24.636 13.0445 23.8627 13.8178 22.9087 13.8178H9.09055C8.13661 13.8178 7.36328 13.0445 7.36328 12.0906ZM7.36328 18.9996C7.36328 18.0457 8.13661 17.2724 9.09055 17.2724H15.9996C16.9536 17.2724 17.7269 18.0457 17.7269 18.9996C17.7269 19.9536 16.9536 20.7269 15.9996 20.7269H9.09055C8.13661 20.7269 7.36328 19.9536 7.36328 18.9996Z" fill="#2A2B6A"/>
</svg>
