<svg width="11" height="16" viewBox="0 0 11 16" fill="none" xmlns="http://www.w3.org/2000/svg">
<path d="M4.02979 10.6414H2.1084V12.5206H4.02979V10.6414Z" fill="black"/>
<path d="M0.601445 13.2447V3.32527C0.60174 3.11007 0.689279 2.90376 0.844867 2.75159C1.00045 2.59941 1.21139 2.5138 1.43143 2.51351H2.38906V2.74193C2.3895 2.99565 2.49278 3.23884 2.67627 3.41819C2.85975 3.59755 3.10846 3.69842 3.36787 3.69871H7.6092C7.8687 3.69857 8.11755 3.59775 8.30116 3.41839C8.48476 3.23902 8.58812 2.99574 8.58857 2.74193V2.51351H9.54564C9.76572 2.5138 9.97672 2.59939 10.1324 2.75155C10.2881 2.90371 10.3757 3.11002 10.3762 3.32527V10.5215H10.9771V3.32527C10.9766 2.95415 10.8257 2.59836 10.5573 2.33599C10.2889 2.07362 9.92509 1.9261 9.54564 1.92581H8.58857V1.3223H7.11366C7.04339 0.950928 6.84238 0.61534 6.54552 0.373796C6.24866 0.132251 5.87469 0 5.48853 0C5.10237 0 4.7284 0.132251 4.43154 0.373796C4.13468 0.61534 3.93367 0.950928 3.8634 1.3223H2.38906V1.92581H1.43143C1.05198 1.9261 0.688143 2.07362 0.419778 2.33599C0.151414 2.59836 0.000442824 2.95415 0 3.32527V13.2474C0.00117912 13.6181 0.152457 13.9733 0.420726 14.2351C0.688995 14.497 1.05241 14.6443 1.43143 14.6447H4.39517V14.0565H1.43143C1.21135 14.0563 1.00032 13.9707 0.844704 13.8185C0.689084 13.6663 0.601592 13.4599 0.601445 13.2447ZM2.99217 1.91H4.44144V1.61615C4.43821 1.4791 4.46303 1.3428 4.51442 1.21526C4.56582 1.08772 4.64276 0.971509 4.74072 0.873463C4.83869 0.775417 4.9557 0.69751 5.08489 0.644321C5.21407 0.591131 5.35283 0.563731 5.49299 0.563731C5.63316 0.563731 5.77191 0.591131 5.9011 0.644321C6.03028 0.69751 6.1473 0.775417 6.24526 0.873463C6.34323 0.971509 6.42017 1.08772 6.47156 1.21526C6.52296 1.3428 6.54777 1.4791 6.54454 1.61615V1.91H7.99381V2.74193C7.99351 2.83992 7.95351 2.9338 7.88256 3.00298C7.81161 3.07217 7.71552 3.11102 7.61533 3.11102H3.36787C3.26773 3.11102 3.17169 3.07215 3.10083 3.00295C3.02997 2.93375 2.99009 2.83987 2.98994 2.74193L2.99217 1.91Z" fill="black"/>
<path d="M4.02979 4.89868H2.1084V6.77789H4.02979V4.89868Z" fill="black"/>
<path d="M4.02979 7.73804H2.1084V9.61725H4.02979V7.73804Z" fill="black"/>
<path d="M9.0713 5.54419H5.16553V6.13189H9.0713V5.54419Z" fill="black"/>
<path d="M9.0713 8.3833H5.16553V8.971H9.0713V8.3833Z" fill="black"/>
<path d="M10.9017 13.0157C10.9452 12.9741 10.976 12.9213 10.9905 12.8634C11.005 12.8056 11.0027 12.7449 10.9839 12.6882C10.9651 12.6316 10.9304 12.5812 10.8839 12.5427C10.8374 12.5043 10.7808 12.4793 10.7205 12.4706L9.32143 12.2721C9.26897 12.2646 9.21915 12.2447 9.17625 12.2143C9.13334 12.1838 9.09862 12.1436 9.07506 12.0971L8.44965 10.8574C8.42258 10.804 8.38079 10.759 8.32898 10.7276C8.27718 10.6961 8.21742 10.6794 8.15645 10.6794C8.09548 10.6794 8.03572 10.6961 7.98391 10.7276C7.93211 10.759 7.89031 10.804 7.86325 10.8574L7.23784 12.0971C7.21427 12.1436 7.17955 12.1838 7.13665 12.2143C7.09374 12.2447 7.04393 12.2646 6.99146 12.2721L5.59236 12.4706C5.5321 12.4793 5.47552 12.5043 5.42899 12.5427C5.38247 12.5812 5.34784 12.6316 5.32901 12.6882C5.31018 12.7449 5.3079 12.8056 5.32242 12.8634C5.33694 12.9213 5.36769 12.9741 5.41121 13.0157L6.42346 13.9807C6.46154 14.0168 6.49002 14.0614 6.50644 14.1107C6.52286 14.1601 6.52671 14.2125 6.51766 14.2636L6.27854 15.6266C6.26837 15.6853 6.27518 15.7457 6.29821 15.8009C6.32124 15.8561 6.35957 15.9039 6.40888 15.9389C6.45819 15.9739 6.51653 15.9948 6.57731 15.9991C6.63809 16.0035 6.6989 15.9911 6.75289 15.9635L8.00428 15.3202C8.05119 15.296 8.10342 15.2834 8.15645 15.2834C8.20947 15.2834 8.2617 15.296 8.30862 15.3202L9.56001 15.9635C9.614 15.9911 9.67481 16.0035 9.73559 15.9991C9.79637 15.9948 9.8547 15.9739 9.90401 15.9389C9.95332 15.9039 9.99165 15.8561 10.0147 15.8009C10.0377 15.7457 10.0445 15.6853 10.0344 15.6266L9.79523 14.2636C9.78618 14.2125 9.79004 14.1601 9.80646 14.1107C9.82287 14.0614 9.85136 14.0168 9.88943 13.9807L10.9017 13.0157Z" fill="black"/>
</svg>
