<svg width="39" height="47" viewBox="0 0 39 47" fill="none" xmlns="http://www.w3.org/2000/svg">
<path d="M38.9488 11.6474C38.9352 11.6223 38.9201 11.5972 38.8986 11.5788C38.8812 11.5572 38.8628 11.5393 38.8372 11.525C38.8295 11.5141 38.8198 11.5106 38.8086 11.5034L33.6672 8.1457C33.5483 8.06986 33.3935 8.06986 33.2747 8.1457L28.268 11.4163L25.0205 10.143V3.73549V3.73181C25.0205 3.63804 24.9846 3.55145 24.9231 3.48689C24.9095 3.46888 24.8907 3.4546 24.8729 3.44384C24.8613 3.4295 24.8477 3.42232 24.8371 3.41513L19.6957 0.0568785C19.5733 -0.0189595 19.4221 -0.0189595 19.2996 0.0568785L14.1577 3.41462C14.1461 3.42178 14.1325 3.42895 14.1219 3.44332C14.1044 3.45416 14.086 3.46842 14.0717 3.48637C14.0101 3.55144 13.9743 3.63752 13.9743 3.7313V3.73536V10.1424L10.7267 11.4157L5.72008 8.14505C5.60117 8.06921 5.44645 8.06921 5.32758 8.14505L0.185915 11.5029C0.164419 11.5138 0.142923 11.5316 0.124331 11.5495C0.112712 11.5567 0.106902 11.5676 0.0956692 11.5782C0.0821129 11.5891 0.0704931 11.6033 0.0633276 11.6177C0.0555811 11.6249 0.0517077 11.6357 0.0458979 11.6464C0.0323415 11.6679 0.0207218 11.6966 0.0135563 11.7222C0.00193656 11.7545 0 11.7873 0 11.8196V11.8233V18.4778C0 18.6038 0.0687501 18.7227 0.180299 18.7878L5.16285 21.6951L5.1644 24.4288L0.187484 27.6794C0.165988 27.6902 0.144491 27.7081 0.1259 27.726C0.11428 27.7332 0.10847 27.744 0.0972377 27.7547C0.0836813 27.7656 0.0720616 27.7798 0.0648961 27.7942C0.0571496 27.8014 0.0532767 27.8122 0.0474668 27.8229C0.0339105 27.8444 0.0222907 27.8731 0.0151252 27.8987C0.00350551 27.931 0.00156895 27.9638 0.00156895 27.9961V27.9998V34.6543C0.00156895 34.7803 0.0703186 34.8992 0.181868 34.9643L5.3412 37.9725L5.34507 37.9762C5.34507 37.9762 5.34894 37.9762 5.34894 37.9799C5.40685 38.0086 5.46417 38.0265 5.52576 38.0265C5.59083 38.0265 5.65183 38.0122 5.70606 37.9799C5.7138 37.9762 5.71961 37.9727 5.72349 37.9656L10.7209 35.0546L10.7228 35.0536L13.9781 36.33V42.7437C13.9781 42.8697 14.0467 42.9886 14.1584 43.0537L19.2998 46.0548C19.3075 46.0585 19.3133 46.0656 19.3213 46.0691C19.3329 46.0728 19.3387 46.08 19.3499 46.08C19.3674 46.0871 19.3895 46.098 19.4073 46.1015C19.4375 46.1127 19.4702 46.1164 19.4991 46.1164C19.5277 46.1164 19.5607 46.1127 19.5928 46.1021C19.6102 46.0984 19.6323 46.0912 19.6501 46.0805C19.6617 46.0805 19.6676 46.0734 19.6788 46.0697C19.6865 46.066 19.6923 46.0589 19.7003 46.0554L24.8417 43.0539C24.9534 42.9888 25.022 42.8699 25.022 42.7439V36.3302L28.2773 35.0538L28.2792 35.0549L33.2874 37.973L33.2913 37.9766C33.2913 37.9766 33.2951 37.9766 33.2951 37.9803C33.353 38.009 33.4103 38.0269 33.4754 38.0269C33.537 38.0269 33.5978 38.0126 33.6522 37.9803C33.6561 37.9803 33.6561 37.9766 33.66 37.9731L38.8193 34.9649C38.9311 34.8998 38.9996 34.7809 38.9996 34.6549V28.0009V27.9972C38.9996 27.9357 38.9861 27.8747 38.9529 27.8245C38.9394 27.7994 38.9243 27.7743 38.9028 27.7559C38.8853 27.7344 38.867 27.7164 38.8412 27.7021C38.8334 27.6912 38.8238 27.6877 38.8125 27.6806L33.8371 24.4309L33.8356 21.6973L38.8197 18.7889C38.9314 18.7239 39 18.605 39 18.4789V11.8239V11.8202C38.9985 11.7592 38.9845 11.6978 38.9514 11.6476L38.9488 11.6474ZM33.4728 8.87687L37.9619 11.8098L33.4835 14.5696L28.9837 11.8098L33.4728 8.87687ZM14.3025 10.7881L14.3063 10.7897L19.1377 13.6073V16.3384L14.2935 19.504L11.0454 18.2307V12.065L14.3025 10.7881ZM27.9496 12.065V18.2302L24.7016 19.5035L19.8574 16.3379V13.6068L24.6888 10.7891L24.6926 10.7876L27.9496 12.065ZM19.4971 16.9651L23.9863 19.898L19.5115 22.6578H19.5076L15.0078 19.898L19.4971 16.9651ZM5.88326 21.6945L10.7167 18.8778L10.7186 18.8768L13.9734 20.1532V26.3199L10.7263 27.5932L5.88314 24.4281L5.88326 21.6945ZM11.0446 28.2424L14.3025 26.965L14.3063 26.9666L19.1377 29.7842V32.5153L14.2935 35.6809L11.0454 34.4076L11.0446 28.2424ZM15.008 36.0749L19.4971 33.1456L23.9863 36.0749L21.1399 37.8294L19.5115 38.8347H19.5076L15.008 36.0749ZM24.7016 35.6809L19.8574 32.5153V29.7842L24.6888 26.9666L24.6926 26.965L27.9504 28.2424V34.4076L24.7016 35.6809ZM28.2679 27.5927L25.0208 26.3194V20.1532L28.2755 18.8768L28.2775 18.8778L33.1109 21.6945V24.4276L28.2679 27.5927ZM19.4971 0.788168L23.9863 3.72113L19.5115 6.4809H19.5076L15.0078 3.72113L19.4971 0.788168ZM5.5215 8.87687L10.0142 11.8098L5.53585 14.5696L1.03598 11.8098L5.5215 8.87687ZM5.5215 25.0533L10.0142 27.9862L5.53585 30.746L1.03598 27.9862L5.5215 25.0533ZM37.9619 27.9862L33.4835 30.746L28.9837 27.9862L33.4728 25.0533L37.9619 27.9862Z" fill="black"/>
</svg>
