<svg width="40" height="39" viewBox="0 0 40 39" fill="none" xmlns="http://www.w3.org/2000/svg">
<path d="M14 30.8609C14.6333 31.7087 15 32.76 15 33.913C15 36.7278 12.7667 39 10 39C7.23333 39 5 36.7278 5 33.913C5 31.0983 7.23333 28.8261 10 28.8261C10.7333 28.8261 11.4167 28.9787 12.05 29.267L14.4 26.2657C13.6618 25.424 13.116 24.4263 12.8019 23.3445C12.4878 22.2626 12.4131 21.1234 12.5833 20.0087L9.2 18.8557C8.61708 19.7807 7.75515 20.4886 6.74344 20.8732C5.73173 21.2578 4.62473 21.2985 3.5884 20.9891C2.55207 20.6796 1.64223 20.0368 0.995278 19.1569C0.348328 18.277 -0.000880475 17.2075 1.66719e-06 16.1087C1.66719e-06 13.2939 2.23333 11.0217 5 11.0217C7.76667 11.0217 10 13.2939 10 16.1087C10 16.2274 10 16.3461 9.98333 16.4648L13.3667 17.6178C13.9029 16.5858 14.6662 15.6938 15.5971 15.0114C16.528 14.329 17.6014 13.8747 18.7333 13.6839V10.0213C17.6642 9.73111 16.719 9.09036 16.0441 8.19831C15.3692 7.30626 15.0022 6.21268 15 5.08696C15 2.27217 17.2333 0 20 0C22.7667 0 25 2.27217 25 5.08696C25 7.46087 23.4 9.44478 21.25 10.0213V13.6839C23.5833 14.0739 25.55 15.5661 26.6167 17.6178L30 16.4648V16.1087C30 13.2939 32.2333 11.0217 35 11.0217C37.7667 11.0217 40 13.2939 40 16.1087C40 18.9235 37.7667 21.1957 35 21.1957C33.2333 21.1957 31.7 20.263 30.8 18.8726L27.4167 20.0257C27.5885 21.1404 27.5147 22.28 27.2005 23.3621C26.8863 24.4443 26.3396 25.4418 25.6 26.2826L27.95 29.2839C28.5833 28.9787 29.2667 28.8261 30 28.8261C32.7667 28.8261 35 31.0983 35 33.913C35 36.7278 32.7667 39 30 39C27.2333 39 25 36.7278 25 33.913C25 32.76 25.3667 31.7087 26 30.8609L23.65 27.8596C21.4 29.1313 18.6333 29.1483 16.3667 27.8596L14 30.8609Z" fill="#2A2B6A"/>
</svg>
