<svg width="40" height="40" viewBox="0 0 40 40" fill="none" xmlns="http://www.w3.org/2000/svg">
<path fill-rule="evenodd" clip-rule="evenodd" d="M24.8943 28.5193C24.0484 31.7822 15.4683 32.0239 16.0725 27.6734C16.4351 24.7731 17.0393 21.9937 17.5227 19.0934C17.7644 17.2807 16.5559 17.8849 15.5891 17.5224C14.8641 17.1598 14.8641 16.3139 15.71 16.193C16.7976 15.9514 20.5438 16.0722 21.8731 16.0722C22.5982 16.0722 22.9607 16.4347 22.9607 17.039C23.0816 17.6432 22.9607 18.2474 22.8399 18.7308C22.3565 21.5103 21.6314 24.4106 21.3897 27.0692C21.2689 27.6734 21.3897 28.761 22.2357 28.761C23.0816 28.6402 23.4441 28.2776 24.1692 28.036C24.6526 27.7943 24.8943 28.1568 24.8943 28.5193Z" fill="#333333"/>
<path fill-rule="evenodd" clip-rule="evenodd" d="M20.665 8.94238C22.3568 8.94238 23.5653 10.2717 23.5653 11.8427C23.5653 13.5345 22.2359 14.8638 20.665 14.743C19.094 14.743 17.7646 13.4137 17.7646 11.8427C17.7646 10.2717 19.094 8.94238 20.665 8.94238Z" fill="#333333"/>
<path d="M19.9396 0C31.0574 0 40 8.9426 40 19.9396C40 31.0574 31.0574 40 19.9396 40C8.9426 40 0 31.0574 0 19.9396C0 8.9426 8.9426 0 19.9396 0ZM19.9396 3.02115C10.6344 3.02115 3.02115 10.6344 3.02115 19.9396C3.02115 29.3656 10.6344 36.858 19.9396 36.858C29.3656 36.858 36.858 29.3656 36.858 19.9396C36.858 10.6344 29.3656 3.02115 19.9396 3.02115Z" fill="#333333"/>
</svg>
