<svg width="18" height="27" viewBox="0 0 18 27" fill="none" xmlns="http://www.w3.org/2000/svg">
<path d="M3.07502 26.6448H14.9266C16.1247 26.6448 17.0988 25.6678 17.0988 24.4673V3.07248C17.0988 1.87441 16.1244 0.9 14.9266 0.9H3.07502C1.87712 0.9 0.90293 1.87442 0.90293 3.07248V24.4673C0.90293 25.6678 1.87689 26.6448 3.07502 26.6448ZM1.9012 3.07248C1.9012 2.42491 2.42787 1.89828 3.07502 1.89828H14.9266C15.5739 1.89828 16.1006 2.42492 16.1006 3.07248V24.4673C16.1006 25.1179 15.5735 25.6465 14.9266 25.6465H3.07502C2.42825 25.6465 1.9012 25.1179 1.9012 24.4673V3.07248Z" fill="black" stroke="black" stroke-width="0.2"/>
<path d="M1.39914 6.28975H16.6009C16.8765 6.28975 17.1 6.06649 17.1 5.79062C17.1 5.51474 16.8765 5.29148 16.6009 5.29148H1.39914C1.12352 5.29148 0.9 5.51474 0.9 5.79062C0.9 6.06649 1.12352 6.28975 1.39914 6.28975Z" fill="black" stroke="black" stroke-width="0.2"/>
<path d="M8.57614 24.4773H9.42392C9.69954 24.4773 9.92305 24.254 9.92305 23.9781C9.92305 23.7022 9.69954 23.479 9.42392 23.479H8.57614C8.30052 23.479 8.077 23.7022 8.077 23.9781C8.077 24.254 8.30052 24.4773 8.57614 24.4773Z" fill="black" stroke="black" stroke-width="0.2"/>
<path d="M7.8464 4.12221H10.1537C10.4293 4.12221 10.6529 3.89895 10.6529 3.62308C10.6529 3.3472 10.4293 3.12394 10.1537 3.12394H7.8464C7.57078 3.12394 7.34727 3.3472 7.34727 3.62308C7.34727 3.89895 7.57078 4.12221 7.8464 4.12221Z" fill="black" stroke="black" stroke-width="0.2"/>
<path d="M1.39914 22.3097H16.6009C16.8765 22.3097 17.1 22.0865 17.1 21.8106C17.1 21.5347 16.8765 21.3114 16.6009 21.3114H1.39914C1.12352 21.3114 0.9 21.5347 0.9 21.8106C0.9 22.0865 1.12352 22.3097 1.39914 22.3097Z" fill="black" stroke="black" stroke-width="0.2"/>
<path d="M4.2418 15.0221C4.2418 17.1907 6.00836 18.9549 8.17963 18.9549C10.3482 18.9549 12.1124 17.1906 12.1124 15.0221C12.1124 14.7188 11.8668 14.4735 11.5638 14.4735H8.72823V11.633C8.72823 11.3298 8.48256 11.0844 8.17963 11.0844C6.00824 11.0844 4.2418 12.8509 4.2418 15.0221ZM5.33899 15.0221C5.33899 13.6436 6.32634 12.4909 7.63103 12.2348V15.0221C7.63103 15.3253 7.8767 15.5707 8.17963 15.5707H10.962C10.7057 16.8723 9.5552 17.8577 8.17963 17.8577C6.61313 17.8577 5.33899 16.5854 5.33899 15.0221Z" fill="black" stroke="black" stroke-width="0.2"/>
<path d="M9.85568 13.687H12.8668C13.1424 13.687 13.3659 13.4638 13.3659 13.1879C13.3659 11.2501 11.7913 9.67338 9.85568 9.67338C9.58006 9.67338 9.35654 9.89664 9.35654 10.1725V13.1879C9.35654 13.4638 9.58006 13.687 9.85568 13.687ZM10.3548 10.7215C11.3402 10.9214 12.1189 11.7014 12.3179 12.6887H10.3548V10.7215Z" fill="black" stroke="black" stroke-width="0.2"/>
</svg>
