<svg width="86" height="86" viewBox="0 0 86 86" fill="none" xmlns="http://www.w3.org/2000/svg">
<g id="Group 7589">
<g id="Group 7588">
<g id="Group 7581">
<g id="Ellipse 9">
<mask id="path-1-inside-1_149_3" fill="white">
<path d="M62.5639 51.1042C62.5639 54.4965 61.8957 57.8557 60.5975 60.9898C59.2993 64.1239 57.3965 66.9716 54.9978 69.3703C52.599 71.7691 49.7513 73.6719 46.6172 74.9701C43.4831 76.2683 40.124 76.9364 36.7316 76.9364C33.3393 76.9364 29.9802 76.2682 26.8461 74.9701C23.712 73.6719 20.8642 71.7691 18.4655 69.3703C16.0668 66.9716 14.164 64.1239 12.8658 60.9898C11.5676 57.8556 10.8994 54.4965 10.8994 51.1042L36.7316 51.1042H62.5639Z"/>
</mask>
<path d="M62.5639 51.1042C62.5639 54.4965 61.8957 57.8557 60.5975 60.9898C59.2993 64.1239 57.3965 66.9716 54.9978 69.3703C52.599 71.7691 49.7513 73.6719 46.6172 74.9701C43.4831 76.2683 40.124 76.9364 36.7316 76.9364C33.3393 76.9364 29.9802 76.2682 26.8461 74.9701C23.712 73.6719 20.8642 71.7691 18.4655 69.3703C16.0668 66.9716 14.164 64.1239 12.8658 60.9898C11.5676 57.8556 10.8994 54.4965 10.8994 51.1042L36.7316 51.1042H62.5639Z" stroke="black" stroke-width="10" mask="url(#path-1-inside-1_149_3)"/>
</g>
<g id="Vector">
<mask id="path-2-outside-2_149_3" maskUnits="userSpaceOnUse" x="0.517761" y="13.1499" width="73" height="73" fill="black">
<rect fill="white" x="0.517761" y="13.1499" width="73" height="73"/>
<path fill-rule="evenodd" clip-rule="evenodd" d="M36.7317 14.1499C56.1802 14.1499 71.9456 29.9153 71.9456 49.3638C71.9456 68.8124 56.1802 84.5777 36.7317 84.5777C17.2831 84.5777 1.51776 68.8124 1.51776 49.3638C1.51776 29.9153 17.2831 14.1499 36.7317 14.1499ZM40.6273 43.338H43.7058C43.7058 42.4924 44.0472 41.7251 44.6015 41.1739L44.5984 41.1708C45.7947 39.9775 47.7396 39.9775 48.936 41.1708L48.9328 41.1739C49.4872 41.7282 49.8285 42.4924 49.8285 43.338H52.907C52.907 41.6436 52.2212 40.106 51.1094 38.9973C51.0687 38.9973 49.5341 37.1996 46.7687 37.1996C44.0002 37.1996 42.4687 38.9973 42.428 38.9973C41.3131 40.1059 40.6273 41.6405 40.6273 43.338ZM20.5558 43.338H23.6343C23.6343 42.4924 23.9788 41.7251 24.53 41.1739L24.5269 41.1708C25.7233 39.9775 27.6681 39.9775 28.8645 41.1708L28.8613 41.1739C29.4157 41.7282 29.757 42.4924 29.757 43.338H32.8355C32.8355 41.6436 32.1497 40.106 31.0379 38.9973C30.9972 38.9973 29.4626 37.1996 26.6972 37.1996C23.9287 37.1996 22.3972 38.9973 22.3565 38.9973C21.2416 40.1059 20.5558 41.6405 20.5558 43.338ZM59.4529 26.6426C46.9041 14.0938 26.5568 14.0938 14.0072 26.6426C1.45763 39.1914 1.45843 59.5387 14.0072 72.0883C26.556 84.6378 46.9033 84.637 59.4529 72.0883C72.0017 59.5363 72.0017 39.1922 59.4529 26.6426Z"/>
</mask>
<path fill-rule="evenodd" clip-rule="evenodd" d="M36.7317 14.1499C56.1802 14.1499 71.9456 29.9153 71.9456 49.3638C71.9456 68.8124 56.1802 84.5777 36.7317 84.5777C17.2831 84.5777 1.51776 68.8124 1.51776 49.3638C1.51776 29.9153 17.2831 14.1499 36.7317 14.1499ZM40.6273 43.338H43.7058C43.7058 42.4924 44.0472 41.7251 44.6015 41.1739L44.5984 41.1708C45.7947 39.9775 47.7396 39.9775 48.936 41.1708L48.9328 41.1739C49.4872 41.7282 49.8285 42.4924 49.8285 43.338H52.907C52.907 41.6436 52.2212 40.106 51.1094 38.9973C51.0687 38.9973 49.5341 37.1996 46.7687 37.1996C44.0002 37.1996 42.4687 38.9973 42.428 38.9973C41.3131 40.1059 40.6273 41.6405 40.6273 43.338ZM20.5558 43.338H23.6343C23.6343 42.4924 23.9788 41.7251 24.53 41.1739L24.5269 41.1708C25.7233 39.9775 27.6681 39.9775 28.8645 41.1708L28.8613 41.1739C29.4157 41.7282 29.757 42.4924 29.757 43.338H32.8355C32.8355 41.6436 32.1497 40.106 31.0379 38.9973C30.9972 38.9973 29.4626 37.1996 26.6972 37.1996C23.9287 37.1996 22.3972 38.9973 22.3565 38.9973C21.2416 40.1059 20.5558 41.6405 20.5558 43.338ZM59.4529 26.6426C46.9041 14.0938 26.5568 14.0938 14.0072 26.6426C1.45763 39.1914 1.45843 59.5387 14.0072 72.0883C26.556 84.6378 46.9033 84.637 59.4529 72.0883C72.0017 59.5363 72.0017 39.1922 59.4529 26.6426Z" fill="black"/>
<path fill-rule="evenodd" clip-rule="evenodd" d="M36.7317 14.1499C56.1802 14.1499 71.9456 29.9153 71.9456 49.3638C71.9456 68.8124 56.1802 84.5777 36.7317 84.5777C17.2831 84.5777 1.51776 68.8124 1.51776 49.3638C1.51776 29.9153 17.2831 14.1499 36.7317 14.1499ZM40.6273 43.338H43.7058C43.7058 42.4924 44.0472 41.7251 44.6015 41.1739L44.5984 41.1708C45.7947 39.9775 47.7396 39.9775 48.936 41.1708L48.9328 41.1739C49.4872 41.7282 49.8285 42.4924 49.8285 43.338H52.907C52.907 41.6436 52.2212 40.106 51.1094 38.9973C51.0687 38.9973 49.5341 37.1996 46.7687 37.1996C44.0002 37.1996 42.4687 38.9973 42.428 38.9973C41.3131 40.1059 40.6273 41.6405 40.6273 43.338ZM20.5558 43.338H23.6343C23.6343 42.4924 23.9788 41.7251 24.53 41.1739L24.5269 41.1708C25.7233 39.9775 27.6681 39.9775 28.8645 41.1708L28.8613 41.1739C29.4157 41.7282 29.757 42.4924 29.757 43.338H32.8355C32.8355 41.6436 32.1497 40.106 31.0379 38.9973C30.9972 38.9973 29.4626 37.1996 26.6972 37.1996C23.9287 37.1996 22.3972 38.9973 22.3565 38.9973C21.2416 40.1059 20.5558 41.6405 20.5558 43.338ZM59.4529 26.6426C46.9041 14.0938 26.5568 14.0938 14.0072 26.6426C1.45763 39.1914 1.45843 59.5387 14.0072 72.0883C26.556 84.6378 46.9033 84.637 59.4529 72.0883C72.0017 59.5363 72.0017 39.1922 59.4529 26.6426Z" stroke="black" stroke-width="2" mask="url(#path-2-outside-2_149_3)"/>
</g>
<path id="Vector 3" d="M64.5496 18.1806L73.9408 5.48717M68.9973 23.8919L84.2241 17.2311" stroke="black" stroke-width="5"/>
<path id="Vector 4" d="M56.6221 14.2867V0.149414" stroke="black" stroke-width="5"/>
</g>
</g>
</g>
</svg>
