<svg width="30" height="40" viewBox="0 0 30 40" fill="none" xmlns="http://www.w3.org/2000/svg">
<path d="M8.75596 0.0017001C8.407 0.0694856 8.09272 0.261046 7.86864 0.542543C7.64457 0.824041 7.5251 1.17736 7.53136 1.5401V3.07849H2.11782C0.912801 3.07849 0 4.01076 0 5.24148V37.6924C0 39.077 0.912801 40 2.11782 40H27.866C29.071 40 29.9838 39.0677 29.9838 37.837V5.24148C30.1345 4.01076 29.2126 3.07849 28.0076 3.07849H22.5941V1.5401C22.5941 1.13209 22.4354 0.740791 22.1529 0.452286C21.8704 0.163781 21.4873 0.0017001 21.0878 0.0017001H9.03763C8.99046 -0.000566699 8.94321 -0.000566699 8.89604 0.0017001C8.84887 -0.000566699 8.80313 -0.000566699 8.75596 0.0017001ZM10.5439 3.07849H19.5815V6.15529H10.5439V3.07849ZM3.01254 6.15529H7.53136V7.69368C7.53136 8.10169 7.69006 8.49299 7.97254 8.78149C8.25502 9.07 8.63814 9.23208 9.03763 9.23208H21.0878C21.4873 9.23208 21.8704 9.07 22.1529 8.78149C22.4354 8.49299 22.5941 8.10169 22.5941 7.69368V6.15529H27.1129V36.9232H3.01254V6.15529ZM6.02509 13.8473V20.0009H12.0502V13.8473H6.02509ZM7.53136 15.3857H10.5439V18.4625H7.53136V15.3857ZM15.0627 15.3857V18.4625H24.1003V15.3857H15.0627ZM6.02509 23.0776V29.2312H12.0502V23.0776H6.02509ZM15.0627 24.616V27.6928H24.1003V24.616H15.0627Z" fill="#2A2B6A"/>
</svg>
