<svg width="29" height="29" viewBox="0 0 29 29" fill="none" xmlns="http://www.w3.org/2000/svg">
<path d="M14.5 24.94C10.875 24.94 7.6705 23.084 5.8 20.3C5.8435 17.4 11.6 15.805 14.5 15.805C17.4 15.805 23.1565 17.4 23.2 20.3C22.2414 21.7274 20.9465 22.8972 19.4294 23.7063C17.9122 24.5154 16.2194 24.9391 14.5 24.94ZM14.5 4.35C15.6537 4.35 16.7601 4.8083 17.5759 5.62409C18.3917 6.43987 18.85 7.54631 18.85 8.7C18.85 9.85369 18.3917 10.9601 17.5759 11.7759C16.7601 12.5917 15.6537 13.05 14.5 13.05C13.3463 13.05 12.2399 12.5917 11.4241 11.7759C10.6083 10.9601 10.15 9.85369 10.15 8.7C10.15 7.54631 10.6083 6.43987 11.4241 5.62409C12.2399 4.8083 13.3463 4.35 14.5 4.35ZM14.5 0C12.5958 0 10.7103 0.375054 8.95109 1.10375C7.19187 1.83244 5.5934 2.9005 4.24695 4.24695C1.52767 6.96623 0 10.6544 0 14.5C0 18.3456 1.52767 22.0338 4.24695 24.753C5.5934 26.0995 7.19187 27.1676 8.95109 27.8963C10.7103 28.6249 12.5958 29 14.5 29C18.3456 29 22.0338 27.4723 24.753 24.753C27.4723 22.0338 29 18.3456 29 14.5C29 6.4815 22.475 0 14.5 0Z" fill="#2A2B6A"/>
</svg>
