<svg width="49" height="46" viewBox="0 0 49 46" fill="none" xmlns="http://www.w3.org/2000/svg">
<path d="M22.1224 23.8152L1.56868 14.5649C1.10132 14.3547 0.704634 14.014 0.426342 13.5837C0.148049 13.1534 0 12.6518 0 12.1393C0 11.6269 0.148049 11.1253 0.426342 10.695C0.704634 10.2647 1.10132 9.92396 1.56868 9.71375L22.1224 0.468838C22.8089 0.159801 23.5531 0 24.3059 0C25.0588 0 25.803 0.159801 26.4895 0.468838L47.0432 9.71907C47.5106 9.92927 47.9073 10.27 48.1856 10.7003C48.4638 11.1307 48.6119 11.6322 48.6119 12.1447C48.6119 12.6571 48.4638 13.1587 48.1856 13.589C47.9073 14.0193 47.5106 14.36 47.0432 14.5703L26.4842 23.8152C25.7984 24.1234 25.0551 24.2828 24.3033 24.2828C23.5514 24.2828 22.8081 24.1234 22.1224 23.8152ZM22.9947 21.8736C23.4069 22.0594 23.8539 22.1554 24.3059 22.1554C24.758 22.1554 25.205 22.0594 25.6172 21.8736L46.1655 12.6287C46.2584 12.5864 46.3371 12.5183 46.3924 12.4324C46.4476 12.3466 46.4769 12.2467 46.4769 12.1447C46.4769 12.0426 46.4476 11.9427 46.3924 11.8569C46.3371 11.7711 46.2584 11.7029 46.1655 11.6606L25.6118 2.41038C25.1997 2.22464 24.7527 2.12859 24.3006 2.12859C23.8485 2.12859 23.4016 2.22464 22.9894 2.41038L2.44104 11.6553C2.34818 11.6976 2.26944 11.7657 2.21423 11.8516C2.15901 11.9374 2.12966 12.0373 2.12966 12.1393C2.12966 12.2414 2.15901 12.3413 2.21423 12.4271C2.26944 12.5129 2.34818 12.5811 2.44104 12.6234L22.9947 21.8736Z" fill="black"/>
<path d="M22.1224 44.6933L1.56868 35.443C1.10132 35.2328 0.704634 34.8921 0.426342 34.4618C0.148049 34.0315 0 33.5299 0 33.0175C0 32.505 0.148049 32.0034 0.426342 31.5731C0.704634 31.1428 1.10132 30.8021 1.56868 30.5919L5.31877 28.9056C5.57624 28.7864 5.87051 28.7744 6.13686 28.8722C6.40321 28.9699 6.61981 29.1695 6.73902 29.4269C6.85823 29.6844 6.87028 29.9787 6.77252 30.245C6.67476 30.5114 6.4752 30.728 6.21773 30.8472L2.44104 32.5334C2.34818 32.5757 2.26944 32.6438 2.21423 32.7297C2.15901 32.8155 2.12966 32.9154 2.12966 33.0175C2.12966 33.1195 2.15901 33.2194 2.21423 33.3052C2.26944 33.3911 2.34818 33.4592 2.44104 33.5015L22.9947 42.7517C23.4069 42.9375 23.8539 43.0335 24.3059 43.0335C24.758 43.0335 25.205 42.9375 25.6172 42.7517L46.1655 33.5068C46.2584 33.4645 46.3371 33.3964 46.3924 33.3106C46.4476 33.2247 46.4769 33.1248 46.4769 33.0228C46.4769 32.9207 46.4476 32.8208 46.3924 32.735C46.3371 32.6492 46.2584 32.581 46.1655 32.5387L42.3888 30.8472C42.2614 30.7899 42.1464 30.7081 42.0506 30.6064C41.9547 30.5047 41.8798 30.3851 41.8302 30.2544C41.7299 29.9906 41.7386 29.6977 41.8543 29.4402C41.9699 29.1828 42.1832 28.9818 42.447 28.8816C42.7109 28.7813 43.0037 28.79 43.2612 28.9056L47.0113 30.5919C47.4787 30.8021 47.8753 31.1428 48.1536 31.5731C48.4319 32.0034 48.58 32.505 48.58 33.0175C48.58 33.5299 48.4319 34.0315 48.1536 34.4618C47.8753 34.8921 47.4787 35.2328 47.0113 35.443L26.4842 44.6933C25.7984 45.0015 25.0551 45.1609 24.3033 45.1609C23.5514 45.1609 22.8081 45.0015 22.1224 44.6933Z" fill="black"/>
<path d="M22.1224 34.2566L1.56868 25.0063C1.10132 24.7961 0.704634 24.4554 0.426342 24.0251C0.148049 23.5947 0 23.0932 0 22.5807C0 22.0683 0.148049 21.5667 0.426342 21.1364C0.704634 20.7061 1.10132 20.3653 1.56868 20.1551L5.32409 18.4689C5.58085 18.3504 5.87417 18.3388 6.13952 18.4365C6.40487 18.5343 6.62052 18.7335 6.73902 18.9902C6.85753 19.247 6.86918 19.5403 6.77142 19.8056C6.67366 20.071 6.47449 20.2866 6.21773 20.4051L2.44104 22.0967C2.34818 22.139 2.26944 22.2071 2.21423 22.2929C2.15901 22.3788 2.12966 22.4787 2.12966 22.5807C2.12966 22.6828 2.15901 22.7827 2.21423 22.8685C2.26944 22.9543 2.34818 23.0225 2.44104 23.0648L22.9947 32.315C23.4069 32.5008 23.8539 32.5968 24.3059 32.5968C24.758 32.5968 25.205 32.5008 25.6172 32.315L46.1655 23.0648C46.2584 23.0225 46.3371 22.9543 46.3924 22.8685C46.4476 22.7827 46.4769 22.6828 46.4769 22.5807C46.4769 22.4787 46.4476 22.3788 46.3924 22.2929C46.3371 22.2071 46.2584 22.139 46.1655 22.0967L42.3888 20.4051C42.1314 20.2895 41.9304 20.0762 41.8302 19.8124C41.7299 19.5485 41.7386 19.2557 41.8543 18.9982C41.9699 18.7407 42.1832 18.5398 42.447 18.4395C42.7109 18.3393 43.0037 18.3479 43.2612 18.4636L47.0113 20.1498C47.4787 20.36 47.8753 20.7008 48.1536 21.1311C48.4319 21.5614 48.58 22.063 48.58 22.5754C48.58 23.0879 48.4319 23.5894 48.1536 24.0197C47.8753 24.45 47.4787 24.7908 47.0113 25.001L26.4842 34.2566C25.7984 34.5648 25.0551 34.7242 24.3033 34.7242C23.5514 34.7242 22.8081 34.5648 22.1224 34.2566Z" fill="black"/>
</svg>
