<svg width="128" height="128" viewBox="0 0 128 128" fill="none" xmlns="http://www.w3.org/2000/svg">
<path fill-rule="evenodd" clip-rule="evenodd" d="M64 0C28.6528 0 0 28.6528 0 64C0 99.3472 28.6528 128 64 128C99.3472 128 128 99.3472 128 64C128 28.6528 99.3472 0 64 0ZM41.6 48C41.6 45.0584 42.1794 42.1456 43.3051 39.4279C44.4308 36.7102 46.0808 34.2408 48.1608 32.1608C50.2408 30.0808 52.7102 28.4308 55.4279 27.3051C58.1456 26.1794 61.0584 25.6 64 25.6C66.9416 25.6 69.8544 26.1794 72.5721 27.3051C75.2898 28.4308 77.7592 30.0808 79.8392 32.1608C81.9192 34.2408 83.5692 36.7102 84.6949 39.4279C85.8206 42.1456 86.4 45.0584 86.4 48C86.4 53.9408 84.04 59.6384 79.8392 63.8392C75.6384 68.04 69.9408 70.4 64 70.4C58.0592 70.4 52.3616 68.04 48.1608 63.8392C43.96 59.6384 41.6 53.9408 41.6 48ZM104.051 95.8976C99.2604 101.924 93.1699 106.79 86.2347 110.133C79.2994 113.475 71.6986 115.207 64 115.2C56.3014 115.207 48.7006 113.475 41.7653 110.133C34.8301 106.79 28.7396 101.924 23.9488 95.8976C34.3232 88.4544 48.48 83.2 64 83.2C79.52 83.2 93.6768 88.4544 104.051 95.8976Z" fill="#DDDDDD"/>
</svg>
