<svg width="12" height="22" viewBox="0 0 12 22" fill="none" xmlns="http://www.w3.org/2000/svg">
<path d="M4.20408 15.7744V15.6482C4.21769 14.3091 4.35374 13.2435 4.61224 12.4512C4.87075 11.659 5.2381 11.0175 5.71429 10.5268C6.19048 10.036 6.7619 9.58381 7.42857 9.17017C7.82993 8.91778 8.19048 8.61982 8.5102 8.27629C8.82993 7.92575 9.08163 7.52262 9.26531 7.06692C9.45578 6.61122 9.55102 6.10644 9.55102 5.55258C9.55102 4.86552 9.39456 4.2696 9.08163 3.76482C8.76871 3.26004 8.35034 2.87094 7.82653 2.59751C7.30272 2.32409 6.72109 2.18738 6.08163 2.18738C5.52381 2.18738 4.98639 2.30656 4.46939 2.54493C3.95238 2.7833 3.52041 3.15838 3.17347 3.67017C2.82653 4.18196 2.62585 4.8515 2.57143 5.67878H0C0.0544218 4.48693 0.353742 3.46686 0.897959 2.61855C1.44898 1.77024 2.17347 1.12173 3.07143 0.673039C3.97619 0.224346 4.97959 0 6.08163 0C7.27891 0 8.31973 0.245379 9.20408 0.736137C10.0952 1.2269 10.7823 1.89994 11.2653 2.75526C11.7551 3.61058 12 4.58509 12 5.67878C12 6.44997 11.8844 7.14755 11.6531 7.77151C11.4286 8.39548 11.102 8.95284 10.6735 9.44359C10.2517 9.93435 9.7415 10.369 9.14286 10.7476C8.54422 11.1332 8.06463 11.5398 7.70408 11.9675C7.34354 12.3881 7.08163 12.8894 6.91837 13.4713C6.7551 14.0532 6.66667 14.7788 6.65306 15.6482V15.7744H4.20408ZM5.5102 22C5.0068 22 4.57483 21.8142 4.21429 21.4426C3.85374 21.0711 3.67347 20.6259 3.67347 20.1071C3.67347 19.5883 3.85374 19.1431 4.21429 18.7715C4.57483 18.3999 5.0068 18.2141 5.5102 18.2141C6.0136 18.2141 6.44558 18.3999 6.80612 18.7715C7.16667 19.1431 7.34694 19.5883 7.34694 20.1071C7.34694 20.4506 7.2619 20.7661 7.09184 21.0535C6.92857 21.341 6.70748 21.5723 6.42857 21.7476C6.15646 21.9159 5.85034 22 5.5102 22Z" fill="#333333"/>
</svg>
