<svg width="16" height="20" viewBox="0 0 16 20" fill="none" xmlns="http://www.w3.org/2000/svg">
<path d="M3.55078 10.9091H9.00532V12.2727H3.55078V10.9091ZM3.55078 7.5H11.7326V8.86363H3.55078V7.5ZM3.55078 14.3182H6.95987V15.6818H3.55078V14.3182Z" fill="black"/>
<path d="M13.7789 2.04545H11.7335V1.36363C11.7335 1.00198 11.5898 0.65513 11.3341 0.399399C11.0783 0.143668 10.7315 0 10.3698 0H4.9153C4.55364 0 4.20679 0.143668 3.95106 0.399399C3.69533 0.65513 3.55166 1.00198 3.55166 1.36363V2.04545H1.50621C1.14455 2.04545 0.797708 2.18912 0.541977 2.44485C0.286246 2.70058 0.142578 3.04743 0.142578 3.40909V17.7272C0.142578 18.0889 0.286246 18.4358 0.541977 18.6915C0.797708 18.9472 1.14455 19.0909 1.50621 19.0909H13.7789C14.1406 19.0909 14.4874 18.9472 14.7432 18.6915C14.9989 18.4358 15.1426 18.0889 15.1426 17.7272V3.40909C15.1426 3.04743 14.9989 2.70058 14.7432 2.44485C14.4874 2.18912 14.1406 2.04545 13.7789 2.04545ZM4.9153 1.36363H10.3698V4.0909H4.9153V1.36363ZM13.7789 17.7272H1.50621V3.40909H3.55166V5.45454H11.7335V3.40909H13.7789V17.7272Z" fill="black"/>
</svg>
