<svg width="29" height="37" viewBox="0 0 29 37" fill="none" xmlns="http://www.w3.org/2000/svg">
<path d="M28.8242 12.1871C28.7383 11.9904 28.618 11.8106 28.4689 11.6561L17.5939 0.781062C17.4394 0.632042 17.2596 0.511746 17.0629 0.425812C17.0085 0.400437 16.9505 0.385937 16.8925 0.366C16.7408 0.314391 16.583 0.283303 16.4231 0.273563C16.385 0.269938 16.3506 0.25 16.3125 0.25H3.625C1.62581 0.25 0 1.87581 0 3.875V32.875C0 34.8742 1.62581 36.5 3.625 36.5H25.375C27.3742 36.5 29 34.8742 29 32.875V12.9375C29 12.8994 28.9801 12.865 28.9764 12.8251C28.9676 12.6651 28.9365 12.5071 28.884 12.3557C28.8659 12.2977 28.8496 12.2415 28.8242 12.1871ZM22.8121 11.125H18.125V6.43788L22.8121 11.125ZM3.625 32.875V3.875H14.5V12.9375C14.5 13.4182 14.691 13.8792 15.0309 14.2191C15.3708 14.559 15.8318 14.75 16.3125 14.75H25.375L25.3786 32.875H3.625Z" fill="#2A2B6A"/>
<path d="M7.25 18.375H21.75V22H7.25V18.375ZM7.25 25.625H21.75V29.25H7.25V25.625ZM7.25 11.125H10.875V14.75H7.25V11.125Z" fill="#2A2B6A"/>
</svg>
