<svg width="19" height="22" viewBox="0 0 19 22" fill="none" xmlns="http://www.w3.org/2000/svg">
<path d="M7.78369 10.1082C7.78369 9.96481 7.69454 9.82732 7.53586 9.72595C7.37717 9.62458 7.16195 9.56763 6.93754 9.56763H4.62985C4.40543 9.56763 4.19021 9.62458 4.03152 9.72595C3.87284 9.82732 3.78369 9.96481 3.78369 10.1082C3.78369 10.2515 3.87284 10.389 4.03152 10.4904C4.19021 10.5918 4.40543 10.6487 4.62985 10.6487H6.93754C7.16195 10.6487 7.37717 10.5918 7.53586 10.4904C7.69454 10.389 7.78369 10.2515 7.78369 10.1082Z" fill="black"/>
<path d="M8.37829 12.2703H4.32423C4.18087 12.2703 4.04338 12.3272 3.94201 12.4286C3.84064 12.53 3.78369 12.6674 3.78369 12.8108C3.78369 12.9542 3.84064 13.0917 3.94201 13.193C4.04338 13.2944 4.18087 13.3513 4.32423 13.3513H8.37829C8.52165 13.3513 8.65914 13.2944 8.76051 13.193C8.86188 13.0917 8.91883 12.9542 8.91883 12.8108C8.91883 12.6674 8.86188 12.53 8.76051 12.4286C8.65914 12.3272 8.52165 12.2703 8.37829 12.2703Z" fill="black"/>
<path d="M4.32423 16.054H7.56748C7.71084 16.054 7.84832 15.997 7.9497 15.8957C8.05107 15.7943 8.10802 15.6568 8.10802 15.5134C8.10802 15.3701 8.05107 15.2326 7.9497 15.1312C7.84832 15.0298 7.71084 14.9729 7.56748 14.9729H4.32423C4.18087 14.9729 4.04338 15.0298 3.94201 15.1312C3.84064 15.2326 3.78369 15.3701 3.78369 15.5134C3.78369 15.6568 3.84064 15.7943 3.94201 15.8957C4.04338 15.997 4.18087 16.054 4.32423 16.054Z" fill="black"/>
<path d="M6.48643 7.40529C6.48643 7.26193 6.42948 7.12444 6.32811 7.02307C6.22674 6.9217 6.08925 6.86475 5.94589 6.86475H2.70265C2.55929 6.86475 2.4218 6.9217 2.32043 7.02307C2.21906 7.12444 2.16211 7.26193 2.16211 7.40529C2.16211 7.54865 2.21906 7.68614 2.32043 7.78751C2.4218 7.88888 2.55929 7.94583 2.70265 7.94583H5.94589C6.08925 7.94583 6.22674 7.88888 6.32811 7.78751C6.42948 7.68614 6.48643 7.54865 6.48643 7.40529Z" fill="black"/>
<path d="M4.32423 18.7569H8.37829C8.52165 18.7569 8.65914 18.6999 8.76051 18.5985C8.86188 18.4972 8.91883 18.3597 8.91883 18.2163C8.91883 18.073 8.86188 17.9355 8.76051 17.8341C8.65914 17.7327 8.52165 17.6758 8.37829 17.6758H4.32423C4.18087 17.6758 4.04338 17.7327 3.94201 17.8341C3.84064 17.9355 3.78369 18.073 3.78369 18.2163C3.78369 18.3597 3.84064 18.4972 3.94201 18.5985C4.04338 18.6999 4.18087 18.7569 4.32423 18.7569Z" fill="black"/>
<path d="M2.70265 10.6487C3.00118 10.6487 3.24319 10.4067 3.24319 10.1082C3.24319 9.80964 3.00118 9.56763 2.70265 9.56763C2.40412 9.56763 2.16211 9.80964 2.16211 10.1082C2.16211 10.4067 2.40412 10.6487 2.70265 10.6487Z" fill="black"/>
<path d="M2.70265 13.3513C3.00118 13.3513 3.24319 13.1093 3.24319 12.8108C3.24319 12.5123 3.00118 12.2703 2.70265 12.2703C2.40412 12.2703 2.16211 12.5123 2.16211 12.8108C2.16211 13.1093 2.40412 13.3513 2.70265 13.3513Z" fill="black"/>
<path d="M2.70265 16.054C3.00118 16.054 3.24319 15.812 3.24319 15.5134C3.24319 15.2149 3.00118 14.9729 2.70265 14.9729C2.40412 14.9729 2.16211 15.2149 2.16211 15.5134C2.16211 15.812 2.40412 16.054 2.70265 16.054Z" fill="black"/>
<path d="M2.70265 18.7569C3.00118 18.7569 3.24319 18.5149 3.24319 18.2163C3.24319 17.9178 3.00118 17.6758 2.70265 17.6758C2.40412 17.6758 2.16211 17.9178 2.16211 18.2163C2.16211 18.5149 2.40412 18.7569 2.70265 18.7569Z" fill="black"/>
<path d="M12.4325 11.7297C11.7376 11.7297 11.0583 11.9358 10.4805 12.3219C9.90266 12.7079 9.45233 13.2567 9.1864 13.8987C8.92047 14.5407 8.85089 15.2471 8.98646 15.9287C9.12203 16.6103 9.45666 17.2363 9.94803 17.7277C10.4394 18.2191 11.0655 18.5537 11.747 18.6893C12.4286 18.8248 13.135 18.7552 13.777 18.4893C14.419 18.2234 14.9678 17.773 15.3538 17.1953C15.7399 16.6175 15.946 15.9382 15.946 15.2432C15.9449 14.3117 15.5744 13.4187 14.9157 12.76C14.257 12.1013 13.364 11.7308 12.4325 11.7297ZM12.4325 17.6757C11.9514 17.6757 11.4811 17.533 11.0811 17.2657C10.6811 16.9985 10.3693 16.6186 10.1852 16.1741C10.0011 15.7296 9.95291 15.2406 10.0468 14.7687C10.1406 14.2969 10.3723 13.8634 10.7125 13.5233C11.0527 13.1831 11.4861 12.9514 11.9579 12.8576C12.4298 12.7637 12.9188 12.8119 13.3633 12.996C13.8078 13.1801 14.1877 13.4919 14.455 13.8919C14.7222 14.2919 14.8649 14.7622 14.8649 15.2432C14.8642 15.8882 14.6077 16.5064 14.1517 16.9624C13.6956 17.4185 13.0774 17.675 12.4325 17.6757Z" fill="black"/>
<path d="M13.4021 14.0499L12.1623 15.2894L11.4634 14.5905C11.3615 14.492 11.2249 14.4375 11.0832 14.4388C10.9415 14.44 10.8059 14.4968 10.7057 14.5971C10.6055 14.6973 10.5486 14.8329 10.5474 14.9746C10.5462 15.1163 10.6006 15.2528 10.6991 15.3548L11.7802 16.4359C11.8815 16.5372 12.019 16.5941 12.1623 16.5941C12.3057 16.5941 12.4431 16.5372 12.5445 16.4359L14.1661 14.8143C14.2646 14.7123 14.3191 14.5758 14.3178 14.434C14.3166 14.2923 14.2598 14.1567 14.1595 14.0565C14.0593 13.9563 13.9237 13.8994 13.782 13.8982C13.6403 13.897 13.504 13.9515 13.4021 14.0499Z" fill="black"/>
<path d="M12.4324 19.2973C12.2891 19.2973 12.1516 19.3542 12.0502 19.4556C11.9488 19.557 11.8919 19.6945 11.8919 19.8378V20.3784C11.8919 20.5217 11.8349 20.6592 11.7336 20.7606C11.6322 20.862 11.4947 20.9189 11.3514 20.9189H1.62162C1.47826 20.9189 1.34077 20.862 1.2394 20.7606C1.13803 20.6592 1.08108 20.5217 1.08108 20.3784V4.7027C1.08108 4.55934 1.13803 4.42185 1.2394 4.32048C1.34077 4.21911 1.47826 4.16216 1.62162 4.16216H2.7973C2.90897 4.47803 3.11574 4.75155 3.38918 4.94514C3.66261 5.13872 3.9893 5.24286 4.32432 5.24324H8.64865C9.07873 5.24324 9.4912 5.07239 9.79531 4.76828C10.0994 4.46417 10.2703 4.0517 10.2703 3.62162C10.2703 3.19154 10.0994 2.77908 9.79531 2.47496C9.4912 2.17085 9.07873 2 8.64865 2H4.32432C3.9893 2.00038 3.66261 2.10452 3.38918 2.29811C3.11574 2.49169 2.90897 2.76522 2.7973 3.08108H1.62162C1.19169 3.08158 0.779519 3.25259 0.475515 3.5566C0.17151 3.8606 0.000500706 4.27278 0 4.7027V20.3784C0.000500706 20.8083 0.17151 21.2205 0.475515 21.5245C0.779519 21.8285 1.19169 21.9995 1.62162 22H11.3514C11.7813 21.9995 12.1935 21.8285 12.4975 21.5245C12.8015 21.2205 12.9725 20.8083 12.973 20.3784V19.8378C12.973 19.6945 12.916 19.557 12.8147 19.4556C12.7133 19.3542 12.5758 19.2973 12.4324 19.2973ZM4.32432 3.08108H8.64865C8.79201 3.08108 8.9295 3.13803 9.03087 3.2394C9.13224 3.34077 9.18919 3.47826 9.18919 3.62162C9.18919 3.76498 9.13224 3.90247 9.03087 4.00384C8.9295 4.10521 8.79201 4.16216 8.64865 4.16216H4.32432C4.18096 4.16216 4.04348 4.10521 3.9421 4.00384C3.84073 3.90247 3.78378 3.76498 3.78378 3.62162C3.78378 3.47826 3.84073 3.34077 3.9421 3.2394C4.04348 3.13803 4.18096 3.08108 4.32432 3.08108Z" fill="black"/>
<path fill-rule="evenodd" clip-rule="evenodd" d="M11.0556 2.44444C11.0556 1.79614 11.3131 1.17438 11.7715 0.715961C12.2299 0.257539 12.8517 0 13.5 0C14.1483 0 14.7701 0.257539 15.2285 0.715961C15.6869 1.17438 15.9444 1.79614 15.9444 2.44444C15.9444 3.09275 15.6869 3.71451 15.2285 4.17293C14.7701 4.63135 14.1483 4.88889 13.5 4.88889C12.8517 4.88889 12.2299 4.63135 11.7715 4.17293C11.3131 3.71451 11.0556 3.09275 11.0556 2.44444ZM11.0556 6.11111C10.2452 6.11111 9.46798 6.43303 8.89495 7.00606C8.32192 7.57909 8 8.35628 8 9.16667C8 9.6529 8.19315 10.1192 8.53697 10.463C8.88079 10.8068 9.3471 11 9.83333 11H17.1667C17.6529 11 18.1192 10.8068 18.463 10.463C18.8068 10.1192 19 9.6529 19 9.16667C19 8.35628 18.6781 7.57909 18.105 7.00606C17.532 6.43303 16.7548 6.11111 15.9444 6.11111H11.0556Z" fill="black"/>
</svg>
