<svg width="11" height="13" viewBox="0 0 11 13" fill="none" xmlns="http://www.w3.org/2000/svg">
<path d="M8.03647 3.9464C7.97382 3.94643 7.91375 3.97089 7.86946 4.01441C7.82517 4.05792 7.80029 4.11693 7.80029 4.17846V5.33922C7.80029 5.40075 7.82517 5.45976 7.86946 5.50328C7.91375 5.5468 7.97382 5.57126 8.03647 5.57129C8.06751 5.5713 8.09825 5.56531 8.12693 5.55365C8.15561 5.542 8.18167 5.52491 8.20362 5.50336C8.22557 5.48181 8.24299 5.45622 8.25487 5.42806C8.26675 5.39989 8.27287 5.36971 8.27287 5.33922V4.17846C8.27288 4.14797 8.26678 4.11777 8.2549 4.0896C8.24303 4.06142 8.22562 4.03582 8.20366 4.01426C8.18171 3.9927 8.15564 3.9756 8.12695 3.96393C8.09826 3.95227 8.06752 3.94638 8.03647 3.9464Z" fill="black"/>
<path d="M5.20002 1.85718C5.16896 1.85716 5.13821 1.86316 5.10951 1.87483C5.08082 1.8865 5.05475 1.90361 5.03279 1.92519C5.01083 1.94676 4.99343 1.97237 4.98156 2.00056C4.96969 2.02875 4.96359 2.05896 4.96362 2.08946V3.01772C4.96359 3.04822 4.96969 3.07843 4.98156 3.10662C4.99343 3.13481 5.01083 3.16042 5.03279 3.18199C5.05475 3.20357 5.08082 3.22068 5.10951 3.23235C5.13821 3.24402 5.16896 3.25002 5.20002 3.25C5.23107 3.25 5.26182 3.24399 5.2905 3.23232C5.31918 3.22064 5.34524 3.20353 5.36718 3.18195C5.38913 3.16038 5.40653 3.13477 5.41839 3.10659C5.43025 3.07841 5.43634 3.04821 5.43631 3.01772V2.08946C5.43634 2.05897 5.43025 2.02877 5.41839 2.00059C5.40653 1.97241 5.38913 1.9468 5.36718 1.92523C5.34524 1.90365 5.31918 1.88654 5.2905 1.87486C5.26182 1.86319 5.23107 1.85718 5.20002 1.85718Z" fill="black"/>
<path d="M6.14533 3.48218C6.11429 3.48216 6.08354 3.48816 6.05485 3.49982C6.02616 3.51148 6.0001 3.52859 5.97814 3.55015C5.95619 3.57171 5.93878 3.59731 5.9269 3.62549C5.91503 3.65366 5.90892 3.68386 5.90894 3.71435C5.90895 3.74483 5.91508 3.775 5.92696 3.80315C5.93885 3.8313 5.95627 3.85687 5.97822 3.87841C6.00017 3.89995 6.02623 3.91703 6.0549 3.92868C6.08358 3.94033 6.1143 3.94632 6.14533 3.94631H7.56351C7.59454 3.94632 7.62526 3.94033 7.65394 3.92868C7.68261 3.91703 7.70867 3.89995 7.73062 3.87841C7.75257 3.85687 7.76999 3.8313 7.78188 3.80315C7.79376 3.775 7.79989 3.74483 7.79991 3.71435C7.79992 3.68385 7.79381 3.65364 7.78193 3.62546C7.77005 3.59728 7.75263 3.57167 7.73066 3.55011C7.70869 3.52855 7.68261 3.51145 7.65391 3.49979C7.62521 3.48813 7.59445 3.48215 7.56339 3.48218H6.14533Z" fill="black"/>
<path d="M2.83627 3.48218C2.80524 3.48219 2.77452 3.48821 2.74586 3.49988C2.7172 3.51156 2.69116 3.52867 2.66923 3.55023C2.64729 3.57178 2.6299 3.59738 2.61804 3.62554C2.60618 3.6537 2.60008 3.68388 2.6001 3.71435C2.60013 3.77586 2.62502 3.83484 2.6693 3.87834C2.71359 3.92183 2.77365 3.94628 2.83627 3.94631H4.25467C4.3173 3.94628 4.37735 3.92183 4.42164 3.87834C4.46592 3.83484 4.49081 3.77586 4.49084 3.71435C4.49086 3.68388 4.48476 3.6537 4.4729 3.62554C4.46104 3.59738 4.44365 3.57178 4.42172 3.55023C4.39979 3.52867 4.37375 3.51156 4.34508 3.49988C4.31642 3.48821 4.2857 3.48219 4.25467 3.48218H2.83627Z" fill="black"/>
<path d="M2.12727 4.64282C2.09623 4.64281 2.06549 4.6488 2.03681 4.66046C2.00813 4.67211 1.98207 4.6892 1.96012 4.71075C1.93816 4.7323 1.92075 4.75789 1.90887 4.78605C1.89698 4.81422 1.89087 4.8444 1.89087 4.87489V6.03565C1.89087 6.09722 1.91578 6.15628 1.96011 6.19982C2.00444 6.24336 2.06457 6.26782 2.12727 6.26782H7.09076C7.12181 6.26783 7.15255 6.26184 7.18124 6.25018C7.20993 6.23851 7.236 6.22141 7.25795 6.19985C7.2799 6.17829 7.29732 6.15269 7.30919 6.12451C7.32107 6.09634 7.32717 6.06614 7.32716 6.03565C7.32717 6.00515 7.32107 5.97496 7.30919 5.94678C7.29732 5.91861 7.2799 5.89301 7.25795 5.87144C7.236 5.84988 7.20993 5.83278 7.18124 5.82112C7.15255 5.80945 7.12181 5.80346 7.09076 5.80347H2.36367V4.87489C2.36365 4.84441 2.35753 4.81424 2.34564 4.78609C2.33375 4.75794 2.31633 4.73236 2.29438 4.71082C2.27243 4.68929 2.24637 4.6722 2.2177 4.66056C2.18903 4.64891 2.1583 4.64281 2.12727 4.64282Z" fill="black"/>
<path d="M0.709309 0.000109716C0.320484 0.000109716 0 0.314647 0 0.696522V12.3034C0 12.6852 0.320484 12.9998 0.709309 12.9998H8.27274C8.3354 12.9997 8.39549 12.9753 8.4398 12.9318L10.3308 11.0747C10.3527 11.0531 10.3702 11.0275 10.382 10.9993C10.3939 10.9711 10.4 10.9409 10.4 10.9104V0.696412C10.4 0.314756 10.0795 0 9.69091 0L0.709309 0.000109716ZM0.709309 0.464238H9.6908C9.82592 0.464238 9.9272 0.56382 9.9272 0.696412V10.8145L8.17481 12.5356H0.709309C0.574192 12.5356 0.472798 12.4361 0.472798 12.3034V0.696412C0.472798 0.56382 0.574192 0.464238 0.709309 0.464238Z" fill="black"/>
<path d="M8.27271 12.7675V10.9104H10.1637L8.27271 12.7675Z" fill="black"/>
<path d="M8.27278 10.6785C8.21012 10.6785 8.15002 10.7029 8.1057 10.7464C8.06137 10.7899 8.03644 10.8489 8.03638 10.9104V12.7676C8.03633 12.8135 8.05017 12.8585 8.07614 12.8967C8.10211 12.9349 8.13905 12.9647 8.18228 12.9823C8.2255 12.9999 8.27307 13.0045 8.31896 12.9955C8.36485 12.9865 8.40699 12.9644 8.44005 12.9319L10.3308 11.0747C10.3638 11.0422 10.3863 11.0009 10.3954 10.9559C10.4045 10.9109 10.3998 10.8642 10.382 10.8218C10.3641 10.7794 10.3338 10.7432 10.295 10.7177C10.2561 10.6921 10.2105 10.6785 10.1637 10.6785H8.27278ZM8.50917 11.1426H9.59313L8.50917 12.2072V11.1426Z" fill="black"/>
<path d="M2.60488 7.66089C2.60485 7.72244 2.57993 7.78147 2.5356 7.82499C2.49127 7.8685 2.43116 7.89295 2.36848 7.89295C2.3058 7.89295 2.24569 7.8685 2.20136 7.82499C2.15703 7.78147 2.13211 7.72244 2.13208 7.66089C2.13208 7.59931 2.15699 7.54025 2.20132 7.49671C2.24565 7.45317 2.30578 7.42871 2.36848 7.42871C2.43118 7.42871 2.49131 7.45317 2.53564 7.49671C2.57997 7.54025 2.60488 7.59931 2.60488 7.66089Z" fill="black"/>
<path d="M3.31404 7.42858C3.283 7.42856 3.25226 7.43455 3.22358 7.44621C3.1949 7.45787 3.16884 7.47496 3.14688 7.49651C3.12493 7.51806 3.10752 7.54365 3.09563 7.57181C3.08375 7.59997 3.07764 7.63016 3.07764 7.66064C3.07761 7.69114 3.0837 7.72135 3.09557 7.74954C3.10744 7.77773 3.12485 7.80334 3.1468 7.82492C3.16876 7.84649 3.19483 7.8636 3.22353 7.87527C3.25222 7.88694 3.28298 7.89294 3.31404 7.89292H8.04135C8.07239 7.89291 8.10312 7.88689 8.13179 7.87521C8.16046 7.86353 8.1865 7.84641 8.20844 7.82484C8.23037 7.80327 8.24776 7.77766 8.25961 7.74949C8.27147 7.72132 8.27755 7.69113 8.27752 7.66064C8.27754 7.63017 8.27144 7.59999 8.25958 7.57183C8.24772 7.54366 8.23033 7.51807 8.2084 7.49651C8.18647 7.47495 8.16043 7.45785 8.13176 7.44617C8.1031 7.4345 8.07238 7.42848 8.04135 7.42847L3.31404 7.42858Z" fill="black"/>
<path d="M3.31404 8.35718C3.28299 8.35716 3.25224 8.36316 3.22355 8.37482C3.19486 8.38648 3.1688 8.40359 3.14684 8.42515C3.12489 8.44671 3.10748 8.47231 3.0956 8.50049C3.08373 8.52866 3.07762 8.55886 3.07764 8.58935C3.07762 8.61984 3.08373 8.65004 3.0956 8.67822C3.10748 8.70639 3.12489 8.73199 3.14684 8.75356C3.1688 8.77512 3.19486 8.79222 3.22355 8.80388C3.25224 8.81554 3.28299 8.82154 3.31404 8.82153H4.7321C4.76314 8.82154 4.79389 8.81554 4.82258 8.80388C4.85127 8.79222 4.87733 8.77512 4.89929 8.75356C4.92124 8.73199 4.93866 8.70639 4.95053 8.67822C4.96241 8.65004 4.96851 8.61984 4.9685 8.58935C4.96851 8.55886 4.96241 8.52866 4.95053 8.50049C4.93866 8.47231 4.92124 8.44671 4.89929 8.42515C4.87733 8.40359 4.85127 8.38648 4.82258 8.37482C4.79389 8.36316 4.76314 8.35716 4.7321 8.35718H3.31404Z" fill="black"/>
<path d="M2.60488 9.98206C2.60488 10.0436 2.57997 10.1027 2.53564 10.1462C2.49131 10.1898 2.43118 10.2142 2.36848 10.2142C2.30578 10.2142 2.24565 10.1898 2.20132 10.1462C2.15699 10.1027 2.13208 10.0436 2.13208 9.98206C2.13211 9.92051 2.15703 9.86148 2.20136 9.81796C2.24569 9.77445 2.3058 9.75 2.36848 9.75C2.43116 9.75 2.49127 9.77445 2.5356 9.81796C2.57993 9.86148 2.60485 9.92051 2.60488 9.98206Z" fill="black"/>
<path d="M3.31404 9.75C3.28301 9.74999 3.25228 9.75597 3.2236 9.76762C3.19493 9.77927 3.16887 9.79635 3.14692 9.81789C3.12497 9.83943 3.10755 9.86501 3.09567 9.89316C3.08378 9.92131 3.07765 9.95148 3.07764 9.98196C3.07761 10.0125 3.0837 10.0427 3.09557 10.0709C3.10744 10.099 3.12485 10.1247 3.1468 10.1462C3.16876 10.1678 3.19483 10.1849 3.22353 10.1966C3.25222 10.2083 3.28298 10.2143 3.31404 10.2142H8.04135C8.07239 10.2142 8.10312 10.2082 8.13179 10.1965C8.16046 10.1848 8.1865 10.1677 8.20844 10.1462C8.23037 10.1246 8.24776 10.099 8.25961 10.0708C8.27147 10.0426 8.27755 10.0124 8.27752 9.98196C8.2775 9.92045 8.2526 9.86146 8.20832 9.81797C8.16403 9.77448 8.10398 9.75003 8.04135 9.75H3.31404Z" fill="black"/>
<path d="M3.31404 10.6785C3.28301 10.6785 3.25228 10.6844 3.2236 10.6961C3.19493 10.7077 3.16887 10.7248 3.14692 10.7464C3.12497 10.7679 3.10755 10.7935 3.09567 10.8216C3.08378 10.8498 3.07765 10.8799 3.07764 10.9104C3.07762 10.9409 3.08373 10.9711 3.0956 10.9993C3.10748 11.0275 3.12489 11.0531 3.14684 11.0746C3.1688 11.0962 3.19486 11.1133 3.22355 11.125C3.25224 11.1366 3.28299 11.1426 3.31404 11.1426H4.7321C4.76314 11.1426 4.79389 11.1366 4.82258 11.125C4.85127 11.1133 4.87733 11.0962 4.89929 11.0746C4.92124 11.0531 4.93866 11.0275 4.95053 10.9993C4.96241 10.9711 4.96851 10.9409 4.9685 10.9104C4.96848 10.8799 4.96235 10.8498 4.95047 10.8216C4.93858 10.7935 4.92116 10.7679 4.89921 10.7464C4.87726 10.7248 4.8512 10.7077 4.82253 10.6961C4.79385 10.6844 4.76313 10.6785 4.7321 10.6785H3.31404Z" fill="black"/>
<path d="M4.01807 1.16064H6.38172V2.08923H4.01807V1.16064Z" fill="black"/>
<path d="M4.01814 0.928821C3.95544 0.928821 3.89531 0.953282 3.85098 0.996823C3.80664 1.04036 3.78174 1.09942 3.78174 1.16099V2.08958C3.7818 2.15112 3.80673 2.21012 3.85106 2.25361C3.89538 2.2971 3.95548 2.32154 4.01814 2.32154H6.38168C6.44436 2.32156 6.50448 2.29715 6.54883 2.25365C6.59319 2.21015 6.61813 2.15114 6.61819 2.08958V1.16088C6.61819 1.13039 6.61207 1.10019 6.60019 1.07201C6.5883 1.04383 6.57088 1.01824 6.54891 0.996674C6.52695 0.975114 6.50088 0.958014 6.47218 0.946353C6.44349 0.934691 6.41274 0.928697 6.38168 0.928711L4.01814 0.928821ZM4.25465 1.39295H6.14539V1.8573H4.25465V1.39295Z" fill="black"/>
<path d="M4.49086 3.01782H5.90904L6.38172 3.71423L5.90904 4.41065H4.49086L4.01807 3.71423L4.49086 3.01782Z" fill="black"/>
<path d="M4.49075 2.78589C4.45187 2.78591 4.41359 2.79534 4.37931 2.81336C4.34503 2.83138 4.3158 2.85743 4.29422 2.8892L3.82142 3.58572C3.79554 3.62385 3.78174 3.66865 3.78174 3.71447C3.78174 3.7603 3.79554 3.8051 3.82142 3.84323L4.29422 4.53964C4.31579 4.57143 4.34501 4.5975 4.37929 4.61554C4.41357 4.63358 4.45186 4.64303 4.49075 4.64306H5.90904C5.94798 4.64305 5.98631 4.6336 6.02064 4.61554C6.05496 4.59748 6.08422 4.57137 6.10579 4.53953L6.57837 3.84312C6.60422 3.805 6.61801 3.76022 6.61801 3.71442C6.61801 3.66862 6.60422 3.62384 6.57837 3.58572L6.10579 2.8892C6.08419 2.8574 6.05493 2.83134 6.0206 2.81331C5.98628 2.79529 5.94796 2.78587 5.90904 2.78589H4.49075ZM4.61749 3.25013H5.7824L6.09753 3.71447L5.7824 4.1786H4.61727L4.30203 3.71447L4.61749 3.25013Z" fill="black"/>
<path d="M8.50921 3.71424C8.50922 3.77521 8.497 3.83559 8.47326 3.89193C8.44951 3.94826 8.41469 3.99946 8.3708 4.04258C8.3269 4.0857 8.27479 4.1199 8.21743 4.14324C8.16008 4.16657 8.0986 4.17859 8.03652 4.17859C7.97443 4.1786 7.91294 4.1666 7.85557 4.14327C7.7982 4.11994 7.74607 4.08574 7.70217 4.04261C7.65826 3.99949 7.62344 3.9483 7.59968 3.89195C7.57592 3.83561 7.56371 3.77522 7.56372 3.71424C7.56372 3.65326 7.57595 3.59289 7.59971 3.53656C7.62347 3.48023 7.6583 3.42904 7.70221 3.38593C7.74611 3.34282 7.79823 3.30863 7.8556 3.28531C7.91296 3.26198 7.97444 3.24999 8.03652 3.25C8.16188 3.25 8.28211 3.29891 8.37076 3.38597C8.4594 3.47303 8.50921 3.59111 8.50921 3.71424Z" fill="black"/>
<path d="M8.03623 3.01782C7.64741 3.01782 7.32715 3.33236 7.32715 3.71423C7.32715 4.09611 7.64741 4.41065 8.03623 4.41065C8.42506 4.41065 8.74532 4.09611 8.74532 3.71423C8.74532 3.33236 8.42506 3.01782 8.03623 3.01782ZM8.03623 3.48206C8.16957 3.48206 8.27263 3.58329 8.27263 3.71423C8.27309 3.74484 8.26728 3.77522 8.25556 3.80357C8.24383 3.83193 8.22643 3.85769 8.20439 3.87932C8.18234 3.90095 8.1561 3.91801 8.12721 3.9295C8.09833 3.94099 8.06739 3.94666 8.03623 3.94619C8.00509 3.94666 7.97416 3.94099 7.94529 3.9295C7.91641 3.91801 7.89019 3.90094 7.86816 3.87931C7.84613 3.85767 7.82875 3.83191 7.81705 3.80356C7.80536 3.7752 7.79958 3.74483 7.80006 3.71423C7.80006 3.58329 7.90279 3.48206 8.03623 3.48206Z" fill="black"/>
<path d="M7.09106 5.33911H8.98192V6.73194H7.09106V5.33911Z" fill="black"/>
<path d="M7.09091 5.10718C7.02825 5.10724 6.96818 5.13172 6.9239 5.17526C6.87961 5.21879 6.85474 5.27781 6.85474 5.33935V6.73218C6.85474 6.79371 6.87961 6.85274 6.9239 6.89627C6.96818 6.9398 7.02825 6.96429 7.09091 6.96435H8.98188C9.04458 6.96435 9.10471 6.93989 9.14904 6.89635C9.19337 6.85281 9.21828 6.79375 9.21828 6.73218V5.33935C9.21828 5.27778 9.19337 5.21872 9.14904 5.17518C9.10471 5.13164 9.04458 5.10718 8.98188 5.10718H7.09091ZM7.32731 5.57142H8.74559V6.50011H7.32742L7.32731 5.57142Z" fill="black"/>
<path d="M1.41797 3.01782H2.83614V4.41065L2.12705 4.87499L1.41797 4.41065V3.01782Z" fill="black"/>
<path d="M1.41804 2.78589C1.35538 2.78589 1.29529 2.81032 1.25096 2.85381C1.20663 2.89731 1.1817 2.9563 1.18164 3.01784V4.41089C1.18165 4.4491 1.19127 4.48673 1.20964 4.52042C1.22801 4.55411 1.25456 4.58282 1.28694 4.60402L1.99603 5.06826C2.03485 5.09367 2.08047 5.10723 2.12713 5.10723C2.17378 5.10723 2.2194 5.09367 2.25822 5.06826L2.96731 4.60402C2.99969 4.58282 3.02624 4.55411 3.04461 4.52042C3.06298 4.48673 3.0726 4.4491 3.07261 4.41089V3.01784C3.07255 2.95629 3.0476 2.89727 3.00325 2.85377C2.9589 2.81028 2.89878 2.78586 2.8361 2.78589H1.41804ZM1.65422 3.25013H2.60004V4.28652L2.12713 4.59612L1.65422 4.28663V3.25013Z" fill="black"/>
</svg>
