<?xml version="1.0" encoding="utf-8"?>
<!-- Generator: Adobe Illustrator 16.0.0, SVG Export Plug-In . SVG Version: 6.00 Build 0)  -->
<!DOCTYPE svg PUBLIC "-//W3C//DTD SVG 1.1//EN" "http://www.w3.org/Graphics/SVG/1.1/DTD/svg11.dtd">
<svg version="1.1" id="Layer_1" xmlns="http://www.w3.org/2000/svg" xmlns:xlink="http://www.w3.org/1999/xlink" x="0px" y="0px"
	 width="415.746px" height="437.774px" viewBox="56.793 0 415.746 437.774" enable-background="new 56.793 0 415.746 437.774"
	 xml:space="preserve">
<g>
	<polygon fill="#000" points="264.097,356.954 338.915,431.774 472.54,298.148 334.566,160.173 276.378,218.361 342.47,284.458 
		357.622,269.317 373.592,328.919 313.985,312.953 313.516,312.873 328.343,298.193 328.294,298.144 328.391,298.148 
		190.42,160.173 56.793,293.799 194.766,431.774 253.272,373.263 186.856,306.853 171.707,321.988 155.739,262.389 215.301,278.352 
		200.2,293.51 	"/>
</g>
<polygon fill="#000" points="281.836,176.164 281.836,176.164 281.836,104.869 281.907,104.949 281.916,68.72 296.451,68.344 
	324.061,68.344 328.177,68.344 260.546,-1 193.156,68.344 240.143,68.344 240.134,176.164 261.366,196.809 "/>
</svg>
