<?xml version="1.0" encoding="utf-8"?>
<!-- Generator: Adobe Illustrator 16.0.0, SVG Export Plug-In . SVG Version: 6.00 Build 0)  -->
<!DOCTYPE svg PUBLIC "-//W3C//DTD SVG 1.1//EN" "http://www.w3.org/Graphics/SVG/1.1/DTD/svg11.dtd">
<svg version="1.1" id="Layer_1" xmlns="http://www.w3.org/2000/svg" xmlns:xlink="http://www.w3.org/1999/xlink" x="0px" y="0px"
	 width="415.746px" height="437.774px" viewBox="0 0 415.746 437.774" enable-background="new 0 0 415.746 437.774"
	 xml:space="preserve">
<g>
	<polygon fill="#000" points="207.305,363.36 282.122,438.18 415.747,304.554 277.773,166.579 219.585,224.767 285.677,290.864 
		300.829,275.723 316.799,335.325 257.192,319.36 256.723,319.28 271.55,304.599 271.501,304.55 271.598,304.554 133.627,166.579 
		0,300.206 137.973,438.18 196.479,379.669 130.063,313.259 114.914,328.394 98.946,268.795 158.508,284.758 143.407,299.917 	"/>
</g>
<polygon fill="#000" points="185.038,26.445 185.038,26.445 184.326,92.794 184.26,92.718 183.891,126.435 170.36,126.638 
	144.665,126.363 140.835,126.321 203.08,191.53 266.488,127.67 222.761,127.201 223.847,26.862 204.295,7.437 "/>
</svg>
