<?xml version="1.0" encoding="utf-8"?>
<!-- Generator: Adobe Illustrator 16.0.0, SVG Export Plug-In . SVG Version: 6.00 Build 0)  -->
<!DOCTYPE svg PUBLIC "-//W3C//DTD SVG 1.1//EN" "http://www.w3.org/Graphics/SVG/1.1/DTD/svg11.dtd">
<svg version="1.1" id="Layer_1" xmlns="http://www.w3.org/2000/svg" xmlns:xlink="http://www.w3.org/1999/xlink" x="0px" y="0px"
	 width="393px" height="437.774px" viewBox="0 0 393 437.774" enable-background="new 0 0 393 437.774" xml:space="preserve">
<g>
	<polygon fill="#000" points="194.622,357.764 260.998,424.142 379.545,305.594 257.141,183.19 205.52,234.812 264.152,293.448 
		277.594,280.017 291.761,332.892 238.882,318.725 238.467,318.656 251.619,305.633 251.577,305.59 251.662,305.594 129.262,183.19 
		10.715,301.736 133.118,424.142 185.021,372.232 126.101,313.315 112.661,326.744 98.494,273.873 151.334,288.032 137.938,301.48 	
		"/>
</g>
<g>
	<g>
		<path fill="#000" stroke="#FFFFFF" stroke-width="4" stroke-miterlimit="10" d="M294.878,113.098
			c0-1.43-1.276-2.383-3.178-2.383h-70.234c-1.906,0-3.178,0.953-3.178,2.383v52.664c0,1.43,1.271,2.382,3.178,2.382
			c1.909,0,3.182-0.953,3.182-2.382V115.48H291.7C293.289,115.48,294.878,114.29,294.878,113.098z"/>
		<path fill="#000" stroke="#FFFFFF" stroke-width="4" stroke-miterlimit="10" d="M221.466,73.063H291.7
			c1.901,0,3.178-0.952,3.178-2.383c0-1.429-1.276-2.384-3.178-2.384h-67.053V18.016c0-1.43-1.272-2.383-3.182-2.383
			c-1.906,0-3.178,0.954-3.178,2.383V70.68C218.288,72.11,219.563,73.063,221.466,73.063z"/>
		<path fill="#000" stroke="#FFFFFF" stroke-width="4" stroke-miterlimit="10" d="M94.67,73.063h70.23
			c1.906,0,3.178-0.952,3.178-2.383V18.016c0-1.43-1.271-2.383-3.178-2.383s-3.18,0.954-3.18,2.383v50.281H94.667
			c-1.907,0-3.177,0.955-3.177,2.384C91.491,72.11,92.764,73.063,94.67,73.063z"/>
		<path fill="#000" stroke="#FFFFFF" stroke-width="4" stroke-miterlimit="10" d="M164.902,110.715h-70.23
			c-1.908,0-3.178,0.953-3.178,2.383c0,1.429,1.271,2.382,3.178,2.382h67.051v50.283c0,1.429,1.274,2.382,3.181,2.382
			c1.906,0,3.177-0.953,3.177-2.382v-52.665C168.079,111.668,166.491,110.715,164.902,110.715z"/>
		<path fill="#000" stroke="#FFFFFF" stroke-width="4" stroke-miterlimit="10" d="M205.58,94.272h86.12
			c1.901,0,3.178-0.954,3.178-2.383c0-1.429-1.276-2.383-3.178-2.383h-86.12c-1.274-3.335-4.767-5.958-9.217-6.911V18.016
			c0-1.43-1.271-2.383-3.179-2.383c-1.906,0-3.177,0.954-3.177,2.383v64.579c-4.448,0.953-7.945,3.576-9.216,6.911H94.672
			c-1.908,0-3.178,0.954-3.178,2.383c0,1.43,1.271,2.383,3.178,2.383h86.119c1.271,3.335,4.769,6.196,9.216,6.91v64.58
			c0,1.43,1.271,2.382,3.177,2.382c1.907,0,3.179-0.953,3.179-2.382v-64.58C200.813,100.468,204.306,97.609,205.58,94.272z
			 M193.185,96.893c-3.493,0-6.356-2.143-6.356-5.004c0-2.621,2.863-4.767,6.356-4.767c3.497,0,6.674,2.146,6.674,4.767
			C199.539,94.75,196.681,96.893,193.185,96.893z"/>
		<path fill="#000" stroke="#FFFFFF" stroke-width="4" stroke-miterlimit="10" d="M282.168,120.723
			c-6.045,0-11.124,3.099-12.401,7.388h-25.104c-1.907,0-3.178,0.953-3.178,2.385v18.348c-5.722,0.952-9.853,4.766-9.853,9.292
			c0,5.242,5.724,9.769,13.03,9.769c6.992,0,12.712-4.289,12.712-9.769c0-4.527-4.132-8.341-9.848-9.292v-15.966h21.927
			c1.589,4.289,6.354,7.386,12.393,7.386c6.993,0,12.707-4.289,12.707-9.769C294.878,125.013,289.157,120.723,282.168,120.723z
			 M251.022,158.136c0,2.623-2.86,5.005-6.359,5.005c-3.809,0-6.67-2.145-6.67-5.005c0-2.62,2.861-4.766,6.67-4.766
			C248.162,153.132,251.022,155.276,251.022,158.136z M282.168,135.259c-3.813,0-6.675-2.144-6.675-5.004
			c0-2.62,2.861-4.766,6.675-4.766c3.494,0,6.354,2.146,6.354,4.766C288.522,133.116,285.662,135.259,282.168,135.259z"/>
		<path fill="#000" stroke="#FFFFFF" stroke-width="4" stroke-miterlimit="10" d="M241.171,34.699v18.825
			c0,1.43,1.268,2.384,3.18,2.384h24.468c1.269,4.289,6.357,7.387,12.393,7.387c6.991,0,13.029-4.29,13.029-9.771
			c0-5.243-5.718-9.533-13.029-9.533c-6.035,0-11.124,3.098-12.393,7.388h-21.29v-16.68c5.717-1.192,9.85-4.767,9.85-9.294
			c0-5.242-5.723-9.532-13.027-9.532c-6.992,0-12.717,4.29-12.717,9.532C231.634,29.931,235.767,33.506,241.171,34.699z
			 M281.53,48.519c3.493,0,6.672,2.146,6.672,4.768c0,2.859-2.856,5.003-6.672,5.003c-3.498,0-6.354-2.146-6.354-5.003
			C274.855,50.664,277.718,48.519,281.53,48.519z M244.351,20.4c3.495,0,6.672,2.145,6.672,4.766c0,2.86-2.86,5.003-6.672,5.003
			c-3.496,0-6.357-2.143-6.357-5.003C237.993,22.544,240.854,20.4,244.351,20.4z"/>
		<path fill="#000" stroke="#FFFFFF" stroke-width="4" stroke-miterlimit="10" d="M145.199,148.843v-18.348
			c0-1.431-1.272-2.385-3.178-2.385h-25.105c-1.273-4.289-6.357-7.388-12.394-7.388c-6.991,0-12.71,4.291-12.71,9.531
			c0,5.243,5.719,9.771,12.71,9.771c6.037,0,11.121-3.099,12.394-7.388h21.927v15.965c-5.72,0.954-9.852,4.767-9.852,9.294
			c0,5.242,5.721,9.771,12.711,9.771c6.99,0,13.029-4.29,13.029-9.771C154.733,153.609,150.6,149.795,145.199,148.843z
			 M104.204,135.259c-3.496,0-6.355-2.144-6.355-5.004c0-2.62,2.859-4.766,6.355-4.766c3.496,0,6.673,2.146,6.673,4.766
			C110.877,133.116,108.019,135.259,104.204,135.259z M142.021,162.903c-3.496,0-6.355-2.144-6.355-5.004
			c0-2.622,2.86-4.768,6.355-4.768c3.495,0,6.673,2.145,6.673,4.768C148.376,160.758,145.515,162.903,142.021,162.903z"/>
		<path fill="#000" stroke="#FFFFFF" stroke-width="4" stroke-miterlimit="10" d="M104.839,63.055
			c6.038,0,11.123-3.098,12.392-7.388h24.471c1.906,0,3.178-0.951,3.178-2.382V34.699c5.719-0.955,9.852-4.767,9.852-9.294
			c0-5.242-5.721-9.532-12.711-9.532c-6.991,0-13.03,4.29-13.03,9.532c0,4.527,4.132,8.339,9.853,9.294v16.442h-21.611
			c-1.269-4.289-6.357-7.387-12.392-7.387c-6.991,0-13.028,4.291-13.028,9.533C91.812,58.765,97.849,63.055,104.839,63.055z
			 M135.347,25.403c0-2.621,2.86-4.766,6.673-4.766c3.495,0,6.355,2.144,6.355,4.766c0,2.623-2.861,5.004-6.355,5.004
			C138.207,30.168,135.347,28.026,135.347,25.403z M104.839,48.519c3.493,0,6.356,2.146,6.356,4.768
			c0,2.622-2.863,5.003-6.356,5.003c-3.813,0-6.675-2.146-6.675-5.003C98.167,50.664,101.344,48.519,104.839,48.519z"/>
	</g>
</g>
</svg>
