<svg width="29" height="41" viewBox="0 0 29 41" fill="none" xmlns="http://www.w3.org/2000/svg">
<path d="M14.5003 0C13.9918 0.000507721 13.5043 0.202726 13.1448 0.562278C12.7852 0.921829 12.583 1.40934 12.5825 1.91782V2.66353C12.5825 2.91785 12.4814 3.16175 12.3016 3.34158C12.1218 3.52142 11.8779 3.62244 11.6236 3.62244H6.77563V6.81881H22.225V3.62244H17.377C17.1227 3.62244 16.8788 3.52142 16.699 3.34158C16.5191 3.16175 16.4181 2.91785 16.4181 2.66353V1.91782C16.4176 1.40934 16.2154 0.921829 15.8558 0.562278C15.4963 0.202726 15.0088 0.000507721 14.5003 0Z" fill="#333333"/>
<path d="M24.1434 7.7814C24.1434 8.03572 24.0424 8.27963 23.8626 8.45946C23.6828 8.63929 23.4388 8.74031 23.1845 8.74031H5.81739C5.56307 8.74031 5.31917 8.63929 5.13934 8.45946C4.95951 8.27963 4.85848 8.03572 4.85848 7.7814V6.07678H0V40.1609H29V6.07678H24.1415L24.1434 7.7814ZM5.43478 17.1468H13.978C14.2324 17.1468 14.4763 17.2478 14.6561 17.4276C14.8359 17.6075 14.9369 17.8514 14.9369 18.1057C14.9369 18.36 14.8359 18.6039 14.6561 18.7837C14.4763 18.9636 14.2324 19.0646 13.978 19.0646H5.43478C5.18047 19.0646 4.93656 18.9636 4.75673 18.7837C4.5769 18.6039 4.47587 18.36 4.47587 18.1057C4.47587 17.8514 4.5769 17.6075 4.75673 17.4276C4.93656 17.2478 5.18047 17.1468 5.43478 17.1468ZM23.5671 36.325H5.43478C5.18047 36.325 4.93656 36.2239 4.75673 36.0441C4.5769 35.8643 4.47587 35.6204 4.47587 35.3661C4.47587 35.1117 4.5769 34.8678 4.75673 34.688C4.93656 34.5082 5.18047 34.4071 5.43478 34.4071H23.5671C23.8215 34.4071 24.0654 34.5082 24.2452 34.688C24.425 34.8678 24.526 35.1117 24.526 35.3661C24.526 35.6204 24.425 35.8643 24.2452 36.0441C24.0654 36.2239 23.8215 36.325 23.5671 36.325ZM23.5671 30.5715H5.43478C5.18047 30.5715 4.93656 30.4705 4.75673 30.2906C4.5769 30.1108 4.47587 29.8669 4.47587 29.6126C4.47587 29.3583 4.5769 29.1144 4.75673 28.9345C4.93656 28.7547 5.18047 28.6537 5.43478 28.6537H23.5671C23.8215 28.6537 24.0654 28.7547 24.2452 28.9345C24.425 29.1144 24.526 29.3583 24.526 29.6126C24.526 29.8669 24.425 30.1108 24.2452 30.2906C24.0654 30.4705 23.8215 30.5715 23.5671 30.5715ZM24.526 23.8591C24.526 24.1135 24.425 24.3574 24.2452 24.5372C24.0654 24.717 23.8215 24.818 23.5671 24.818H5.43478C5.18047 24.818 4.93656 24.717 4.75673 24.5372C4.5769 24.3574 4.47587 24.1135 4.47587 23.8591C4.47587 23.6048 4.5769 23.3609 4.75673 23.1811C4.93656 23.0013 5.18047 22.9002 5.43478 22.9002H23.5671C23.6931 22.9002 23.8178 22.925 23.9342 22.9732C24.0505 23.0215 24.1563 23.0921 24.2453 23.1812C24.3343 23.2703 24.405 23.376 24.4531 23.4924C24.5013 23.6088 24.5261 23.7332 24.526 23.8591Z" fill="#333333"/>
</svg>
