<svg width="32" height="39" viewBox="0 0 32 39" fill="none" xmlns="http://www.w3.org/2000/svg">
<path fill-rule="evenodd" clip-rule="evenodd" d="M24.4612 0V0.50905V3.65966H27.6255H28.1346V4.15495V7.38811H30.9H31.409V7.8834V38.2476V38.7429H30.9H8.03395H7.53866V38.2476V35.0144H4.77329H4.27799V34.5191V31.3823H1.09986H0.59082V30.887V0.50905V0H1.09986H23.9659H24.4612ZM27.1302 4.65024H24.4612V30.887V31.3823H23.9659H5.28232V34.0238H27.1302V4.65024ZM20.8153 4.98044H20.32H4.73199H4.2367V5.97102H4.73199H20.32H20.8153V4.98044ZM20.8153 8.3787H20.32H4.73199H4.2367V9.36928H4.73199H20.32H20.8153V8.3787ZM30.4047 8.39243H28.1346V34.5191V35.0144H27.6255H8.54302V37.7523H30.4047V8.39243ZM20.8153 11.7907H20.32H4.73199H4.2367V12.795H4.73199H20.32H20.8153V11.7907ZM20.8153 15.1889H20.32H4.73199H4.2367V16.1933H4.73199H20.32H20.8153V15.1889ZM20.8153 18.5872H20.32H4.73199H4.2367V19.5916H4.73199H20.32H20.8153V18.5872ZM20.8153 21.9855H20.32H4.73199H4.2367V22.9898H4.73199H20.32H20.8153V21.9855ZM20.8153 25.3837H20.32H9.39603H8.88699V26.3881H9.39603H20.32H20.8153V25.3837Z" fill="#000"/>
</svg>
