<svg width="28" height="28" viewBox="0 0 28 28" fill="none" xmlns="http://www.w3.org/2000/svg">
<path d="M1 17C0.734784 17 0.48043 17.1054 0.292893 17.2929C0.105357 17.4804 0 17.7348 0 18C0 18.2652 0.105357 18.5196 0.292893 18.7071C0.48043 18.8946 0.734784 19 1 19H6V17H1Z" fill="black"/>
<path d="M26 0H12.87L6 6.86V17H17.2L13.95 13.75C13.7862 13.5587 13.7006 13.3126 13.7103 13.0609C13.72 12.8093 13.8243 12.5705 14.0024 12.3924C14.1805 12.2143 14.4193 12.11 14.6709 12.1003C14.9226 12.0906 15.1687 12.1762 15.36 12.34L21 18L15.32 23.68C15.1287 23.8438 14.8826 23.9294 14.6309 23.9197C14.3793 23.91 14.1405 23.8057 13.9624 23.6276C13.7843 23.4495 13.68 23.2107 13.6703 22.9591C13.6606 22.7074 13.7462 22.4613 13.91 22.27L17.23 19H6V26C6 26.5304 6.21071 27.0391 6.58579 27.4142C6.96086 27.7893 7.46957 28 8 28H26C26.5304 28 27.0391 27.7893 27.4142 27.4142C27.7893 27.0391 28 26.5304 28 26V2C28 1.46957 27.7893 0.960859 27.4142 0.585786C27.0391 0.210714 26.5304 0 26 0ZM14 8H8V7.68L13.69 2H14V8Z" fill="#000"/>
</svg>
