<svg width="34" height="39" viewBox="0 0 34 39" fill="none" xmlns="http://www.w3.org/2000/svg">
<path d="M1.08348 0H27.3551C27.9534 0 28.4385 0.485184 28.4385 1.08348V18.8705C28.4385 19.4688 27.9534 19.954 27.3551 19.954H24.3176C23.1998 19.954 22.1859 20.409 21.4535 21.1418C20.7186 21.8809 20.2616 22.8953 20.2616 24.01V30.0855C20.2616 31.2002 20.7186 32.2151 21.4535 32.95C22.1885 33.685 23.2029 34.1415 24.3176 34.1415H27.3551C27.9534 34.1415 28.4385 34.6267 28.4385 35.225V37.9165C28.4385 38.5148 27.9534 39 27.3551 39H1.08348C0.485185 39 0 38.5148 0 37.9165V1.08348C0 0.485184 0.485185 0 1.08348 0ZM23.9936 27.6836L25.9353 29.9299C26.2859 30.3358 26.9001 30.3798 27.3059 30.0292C27.3617 29.9801 27.4119 29.9263 27.4538 29.869L30.7657 25.377C31.083 24.944 30.9888 24.3355 30.5564 24.0181C30.1234 23.7008 29.5149 23.795 29.1975 24.2275L26.6099 27.7379L25.4635 26.4123C25.1124 26.0065 24.4982 25.9625 24.0929 26.313C23.687 26.6641 23.643 27.2783 23.9936 27.6836ZM24.6226 21.3926H30.0881C30.8895 21.3926 31.6204 21.7212 32.1522 22.2524C32.6829 22.7837 33.0109 23.5145 33.0109 24.3155V29.781C33.0109 30.5825 32.6824 31.3133 32.1511 31.8451C31.6199 32.3758 30.889 32.7039 30.0881 32.7039H24.6226C23.8211 32.7039 23.0903 32.3753 22.5585 31.844C22.0278 31.3128 21.6997 30.582 21.6997 29.781V24.3155C21.6997 23.514 22.0283 22.7832 22.5595 22.2514C23.0908 21.7207 23.8216 21.3926 24.6226 21.3926ZM4.17115 6.59349C3.69416 6.59349 3.30468 6.98297 3.30468 7.45996V9.78915C3.30468 10.2661 3.69416 10.6556 4.17115 10.6556H6.50034C6.97734 10.6556 7.36682 10.2661 7.36682 9.78915V7.45996C7.36682 6.98297 6.97734 6.59349 6.50034 6.59349H4.17115ZM4.17115 28.3444C3.69416 28.3444 3.30468 28.7339 3.30468 29.2108V31.54C3.30468 32.017 3.69416 32.4065 4.17115 32.4065H6.50034C6.97734 32.4065 7.36682 32.017 7.36682 31.54V29.2108C7.36682 28.7339 6.97734 28.3444 6.50034 28.3444H4.17115ZM4.17115 21.0942C3.69416 21.0942 3.30468 21.4837 3.30468 21.9607V24.2899C3.30468 24.7669 3.69416 25.1564 4.17115 25.1564H6.50034C6.97734 25.1564 7.36682 24.7669 7.36682 24.2899V21.9607C7.36682 21.4837 6.97734 21.0942 6.50034 21.0942H4.17115ZM4.17115 13.8436C3.69416 13.8436 3.30468 14.2331 3.30468 14.7101V17.0393C3.30468 17.5163 3.69416 17.9058 4.17115 17.9058H6.50034C6.97734 17.9058 7.36682 17.5163 7.36682 17.0393V14.7101C7.36682 14.2331 6.97734 13.8436 6.50034 13.8436H4.17115ZM9.85057 31.4592H16.659C17.2573 31.4592 17.7425 30.974 17.7425 30.3757C17.7425 29.7774 17.2573 29.2922 16.659 29.2922H9.85057C9.25228 29.2922 8.76709 29.7774 8.76709 30.3757C8.76709 30.974 9.25228 31.4592 9.85057 31.4592ZM9.85057 24.209H16.659C17.2573 24.209 17.7425 23.7239 17.7425 23.1256C17.7425 22.5273 17.2573 22.0421 16.659 22.0421H9.85057C9.25228 22.0421 8.76709 22.5273 8.76709 23.1256C8.76709 23.7239 9.25228 24.209 9.85057 24.209ZM9.85057 16.9584H24.2874C24.8856 16.9584 25.3708 16.4732 25.3708 15.8749C25.3708 15.2766 24.8856 14.7915 24.2874 14.7915H9.85057C9.25228 14.7915 8.76709 15.2766 8.76709 15.8749C8.76709 16.4732 9.25228 16.9584 9.85057 16.9584ZM9.85057 9.70829H24.2874C24.8856 9.70829 25.3708 9.22311 25.3708 8.62481C25.3708 8.02652 24.8856 7.54134 24.2874 7.54134H9.85057C9.25228 7.54134 8.76709 8.02652 8.76709 8.62481C8.76709 9.22311 9.25228 9.70829 9.85057 9.70829Z" fill="#000"/>
</svg>
