<svg width="32" height="40" viewBox="0 0 32 40" fill="none" xmlns="http://www.w3.org/2000/svg">
<path d="M11.3231 8.28842V0.903809C8.36923 3.85766 3.2 8.90381 0 12.2269H7.38462C9.6 12.2269 11.3231 10.3807 11.3231 8.28842Z" fill="#000"/>
<path d="M32 4.84227C32 2.62689 30.2769 0.903809 28.0615 0.903809H12.5538V8.28842C12.5538 11.1192 10.2154 13.4577 7.38462 13.4577H0V39.9192H32V4.84227ZM25.4769 23.0577C25.1077 23.0577 24.8615 22.9346 24.4923 22.8115L21.1692 26.1346C21.2923 26.3807 21.2923 26.75 21.2923 26.9961C21.2923 28.35 20.1846 29.5807 18.7077 29.5807C17.3538 29.5807 16.1231 28.473 16.1231 26.9961C16.1231 26.75 16.2462 26.3807 16.2462 26.1346L13.7846 23.673C13.4154 23.7961 13.0462 23.9192 12.6769 23.9192C12.3077 23.9192 11.8154 23.7961 11.4462 23.55L7.50769 27.4884C7.63077 27.7346 7.63077 27.9807 7.63077 28.2269C7.63077 29.5807 6.52308 30.8115 5.04615 30.8115C3.56923 30.8115 2.46154 29.7038 2.46154 28.2269C2.46154 26.75 3.56923 25.6423 5.04615 25.6423C5.53846 25.6423 5.90769 25.7653 6.27692 26.0115L10.0923 22.073C9.96923 21.8269 9.96923 21.4577 9.96923 21.2115C9.96923 19.8577 11.0769 18.6269 12.5538 18.6269C14.0308 18.6269 15.1385 19.7346 15.1385 21.2115C15.1385 21.5807 15.0154 21.95 14.8923 22.1961L17.2308 24.5346C17.6 24.2884 17.9692 24.1653 18.4615 24.1653C18.9538 24.1653 19.3231 24.2884 19.6923 24.4115L22.8923 21.2115C22.7692 20.8423 22.6462 20.473 22.6462 20.1038C22.6462 18.75 23.7538 17.5192 25.2308 17.5192C26.7077 17.5192 27.8154 18.6269 27.8154 20.1038C28.0615 21.8269 26.8308 23.0577 25.4769 23.0577Z" fill="#000"/>
</svg>
