<svg width="30" height="38" viewBox="0 0 30 38" fill="none" xmlns="http://www.w3.org/2000/svg">
<path d="M30 7.6C30 3.4808 23.1319 0 15 0C6.86812 0 0 3.4808 0 7.6V11.4C0 15.5192 6.86812 19 15 19C23.1319 19 30 15.5192 30 11.4V7.6ZM15 32.3C6.86812 32.3 0 28.8192 0 24.7V30.4C0 34.5192 6.86812 38 15 38C23.1319 38 30 34.5192 30 30.4V24.7C30 28.8192 23.1319 32.3 15 32.3Z" fill="#000"/>
<path d="M30 15.2C30 19.3192 23.1319 22.8 15 22.8C6.86812 22.8 0 19.3192 0 15.2V20.9C0 25.0192 6.86812 28.5 15 28.5C23.1319 28.5 30 25.0192 30 20.9V15.2Z" fill="#000"/>
</svg>
