<svg width="41" height="40" viewBox="0 0 41 40" fill="none" xmlns="http://www.w3.org/2000/svg">
<path d="M26.6031 25.6571C26.3161 25.7505 26.0734 25.9462 25.9212 26.2069L24.1471 29.2504C23.9954 29.511 23.9446 29.8181 24.0043 30.1137C24.1628 30.9642 24.5341 31.7609 25.0834 32.4293V32.8265C24.5811 33.4088 24.2269 34.1039 24.0511 34.8525H0.821289C0.703273 34.8526 0.586623 34.8272 0.479299 34.7782C0.371974 34.7291 0.276499 34.6574 0.199388 34.5681C0.122277 34.4787 0.0653435 34.3738 0.0324725 34.2605C-0.000398562 34.1471 -0.00843389 34.028 0.0089145 33.9113C0.438832 30.5121 1.93233 27.3359 4.27593 24.8365C7.05031 22.0777 11.0129 20.7336 16.0644 20.8222C21.417 20.732 25.515 22.2541 28.3066 25.3682C27.7279 25.3825 27.1542 25.4797 26.6031 25.6571ZM40.1821 34.658C40.2947 34.8566 40.3881 35.0654 40.461 35.2817L39.2056 37.4316C38.9844 37.4767 38.7592 37.4987 38.5335 37.4972C38.3414 37.354 38.1117 37.2699 37.8725 37.2553C37.6333 37.2407 37.395 37.2963 37.1869 37.4152L35.7263 38.2522C35.5184 38.3705 35.3495 38.5468 35.2402 38.7595C35.1309 38.9723 35.0859 39.2123 35.1109 39.4502C34.999 39.6487 34.864 39.8332 34.7088 40L32.2232 39.9918C32.0741 39.8189 31.9419 39.632 31.8285 39.4338C31.8567 39.1963 31.815 38.9557 31.7087 38.7415C31.6023 38.5273 31.4358 38.3487 31.2295 38.2275L29.7689 37.3823C29.5626 37.2615 29.3255 37.2033 29.0867 37.215C28.8478 37.2266 28.6175 37.3076 28.424 37.448C28.1977 37.4498 27.9719 37.4278 27.7503 37.3823L26.5112 35.2242C26.5864 35.0075 26.6826 34.7986 26.7984 34.6006C27.0185 34.5067 27.206 34.35 27.3374 34.15C27.4687 33.95 27.5382 33.7157 27.5369 33.4764L27.5451 31.7942C27.5489 31.5544 27.4815 31.3189 27.3516 31.1173C27.2216 30.9158 27.0348 30.7573 26.8148 30.6618C26.7023 30.4661 26.6089 30.26 26.5358 30.0464L27.7913 27.8964C28.0121 27.8472 28.238 27.8251 28.4642 27.8308C28.6563 27.9741 28.886 28.0582 29.1252 28.0727C29.3644 28.0873 29.6027 28.0317 29.8107 27.9129L31.2788 27.0759C31.4847 26.956 31.6516 26.7791 31.7593 26.5665C31.8671 26.354 31.9111 26.1148 31.886 25.8778C31.9998 25.678 32.1346 25.491 32.2881 25.3198L34.7744 25.3362C34.9254 25.5046 35.0574 25.689 35.1683 25.886C35.1402 26.1235 35.1818 26.3641 35.2882 26.5783C35.3946 26.7926 35.5611 26.9712 35.7673 27.0923L37.228 27.9457C37.4352 28.0656 37.6728 28.1224 37.9118 28.1093C38.1509 28.0962 38.3809 28.0137 38.5737 27.8718C38.8004 27.8697 39.0266 27.8945 39.2474 27.9457L40.4857 30.1038C40.4124 30.3187 40.3161 30.525 40.1985 30.7192C39.979 30.814 39.7921 30.971 39.6609 31.1707C39.5296 31.3705 39.4598 31.6044 39.4599 31.8434L39.4526 33.5338C39.4487 33.7725 39.516 34.0069 39.646 34.2071C39.7759 34.4073 39.9625 34.5643 40.1821 34.658ZM34.6103 30.7521C34.2329 30.5323 33.7988 30.4294 33.3629 30.4563C32.9271 30.4832 32.5089 30.6388 32.1615 30.9033C31.814 31.1679 31.5527 31.5295 31.4108 31.9425C31.2688 32.3555 31.2525 32.8014 31.364 33.2236C31.4754 33.6459 31.7095 34.0256 32.0368 34.3149C32.364 34.6041 32.7696 34.7897 33.2024 34.8484C33.6352 34.9071 34.0756 34.8361 34.468 34.6445C34.8605 34.4529 35.1873 34.1492 35.4071 33.7718C35.7017 33.2651 35.7831 32.6621 35.6334 32.0955C35.4836 31.5288 35.1151 31.0447 34.6087 30.7496L34.6103 30.7521ZM16.0447 17.4997C17.7752 17.4995 19.4668 16.9862 20.9056 16.0247C22.3444 15.0631 23.4658 13.6965 24.1279 12.0977C24.79 10.4989 24.9632 8.73959 24.6255 7.04234C24.2878 5.34509 23.4544 3.78609 22.2307 2.56248C21.0069 1.33888 19.4479 0.505618 17.7506 0.16807C16.0533 -0.169479 14.294 0.00384573 12.6953 0.666125C11.0965 1.3284 9.72999 2.44989 8.76858 3.88878C7.80717 5.32767 7.29402 7.01933 7.29402 8.74985C7.29663 11.0698 8.21944 13.294 9.85996 14.9343C11.5005 16.5747 13.7247 17.4973 16.0447 17.4997Z" fill="#000"/>
</svg>
