<svg width="16" height="15" viewBox="0 0 16 15" fill="none" xmlns="http://www.w3.org/2000/svg">
<path d="M13.5173 1.03445H12.6621C12.5984 0.742409 12.4291 0.479944 12.1828 0.291449C11.9365 0.102954 11.6283 0 11.3104 0C10.9924 0 10.6842 0.102954 10.4379 0.291449C10.1916 0.479944 10.0223 0.742409 9.95863 1.03445H8.24829C8.18463 0.742409 8.01532 0.479944 7.76902 0.291449C7.52271 0.102954 7.21452 0 6.89656 0C6.57861 0 6.27042 0.102954 6.02411 0.291449C5.77781 0.479944 5.6085 0.742409 5.54484 1.03445H3.8345C3.77083 0.742409 3.60153 0.479944 3.35522 0.291449C3.10892 0.102954 2.80072 0 2.48277 0C2.16482 0 1.85663 0.102954 1.61032 0.291449C1.36401 0.479944 1.19471 0.742409 1.13105 1.03445H0.275875C0.239549 1.03411 0.203514 1.04057 0.169882 1.05345C0.136251 1.06633 0.105696 1.08536 0.0800079 1.10945C0.0543196 1.13353 0.0340133 1.16217 0.0202777 1.1937C0.00654198 1.22523 -0.000347136 1.25902 1.34579e-05 1.29307V13.1896C-0.000344885 13.2237 0.00654579 13.2575 0.0202823 13.289C0.0340187 13.3205 0.054325 13.3492 0.0800129 13.3732C0.105701 13.3973 0.136254 13.4164 0.169885 13.4292C0.203516 13.4421 0.239549 13.4486 0.275875 13.4482H7.44829C7.52145 13.4482 7.59162 13.421 7.64335 13.3725C7.69509 13.324 7.72415 13.2582 7.72415 13.1896C7.72415 13.121 7.69509 13.0553 7.64335 13.0067C7.59162 12.9582 7.52145 12.931 7.44829 12.931H0.551738V3.62066H13.2414V6.46549C13.2414 6.53408 13.2705 6.59986 13.3222 6.64836C13.3739 6.69686 13.4441 6.72411 13.5173 6.72411C13.5904 6.72411 13.6606 6.69686 13.7123 6.64836C13.7641 6.59986 13.7931 6.53408 13.7931 6.46549V1.29307C13.7935 1.25902 13.7866 1.22523 13.7729 1.1937C13.7591 1.16217 13.7388 1.13353 13.7131 1.10945C13.6874 1.08536 13.6569 1.06633 13.6232 1.05345C13.5896 1.04057 13.5536 1.03411 13.5173 1.03445ZM2.48277 2.58618C2.1648 2.58621 1.85659 2.48327 1.61027 2.29476C1.36395 2.10625 1.19466 1.84376 1.13105 1.55169H1.70484C1.76143 1.70281 1.86666 1.83373 2.006 1.92638C2.14535 2.01903 2.31194 2.06884 2.48277 2.06893C2.55593 2.06893 2.6261 2.09618 2.67784 2.14468C2.72957 2.19318 2.75863 2.25896 2.75863 2.32755C2.75863 2.39615 2.72957 2.46193 2.67784 2.51043C2.6261 2.55893 2.55593 2.58618 2.48277 2.58618ZM1.70484 1.03445C1.76133 0.883272 1.86653 0.752285 2.0059 0.659612C2.14526 0.566938 2.31191 0.517158 2.48277 0.517158C2.65364 0.517158 2.82028 0.566938 2.95965 0.659612C3.09901 0.752285 3.20422 0.883272 3.2607 1.03445H1.70484ZM6.89656 2.58618C6.5786 2.58621 6.27038 2.48327 6.02406 2.29476C5.77775 2.10625 5.60846 1.84376 5.54484 1.55169H6.11863C6.17522 1.70281 6.28045 1.83373 6.4198 1.92638C6.55914 2.01903 6.72573 2.06884 6.89656 2.06893C6.96973 2.06893 7.03989 2.09618 7.09163 2.14468C7.14336 2.19318 7.17243 2.25896 7.17243 2.32755C7.17243 2.39615 7.14336 2.46193 7.09163 2.51043C7.03989 2.55893 6.96973 2.58618 6.89656 2.58618ZM6.11863 1.03445C6.17512 0.883272 6.28032 0.752285 6.41969 0.659612C6.55906 0.566938 6.7257 0.517158 6.89656 0.517158C7.06743 0.517158 7.23407 0.566938 7.37344 0.659612C7.51281 0.752285 7.61801 0.883272 7.6745 1.03445H6.11863ZM11.3104 2.58618C10.9924 2.58621 10.6842 2.48327 10.4379 2.29476C10.1915 2.10625 10.0222 1.84376 9.95863 1.55169H10.5324C10.589 1.70281 10.6942 1.83373 10.8336 1.92638C10.9729 2.01903 11.1395 2.06884 11.3104 2.06893C11.3835 2.06893 11.4537 2.09618 11.5054 2.14468C11.5572 2.19318 11.5862 2.25896 11.5862 2.32755C11.5862 2.39615 11.5572 2.46193 11.5054 2.51043C11.4537 2.55893 11.3835 2.58618 11.3104 2.58618ZM10.5324 1.03445C10.5889 0.883272 10.6941 0.752285 10.8335 0.659612C10.9728 0.566938 11.1395 0.517158 11.3104 0.517158C11.4812 0.517158 11.6479 0.566938 11.7872 0.659612C11.9266 0.752285 12.0318 0.883272 12.0883 1.03445H10.5324Z" fill="black"/>
<path d="M3.58631 6.72399H1.93114C1.8949 6.72401 1.85902 6.71734 1.82554 6.70435C1.79206 6.69136 1.76164 6.67231 1.73602 6.64829C1.7104 6.62427 1.69009 6.59575 1.67623 6.56437C1.66237 6.53298 1.65525 6.49934 1.65527 6.46537V4.91365C1.65525 4.87968 1.66237 4.84604 1.67623 4.81466C1.69009 4.78327 1.7104 4.75475 1.73602 4.73073C1.76164 4.70671 1.79206 4.68767 1.82554 4.67468C1.85902 4.66169 1.8949 4.65501 1.93114 4.65503H3.58631C3.62254 4.65501 3.65842 4.66169 3.6919 4.67468C3.72538 4.68767 3.7558 4.70671 3.78142 4.73073C3.80704 4.75475 3.82736 4.78327 3.84121 4.81466C3.85507 4.84604 3.86219 4.87968 3.86217 4.91365V6.46537C3.86219 6.49934 3.85507 6.53298 3.84121 6.56437C3.82736 6.59575 3.80704 6.62427 3.78142 6.64829C3.7558 6.67231 3.72538 6.69136 3.6919 6.70435C3.65842 6.71734 3.62254 6.72401 3.58631 6.72399ZM2.207 6.20675H3.31045V5.17227H2.207V6.20675Z" fill="black"/>
<path d="M6.34485 6.72399H4.68968C4.65345 6.72401 4.61757 6.71734 4.58409 6.70435C4.55061 6.69136 4.52019 6.67231 4.49457 6.64829C4.46895 6.62427 4.44863 6.59575 4.43477 6.56437C4.42092 6.53298 4.4138 6.49934 4.41382 6.46537V4.91365C4.4138 4.87968 4.42092 4.84604 4.43477 4.81466C4.44863 4.78327 4.46895 4.75475 4.49457 4.73073C4.52019 4.70671 4.55061 4.68767 4.58409 4.67468C4.61757 4.66169 4.65345 4.65501 4.68968 4.65503H6.34485C6.38109 4.65501 6.41697 4.66169 6.45045 4.67468C6.48392 4.68767 6.51434 4.70671 6.53996 4.73073C6.56558 4.75475 6.5859 4.78327 6.59976 4.81466C6.61361 4.84604 6.62074 4.87968 6.62071 4.91365V6.46537C6.62074 6.49934 6.61361 6.53298 6.59976 6.56437C6.5859 6.59575 6.56558 6.62427 6.53996 6.64829C6.51434 6.67231 6.48392 6.69136 6.45045 6.70435C6.41697 6.71734 6.38109 6.72401 6.34485 6.72399ZM4.96554 6.20675H6.06899V5.17227H4.96554V6.20675Z" fill="black"/>
<path d="M3.58631 9.31018H1.93114C1.8949 9.3102 1.85902 9.30352 1.82554 9.29053C1.79206 9.27754 1.76164 9.25849 1.73602 9.23447C1.7104 9.21045 1.69009 9.18194 1.67623 9.15055C1.66237 9.11916 1.65525 9.08552 1.65527 9.05156V7.49983C1.65525 7.46586 1.66237 7.43222 1.67623 7.40084C1.69009 7.36945 1.7104 7.34093 1.73602 7.31692C1.76164 7.2929 1.79206 7.27385 1.82554 7.26086C1.85902 7.24787 1.8949 7.24119 1.93114 7.24121H3.58631C3.62254 7.24119 3.65842 7.24787 3.6919 7.26086C3.72538 7.27385 3.7558 7.2929 3.78142 7.31692C3.80704 7.34093 3.82736 7.36945 3.84121 7.40084C3.85507 7.43222 3.86219 7.46586 3.86217 7.49983V9.05156C3.86219 9.08552 3.85507 9.11916 3.84121 9.15055C3.82736 9.18194 3.80704 9.21045 3.78142 9.23447C3.7558 9.25849 3.72538 9.27754 3.6919 9.29053C3.65842 9.30352 3.62254 9.3102 3.58631 9.31018ZM2.207 8.79294H3.31045V7.75845H2.207V8.79294Z" fill="black"/>
<path d="M6.34485 9.31018H4.68968C4.65345 9.3102 4.61757 9.30352 4.58409 9.29053C4.55061 9.27754 4.52019 9.25849 4.49457 9.23447C4.46895 9.21045 4.44863 9.18194 4.43477 9.15055C4.42092 9.11916 4.4138 9.08552 4.41382 9.05156V7.49983C4.4138 7.46586 4.42092 7.43222 4.43477 7.40084C4.44863 7.36945 4.46895 7.34093 4.49457 7.31692C4.52019 7.2929 4.55061 7.27385 4.58409 7.26086C4.61757 7.24787 4.65345 7.24119 4.68968 7.24121H6.34485C6.38109 7.24119 6.41697 7.24787 6.45045 7.26086C6.48392 7.27385 6.51434 7.2929 6.53996 7.31692C6.56558 7.34093 6.5859 7.36945 6.59976 7.40084C6.61361 7.43222 6.62074 7.46586 6.62071 7.49983V9.05156C6.62074 9.08552 6.61361 9.11916 6.59976 9.15055C6.5859 9.18194 6.56558 9.21045 6.53996 9.23447C6.51434 9.25849 6.48392 9.27754 6.45045 9.29053C6.41697 9.30352 6.38109 9.3102 6.34485 9.31018ZM4.96554 8.79294H6.06899V7.75845H4.96554V8.79294Z" fill="black"/>
<path d="M7.44823 9.31018C7.41199 9.3102 7.37611 9.30352 7.34263 9.29053C7.30915 9.27754 7.27873 9.25849 7.25311 9.23447C7.22749 9.21045 7.20718 9.18194 7.19332 9.15055C7.17946 9.11916 7.17234 9.08552 7.17236 9.05156V7.49983C7.17234 7.46586 7.17946 7.43222 7.19332 7.40084C7.20718 7.36945 7.22749 7.34093 7.25311 7.31692C7.27873 7.2929 7.30915 7.27385 7.34263 7.26086C7.37611 7.24787 7.41199 7.24119 7.44823 7.24121H9.1034C9.17656 7.24121 9.24673 7.26846 9.29846 7.31696C9.3502 7.36546 9.37926 7.43124 9.37926 7.49983C9.37926 7.56842 9.3502 7.6342 9.29846 7.6827C9.24673 7.73121 9.17656 7.75845 9.1034 7.75845H7.72409V9.05156C7.72411 9.08552 7.71699 9.11916 7.70313 9.15055C7.68928 9.18194 7.66896 9.21045 7.64334 9.23447C7.61772 9.25849 7.5873 9.27754 7.55382 9.29053C7.52034 9.30352 7.48446 9.3102 7.44823 9.31018Z" fill="black"/>
<path d="M3.58631 11.8966H1.93114C1.8949 11.8966 1.85902 11.8899 1.82554 11.877C1.79206 11.864 1.76164 11.8449 1.73602 11.8209C1.7104 11.7969 1.69009 11.7684 1.67623 11.737C1.66237 11.7056 1.65525 11.6719 1.65527 11.638V10.0863C1.65525 10.0523 1.66237 10.0187 1.67623 9.98726C1.69009 9.95588 1.7104 9.92736 1.73602 9.90334C1.76164 9.87932 1.79206 9.86027 1.82554 9.84728C1.85902 9.83429 1.8949 9.82762 1.93114 9.82764H3.58631C3.62254 9.82762 3.65842 9.83429 3.6919 9.84728C3.72538 9.86027 3.7558 9.87932 3.78142 9.90334C3.80704 9.92736 3.82736 9.95588 3.84121 9.98726C3.85507 10.0187 3.86219 10.0523 3.86217 10.0863V11.638C3.86219 11.6719 3.85507 11.7056 3.84121 11.737C3.82736 11.7684 3.80704 11.7969 3.78142 11.8209C3.7558 11.8449 3.72538 11.864 3.6919 11.877C3.65842 11.8899 3.62254 11.8966 3.58631 11.8966ZM2.207 11.3794H3.31045V10.3449H2.207V11.3794Z" fill="black"/>
<path d="M6.34485 11.8966H4.68968C4.65345 11.8966 4.61757 11.8899 4.58409 11.877C4.55061 11.864 4.52019 11.8449 4.49457 11.8209C4.46895 11.7969 4.44863 11.7684 4.43477 11.737C4.42092 11.7056 4.4138 11.6719 4.41382 11.638V10.0863C4.4138 10.0523 4.42092 10.0187 4.43477 9.98726C4.44863 9.95588 4.46895 9.92736 4.49457 9.90334C4.52019 9.87932 4.55061 9.86027 4.58409 9.84728C4.61757 9.83429 4.65345 9.82762 4.68968 9.82764H6.34485C6.38109 9.82762 6.41697 9.83429 6.45045 9.84728C6.48392 9.86027 6.51434 9.87932 6.53996 9.90334C6.56558 9.92736 6.5859 9.95588 6.59976 9.98726C6.61361 10.0187 6.62074 10.0523 6.62071 10.0863V11.638C6.62074 11.6719 6.61361 11.7056 6.59976 11.737C6.5859 11.7684 6.56558 11.7969 6.53996 11.8209C6.51434 11.8449 6.48392 11.864 6.45045 11.877C6.41697 11.8899 6.38109 11.8966 6.34485 11.8966ZM4.96554 11.3794H6.06899V10.3449H4.96554V11.3794Z" fill="black"/>
<path d="M9.1034 6.72399H7.44823C7.41199 6.72401 7.37611 6.71734 7.34263 6.70435C7.30915 6.69136 7.27873 6.67231 7.25311 6.64829C7.22749 6.62427 7.20718 6.59575 7.19332 6.56437C7.17946 6.53298 7.17234 6.49934 7.17236 6.46537V4.91365C7.17234 4.87968 7.17946 4.84604 7.19332 4.81466C7.20718 4.78327 7.22749 4.75475 7.25311 4.73073C7.27873 4.70671 7.30915 4.68767 7.34263 4.67468C7.37611 4.66169 7.41199 4.65501 7.44823 4.65503H9.1034C9.13963 4.65501 9.17551 4.66169 9.20899 4.67468C9.24247 4.68767 9.27289 4.70671 9.29851 4.73073C9.32413 4.75475 9.34445 4.78327 9.3583 4.81466C9.37216 4.84604 9.37928 4.87968 9.37926 4.91365V6.46537C9.37928 6.49934 9.37216 6.53298 9.3583 6.56437C9.34445 6.59575 9.32413 6.62427 9.29851 6.64829C9.27289 6.67231 9.24247 6.69136 9.20899 6.70435C9.17551 6.71734 9.13963 6.72401 9.1034 6.72399ZM7.72409 6.20675H8.82754V5.17227H7.72409V6.20675Z" fill="black"/>
<path d="M11.8619 6.72399H10.2068C10.1705 6.72401 10.1347 6.71734 10.1012 6.70435C10.0677 6.69136 10.0373 6.67231 10.0117 6.64829C9.98604 6.62427 9.96572 6.59575 9.95186 6.56437C9.93801 6.53298 9.93089 6.49934 9.93091 6.46537V4.91365C9.93089 4.87968 9.93801 4.84604 9.95186 4.81466C9.96572 4.78327 9.98604 4.75475 10.0117 4.73073C10.0373 4.70671 10.0677 4.68767 10.1012 4.67468C10.1347 4.66169 10.1705 4.65501 10.2068 4.65503H11.8619C11.8982 4.65501 11.9341 4.66169 11.9675 4.67468C12.001 4.68767 12.0314 4.70671 12.0571 4.73073C12.0827 4.75475 12.103 4.78327 12.1168 4.81466C12.1307 4.84604 12.1378 4.87968 12.1378 4.91365V6.46537C12.1378 6.49934 12.1307 6.53298 12.1168 6.56437C12.103 6.59575 12.0827 6.62427 12.0571 6.64829C12.0314 6.67231 12.001 6.69136 11.9675 6.70435C11.9341 6.71734 11.8982 6.72401 11.8619 6.72399ZM10.4826 6.20675H11.5861V5.17227H10.4826V6.20675Z" fill="black"/>
<path d="M11.8621 14.9998C12.6805 14.9998 13.4805 14.7723 14.161 14.3461C14.8414 13.9198 15.3718 13.3139 15.685 12.6051C15.9982 11.8962 16.0801 11.1162 15.9205 10.3637C15.7608 9.61119 15.3667 8.91997 14.788 8.37744C14.2093 7.8349 13.472 7.46544 12.6693 7.31575C11.8666 7.16607 11.0346 7.24289 10.2785 7.53651C9.52243 7.83012 8.87617 8.32734 8.42149 8.96529C7.96681 9.60324 7.72412 10.3533 7.72412 11.1205C7.72452 12.1493 8.16061 13.1358 8.93653 13.8632C9.71246 14.5906 10.7647 14.9995 11.8621 14.9998ZM15.4372 10.8619C15.4427 10.9447 15.4483 11.0326 15.4483 11.1205C15.4483 11.2085 15.4427 11.2964 15.4372 11.3791H15.1724C15.0992 11.3791 15.0291 11.3519 14.9773 11.3034C14.9256 11.2549 14.8965 11.1891 14.8965 11.1205C14.8965 11.0519 14.9256 10.9862 14.9773 10.9376C15.0291 10.8891 15.0992 10.8619 15.1724 10.8619H15.4372ZM14.5931 9.34638L14.8193 9.22222C14.9232 9.36274 15.0137 9.5116 15.0896 9.66705L14.8689 9.79119C14.8053 9.82606 14.7294 9.83584 14.6581 9.81839C14.5867 9.80094 14.5257 9.75768 14.4883 9.69808C14.4703 9.66858 14.4588 9.63604 14.4543 9.60233C14.4499 9.56863 14.4526 9.53443 14.4624 9.50173C14.4721 9.46902 14.4887 9.43845 14.5111 9.41178C14.5336 9.38512 14.5614 9.36289 14.5931 9.34638ZM14.4883 12.5429C14.5257 12.4833 14.5867 12.4401 14.6581 12.4226C14.7294 12.4052 14.8053 12.415 14.8689 12.4498L15.0896 12.574C15.0137 12.7294 14.9232 12.8783 14.8193 13.0188L14.5931 12.8947C14.5614 12.8782 14.5336 12.8559 14.5111 12.8293C14.4887 12.8026 14.4721 12.772 14.4624 12.7393C14.4526 12.7066 14.4499 12.6724 14.4543 12.6387C14.4588 12.605 14.4703 12.5724 14.4883 12.5429ZM13.28 8.30156L13.4124 8.09466C13.5782 8.16589 13.737 8.25071 13.8869 8.34814L13.7545 8.5602C13.7369 8.58989 13.7131 8.616 13.6847 8.63703C13.6563 8.65807 13.6236 8.6736 13.5888 8.68274C13.5539 8.69188 13.5174 8.69444 13.4814 8.69028C13.4455 8.68611 13.4108 8.67531 13.3793 8.65848C13.3157 8.62342 13.2696 8.56617 13.251 8.49926C13.2323 8.43236 13.2428 8.36126 13.28 8.30156ZM13.3793 13.5826C13.4108 13.5658 13.4455 13.5549 13.4814 13.5508C13.5174 13.5466 13.5539 13.5492 13.5888 13.5583C13.6236 13.5675 13.6563 13.583 13.6847 13.604C13.7131 13.6251 13.7369 13.6512 13.7545 13.6809L13.8869 13.8929C13.737 13.9904 13.5782 14.0752 13.4124 14.1464L13.28 13.9395C13.2428 13.8798 13.2323 13.8087 13.251 13.7418C13.2696 13.6749 13.3157 13.6176 13.3793 13.5826ZM11.5862 7.7688C11.6745 7.76365 11.7683 7.75845 11.8621 7.75845C11.9558 7.75845 12.0496 7.76363 12.1379 7.7688V8.01707C12.1379 8.08566 12.1088 8.15145 12.0571 8.19995C12.0054 8.24845 11.9352 8.2757 11.8621 8.2757C11.7889 8.2757 11.7187 8.24845 11.667 8.19995C11.6153 8.15145 11.5862 8.08566 11.5862 8.01707V7.7688ZM11.5862 9.5688C11.5862 9.50021 11.6153 9.43443 11.667 9.38593C11.7187 9.33742 11.7889 9.31018 11.8621 9.31018C11.9352 9.31018 12.0054 9.33742 12.0571 9.38593C12.1088 9.43443 12.1379 9.50021 12.1379 9.5688V11.0119L13.1586 11.974C13.1848 11.9973 13.2056 12.0254 13.2198 12.0565C13.234 12.0876 13.2414 12.1211 13.2414 12.155C13.2414 12.1889 13.234 12.2224 13.2198 12.2535C13.2056 12.2846 13.1848 12.3127 13.1586 12.336C13.1337 12.3606 13.1037 12.3801 13.0705 12.3934C13.0374 12.4068 13.0016 12.4136 12.9655 12.4136C12.9294 12.4136 12.8936 12.4068 12.8604 12.3934C12.8273 12.3801 12.7973 12.3606 12.7724 12.336L11.6689 11.3016C11.6424 11.2785 11.6213 11.2505 11.6071 11.2193C11.5928 11.1881 11.5857 11.1544 11.5862 11.1205V9.5688ZM11.5862 14.224C11.5862 14.1554 11.6153 14.0896 11.667 14.0411C11.7187 13.9926 11.7889 13.9653 11.8621 13.9653C11.9352 13.9653 12.0054 13.9926 12.0571 14.0411C12.1088 14.0896 12.1379 14.1554 12.1379 14.224V14.4722C12.0496 14.4774 11.9558 14.4826 11.8621 14.4826C11.7683 14.4826 11.6745 14.4774 11.5862 14.4722V14.224ZM10.3117 8.09466L10.4441 8.30156C10.4813 8.36126 10.4918 8.43235 10.4731 8.49925C10.4545 8.56615 10.4084 8.6234 10.3448 8.65845C10.3133 8.67528 10.2786 8.68609 10.2427 8.69025C10.2067 8.69442 10.1702 8.69186 10.1353 8.68272C10.1005 8.67358 10.0678 8.65804 10.0394 8.63701C10.011 8.61597 9.98725 8.58986 9.96964 8.56018L9.83722 8.34811C9.98712 8.25069 10.1459 8.16588 10.3117 8.09466ZM9.96964 13.6809C9.98724 13.6512 10.011 13.6251 10.0394 13.604C10.0678 13.583 10.1005 13.5675 10.1353 13.5583C10.1702 13.5492 10.2067 13.5466 10.2427 13.5508C10.2786 13.5549 10.3133 13.5658 10.3448 13.5826C10.4084 13.6176 10.4545 13.6749 10.4731 13.7418C10.4918 13.8087 10.4813 13.8798 10.4441 13.9395L10.3117 14.1464C10.1459 14.0752 9.98712 13.9904 9.83722 13.8929L9.96964 13.6809ZM8.90481 9.22225L9.13102 9.34641C9.16268 9.36292 9.19053 9.38515 9.21297 9.41181C9.23541 9.43848 9.25198 9.46905 9.26173 9.50176C9.27148 9.53447 9.27421 9.56867 9.26977 9.60238C9.26532 9.63609 9.25379 9.66863 9.23584 9.69813C9.19845 9.75773 9.13738 9.80099 9.06602 9.81844C8.99466 9.8359 8.91883 9.82611 8.85515 9.79124L8.63447 9.6671C8.71043 9.51164 8.80089 9.36278 8.90481 9.22225ZM8.28688 11.3791C8.28136 11.2964 8.27585 11.2085 8.27585 11.1205C8.27585 11.0326 8.28136 10.9447 8.28688 10.8619H8.55171C8.62487 10.8619 8.69504 10.8891 8.74677 10.9376C8.79851 10.9862 8.82757 11.0519 8.82757 11.1205C8.82757 11.1891 8.79851 11.2549 8.74677 11.3034C8.69504 11.3519 8.62487 11.3791 8.55171 11.3791H8.28688ZM8.63447 12.574L8.85515 12.4498C8.91883 12.415 8.99466 12.4052 9.06602 12.4226C9.13738 12.4401 9.19845 12.4833 9.23584 12.5429C9.25379 12.5724 9.26532 12.605 9.26976 12.6387C9.27421 12.6724 9.27147 12.7066 9.26172 12.7393C9.25198 12.772 9.2354 12.8026 9.21297 12.8293C9.19053 12.8559 9.16268 12.8782 9.13102 12.8947L8.90481 13.0188C8.80089 12.8783 8.71043 12.7294 8.63447 12.574Z" fill="black"/>
</svg>
