<svg width="40" height="40" viewBox="0 0 40 40" fill="none" xmlns="http://www.w3.org/2000/svg">
<mask id="mask0_2628_32174" style="mask-type:luminance" maskUnits="userSpaceOnUse" x="0" y="0" width="40" height="40">
<path d="M31.4174 12.0539C32.5651 13.6979 33.3418 15.5718 33.6935 17.5457H38V22.4543H33.6935C33.3418 24.4282 32.5651 26.3021 31.4174 27.9461L34.4639 30.9926L30.9926 34.4639L27.9461 31.4174C26.3021 32.5651 24.4282 33.3418 22.4543 33.6935V38H17.5457V33.6935C15.5718 33.3418 13.6979 32.5651 12.0539 31.4174L9.0074 34.4639L5.5361 30.9926L8.5826 27.9461C7.43486 26.3021 6.65823 24.4282 6.3065 22.4543H2V17.5457H6.3065C6.65823 15.5718 7.43486 13.6979 8.5826 12.0539L5.5361 9.0074L9.0074 5.5361L12.0539 8.5826C13.6979 7.43486 15.5718 6.65823 17.5457 6.3065V2H22.4543V6.3065C24.4282 6.65823 26.3021 7.43486 27.9461 8.5826L30.9926 5.5361L34.4639 9.0074L31.4174 12.0539Z" fill="white"/>
<path fill-rule="evenodd" clip-rule="evenodd" d="M15.5457 2C15.5457 0.89543 16.4411 0 17.5457 0H22.4543C23.5589 0 24.4543 0.89543 24.4543 2V4.72339C25.5653 5.04692 26.6376 5.49129 27.6518 6.04851L29.5784 4.12189C30.3594 3.34084 31.6258 3.34084 32.4068 4.12189L35.8781 7.59319C36.6592 8.37424 36.6592 9.64056 35.8781 10.4216L33.9515 12.3482C34.5087 13.3624 34.9531 14.4347 35.2766 15.5457H38C39.1046 15.5457 40 16.4411 40 17.5457V22.4543C40 23.5589 39.1046 24.4543 38 24.4543H35.2766C34.9531 25.5653 34.5087 26.6376 33.9515 27.6518L35.8781 29.5784C36.6592 30.3594 36.6592 31.6258 35.8781 32.4068L32.4068 35.8781C31.6258 36.6592 30.3594 36.6592 29.5784 35.8781L27.6518 33.9515C26.6376 34.5087 25.5653 34.9531 24.4543 35.2766V38C24.4543 39.1046 23.5589 40 22.4543 40H17.5457C16.4411 40 15.5457 39.1046 15.5457 38V35.2766C14.4347 34.9531 13.3624 34.5087 12.3482 33.9515L10.4216 35.8781C9.64056 36.6592 8.37424 36.6592 7.59319 35.8781L4.12189 32.4068C3.34084 31.6258 3.34084 30.3594 4.12189 29.5784L6.04851 27.6518C5.49129 26.6376 5.04692 25.5653 4.72339 24.4543H2C0.89543 24.4543 0 23.5589 0 22.4543V17.5457C0 16.4411 0.89543 15.5457 2 15.5457H4.72339C5.04692 14.4347 5.49129 13.3624 6.04851 12.3482L4.12189 10.4216C3.74681 10.0465 3.5361 9.53783 3.5361 9.0074C3.5361 8.47697 3.74681 7.96826 4.12189 7.59319L7.59319 4.12189C7.96826 3.74681 8.47697 3.5361 9.0074 3.5361C9.53783 3.5361 10.0465 3.74681 10.4216 4.12189L12.3482 6.04851C13.3624 5.49129 14.4347 5.04692 15.5457 4.72339V2ZM19.5457 4V6.3065C19.5457 7.27572 18.8507 8.10546 17.8966 8.27549C16.208 8.57636 14.6051 9.24071 13.1988 10.2225C12.4038 10.7775 11.3252 10.6824 10.6397 9.99681L9.0074 8.36453L8.36453 9.0074L9.99681 10.6397C10.6824 11.3252 10.7775 12.4038 10.2225 13.1988C9.24071 14.6051 8.57636 16.208 8.27549 17.8966C8.10546 18.8507 7.27572 19.5457 6.3065 19.5457H4V20.4543H6.3065C7.27572 20.4543 8.10546 21.1493 8.27549 22.1034C8.57636 23.792 9.24071 25.3949 10.2225 26.8012C10.7775 27.5962 10.6824 28.6747 9.99681 29.3603L8.36453 30.9926L9.0074 31.6355L10.6397 30.0032C11.3253 29.3176 12.4038 29.2225 13.1988 29.7775C14.6051 30.7593 16.208 31.4236 17.8966 31.7245C18.8507 31.8945 19.5457 32.7243 19.5457 33.6935V36H20.4543V33.6935C20.4543 32.7243 21.1493 31.8945 22.1034 31.7245C23.792 31.4236 25.3949 30.7593 26.8012 29.7775C27.5962 29.2225 28.6747 29.3176 29.3603 30.0032L30.9926 31.6355L31.6355 30.9926L30.0032 29.3603C29.3176 28.6747 29.2225 27.5962 29.7775 26.8012C30.7593 25.3949 31.4236 23.792 31.7245 22.1034C31.8945 21.1493 32.7243 20.4543 33.6935 20.4543H36V19.5457H33.6935C32.7243 19.5457 31.8945 18.8507 31.7245 17.8966C31.4236 16.208 30.7593 14.6051 29.7775 13.1988C29.2225 12.4038 29.3176 11.3253 30.0032 10.6397L31.6355 9.0074L30.9926 8.36453L29.3603 9.99681C28.6747 10.6824 27.5962 10.7775 26.8012 10.2225C25.3949 9.24071 23.792 8.57636 22.1034 8.27549C21.1493 8.10546 20.4543 7.27572 20.4543 6.3065V4H19.5457Z" fill="white"/>
<path d="M20 24.5C21.1935 24.5 22.3381 24.0259 23.182 23.182C24.0259 22.3381 24.5 21.1935 24.5 20C24.5 18.8065 24.0259 17.6619 23.182 16.818C22.3381 15.9741 21.1935 15.5 20 15.5C18.8065 15.5 17.6619 15.9741 16.818 16.818C15.9741 17.6619 15.5 18.8065 15.5 20C15.5 21.1935 15.9741 22.3381 16.818 23.182C17.6619 24.0259 18.8065 24.5 20 24.5Z" fill="black"/>
<path fill-rule="evenodd" clip-rule="evenodd" d="M15.4038 15.4038C16.6228 14.1848 18.2761 13.5 20 13.5C21.7239 13.5 23.3772 14.1848 24.5962 15.4038C25.8152 16.6228 26.5 18.2761 26.5 20C26.5 21.7239 25.8152 23.3772 24.5962 24.5962C23.3772 25.8152 21.7239 26.5 20 26.5C18.2761 26.5 16.6228 25.8152 15.4038 24.5962C14.1848 23.3772 13.5 21.7239 13.5 20C13.5 18.2761 14.1848 16.6228 15.4038 15.4038ZM20 17.5C19.337 17.5 18.7011 17.7634 18.2322 18.2322C17.7634 18.7011 17.5 19.337 17.5 20C17.5 20.663 17.7634 21.2989 18.2322 21.7678C18.7011 22.2366 19.337 22.5 20 22.5C20.663 22.5 21.2989 22.2366 21.7678 21.7678C22.2366 21.2989 22.5 20.663 22.5 20C22.5 19.337 22.2366 18.7011 21.7678 18.2322C21.2989 17.7634 20.663 17.5 20 17.5Z" fill="black"/>
</mask>
<g mask="url(#mask0_2628_32174)">
<path d="M-1.59961 -1.59961H41.6004V41.6004H-1.59961V-1.59961Z" fill="#2A2B6A"/>
</g>
</svg>
