<svg width="15" height="15" viewBox="0 0 15 15" fill="none" xmlns="http://www.w3.org/2000/svg">
<path d="M0.697299 4.66973H11.2013C11.3861 4.66947 11.5633 4.59645 11.694 4.46669C11.8247 4.33693 11.8982 4.16102 11.8984 3.97754V0.692193C11.8982 0.50871 11.8247 0.332803 11.694 0.203044C11.5633 0.0732862 11.3861 0.000267594 11.2013 0H0.697299C0.512433 0.000223007 0.335202 0.0732219 0.204482 0.202985C0.073762 0.332748 0.000224652 0.508681 0 0.692193V3.97754C0.000224652 4.16105 0.073762 4.33698 0.204482 4.46675C0.335202 4.59651 0.512433 4.66951 0.697299 4.66973ZM0.339566 0.692193C0.339656 0.598039 0.377374 0.507766 0.444443 0.441189C0.511511 0.374611 0.60245 0.337169 0.697299 0.33708H11.2013C11.2961 0.337169 11.3871 0.374611 11.4541 0.441189C11.5212 0.507766 11.5589 0.598039 11.559 0.692193V3.97754C11.5589 4.07169 11.5212 4.16197 11.4541 4.22854C11.3871 4.29512 11.2961 4.33256 11.2013 4.33265H0.697299C0.60245 4.33256 0.511511 4.29512 0.444443 4.22854C0.377374 4.16197 0.339656 4.07169 0.339566 3.97754V0.692193Z" fill="black"/>
<path fill-rule="evenodd" clip-rule="evenodd" d="M0.639832 0.21167H11.3012C11.4433 0.21167 11.7276 0.296336 11.7276 0.635001V4.02165C11.7276 4.16276 11.5997 4.44498 11.0879 4.44498H0.639832C0.497681 4.44498 0.213379 4.36031 0.213379 4.02165V0.635001C0.213379 0.493891 0.29867 0.21167 0.639832 0.21167ZM10.3617 2.08687H4.34207C4.29704 2.08687 4.25386 2.06911 4.22202 2.0375C4.19018 2.0059 4.17229 1.96303 4.17229 1.91833V1.08507C4.17229 1.04037 4.19018 0.997499 4.22202 0.965892C4.25386 0.934284 4.29704 0.916528 4.34207 0.916528H10.3617C10.4068 0.916528 10.4499 0.934284 10.4818 0.965892C10.5136 0.997499 10.5315 1.04037 10.5315 1.08507V1.91833C10.5315 1.96303 10.5136 2.0059 10.4818 2.0375C10.4499 2.06911 10.4068 2.08687 10.3617 2.08687ZM10.1919 1.25361H4.51186V1.74979H10.1919V1.25361ZM4.34215 3.75341H8.44342C8.48845 3.75341 8.53164 3.73566 8.56348 3.70405C8.59532 3.67244 8.61321 3.62957 8.61321 3.58487V2.75161C8.61321 2.70691 8.59532 2.66404 8.56348 2.63244C8.53164 2.60083 8.48845 2.58307 8.44342 2.58307H4.34215C4.29712 2.58307 4.25393 2.60083 4.22209 2.63244C4.19025 2.66404 4.17236 2.70691 4.17236 2.75161V3.58487C4.17236 3.62957 4.19025 3.67244 4.22209 3.70405C4.25393 3.73566 4.29712 3.75341 4.34215 3.75341ZM4.51193 2.92015H8.27364V3.41633H4.51193V2.92015ZM3.05925 3.75318H2.01304C1.96802 3.75318 1.92483 3.73542 1.89299 3.70382C1.86115 3.67221 1.84326 3.62934 1.84326 3.58464V2.5461C1.84326 2.5014 1.86115 2.45853 1.89299 2.42692C1.92483 2.39531 1.96802 2.37756 2.01304 2.37756H3.05925C3.10428 2.37756 3.14746 2.39531 3.1793 2.42692C3.21114 2.45853 3.22903 2.5014 3.22903 2.5461V3.58464C3.22903 3.62934 3.21114 3.67221 3.1793 3.70382C3.14746 3.73542 3.10428 3.75318 3.05925 3.75318ZM2.88946 2.71464H2.18283V3.4161H2.88946V2.71464Z" fill="black"/>
<path d="M3.10156 5.8574V9.14258C3.10179 9.32608 3.1753 9.502 3.30597 9.63179C3.43665 9.76157 3.61384 9.83463 3.79869 9.83494H14.3027C14.4876 9.83472 14.6648 9.7617 14.7955 9.6319C14.9263 9.5021 14.9998 9.32612 15 9.14258V5.8574C14.9998 5.67386 14.9263 5.49788 14.7955 5.36808C14.6648 5.23828 14.4876 5.16526 14.3027 5.16504H3.79869C3.61384 5.16535 3.43665 5.23841 3.30597 5.36819C3.1753 5.49798 3.10179 5.6739 3.10156 5.8574ZM14.6604 5.8574V9.14258C14.6603 9.23675 14.6226 9.32704 14.5555 9.39364C14.4885 9.46025 14.3975 9.49773 14.3027 9.49786H3.79869C3.70383 9.49773 3.61289 9.46025 3.54583 9.39364C3.47876 9.32704 3.44105 9.23675 3.44096 9.14258V5.8574C3.44105 5.76323 3.47876 5.67294 3.54583 5.60634C3.61289 5.53973 3.70383 5.50225 3.79869 5.50212H14.3027C14.3975 5.50225 14.4885 5.53973 14.5555 5.60634C14.6226 5.67294 14.6603 5.76323 14.6604 5.8574Z" fill="black"/>
<path d="M7.44395 7.25188H13.4634C13.5085 7.25188 13.5517 7.23413 13.5835 7.20252C13.6153 7.17091 13.6332 7.12804 13.6332 7.08334V6.25008C13.6332 6.20538 13.6153 6.16251 13.5835 6.13091C13.5517 6.0993 13.5085 6.08154 13.4634 6.08154H7.44395C7.39892 6.08154 7.35574 6.0993 7.3239 6.13091C7.29206 6.16251 7.27417 6.20538 7.27417 6.25008V7.08334C7.27417 7.12804 7.29206 7.17091 7.3239 7.20252C7.35574 7.23413 7.39892 7.25188 7.44395 7.25188ZM7.61374 6.41862H13.2937V6.9148H7.61374V6.41862Z" fill="black"/>
<path d="M7.44395 8.91839H11.5449C11.5899 8.91839 11.6331 8.90063 11.6649 8.86902C11.6968 8.83742 11.7147 8.79455 11.7147 8.74985V7.91659C11.7147 7.87189 11.6968 7.82902 11.6649 7.79741C11.6331 7.7658 11.5899 7.74805 11.5449 7.74805H7.44395C7.39892 7.74805 7.35574 7.7658 7.3239 7.79741C7.29206 7.82902 7.27417 7.87189 7.27417 7.91659V8.74985C7.27417 8.79455 7.29206 8.83742 7.3239 8.86902C7.35574 8.90063 7.39892 8.91839 7.44395 8.91839ZM7.61374 8.08513H11.3751V8.58131H7.61374V8.08513Z" fill="black"/>
<path d="M5.11485 8.91852H6.16105C6.20608 8.91852 6.24927 8.90076 6.28111 8.86915C6.31295 8.83754 6.33084 8.79468 6.33084 8.74998V7.71126C6.33084 7.66656 6.31295 7.6237 6.28111 7.59209C6.24927 7.56048 6.20608 7.54272 6.16105 7.54272H5.11485C5.06982 7.54272 5.02664 7.56048 4.9948 7.59209C4.96296 7.6237 4.94507 7.66656 4.94507 7.71126V8.74998C4.94507 8.79468 4.96296 8.83754 4.9948 8.86915C5.02664 8.90076 5.06982 8.91852 5.11485 8.91852ZM5.28463 7.8798H5.99127V8.58144H5.28463V7.8798Z" fill="black"/>
<path d="M13.7418 14.3079V11.0225C13.7416 10.839 13.668 10.6631 13.5372 10.5333C13.4065 10.4035 13.2292 10.3305 13.0444 10.3303H2.54073C2.35585 10.3305 2.1786 10.4035 2.04785 10.5333C1.91711 10.6631 1.84353 10.839 1.84326 11.0225V14.3079C1.84353 14.4914 1.91711 14.6673 2.04785 14.7971C2.1786 14.9268 2.35585 14.9998 2.54073 15.0001H13.0444C13.2292 14.9998 13.4065 14.9268 13.5372 14.7971C13.668 14.6673 13.7416 14.4914 13.7418 14.3079ZM13.4023 14.3079C13.4021 14.402 13.3644 14.4923 13.2973 14.5589C13.2302 14.6254 13.1392 14.6629 13.0444 14.663H2.54073C2.44585 14.6629 2.35487 14.6255 2.28776 14.5589C2.22066 14.4923 2.18292 14.402 2.18283 14.3079V11.0225C2.18292 10.9283 2.22066 10.838 2.28776 10.7715C2.35487 10.7049 2.44585 10.6674 2.54073 10.6674H13.0444C13.1392 10.6675 13.2302 10.7049 13.2973 10.7715C13.3644 10.8381 13.4021 10.9283 13.4023 11.0225V14.3079Z" fill="black"/>
<path d="M12.2055 11.2468H6.18614C6.14111 11.2468 6.09793 11.2646 6.06609 11.2962C6.03425 11.3278 6.01636 11.3707 6.01636 11.4154V12.2486C6.01636 12.2933 6.03425 12.3362 6.06609 12.3678C6.09793 12.3994 6.14111 12.4172 6.18614 12.4172H12.2055C12.2505 12.4172 12.2937 12.3994 12.3255 12.3678C12.3574 12.3362 12.3752 12.2933 12.3752 12.2486V11.4154C12.3752 11.3707 12.3574 11.3278 12.3255 11.2962C12.2937 11.2646 12.2505 11.2468 12.2055 11.2468ZM12.0357 12.0801H6.35592V11.5839H12.0357V12.0801Z" fill="black"/>
<path d="M10.2869 12.9133H6.18614C6.14111 12.9133 6.09793 12.9311 6.06609 12.9627C6.03425 12.9943 6.01636 13.0372 6.01636 13.0819V13.9151C6.01636 13.9598 6.03425 14.0027 6.06609 14.0343C6.09793 14.0659 6.14111 14.0837 6.18614 14.0837H10.2869C10.3319 14.0837 10.3751 14.0659 10.407 14.0343C10.4388 14.0027 10.4567 13.9598 10.4567 13.9151V13.0819C10.4567 13.0372 10.4388 12.9943 10.407 12.9627C10.3751 12.9311 10.3319 12.9133 10.2869 12.9133ZM10.1171 13.7466H6.35592V13.2504H10.1171V13.7466Z" fill="black"/>
<path d="M4.90232 12.7078H3.85679C3.81177 12.7078 3.76858 12.7255 3.73674 12.7571C3.7049 12.7887 3.68701 12.8316 3.68701 12.8763V13.9148C3.68701 13.9595 3.7049 14.0024 3.73674 14.034C3.76858 14.0656 3.81177 14.0834 3.85679 14.0834H4.90232C4.94735 14.0834 4.99053 14.0656 5.02237 14.034C5.05421 14.0024 5.0721 13.9595 5.0721 13.9148V12.8763C5.0721 12.8316 5.05421 12.7887 5.02237 12.7571C4.99053 12.7255 4.94735 12.7078 4.90232 12.7078ZM4.73254 13.7463H4.02658V13.0448H4.73254V13.7463Z" fill="black"/>
<path d="M2.01599 5.69081C2.01599 5.68677 2.01463 5.68289 2.01378 5.67901L1.94587 5.37901C1.93395 5.32593 1.9087 5.2767 1.87247 5.2359C1.83624 5.19511 1.7902 5.16407 1.73864 5.14569C1.68708 5.1273 1.63167 5.12217 1.57757 5.13075C1.52347 5.13934 1.47243 5.16137 1.42922 5.1948L0.183349 6.16036C0.136004 6.19723 0.0999141 6.24643 0.0791072 6.30248C0.0583003 6.35853 0.0535956 6.41921 0.0655184 6.47776C0.0774411 6.53631 0.105522 6.59041 0.146626 6.63404C0.18773 6.67766 0.240239 6.70909 0.298292 6.7248L0.652289 6.8202C0.476209 7.80291 0.620873 8.81576 1.0652 9.71116C1.10525 9.79035 1.16553 9.85774 1.24 9.9066C1.31448 9.95545 1.40056 9.98407 1.48966 9.98959C1.49968 9.98959 1.50969 9.98959 1.51971 9.98959C1.59998 9.98915 1.6791 9.97065 1.75112 9.93549C1.87077 9.87391 1.9613 9.76818 2.00324 9.64104C2.04518 9.5139 2.03519 9.3755 1.97541 9.2556C1.64348 8.58383 1.52727 7.82711 1.64246 7.08767L1.85656 7.14514C1.88458 7.15262 1.91346 7.15641 1.94247 7.15643C1.99104 7.15623 2.03895 7.14522 2.08268 7.12422C2.1264 7.10321 2.16482 7.07274 2.19512 7.03505C2.22541 6.99736 2.24681 6.95341 2.25774 6.90643C2.26867 6.85944 2.26885 6.81063 2.25827 6.76357L2.01599 5.69081ZM1.54467 6.71233C1.54195 6.71233 1.53941 6.71233 1.53669 6.71233C1.53397 6.71233 1.53193 6.70997 1.52922 6.70946C1.5204 6.70879 1.51155 6.70879 1.50273 6.70946C1.48022 6.70674 1.45742 6.71092 1.43737 6.72143C1.42794 6.72461 1.41885 6.72867 1.4102 6.73357C1.40086 6.73996 1.39226 6.74736 1.38456 6.75564C1.37671 6.76228 1.36955 6.76968 1.36317 6.77772C1.357 6.78739 1.35188 6.79767 1.34789 6.8084C1.34343 6.81557 1.33962 6.82313 1.33651 6.83098C1.33651 6.83351 1.33651 6.83604 1.33651 6.83873C1.33651 6.84143 1.33414 6.84345 1.33363 6.84615C1.16108 7.71396 1.28038 8.614 1.67319 9.40796C1.69325 9.44772 1.69695 9.49367 1.68352 9.53609C1.67009 9.57851 1.64057 9.61409 1.60121 9.63532C1.57329 9.64845 1.54262 9.65481 1.51173 9.65386C1.48194 9.65202 1.45317 9.64242 1.42831 9.62603C1.40345 9.60964 1.38338 9.58703 1.37013 9.56048C0.941436 8.69446 0.81276 7.71216 1.00408 6.76609C1.00408 6.76289 1.00883 6.7398 1.00985 6.7339C1.01079 6.72392 1.01079 6.71388 1.00985 6.7039C1.01087 6.69308 1.01087 6.68219 1.00985 6.67137C1.00742 6.66082 1.00389 6.65054 0.999326 6.6407C0.995036 6.61963 0.983515 6.60069 0.966727 6.5871C0.960118 6.57858 0.952667 6.57073 0.944486 6.56368C0.934928 6.55771 0.924807 6.55269 0.914264 6.54868C0.905713 6.54335 0.896674 6.53884 0.887269 6.53519L0.415781 6.40795L1.61971 5.47491L1.67948 5.74188C1.67948 5.74592 1.68083 5.74997 1.68168 5.75401L1.92057 6.81329L1.54467 6.71233Z" fill="black"/>
</svg>
