<svg width="21" height="24" viewBox="0 0 21 24" fill="none" xmlns="http://www.w3.org/2000/svg">
<path fill-rule="evenodd" clip-rule="evenodd" d="M4.08609 0H6.75382C6.7543 0.036826 6.75863 0.0734907 6.76672 0.109358L7.2466 1.84308C7.2669 1.93053 7.31511 2.00837 7.38346 2.06402C7.4518 2.11967 7.53629 2.1499 7.62328 2.14981H13.3406C13.4237 2.15015 13.5047 2.12285 13.5716 2.07193C13.6385 2.02102 13.6877 1.94919 13.7121 1.86708L14.1972 0.114692C14.2056 0.0770864 14.21 0.0386112 14.2101 0H16.8778C17.1376 0.000704056 17.3866 0.107715 17.5703 0.297642C17.754 0.487569 17.8575 0.744963 17.8582 1.01356V1.60036C17.4714 1.74619 17.1476 2.02996 16.9452 2.4006C16.7428 2.77124 16.675 3.2044 16.754 3.62214H14.4835C14.2511 3.61285 14.0192 3.65216 13.8018 3.73772C13.5844 3.82327 13.3859 3.95331 13.2183 4.12005C13.0507 4.28679 12.9173 4.48679 12.8262 4.70807C12.7351 4.92936 12.6882 5.16738 12.6882 5.40787C12.6882 5.64836 12.7351 5.88638 12.8262 6.10766C12.9173 6.32895 13.0507 6.52895 13.2183 6.69569C13.3859 6.86242 13.5844 6.99246 13.8018 7.07802C14.0192 7.16358 14.2511 7.20289 14.4835 7.1936H16.754C16.675 7.61133 16.7428 8.0445 16.9452 8.41514C17.1476 8.78578 17.4714 9.06955 17.8582 9.21538V22.9864C17.8575 23.255 17.754 23.5124 17.5703 23.7024C17.3866 23.8923 17.1376 23.9993 16.8778 24H4.08609C3.82628 23.9993 3.5773 23.8923 3.39359 23.7024C3.20987 23.5124 3.10636 23.255 3.10568 22.9864V21.4181C3.49248 21.2723 3.81623 20.9885 4.01867 20.6178C4.2211 20.2472 4.28892 19.814 4.20993 19.3963H6.48034C6.71279 19.4056 6.94466 19.3663 7.16207 19.2807C7.37948 19.1952 7.57794 19.0651 7.74558 18.8984C7.91322 18.7317 8.04658 18.5317 8.13767 18.3104C8.22876 18.0891 8.27572 17.8511 8.27572 17.6106C8.27572 17.3701 8.22876 17.1321 8.13767 16.9108C8.04658 16.6895 7.91322 16.4895 7.74558 16.3228C7.57794 16.156 7.37948 16.026 7.16207 15.9404C6.94466 15.8549 6.71279 15.8156 6.48034 15.8248H4.20993C4.27195 15.5 4.24518 15.1637 4.13261 14.8537C4.02005 14.5437 3.82615 14.2722 3.57266 14.0698C3.43063 13.9575 3.27326 13.8676 3.10568 13.8031V1.01889C3.10534 0.88544 3.13043 0.753225 3.17952 0.629797C3.2286 0.506368 3.30073 0.394144 3.39177 0.299531C3.4828 0.204918 3.59098 0.129769 3.71011 0.0783754C3.82924 0.0269818 3.957 0.00034981 4.08609 0ZM17.706 6.93487C17.6268 7.03689 17.5681 7.15419 17.5333 7.27992C17.4985 7.40565 17.4883 7.5373 17.5032 7.66717C17.5182 7.79703 17.558 7.92252 17.6204 8.03628C17.6828 8.15005 17.7665 8.24981 17.8667 8.32975C17.9668 8.40969 18.0813 8.46819 18.2036 8.50185C18.3258 8.5355 18.4533 8.54363 18.5786 8.52576C18.704 8.50789 18.8246 8.46438 18.9334 8.39777C19.0423 8.33116 19.1372 8.24278 19.2127 8.13781L20.7968 6.004C20.9284 5.831 21 5.61729 21 5.3972C21 5.1771 20.9284 4.9634 20.7968 4.7904L19.1998 2.66726C19.13 2.54895 19.0368 2.44721 18.9263 2.36872C18.8158 2.29023 18.6905 2.23675 18.5586 2.21179C18.4267 2.18682 18.2913 2.19093 18.161 2.22384C18.0308 2.25676 17.9088 2.31774 17.8029 2.40279C17.697 2.48785 17.6098 2.59505 17.5468 2.71739C17.4838 2.83974 17.4465 2.97446 17.4373 3.11273C17.4282 3.25101 17.4474 3.38972 17.4937 3.51979C17.54 3.64987 17.6123 3.76836 17.706 3.86753L18.1085 4.40098H14.4964C14.3711 4.40098 14.2469 4.4265 14.1311 4.4761C14.0153 4.5257 13.9101 4.59839 13.8214 4.69003C13.7328 4.78167 13.6625 4.89046 13.6145 5.0102C13.5665 5.12993 13.5418 5.25826 13.5418 5.38786C13.5418 5.51746 13.5665 5.64579 13.6145 5.76553C13.6625 5.88526 13.7328 5.99406 13.8214 6.0857C13.9101 6.17734 14.0153 6.25003 14.1311 6.29963C14.2469 6.34922 14.3711 6.37475 14.4964 6.37475H18.1085L17.706 6.93487ZM3.2837 19.1509L2.88122 18.6175H6.49324C6.74642 18.6175 6.98922 18.5135 7.16825 18.3284C7.34727 18.1433 7.44784 17.8923 7.44784 17.6306C7.44784 17.3688 7.34727 17.1178 7.16825 16.9327C6.98922 16.7477 6.74642 16.6437 6.49324 16.6437H2.88122L3.2837 16.1102C3.36287 16.0082 3.42157 15.8909 3.45639 15.7652C3.4912 15.6395 3.50143 15.5078 3.48646 15.378C3.4715 15.2481 3.43166 15.1226 3.36925 15.0088C3.30685 14.8951 3.22314 14.7953 3.12301 14.7154C3.02289 14.6354 2.90836 14.5769 2.78611 14.5433C2.66387 14.5096 2.53636 14.5015 2.41104 14.5194C2.28572 14.5372 2.1651 14.5807 2.05623 14.6474C1.94736 14.714 1.85243 14.8023 1.77697 14.9073L0.203166 17.0251C0.0715528 17.1981 0 17.4118 0 17.6319C0 17.852 0.0715528 18.0657 0.203166 18.2387L1.78729 20.3725C1.86275 20.4775 1.95768 20.5659 2.06655 20.6325C2.17542 20.6991 2.29604 20.7426 2.42136 20.7605C2.54668 20.7784 2.67419 20.7702 2.79643 20.7366C2.91868 20.7029 3.03321 20.6444 3.13333 20.5645C3.23346 20.4845 3.31717 20.3848 3.37957 20.271C3.44198 20.1572 3.48182 20.0318 3.49678 19.9019C3.51175 19.772 3.50152 19.6404 3.46671 19.5146C3.43189 19.3889 3.37319 19.2716 3.29402 19.1696L3.2837 19.1509ZM12.4892 9.93287C12.515 9.43284 12.3653 8.93998 12.0676 8.54498C11.7699 8.14998 11.3443 7.87941 10.8689 7.78306V7.17759C10.8689 7.07148 10.8282 6.96972 10.7556 6.89469C10.683 6.81966 10.5846 6.77751 10.4819 6.77751C10.3793 6.77751 10.2809 6.81966 10.2083 6.89469C10.1357 6.96972 10.0949 7.07148 10.0949 7.17759V7.78306C9.60546 7.88375 9.16964 8.16887 8.87207 8.58308C8.57451 8.99729 8.43644 9.51103 8.48467 10.0246C8.53289 10.5381 8.76398 11.0148 9.13305 11.3621C9.50213 11.7094 9.98287 11.9025 10.4819 11.904C10.7295 11.9044 10.9711 11.9817 11.1757 12.1259C11.3802 12.27 11.5382 12.4742 11.6291 12.7122C11.72 12.9502 11.7397 13.211 11.6857 13.4607C11.6316 13.7104 11.5062 13.9375 11.3258 14.1128C11.1454 14.288 10.9183 14.4031 10.6739 14.4433C10.4294 14.4835 10.1789 14.447 9.95486 14.3383C9.73077 14.2296 9.54341 14.0539 9.41704 13.8339C9.29068 13.6138 9.23113 13.3597 9.24611 13.1042C9.24916 13.0517 9.24217 12.9991 9.22554 12.9493C9.20891 12.8996 9.18296 12.8537 9.14918 12.8143C9.1154 12.7749 9.07445 12.7428 9.02866 12.7198C8.98288 12.6968 8.93315 12.6833 8.88233 12.6802C8.83151 12.677 8.78058 12.6842 8.73246 12.7014C8.68434 12.7186 8.63997 12.7454 8.60188 12.7804C8.56378 12.8153 8.53272 12.8576 8.51045 12.905C8.48819 12.9523 8.47516 13.0037 8.47211 13.0562C8.44297 13.5588 8.5911 14.0553 8.88904 14.4535C9.18698 14.8518 9.61451 15.1248 10.0924 15.222V15.8275C10.0924 15.9336 10.1331 16.0354 10.2057 16.1104C10.2783 16.1855 10.3767 16.2276 10.4794 16.2276C10.582 16.2276 10.6804 16.1855 10.753 16.1104C10.8256 16.0354 10.8664 15.9336 10.8664 15.8275V15.222C11.3579 15.1244 11.7965 14.8407 12.0963 14.4264C12.3962 14.0121 12.5357 13.497 12.4876 12.982C12.4395 12.467 12.2073 11.989 11.8364 11.6416C11.4654 11.2943 10.9824 11.1025 10.4819 11.1038C10.2341 11.104 9.99194 11.0272 9.78675 10.8836C9.58155 10.7399 9.42277 10.5359 9.33094 10.2979C9.2391 10.06 9.21844 9.799 9.27163 9.54876C9.32481 9.29852 9.44939 9.07054 9.62926 8.89429C9.80913 8.71805 10.036 8.60164 10.2806 8.56014C10.5251 8.51864 10.7761 8.55394 11.001 8.66149C11.226 8.76904 11.4145 8.94388 11.5423 9.1634C11.6701 9.38293 11.7312 9.63704 11.7178 9.89286C11.7126 9.99897 11.7485 10.1028 11.8174 10.1816C11.8864 10.2604 11.9828 10.3077 12.0854 10.313C12.1881 10.3183 12.2885 10.2812 12.3647 10.2099C12.4409 10.1386 12.4866 10.039 12.4918 9.93287H12.4892ZM9.56861 20.6019C9.37518 20.6026 9.18986 20.6824 9.05308 20.8238C8.9163 20.9652 8.83915 21.1568 8.83847 21.3567C8.83847 21.5572 8.91531 21.7495 9.05217 21.8914C9.18902 22.0334 9.37473 22.1135 9.56861 22.1142H11.3953C11.5891 22.1135 11.7749 22.0334 11.9117 21.8914C12.0486 21.7495 12.1254 21.5572 12.1254 21.3567C12.1247 21.1568 12.0476 20.9652 11.9108 20.8238C11.774 20.6824 11.5887 20.6026 11.3953 20.6019H9.56861ZM7.54072 0L7.91483 1.34963H13.062L13.4232 0H7.54072Z" fill="black"/>
</svg>
