<svg width="35" height="40" viewBox="0 0 35 40" fill="none" xmlns="http://www.w3.org/2000/svg">
<path d="M22.9533 18.5473C25.5127 16.6806 27.1795 13.6597 27.1795 10.2564C27.1795 4.60102 22.5784 0 16.923 0C11.2677 0 6.66664 4.60102 6.66664 10.2564C6.66664 13.6597 8.33328 16.6806 10.8928 18.5473C4.53031 20.982 0 27.1509 0 34.359C0 37.4695 2.53055 40 5.64102 40H28.2051C31.3155 40 33.8461 37.4695 33.8461 34.359C33.8461 27.1509 29.3158 20.982 22.9533 18.5473ZM9.74359 10.2564C9.74359 6.29766 12.9643 3.07695 16.923 3.07695C20.8818 3.07695 24.1025 6.29766 24.1025 10.2564C24.1025 14.2152 20.8818 17.4359 16.923 17.4359C12.9643 17.4359 9.74359 14.2152 9.74359 10.2564ZM28.2051 36.923H5.64102C4.22719 36.923 3.07695 35.7728 3.07695 34.3589C3.07695 26.7241 9.2882 20.5127 16.9231 20.5127C24.558 20.5127 30.7693 26.724 30.7693 34.3589C30.7692 35.7728 29.619 36.923 28.2051 36.923Z" fill="#333333"/>
</svg>
