<svg width="725" height="843" viewBox="0 0 725 843" fill="none" xmlns="http://www.w3.org/2000/svg">
<path d="M720.771 290.926L656.971 465.926L597.671 678.226C561.371 799.126 500.971 842.226 389.871 842.026C294.271 841.926 234.871 802.526 178.571 713.626L6.97146 423.626C-5.62854 398.426 1.67146 373.826 22.6715 362.426C43.6715 351.126 69.3715 354.226 87.4715 379.626C93.1715 387.626 120.971 424.426 151.671 465.926L151.771 466.026C164.771 484.726 182.571 508.226 204.571 537.826L270.471 633.426L325.471 719.726C330.571 728.926 340.971 733.426 349.471 728.226C357.671 723.226 360.271 715.326 354.671 704.126L318.471 628.026C316.371 623.726 321.971 619.926 325.171 623.526L411.971 736.226C419.371 744.526 434.471 749.426 443.371 741.526C452.271 733.626 450.971 720.026 443.871 710.626L370.671 606.826C367.971 603.326 372.971 599.026 376.071 602.126L478.171 709.226C485.571 717.526 500.371 721.126 509.271 713.226C518.171 705.326 516.871 691.426 509.171 682.526L400.471 563.826C397.871 560.826 401.671 556.526 404.971 558.826L497.171 629.126C508.471 637.026 522.571 638.326 530.171 629.126C538.671 618.926 531.671 604.526 522.171 596.826L389.271 484.826C368.071 468.226 375.771 449.926 402.071 450.626C435.571 451.626 473.171 452.126 479.571 452.326C494.671 452.926 503.471 444.026 505.371 432.626C507.271 421.226 499.971 411.126 486.571 408.426L324.571 387.926C304.671 386.026 281.571 383.626 258.071 382.226L267.271 120.426C267.671 95.1263 283.771 72.3263 311.171 73.1263C335.771 73.8263 353.871 94.3263 355.271 122.726L359.171 343.526C359.471 351.826 371.371 352.726 372.971 344.526L422.871 36.0263C427.571 12.2263 450.571 -3.47369 474.671 1.02631C498.871 5.52631 514.571 29.7263 510.371 52.3263L471.071 332.726C469.871 341.826 483.071 344.426 485.471 335.626L552.271 106.426C558.571 82.9263 580.171 68.2263 604.271 72.7263C628.471 77.2263 643.171 103.726 638.971 126.226L571.771 389.326C570.071 398.926 583.371 403.326 587.671 394.526L653.871 264.526C665.071 241.226 683.171 235.526 701.671 242.526C720.571 249.826 729.371 270.926 720.771 290.926Z" fill="black"/>
</svg>
