<?xml version="1.0" encoding="utf-8"?>
<!-- Generator: Adobe Illustrator 16.0.0, SVG Export Plug-In . SVG Version: 6.00 Build 0)  -->
<!DOCTYPE svg PUBLIC "-//W3C//DTD SVG 1.1//EN" "http://www.w3.org/Graphics/SVG/1.1/DTD/svg11.dtd">
<svg version="1.1" xmlns="http://www.w3.org/2000/svg" xmlns:xlink="http://www.w3.org/1999/xlink" x="0px" y="0px" width="32px"
	 height="32px" viewBox="0 0 32 32" enable-background="new 0 0 32 32" xml:space="preserve">
<g id="Layer_1">
	<g>
		<g>
			<path fill="#ACB5BC" d="M0.316,4.183V1.419c0-0.372,0.287-0.673,0.641-0.673h30.088c0.354,0,0.64,0.301,0.64,0.673v2.763
				c0,0.371-0.286,0.672-0.64,0.672H0.957C0.603,4.855,0.316,4.554,0.316,4.183z"/>
			<path fill="#ACB5BC" d="M0.316,10.969V8.206c0-0.372,0.287-0.672,0.641-0.672h7.88c0.353,0,0.64,0.3,0.64,0.672v2.763
				c0,0.371-0.288,0.673-0.64,0.673h-7.88C0.603,11.642,0.316,11.34,0.316,10.969z"/>
			<path fill="#ACB5BC" d="M11.42,10.969V8.206c0-0.372,0.287-0.672,0.64-0.672h7.881c0.353,0,0.64,0.3,0.64,0.672v2.763
				c0,0.371-0.287,0.673-0.64,0.673H12.06C11.707,11.642,11.42,11.34,11.42,10.969z"/>
			<path fill="#ACB5BC" d="M22.523,10.969V8.206c0-0.372,0.287-0.672,0.641-0.672h7.88c0.353,0,0.64,0.3,0.64,0.672v2.763
				c0,0.371-0.287,0.673-0.64,0.673h-7.88C22.81,11.642,22.523,11.34,22.523,10.969z"/>
			<path fill="#ACB5BC" d="M0.316,17.755v-2.763c0-0.372,0.287-0.672,0.641-0.672h7.88c0.353,0,0.64,0.3,0.64,0.672v2.763
				c0,0.371-0.288,0.673-0.64,0.673h-7.88C0.603,18.428,0.316,18.126,0.316,17.755z"/>
			<path fill="#ACB5BC" d="M11.42,17.755v-2.763c0-0.372,0.287-0.672,0.64-0.672h7.881c0.353,0,0.64,0.3,0.64,0.672v2.763
				c0,0.371-0.287,0.673-0.64,0.673H12.06C11.707,18.428,11.42,18.126,11.42,17.755z"/>
			<path fill="#ACB5BC" d="M22.523,17.755v-2.763c0-0.372,0.287-0.672,0.641-0.672h7.88c0.353,0,0.64,0.3,0.64,0.672v2.763
				c0,0.371-0.287,0.673-0.64,0.673h-7.88C22.81,18.428,22.523,18.126,22.523,17.755z"/>
			<path fill="#ACB5BC" d="M0.316,24.541v-2.763c0-0.372,0.287-0.672,0.641-0.672h7.88c0.353,0,0.64,0.301,0.64,0.672v2.763
				c0,0.371-0.288,0.672-0.64,0.672h-7.88C0.603,25.213,0.316,24.912,0.316,24.541z"/>
			<path fill="#ACB5BC" d="M11.42,24.541v-2.763c0-0.372,0.287-0.672,0.64-0.672h7.881c0.353,0,0.64,0.301,0.64,0.672v2.763
				c0,0.371-0.287,0.672-0.64,0.672H12.06C11.707,25.213,11.42,24.912,11.42,24.541z"/>
			<path fill="#ACB5BC" d="M22.523,24.541v-2.763c0-0.372,0.287-0.672,0.641-0.672h7.88c0.353,0,0.64,0.301,0.64,0.672v2.763
				c0,0.371-0.287,0.672-0.64,0.672h-7.88C22.81,25.213,22.523,24.912,22.523,24.541z"/>
			<path fill="#ACB5BC" d="M0.316,31.328v-2.763c0-0.372,0.287-0.673,0.641-0.673h7.88c0.353,0,0.64,0.301,0.64,0.673v2.763
				c0,0.372-0.288,0.672-0.64,0.672h-7.88C0.603,32,0.316,31.699,0.316,31.328z"/>
			<path fill="#ACB5BC" d="M11.42,31.328v-2.763c0-0.372,0.287-0.673,0.64-0.673h7.881c0.353,0,0.64,0.301,0.64,0.673v2.763
				c0,0.372-0.287,0.672-0.64,0.672H12.06C11.707,32,11.42,31.699,11.42,31.328z"/>
			<path fill="#ACB5BC" d="M22.523,31.328v-2.763c0-0.372,0.287-0.673,0.641-0.673h7.88c0.353,0,0.64,0.301,0.64,0.673v2.763
				c0,0.372-0.287,0.672-0.64,0.672h-7.88C22.81,32,22.523,31.699,22.523,31.328z"/>
			<path fill="#ACB5BC" d="M0.316,10.969V8.206c0-0.372,0.287-0.672,0.641-0.672h4.295c0.354,0,0.64,0.3,0.64,0.672v2.763
				c0,0.371-0.287,0.673-0.64,0.673H0.957C0.603,11.642,0.316,11.34,0.316,10.969z"/>
			<path fill="#ACB5BC" d="M11.42,10.969V8.206c0-0.372,0.287-0.672,0.64-0.672h4.296c0.353,0,0.641,0.3,0.641,0.672v2.763
				c0,0.371-0.288,0.673-0.641,0.673H12.06C11.707,11.642,11.42,11.34,11.42,10.969z"/>
			<path fill="#ACB5BC" d="M22.523,10.969V8.206c0-0.372,0.287-0.672,0.641-0.672h4.294c0.354,0,0.641,0.3,0.641,0.672v2.763
				c0,0.371-0.287,0.673-0.641,0.673h-4.294C22.81,11.642,22.523,11.34,22.523,10.969z"/>
			<path fill="#ACB5BC" d="M0.316,17.755v-2.763c0-0.372,0.287-0.672,0.641-0.672h4.295c0.354,0,0.64,0.3,0.64,0.672v2.763
				c0,0.371-0.287,0.673-0.64,0.673H0.957C0.603,18.428,0.316,18.126,0.316,17.755z"/>
			<path fill="#ACB5BC" d="M11.42,17.755v-2.763c0-0.372,0.287-0.672,0.64-0.672h4.296c0.353,0,0.641,0.3,0.641,0.672v2.763
				c0,0.371-0.288,0.673-0.641,0.673H12.06C11.707,18.428,11.42,18.126,11.42,17.755z"/>
			<path fill="#ACB5BC" d="M22.523,17.755v-2.763c0-0.372,0.287-0.672,0.641-0.672h4.294c0.354,0,0.641,0.3,0.641,0.672v2.763
				c0,0.371-0.287,0.673-0.641,0.673h-4.294C22.81,18.428,22.523,18.126,22.523,17.755z"/>
			<path fill="#ACB5BC" d="M0.316,24.541v-2.763c0-0.372,0.287-0.672,0.641-0.672h4.295c0.354,0,0.64,0.301,0.64,0.672v2.763
				c0,0.371-0.287,0.672-0.64,0.672H0.957C0.603,25.213,0.316,24.912,0.316,24.541z"/>
			<path fill="#ACB5BC" d="M11.42,24.541v-2.763c0-0.372,0.287-0.672,0.64-0.672h4.296c0.353,0,0.641,0.301,0.641,0.672v2.763
				c0,0.371-0.288,0.672-0.641,0.672H12.06C11.707,25.213,11.42,24.912,11.42,24.541z"/>
			<path fill="#ACB5BC" d="M22.523,24.541v-2.763c0-0.372,0.287-0.672,0.641-0.672h4.294c0.354,0,0.641,0.301,0.641,0.672v2.763
				c0,0.371-0.287,0.672-0.641,0.672h-4.294C22.81,25.213,22.523,24.912,22.523,24.541z"/>
			<path fill="#ACB5BC" d="M0.316,31.328v-2.763c0-0.372,0.287-0.673,0.641-0.673h4.295c0.354,0,0.64,0.301,0.64,0.673v2.763
				c0,0.372-0.287,0.672-0.64,0.672H0.957C0.603,32,0.316,31.699,0.316,31.328z"/>
			<path fill="#ACB5BC" d="M11.42,31.328v-2.763c0-0.372,0.287-0.673,0.64-0.673h4.296c0.353,0,0.641,0.301,0.641,0.673v2.763
				c0,0.372-0.288,0.672-0.641,0.672H12.06C11.707,32,11.42,31.699,11.42,31.328z"/>
			<path fill="#ACB5BC" d="M22.523,31.328v-2.763c0-0.372,0.287-0.673,0.641-0.673h4.294c0.354,0,0.641,0.301,0.641,0.673v2.763
				c0,0.372-0.287,0.672-0.641,0.672h-4.294C22.81,32,22.523,31.699,22.523,31.328z"/>
			<path fill="#ACB5BC" d="M0.316,4.183V1.419c0-0.372,0.287-0.673,0.641-0.673h15.72c0.354,0,0.64,0.301,0.64,0.673v2.763
				c0,0.371-0.286,0.672-0.64,0.672H0.957C0.603,4.855,0.316,4.554,0.316,4.183z"/>
		</g>
		<g>
			<path fill="#41C7F2" d="M0.316,3.436V0.673C0.316,0.301,0.603,0,0.957,0h30.088c0.354,0,0.64,0.301,0.64,0.673v2.763
				c0,0.371-0.286,0.673-0.64,0.673H0.957C0.603,4.108,0.316,3.807,0.316,3.436z"/>
			<path fill="#7DCCBB" d="M0.316,10.222V7.459c0-0.372,0.287-0.673,0.641-0.673h7.88c0.353,0,0.64,0.301,0.64,0.673v2.763
				c0,0.371-0.288,0.673-0.64,0.673h-7.88C0.603,10.895,0.316,10.593,0.316,10.222z"/>
			<path fill="#7DCCBB" d="M11.42,10.222V7.459c0-0.372,0.287-0.673,0.64-0.673h7.881c0.353,0,0.64,0.301,0.64,0.673v2.763
				c0,0.371-0.287,0.673-0.64,0.673H12.06C11.707,10.895,11.42,10.593,11.42,10.222z"/>
			<path fill="#7DCCBB" d="M22.523,10.222V7.459c0-0.372,0.287-0.673,0.641-0.673h7.88c0.353,0,0.64,0.301,0.64,0.673v2.763
				c0,0.371-0.287,0.673-0.64,0.673h-7.88C22.81,10.895,22.523,10.593,22.523,10.222z"/>
			<path fill="#A6D16F" d="M0.316,17.008v-2.763c0-0.372,0.287-0.673,0.641-0.673h7.88c0.353,0,0.64,0.301,0.64,0.673v2.763
				c0,0.371-0.288,0.673-0.64,0.673h-7.88C0.603,17.681,0.316,17.379,0.316,17.008z"/>
			<path fill="#A6D16F" d="M11.42,17.008v-2.763c0-0.372,0.287-0.673,0.64-0.673h7.881c0.353,0,0.64,0.301,0.64,0.673v2.763
				c0,0.371-0.287,0.673-0.64,0.673H12.06C11.707,17.681,11.42,17.379,11.42,17.008z"/>
			<path fill="#A6D16F" d="M22.523,17.008v-2.763c0-0.372,0.287-0.673,0.641-0.673h7.88c0.353,0,0.64,0.301,0.64,0.673v2.763
				c0,0.371-0.287,0.673-0.64,0.673h-7.88C22.81,17.681,22.523,17.379,22.523,17.008z"/>
			<path fill="#EFC41C" d="M0.316,23.793v-2.761c0-0.373,0.287-0.674,0.641-0.674h7.88c0.353,0,0.64,0.301,0.64,0.674v2.761
				c0,0.372-0.288,0.673-0.64,0.673h-7.88C0.603,24.467,0.316,24.165,0.316,23.793z"/>
			<path fill="#EFC41C" d="M11.42,23.793v-2.761c0-0.373,0.287-0.674,0.64-0.674h7.881c0.353,0,0.64,0.301,0.64,0.674v2.761
				c0,0.372-0.287,0.673-0.64,0.673H12.06C11.707,24.467,11.42,24.165,11.42,23.793z"/>
			<path fill="#EFC41C" d="M22.523,23.793v-2.761c0-0.373,0.287-0.674,0.641-0.674h7.88c0.353,0,0.64,0.301,0.64,0.674v2.761
				c0,0.372-0.287,0.673-0.64,0.673h-7.88C22.81,24.467,22.523,24.165,22.523,23.793z"/>
			<path fill="#F16465" d="M0.316,30.58v-2.763c0-0.371,0.287-0.672,0.641-0.672h7.88c0.353,0,0.64,0.301,0.64,0.672v2.763
				c0,0.372-0.288,0.674-0.64,0.674h-7.88C0.603,31.254,0.316,30.952,0.316,30.58z"/>
			<path fill="#F16465" d="M11.42,30.58v-2.763c0-0.371,0.287-0.672,0.64-0.672h7.881c0.353,0,0.64,0.301,0.64,0.672v2.763
				c0,0.372-0.287,0.674-0.64,0.674H12.06C11.707,31.254,11.42,30.952,11.42,30.58z"/>
			<path fill="#F16465" d="M22.523,30.58v-2.763c0-0.371,0.287-0.672,0.641-0.672h7.88c0.353,0,0.64,0.301,0.64,0.672v2.763
				c0,0.372-0.287,0.674-0.64,0.674h-7.88C22.81,31.254,22.523,30.952,22.523,30.58z"/>
			<path fill="#7DCCBB" d="M0.316,10.222V7.459c0-0.372,0.287-0.673,0.641-0.673h4.295c0.354,0,0.64,0.301,0.64,0.673v2.763
				c0,0.371-0.287,0.673-0.64,0.673H0.957C0.603,10.895,0.316,10.593,0.316,10.222z"/>
			<path fill="#7DCCBB" d="M11.42,10.222V7.459c0-0.372,0.287-0.673,0.64-0.673h4.296c0.353,0,0.641,0.301,0.641,0.673v2.763
				c0,0.371-0.288,0.673-0.641,0.673H12.06C11.707,10.895,11.42,10.593,11.42,10.222z"/>
			<path fill="#7DCCBB" d="M22.523,10.222V7.459c0-0.372,0.287-0.673,0.641-0.673h4.294c0.354,0,0.641,0.301,0.641,0.673v2.763
				c0,0.371-0.287,0.673-0.641,0.673h-4.294C22.81,10.895,22.523,10.593,22.523,10.222z"/>
			<path fill="#A6D16F" d="M0.316,17.008v-2.763c0-0.372,0.287-0.673,0.641-0.673h4.295c0.354,0,0.64,0.301,0.64,0.673v2.763
				c0,0.371-0.287,0.673-0.64,0.673H0.957C0.603,17.681,0.316,17.379,0.316,17.008z"/>
			<path fill="#A6D16F" d="M11.42,17.008v-2.763c0-0.372,0.287-0.673,0.64-0.673h4.296c0.353,0,0.641,0.301,0.641,0.673v2.763
				c0,0.371-0.288,0.673-0.641,0.673H12.06C11.707,17.681,11.42,17.379,11.42,17.008z"/>
			<path fill="#A6D16F" d="M22.523,17.008v-2.763c0-0.372,0.287-0.673,0.641-0.673h4.294c0.354,0,0.641,0.301,0.641,0.673v2.763
				c0,0.371-0.287,0.673-0.641,0.673h-4.294C22.81,17.681,22.523,17.379,22.523,17.008z"/>
			<path fill="#EFC41C" d="M0.316,23.793v-2.761c0-0.373,0.287-0.674,0.641-0.674h4.295c0.354,0,0.64,0.301,0.64,0.674v2.761
				c0,0.372-0.287,0.673-0.64,0.673H0.957C0.603,24.467,0.316,24.165,0.316,23.793z"/>
			<path fill="#EFC41C" d="M11.42,23.793v-2.761c0-0.373,0.287-0.674,0.64-0.674h4.296c0.353,0,0.641,0.301,0.641,0.674v2.761
				c0,0.372-0.288,0.673-0.641,0.673H12.06C11.707,24.467,11.42,24.165,11.42,23.793z"/>
			<path fill="#EFC41C" d="M22.523,23.793v-2.761c0-0.373,0.287-0.674,0.641-0.674h4.294c0.354,0,0.641,0.301,0.641,0.674v2.761
				c0,0.372-0.287,0.673-0.641,0.673h-4.294C22.81,24.467,22.523,24.165,22.523,23.793z"/>
			<path fill="#F16465" d="M0.316,30.58v-2.763c0-0.371,0.287-0.672,0.641-0.672h4.295c0.354,0,0.64,0.301,0.64,0.672v2.763
				c0,0.372-0.287,0.674-0.64,0.674H0.957C0.603,31.254,0.316,30.952,0.316,30.58z"/>
			<path fill="#F16465" d="M11.42,30.58v-2.763c0-0.371,0.287-0.672,0.64-0.672h4.296c0.353,0,0.641,0.301,0.641,0.672v2.763
				c0,0.372-0.288,0.674-0.641,0.674H12.06C11.707,31.254,11.42,30.952,11.42,30.58z"/>
			<path fill="#F16465" d="M22.523,30.58v-2.763c0-0.371,0.287-0.672,0.641-0.672h4.294c0.354,0,0.641,0.301,0.641,0.672v2.763
				c0,0.372-0.287,0.674-0.641,0.674h-4.294C22.81,31.254,22.523,30.952,22.523,30.58z"/>
			<path fill="#36BBED" d="M0.316,3.436V0.673C0.316,0.301,0.603,0,0.957,0h15.72c0.354,0,0.64,0.301,0.64,0.673v2.763
				c0,0.371-0.286,0.673-0.64,0.673H0.957C0.603,4.108,0.316,3.807,0.316,3.436z"/>
		</g>
	</g>
</g>
<g id="Layer_2">
</g>
</svg>
