<?xml version="1.0" encoding="utf-8"?>
<!-- Generator: Adobe Illustrator 16.0.0, SVG Export Plug-In . SVG Version: 6.00 Build 0)  -->
<!DOCTYPE svg PUBLIC "-//W3C//DTD SVG 1.1//EN" "http://www.w3.org/Graphics/SVG/1.1/DTD/svg11.dtd">
<svg version="1.1" id="Layer_1" xmlns="http://www.w3.org/2000/svg" xmlns:xlink="http://www.w3.org/1999/xlink" x="0px" y="0px"
	 width="35px" height="35px" viewBox="0 0 35 35" enable-background="new 0 0 35 35" xml:space="preserve">
<g>
	<path fill="#010101" d="M11.678,8.714h22.526c0.386,0,0.694-0.307,0.694-0.693c0-0.385-0.309-0.693-0.694-0.693H11.678
		c-0.385,0-0.693,0.308-0.693,0.693C10.985,8.407,11.293,8.714,11.678,8.714z"/>
	<path fill="#010101" d="M34.167,16.454H11.678c-0.385,0-0.693,0.308-0.693,0.693c0,0.385,0.308,0.694,0.693,0.694h22.526
		c0.386,0,0.694-0.309,0.694-0.694C34.898,16.762,34.551,16.454,34.167,16.454z"/>
	<path fill="#010101" d="M34.167,25.543H11.678c-0.385,0-0.693,0.307-0.693,0.692s0.308,0.692,0.693,0.692h22.526
		c0.386,0,0.694-0.307,0.694-0.692S34.551,25.543,34.167,25.543z"/>
	<path fill="#010101" d="M6.671,13.528H0.818c-0.385,0-0.693,0.308-0.693,0.693v5.853c0,0.385,0.308,0.693,0.693,0.693h5.853
		c0.386,0,0.694-0.309,0.694-0.693v-5.853C7.327,13.836,7.018,13.528,6.671,13.528z M5.979,19.381H1.511v-4.506h4.506v4.506H5.979z"
		/>
	<path fill="#010101" d="M0.664,11.333h6.007c0.231,0,0.462-0.116,0.578-0.347c0.116-0.231,0.116-0.462,0-0.693L4.246,5.094
		C4.13,4.902,3.899,4.747,3.668,4.747c-0.23,0-0.462,0.116-0.578,0.347l-3.004,5.237c-0.115,0.192-0.115,0.462,0,0.693
		C0.202,11.256,0.433,11.333,0.664,11.333z M3.668,6.827l1.81,3.158H1.819L3.668,6.827z"/>
	<path fill="#010101" d="M3.861,22.345c-2.118,0-3.851,1.734-3.851,3.853c0,2.117,1.733,3.851,3.851,3.851
		c2.118,0,3.85-1.733,3.85-3.851C7.711,24.079,5.979,22.345,3.861,22.345z M3.861,28.701c-1.386,0-2.504-1.117-2.504-2.504
		s1.118-2.504,2.504-2.504c1.386,0,2.502,1.117,2.502,2.504S5.247,28.701,3.861,28.701z"/>
</g>
</svg>
