<?xml version="1.0" encoding="utf-8"?>
<!-- Generator: Adobe Illustrator 16.0.0, SVG Export Plug-In . SVG Version: 6.00 Build 0)  -->
<!DOCTYPE svg PUBLIC "-//W3C//DTD SVG 1.1//EN" "http://www.w3.org/Graphics/SVG/1.1/DTD/svg11.dtd">
<svg version="1.1" xmlns="http://www.w3.org/2000/svg" xmlns:xlink="http://www.w3.org/1999/xlink" x="0px" y="0px" width="32px"
	 height="32px" viewBox="0 0 32 32" enable-background="new 0 0 32 32" xml:space="preserve">
<g id="bg" display="none">
	<rect x="-702.813" y="-230.981" display="inline" fill="#5D5E5E" width="1269.604" height="628.432"/>
	<rect x="-702.814" y="-113.197" display="inline" fill="#FFFFFF" width="1269.604" height="510.648"/>
</g>
<g id="Layer_5" display="none">
</g>
<g id="Layer_1">
	<g>
		<path fill="#ACB5BD" d="M0.358,17.904v-2.755c0-0.372,0.286-0.671,0.639-0.671h30.008c0.353,0,0.638,0.3,0.638,0.671v2.755
			c0,0.371-0.285,0.671-0.638,0.671H0.997C0.645,18.575,0.358,18.275,0.358,17.904z"/>
		<path fill="#ACB5BD" d="M0.358,24.617v-2.83c0-0.372,0.286-0.672,0.639-0.672h30.008c0.353,0,0.638,0.301,0.638,0.672v2.83
			c0,0.369-0.285,0.67-0.638,0.67H0.997C0.645,25.288,0.358,24.986,0.358,24.617z"/>
		<path fill="#ACB5BD" d="M0.358,4.178V1.122c0-0.371,0.286-0.37,0.639-0.37h30.007c0.354,0,0.639,0,0.639,0.37v3.056
			c0,0.371-0.285,0.67-0.639,0.67H0.997C0.645,4.849,0.358,4.548,0.358,4.178z"/>
		<path fill="#ACB5BD" d="M0.358,31.329v-2.753c0-0.372,0.286-0.671,0.639-0.671h30.007c0.354,0,0.639,0.3,0.639,0.671v2.753
			c0,0.372-0.287,0.671-0.639,0.671H0.997C0.645,32,0.358,31.7,0.358,31.329z"/>
		<path fill="#ACB5BD" d="M0.358,11.191V8.135c0-0.37,0.286-0.671,0.639-0.671h30.007c0.354,0,0.639,0.301,0.639,0.671v3.056
			c0,0.37-0.285,0.671-0.639,0.671H0.997C0.645,11.862,0.358,11.561,0.358,11.191z"/>
	</g>
	<path fill="#A6D170" d="M0.358,17.152v-2.754c0-0.372,0.286-0.672,0.639-0.672h30.008c0.353,0,0.638,0.3,0.638,0.672v2.754
		c0,0.371-0.285,0.671-0.638,0.671H0.997C0.645,17.824,0.358,17.523,0.358,17.152z"/>
	<path fill="#7ECCBB" d="M0.358,23.866v-2.831c0-0.371,0.286-0.671,0.639-0.671h30.008c0.353,0,0.638,0.301,0.638,0.671v2.831
		c0,0.37-0.285,0.669-0.638,0.669H0.997C0.645,24.536,0.358,24.236,0.358,23.866z"/>
	<path fill="#D4555A" d="M0.358,3.427V0.671C0.358,0.3,0.645,0,0.997,0h30.007c0.354,0,0.639,0.3,0.639,0.671v2.756
		c0,0.371-0.285,0.672-0.639,0.672H0.997C0.645,4.099,0.358,3.797,0.358,3.427z"/>
	<path fill="#3CBBEC" d="M0.358,30.578v-2.754c0-0.371,0.286-0.671,0.639-0.671h30.007c0.354,0,0.639,0.3,0.639,0.671v2.754
		c0,0.372-0.287,0.671-0.639,0.671H0.997C0.645,31.249,0.358,30.948,0.358,30.578z"/>
	<path fill="#EFC41D" d="M0.358,10.439V7.384c0-0.371,0.286-0.672,0.639-0.672h30.007c0.354,0,0.639,0.301,0.639,0.672v3.056
		c0,0.371-0.285,0.671-0.639,0.671H0.997C0.645,11.111,0.358,10.81,0.358,10.439z"/>
	<path fill="#EFC41D" d="M0.358,17.176V14.42c0-0.371,0.286-0.67,0.639-0.67h20.22c0.354,0,0.639,0.3,0.639,0.67v2.756
		c0,0.371-0.285,0.671-0.639,0.671H0.997C0.645,17.848,0.358,17.547,0.358,17.176z"/>
	<path fill="#A6D170" d="M0.358,23.889v-2.83c0-0.371,0.286-0.672,0.639-0.672H26.24c0.353,0,0.636,0.301,0.636,0.672v2.83
		c0,0.372-0.283,0.67-0.636,0.67H0.997C0.645,24.561,0.358,24.26,0.358,23.889z"/>
	<path fill="#7ECCBB" d="M0.358,30.602v-2.754c0-0.371,0.286-0.671,0.639-0.671h18.617c0.352,0,0.639,0.301,0.639,0.671v2.754
		c0,0.371-0.287,0.67-0.639,0.67H0.997C0.645,31.271,0.358,30.973,0.358,30.602z"/>
	<path fill="#D4555A" d="M0.358,10.462V7.408c0-0.371,0.286-0.672,0.639-0.672h13.694c0.354,0,0.64,0.301,0.64,0.672v3.055
		c0,0.37-0.285,0.671-0.64,0.671H0.997C0.645,11.133,0.358,10.833,0.358,10.462z"/>
	<path fill="#3CBBEC" d="M0.358,3.45V0.694c0-0.37,0.287-0.67,0.639-0.67h7.768c0.353,0,0.639,0.3,0.639,0.67v2.755
		c0,0.37-0.286,0.67-0.639,0.67H0.997C0.645,4.121,0.358,3.82,0.358,3.45z"/>
</g>
</svg>
