<?xml version="1.0" encoding="utf-8"?>
<!-- Generator: Adobe Illustrator 16.0.0, SVG Export Plug-In . SVG Version: 6.00 Build 0)  -->
<!DOCTYPE svg PUBLIC "-//W3C//DTD SVG 1.1//EN" "http://www.w3.org/Graphics/SVG/1.1/DTD/svg11.dtd">
<svg version="1.1" id="Layer_1" xmlns="http://www.w3.org/2000/svg" xmlns:xlink="http://www.w3.org/1999/xlink" x="0px" y="0px"
	 width="124.756px" height="126.223px" viewBox="0 0 124.756 126.223" enable-background="new 0 0 124.756 126.223"
	 xml:space="preserve">
<g>
	<g>
		<path fill="#343434" d="M72.902,60.166c-3.315,0-6-2.684-6-6V20.514c0-3.316,2.685-6,6-6s6,2.684,6,6v33.651
			C78.902,57.478,76.218,60.166,72.902,60.166z"/>
	</g>
	<g>
		<path fill="#343434" d="M106.55,60.166H72.902c-3.315,0-6-2.684-6-6c0-3.315,2.685-6,6-6h33.647c3.314,0,6,2.685,6,6
			C112.55,57.482,109.865,60.166,106.55,60.166z"/>
	</g>
</g>
<g>
	<g>
		<path fill="#343434" d="M51.638,113.254c-3.316,0-6-2.684-6-6V73.606c0-3.316,2.684-6,6-6c3.315,0,6,2.684,6,6v33.647
			C57.638,110.566,54.949,113.254,51.638,113.254z"/>
	</g>
	<g>
		<path fill="#343434" d="M51.638,79.606H17.989c-3.316,0-6-2.685-6-6c0-3.316,2.684-6,6-6h33.648c3.315,0,6,2.684,6,6
			C57.638,76.922,54.949,79.606,51.638,79.606z"/>
	</g>
</g>
<g>
	<path fill="#343434" d="M72.902,60.166c-1.537,0-3.071-0.584-4.244-1.756c-2.344-2.34-2.344-6.144,0-8.484l44.483-44.483
		c2.345-2.344,6.14-2.344,8.483,0c2.345,2.34,2.345,6.144,0,8.483l-44.479,44.48C75.974,59.578,74.438,60.166,72.902,60.166z"/>
</g>
<g>
	<path fill="#343434" d="M6.869,124.37c-1.536,0-3.071-0.584-4.243-1.756c-2.345-2.34-2.345-6.146,0-8.484L47.39,69.366
		c2.344-2.344,6.14-2.344,8.484,0c2.344,2.34,2.344,6.144,0,8.484l-44.761,44.764C9.941,123.786,8.405,124.37,6.869,124.37z"/>
</g>
<g>
	<g>
		<path fill="#343434" d="M59.679,54.186c0,3.315-2.685,6-6,6H20.027c-3.315,0-6-2.685-6-6s2.685-6,6-6h33.651
			C56.99,48.186,59.679,50.87,59.679,54.186z"/>
	</g>
	<g>
		<path fill="#343434" d="M59.679,20.539v33.647c0,3.315-2.685,6-6,6c-3.316,0-6-2.685-6-6V20.539c0-3.315,2.684-6,6-6
			C56.994,14.539,59.679,17.222,59.679,20.539z"/>
	</g>
</g>
<g>
	<g>
		<path fill="#343434" d="M112.771,75.45c0,3.316-2.684,6-6,6H73.124c-3.315,0-6-2.684-6-6s2.685-6,6-6h33.646
			C110.083,69.45,112.771,72.138,112.771,75.45z"/>
	</g>
	<g>
		<path fill="#343434" d="M79.124,75.45v33.648c0,3.315-2.686,6.001-6,6.001c-3.315,0-6-2.687-6-6.001V75.45c0-3.316,2.685-6,6-6
			C76.438,69.45,79.124,72.138,79.124,75.45z"/>
	</g>
</g>
<g>
	<path fill="#343434" d="M59.679,54.186c0,1.537-0.584,3.071-1.756,4.244c-2.34,2.344-6.145,2.344-8.484,0L4.954,13.947
		c-2.344-2.346-2.344-6.141,0-8.484c2.34-2.344,6.145-2.344,8.484,0l44.48,44.48C59.091,51.114,59.679,52.65,59.679,54.186z"/>
</g>
<g>
	<path fill="#343434" d="M123.888,120.219c0,1.535-0.584,3.072-1.757,4.244c-2.339,2.345-6.145,2.345-8.483,0L68.884,79.698
		c-2.346-2.344-2.346-6.14,0-8.484c2.34-2.344,6.143-2.344,8.482,0l44.765,44.762C123.304,117.147,123.888,118.684,123.888,120.219z
		"/>
</g>
</svg>
