<?xml version="1.0" encoding="utf-8"?>
<!-- Generator: Adobe Illustrator 16.0.0, SVG Export Plug-In . SVG Version: 6.00 Build 0)  -->
<!DOCTYPE svg PUBLIC "-//W3C//DTD SVG 1.1//EN" "http://www.w3.org/Graphics/SVG/1.1/DTD/svg11.dtd">
<svg version="1.1" id="Layer_1" xmlns="http://www.w3.org/2000/svg" xmlns:xlink="http://www.w3.org/1999/xlink" x="0px" y="0px"
	 width="32px" height="32.003px" viewBox="0 0 32 32.003" enable-background="new 0 0 32 32.003" xml:space="preserve">
<g id="bg" display="none">
	<rect x="-188.004" y="-4.102" display="inline" fill="#FFFFFF" width="338.5" height="49.167"/>
</g>
<g id="Layer_1_1_">
	<g>
		<g>
			<path fill="#262626" stroke="#262626" stroke-miterlimit="10" d="M15.215,22.33c0.051,0.052,0.109,0.099,0.169,0.14
				c0.028,0.019,0.058,0.031,0.086,0.047c0.035,0.019,0.068,0.039,0.105,0.056c0.037,0.015,0.075,0.022,0.112,0.034
				c0.032,0.01,0.062,0.021,0.095,0.027c0.072,0.015,0.145,0.021,0.217,0.021c0.073,0,0.146-0.007,0.218-0.021
				c0.033-0.006,0.063-0.019,0.096-0.027c0.037-0.012,0.075-0.02,0.111-0.034c0.038-0.017,0.073-0.038,0.109-0.058
				c0.027-0.017,0.056-0.027,0.082-0.045c0.061-0.041,0.119-0.088,0.17-0.14l6.651-6.652c0.434-0.434,0.434-1.135,0-1.568
				c-0.433-0.433-1.135-0.433-1.567,0l-4.762,4.761V2.697c0-0.612-0.496-1.109-1.108-1.109c-0.612,0-1.108,0.497-1.108,1.109V18.87
				l-4.76-4.76c-0.432-0.434-1.135-0.434-1.568,0c-0.433,0.433-0.433,1.135,0,1.567L15.215,22.33z"/>
			<path fill="#262626" stroke="#262626" stroke-miterlimit="10" d="M27.088,21.547c-0.612,0-1.108,0.496-1.108,1.107v5.544H6.021
				v-5.544c0-0.611-0.497-1.107-1.109-1.107c-0.612,0-1.108,0.496-1.108,1.107v6.653c0,0.613,0.497,1.107,1.108,1.107h22.176
				c0.612,0,1.108-0.494,1.108-1.107v-6.653C28.196,22.043,27.7,21.547,27.088,21.547z"/>
		</g>
	</g>
</g>
<g id="blue" display="none">
</g>
<g id="grey" display="none">
</g>
</svg>
