<?xml version="1.0" encoding="utf-8"?>
<!-- Generator: Adobe Illustrator 16.0.0, SVG Export Plug-In . SVG Version: 6.00 Build 0)  -->
<!DOCTYPE svg PUBLIC "-//W3C//DTD SVG 1.1//EN" "http://www.w3.org/Graphics/SVG/1.1/DTD/svg11.dtd">
<svg version="1.1" xmlns="http://www.w3.org/2000/svg" xmlns:xlink="http://www.w3.org/1999/xlink" x="0px" y="0px" width="32px"
	 height="32px" viewBox="0 0 32 32" enable-background="new 0 0 32 32" xml:space="preserve">
<g id="bg" display="none">
	<rect x="-970.894" y="-208.536" display="inline" fill="#5D5E5E" width="1269.604" height="628.432"/>
	<rect x="-970.894" y="-90.751" display="inline" fill="#FFFFFF" width="1269.604" height="510.648"/>
</g>
<g id="Layer_5" display="none">
</g>
<g id="Layer_1">
	<g>
		<path fill="#ACB5BC" d="M15.502,24.858c-0.15,0.149-0.299,0.199-0.499,0.149l-8.174-2.243l-6.786,0.913L0,32h32V21.269
			l-8.423-4.935L15.502,24.858z"/>
		<path fill="#3CBBEC" d="M15.502,24.268c-0.15,0.15-0.299,0.2-0.499,0.15l-8.174-2.243l-6.786,0.913L0,31.411h32V20.679
			l-8.423-4.935L15.502,24.268z"/>
		<path fill="#EFC41D" d="M6.928,21.128l8.075,2.244l8.175-8.624c0.149-0.149,0.448-0.199,0.647-0.1L32,19.483V0.008h-8.374h-8.025
			c-0.05,0.149-0.149-0.05-0.299,0c-0.149,0.05-0.299,0.05-0.449,0H0v22.068l6.53-0.899C6.629,21.128,6.779,21.078,6.928,21.128z"/>
	</g>
</g>
</svg>
