<?xml version="1.0" encoding="utf-8"?>
<!-- Generator: Adobe Illustrator 16.0.0, SVG Export Plug-In . SVG Version: 6.00 Build 0)  -->
<!DOCTYPE svg PUBLIC "-//W3C//DTD SVG 1.1//EN" "http://www.w3.org/Graphics/SVG/1.1/DTD/svg11.dtd">
<svg version="1.1" id="Layer_1" xmlns="http://www.w3.org/2000/svg" xmlns:xlink="http://www.w3.org/1999/xlink" x="0px" y="0px"
	 width="32px" height="32.003px" viewBox="0 0 32 32.003" enable-background="new 0 0 32 32.003" xml:space="preserve">
<g id="bg" display="none">
	<rect x="-52.818" y="-5.496" display="inline" fill="#FFFFFF" width="199.5" height="49.833"/>
</g>
<g id="Layer_1_1_">
	<g>
		<g>
			<path fill="#ACB5BC" stroke="#ACB5BC" stroke-width="0.9913" stroke-miterlimit="10" d="M21.699,22.682
				c-0.266,0.267-0.496,0.56-0.694,0.868l-8.772-5.323c0.229-0.583,0.362-1.215,0.362-1.875c0-0.665-0.134-1.296-0.362-1.878
				l8.776-5.281c0.899,1.414,2.478,2.358,4.28,2.358c2.798,0,5.076-2.278,5.076-5.075c0-2.799-2.278-5.08-5.076-5.08
				c-2.801,0-5.08,2.279-5.08,5.08c0,0.633,0.125,1.245,0.336,1.806l-8.788,5.296c-0.907-1.384-2.468-2.301-4.245-2.301
				c-2.803,0-5.08,2.276-5.08,5.079c0,2.8,2.277,5.076,5.08,5.076c1.776,0,3.337-0.915,4.245-2.3l8.784,5.334
				c-0.219,0.57-0.333,1.185-0.333,1.813c0,1.353,0.528,2.632,1.485,3.591c0.99,0.984,2.291,1.481,3.591,1.481
				s2.596-0.497,3.589-1.481c0.958-0.963,1.486-2.238,1.486-3.591c0-1.356-0.528-2.631-1.486-3.594
				C26.898,20.701,23.682,20.701,21.699,22.682L21.699,22.682z M25.289,2.411c2.24,0,4.061,1.822,4.061,4.064
				c0,2.235-1.82,4.058-4.061,4.058c-2.241,0-4.061-1.824-4.061-4.058C21.229,4.233,23.048,2.411,25.289,2.411L25.289,2.411z
				 M7.518,20.412c-2.239,0-4.058-1.822-4.058-4.06c0-2.241,1.821-4.063,4.058-4.063c2.244,0,4.06,1.822,4.06,4.063
				C11.577,18.587,9.762,20.412,7.518,20.412L7.518,20.412z M28.162,29.15c-1.585,1.583-4.164,1.583-5.744,0
				c-0.766-0.775-1.189-1.795-1.189-2.875c0-1.087,0.424-2.107,1.189-2.87c0.79-0.794,1.832-1.194,2.87-1.194
				c1.04,0,2.081,0.398,2.874,1.194c0.768,0.763,1.189,1.783,1.189,2.87C29.35,27.355,28.927,28.375,28.162,29.15L28.162,29.15z"/>
		</g>
		<g>
			<path fill="#292929" stroke="#292929" stroke-width="0.9913" stroke-miterlimit="10" d="M20.9,21.938
				c-0.266,0.267-0.496,0.56-0.693,0.869l-8.772-5.324c0.229-0.583,0.362-1.215,0.362-1.875c0-0.664-0.133-1.296-0.362-1.879
				l8.777-5.281c0.899,1.414,2.478,2.358,4.28,2.358c2.798,0,5.076-2.277,5.076-5.074c0-2.799-2.278-5.08-5.076-5.08
				c-2.801,0-5.08,2.279-5.08,5.08c0,0.632,0.125,1.245,0.336,1.806l-8.787,5.295c-0.907-1.383-2.468-2.3-4.245-2.3
				c-2.803,0-5.08,2.276-5.08,5.079c0,2.8,2.277,5.076,5.08,5.076c1.776,0,3.337-0.915,4.245-2.299l8.784,5.334
				c-0.22,0.571-0.333,1.185-0.333,1.813c0,1.354,0.527,2.633,1.486,3.59c0.988,0.985,2.289,1.481,3.59,1.481
				c1.3,0,2.596-0.496,3.589-1.481c0.958-0.961,1.485-2.236,1.485-3.59c0-1.356-0.527-2.631-1.485-3.592
				C26.1,19.957,22.883,19.957,20.9,21.938L20.9,21.938z M24.491,1.666c2.239,0,4.061,1.823,4.061,4.065
				c0,2.236-1.819,4.058-4.061,4.058S20.43,7.965,20.43,5.731C20.43,3.489,22.25,1.666,24.491,1.666L24.491,1.666z M6.719,19.666
				c-2.239,0-4.058-1.822-4.058-4.059c0-2.24,1.821-4.063,4.058-4.063c2.245,0,4.06,1.823,4.06,4.063
				C10.779,17.843,8.964,19.666,6.719,19.666L6.719,19.666z M27.363,28.406c-1.584,1.584-4.163,1.584-5.743,0
				c-0.767-0.773-1.188-1.795-1.188-2.875c0-1.087,0.422-2.107,1.188-2.869c0.79-0.793,1.832-1.195,2.871-1.195
				c1.04,0,2.081,0.398,2.874,1.195c0.767,0.762,1.189,1.782,1.189,2.869C28.551,26.611,28.129,27.63,27.363,28.406L27.363,28.406z"
				/>
		</g>
	</g>
</g>
<g id="blue" display="none">
</g>
<g id="grey" display="none">
</g>
</svg>
