<?xml version="1.0" encoding="utf-8"?>
<!-- Generator: Adobe Illustrator 16.0.0, SVG Export Plug-In . SVG Version: 6.00 Build 0)  -->
<!DOCTYPE svg PUBLIC "-//W3C//DTD SVG 1.1//EN" "http://www.w3.org/Graphics/SVG/1.1/DTD/svg11.dtd">
<svg version="1.1" xmlns="http://www.w3.org/2000/svg" xmlns:xlink="http://www.w3.org/1999/xlink" x="0px" y="0px" width="32px"
	 height="32px" viewBox="0 0 32 32" enable-background="new 0 0 32 32" xml:space="preserve">
<g id="bg" display="none">
	<rect x="-745.535" y="-186.073" display="inline" fill="#5D5E5E" width="1269.604" height="628.432"/>
	<rect x="-745.535" y="-68.289" display="inline" fill="#FFFFFF" width="1269.604" height="510.648"/>
</g>
<g id="Layer_5" display="none">
</g>
<g id="Layer_1">
	<g>
		<path fill="#ACB5BD" d="M17.905,31.98H15.15c-0.371,0-0.671-0.286-0.671-0.64V16.656c0-0.353,0.3-0.638,0.671-0.638h2.755
			c0.371,0,0.671,0.287,0.671,0.638V31.34C18.576,31.694,18.276,31.98,17.905,31.98z"/>
		<path fill="#ACB5BD" d="M17.905,31.98H15.15c-0.371,0-0.671-0.286-0.671-0.64V20.486c0-0.353,0.3-0.637,0.671-0.637h2.755
			c0.371,0,0.671,0.284,0.671,0.637V31.34C18.576,31.694,18.276,31.98,17.905,31.98z"/>
		<path fill="#ACB5BD" d="M24.619,31.98h-2.831c-0.372,0-0.671-0.286-0.671-0.64V5.165c0-0.354,0.299-0.639,0.671-0.639h2.831
			c0.37,0,0.67,0.285,0.67,0.639V31.34C25.289,31.694,24.987,31.98,24.619,31.98z"/>
		<path fill="#ACB5BD" d="M24.619,31.98h-2.831c-0.372,0-0.671-0.286-0.671-0.64V12.827c0-0.354,0.299-0.639,0.671-0.639h2.831
			c0.37,0,0.67,0.286,0.67,0.639V31.34C25.289,31.694,24.987,31.98,24.619,31.98z"/>
		<path fill="#ACB5BD" d="M4.178,31.98H1.122c-0.371,0-0.371-0.286-0.371-0.64V20.486c0-0.353,0-0.637,0.371-0.637h3.056
			c0.37,0,0.672,0.284,0.672,0.637V31.34C4.85,31.694,4.548,31.98,4.178,31.98z"/>
		<path fill="#ACB5BD" d="M31.33,31.98h-2.755c-0.371,0-0.672-0.286-0.672-0.64V1.335c0-0.354,0.301-0.64,0.672-0.64h2.755
			c0.371,0,0.67,0.287,0.67,0.64V31.34C32,31.694,31.701,31.98,31.33,31.98z"/>
		<path fill="#ACB5BD" d="M31.33,31.98h-2.755c-0.371,0-0.672-0.286-0.672-0.64V8.996c0-0.353,0.301-0.64,0.672-0.64h2.755
			c0.371,0,0.67,0.287,0.67,0.64V31.34C32,31.694,31.701,31.98,31.33,31.98z"/>
		<path fill="#ACB5BD" d="M11.192,31.98H8.136c-0.37,0-0.672-0.286-0.672-0.64V12.827c0-0.354,0.302-0.639,0.672-0.639h3.056
			c0.37,0,0.67,0.286,0.67,0.639V31.34C11.862,31.694,11.562,31.98,11.192,31.98z"/>
		<path fill="#ACB5BD" d="M11.192,31.98H8.136c-0.37,0-0.672-0.286-0.672-0.64V16.656c0-0.353,0.302-0.638,0.672-0.638h3.056
			c0.37,0,0.67,0.287,0.67,0.638V31.34C11.862,31.694,11.562,31.98,11.192,31.98z"/>
		<path fill="#ACB5BD" d="M4.178,31.98H1.122c-0.371,0-0.371-0.286-0.371-0.64v-7.021c0-0.354,0-0.638,0.371-0.638h3.056
			c0.37,0,0.672,0.287,0.672,0.638v7.021C4.85,31.694,4.548,31.98,4.178,31.98z"/>
	</g>
	<path fill="#A6D170" d="M17.153,31.31h-2.755c-0.371,0-0.67-0.286-0.67-0.639V15.986c0-0.353,0.3-0.639,0.67-0.639h2.755
		c0.371,0,0.672,0.286,0.672,0.639v14.685C17.825,31.022,17.524,31.31,17.153,31.31z"/>
	<path fill="#EFC41D" d="M17.153,31.31h-2.755c-0.371,0-0.67-0.286-0.67-0.639v-7.129c0-0.354,0.3-0.639,0.67-0.639h2.755
		c0.371,0,0.672,0.285,0.672,0.639v7.129C17.825,31.022,17.524,31.31,17.153,31.31z"/>
	<path fill="#7ECCBB" d="M23.867,31.31h-2.831c-0.372,0-0.671-0.286-0.671-0.639V4.495c0-0.354,0.299-0.639,0.671-0.639h2.831
		c0.37,0,0.67,0.286,0.67,0.639v26.176C24.538,31.022,24.237,31.31,23.867,31.31z"/>
	<path fill="#A6D170" d="M23.867,31.31h-2.831c-0.372,0-0.671-0.286-0.671-0.639v-14.79c0-0.354,0.299-0.638,0.671-0.638h2.831
		c0.37,0,0.67,0.284,0.67,0.638v14.79C24.538,31.022,24.237,31.31,23.867,31.31z"/>
	<path fill="#D4555A" d="M3.427,31.31H0.671C0.3,31.31,0,31.022,0,30.671V19.816c0-0.352,0.3-0.637,0.671-0.637h2.755
		c0.37,0,0.672,0.285,0.672,0.638v10.853C4.099,31.022,3.797,31.31,3.427,31.31z"/>
	<path fill="#3CBBEC" d="M30.579,31.31h-2.754c-0.371,0-0.672-0.286-0.672-0.639V0.664c0-0.354,0.302-0.638,0.672-0.638h2.754
		c0.371,0,0.67,0.285,0.67,0.638v30.007C31.249,31.022,30.95,31.31,30.579,31.31z"/>
	<path fill="#7ECCBB" d="M30.579,31.31h-2.754c-0.371,0-0.672-0.286-0.672-0.639V12.049c0-0.352,0.302-0.637,0.672-0.637h2.754
		c0.371,0,0.67,0.285,0.67,0.637v18.622C31.249,31.022,30.95,31.31,30.579,31.31z"/>
	<path fill="#EFC41D" d="M10.44,31.31H7.385c-0.37,0-0.672-0.286-0.672-0.639V12.155c0-0.353,0.302-0.638,0.672-0.638h3.056
		c0.37,0,0.671,0.285,0.671,0.638v18.516C11.111,31.022,10.811,31.31,10.44,31.31z"/>
	<path fill="#D4555A" d="M10.44,31.31H7.385c-0.37,0-0.672-0.286-0.672-0.639V19.712c0-0.354,0.302-0.639,0.672-0.639h3.056
		c0.37,0,0.671,0.285,0.671,0.639v10.959C11.111,31.022,10.811,31.31,10.44,31.31z"/>
	<path fill="#3CBBEC" d="M3.427,31.31H0.671C0.3,31.31,0,31.022,0,30.671v-3.299c0-0.353,0.3-0.638,0.671-0.638h2.755
		c0.37,0,0.672,0.286,0.672,0.638v3.299C4.099,31.022,3.797,31.31,3.427,31.31z"/>
</g>
</svg>
