<?xml version="1.0" encoding="utf-8"?>
<!-- Generator: Adobe Illustrator 16.0.0, SVG Export Plug-In . SVG Version: 6.00 Build 0)  -->
<!DOCTYPE svg PUBLIC "-//W3C//DTD SVG 1.1//EN" "http://www.w3.org/Graphics/SVG/1.1/DTD/svg11.dtd">
<svg version="1.1" xmlns="http://www.w3.org/2000/svg" xmlns:xlink="http://www.w3.org/1999/xlink" x="0px" y="0px"
	 width="14.832px" height="14.833px" viewBox="0 0 14.832 14.833" enable-background="new 0 0 14.832 14.833" xml:space="preserve">
<g id="Layer_2" display="none">
	<rect x="-80.918" y="-16.528" display="inline" fill="#D3D3D3" width="513.833" height="170.417"/>
</g>
<g id="Layer_1">
	<g>
		<g>
			<path fill="#5B5B5B" d="M14.649,0.801c-0.123-0.122-0.267-0.184-0.435-0.184c-0.166,0-0.311,0.062-0.432,0.184l-1.257,1.247
				c-0.689-0.651-1.478-1.154-2.367-1.511C9.271,0.18,8.356,0,7.417,0C5.646,0,4.101,0.538,2.78,1.609
				C1.461,2.68,0.592,4.079,0.173,5.805v0.066c0,0.084,0.031,0.156,0.091,0.218c0.063,0.062,0.136,0.093,0.218,0.093h1.922
				c0.142,0,0.238-0.074,0.29-0.224c0.271-0.644,0.441-1.021,0.512-1.13C3.655,4.094,4.256,3.518,5.001,3.1
				c0.746-0.42,1.551-0.628,2.415-0.628c1.292,0,2.417,0.441,3.371,1.323L9.453,5.127C9.331,5.25,9.27,5.395,9.27,5.563
				c0,0.166,0.063,0.312,0.183,0.434C9.576,6.12,9.721,6.18,9.888,6.18h4.325c0.167,0,0.313-0.063,0.435-0.184
				c0.122-0.123,0.184-0.268,0.184-0.434V1.237C14.833,1.068,14.772,0.925,14.649,0.801z"/>
			<path fill="#5B5B5B" d="M14.283,8.655h-1.854c-0.143,0-0.238,0.072-0.29,0.221c-0.272,0.645-0.441,1.021-0.512,1.131
				c-0.451,0.733-1.049,1.311-1.796,1.729c-0.746,0.42-1.551,0.629-2.415,0.629c-0.624,0-1.227-0.116-1.806-0.348
				c-0.579-0.232-1.097-0.561-1.553-0.986l1.322-1.323c0.123-0.122,0.184-0.268,0.184-0.434c0-0.167-0.062-0.312-0.184-0.435
				C5.256,8.715,5.112,8.655,4.945,8.655H0.618c-0.167,0-0.312,0.061-0.434,0.184C0.063,8.961,0,9.105,0,9.271v4.326
				c0,0.169,0.061,0.313,0.185,0.435c0.122,0.123,0.267,0.186,0.435,0.186c0.167,0,0.311-0.063,0.435-0.186l1.245-1.246
				c0.688,0.657,1.472,1.162,2.351,1.518c0.879,0.353,1.789,0.53,2.728,0.53c1.764,0,3.303-0.537,4.616-1.608
				c1.314-1.072,2.176-2.471,2.589-4.195c0.005-0.014,0.009-0.037,0.009-0.068c0-0.084-0.03-0.154-0.092-0.218
				C14.439,8.684,14.366,8.655,14.283,8.655z"/>
		</g>
	</g>
</g>
</svg>
