<?xml version="1.0" encoding="utf-8"?>
<!-- Generator: Adobe Illustrator 16.0.0, SVG Export Plug-In . SVG Version: 6.00 Build 0)  -->
<!DOCTYPE svg PUBLIC "-//W3C//DTD SVG 1.1//EN" "http://www.w3.org/Graphics/SVG/1.1/DTD/svg11.dtd">
<svg version="1.1" xmlns="http://www.w3.org/2000/svg" xmlns:xlink="http://www.w3.org/1999/xlink" x="0px" y="0px" width="32px"
	 height="32px" viewBox="0 0 32 32" enable-background="new 0 0 32 32" xml:space="preserve">
<g id="Layer_1">
	<g>
		<g>
			<path fill="#ACB5BC" d="M10.2,15.683c0,0.296-0.24,0.536-0.536,0.536H1.065c-0.295,0-0.536-0.24-0.536-0.536V1.279
				c0-0.295,0.24-0.536,0.536-0.536h8.599c0.295,0,0.536,0.24,0.536,0.536V15.683z"/>
			<path fill="#ACB5BC" d="M10.2,31.464C10.2,31.76,9.96,32,9.665,32H1.065C0.77,32,0.53,31.76,0.53,31.464V19.292
				c0-0.295,0.24-0.536,0.536-0.536h8.599c0.295,0,0.536,0.241,0.536,0.536V31.464z"/>
			<path fill="#ACB5BC" d="M21.148,31.464c0,0.295-0.24,0.536-0.536,0.536H12.85c-0.296,0-0.536-0.24-0.536-0.536V11.099
				c0-0.296,0.24-0.536,0.536-0.536h7.763c0.295,0,0.536,0.24,0.536,0.536V31.464z"/>
			<path fill="#ACB5BC" d="M31.767,31.446c0,0.296-0.24,0.535-0.535,0.535h-7.111c-0.296,0-0.536-0.239-0.536-0.535v-7.299
				c0-0.295,0.24-0.536,0.536-0.536h7.111c0.295,0,0.535,0.24,0.535,0.536V31.446z"/>
			<path fill="#ACB5BC" d="M31.767,20.746c0,0.295-0.24,0.536-0.535,0.536h-7.111c-0.296,0-0.536-0.24-0.536-0.536v-9.647
				c0-0.296,0.24-0.536,0.536-0.536h7.111c0.295,0,0.535,0.24,0.535,0.536V20.746z"/>
			<path fill="#ACB5BC" d="M31.767,7.945c0,0.296-0.24,0.536-0.535,0.536H12.85c-0.296,0-0.536-0.24-0.536-0.536V1.279
				c0-0.295,0.24-0.536,0.536-0.536h18.382c0.295,0,0.535,0.24,0.535,0.536V7.945z"/>
		</g>
		<g>
			<path fill="#F27279" d="M9.902,14.939c0,0.295-0.24,0.535-0.536,0.535H0.768c-0.295,0-0.535-0.24-0.535-0.535V0.536
				C0.233,0.24,0.473,0,0.768,0h8.599c0.295,0,0.536,0.24,0.536,0.536V14.939z"/>
			<path fill="#36BBED" d="M9.902,30.721c0,0.295-0.24,0.536-0.536,0.536H0.768c-0.295,0-0.535-0.241-0.535-0.536V18.548
				c0-0.296,0.24-0.536,0.535-0.536h8.599c0.295,0,0.536,0.24,0.536,0.536V30.721z"/>
			<path fill="#A6D16F" d="M20.85,30.721c0,0.295-0.24,0.536-0.536,0.536h-7.763c-0.295,0-0.536-0.241-0.536-0.536V10.354
				c0-0.295,0.24-0.536,0.536-0.536h7.763c0.296,0,0.536,0.241,0.536,0.536V30.721z"/>
			<path fill="#F27279" d="M31.47,30.703c0,0.295-0.241,0.536-0.536,0.536h-7.111c-0.296,0-0.536-0.24-0.536-0.536v-7.299
				c0-0.296,0.24-0.535,0.536-0.535h7.111c0.295,0,0.536,0.239,0.536,0.535V30.703z"/>
			<path fill="#7DCCBB" d="M31.47,20.002c0,0.296-0.241,0.535-0.536,0.535h-7.111c-0.296,0-0.536-0.239-0.536-0.535v-9.647
				c0-0.295,0.24-0.536,0.536-0.536h7.111c0.295,0,0.536,0.241,0.536,0.536V20.002z"/>
			<path fill="#EFC41C" d="M31.47,7.202c0,0.295-0.241,0.535-0.536,0.535H12.552c-0.295,0-0.536-0.24-0.536-0.535V0.536
				C12.016,0.24,12.256,0,12.552,0h18.382c0.295,0,0.536,0.24,0.536,0.536V7.202z"/>
		</g>
	</g>
</g>
<g id="Layer_2">
</g>
</svg>
