<svg width="262" height="46" viewBox="0 0 262 46" fill="none" xmlns="http://www.w3.org/2000/svg">
<line x1="97.6416" y1="2.41223" x2="97.6416" y2="43.5787" stroke="#009FE3" stroke-linecap="round"/>
<path d="M74.387 0C69.9479 0 66.3564 3.60584 66.3564 8.03053C66.3564 12.4552 69.9623 16.0611 74.387 16.0611C78.8117 16.0611 82.4175 12.4552 82.4175 8.03053C82.4319 3.60584 78.826 0 74.387 0ZM80.6505 3.54837C80.2339 3.82133 79.8029 4.07991 79.3576 4.2954C79.099 3.76386 78.7686 3.26106 78.3951 2.78698C78.7255 2.58586 79.0415 2.35601 79.3288 2.11178C79.8316 2.54276 80.277 3.01684 80.6505 3.54837ZM77.2745 0.87632C77.921 1.13491 78.5244 1.47969 79.0703 1.91066C78.7973 2.14052 78.4956 2.34164 78.1796 2.5284C77.7917 2.08305 77.3463 1.66644 76.8579 1.3073C77.0159 1.178 77.1596 1.03434 77.2745 0.87632ZM77.8923 2.70079C77.4613 2.93064 77.0016 3.1174 76.5419 3.26106C76.3407 2.81571 76.1253 2.37037 75.8667 1.95376C76.1253 1.83883 76.3695 1.69518 76.5993 1.52278C77.0734 1.88193 77.5187 2.26981 77.8923 2.70079ZM76.9441 0.761392C76.8292 0.890685 76.7143 1.00561 76.585 1.12054C76.1683 0.833222 75.7086 0.574636 75.2346 0.373514C75.8379 0.445343 76.3982 0.574636 76.9441 0.761392ZM76.3264 1.33603C76.1396 1.47969 75.9241 1.59461 75.7086 1.68081C75.4788 1.3073 75.2058 0.948148 74.9329 0.603367C75.4213 0.804489 75.881 1.04871 76.3264 1.33603ZM74.5594 0.660832C74.861 1.01998 75.134 1.39349 75.3926 1.79574C75.1196 1.88193 74.8467 1.92503 74.5594 1.93939V0.660832ZM74.5594 2.26981C74.9041 2.25544 75.2489 2.19798 75.565 2.08305C75.8092 2.4853 76.0247 2.91627 76.2258 3.36162C75.6799 3.50528 75.1196 3.57711 74.5594 3.59147V2.26981ZM74.2146 0.675196V1.93939C73.9416 1.92503 73.6687 1.88193 73.3957 1.79574C73.6543 1.40786 73.9273 1.03434 74.2146 0.675196ZM73.0797 1.68081C72.8642 1.59461 72.6487 1.46532 72.4619 1.33603C72.8929 1.04871 73.367 0.804489 73.8554 0.603367C73.5825 0.948148 73.3239 1.3073 73.0797 1.68081ZM73.5538 0.373514C73.0797 0.574636 72.62 0.833222 72.2034 1.12054C72.0741 1.00561 71.9591 0.87632 71.8442 0.761392C72.3901 0.56027 72.9648 0.430977 73.5538 0.373514ZM79.0559 14.1648C77.9928 13.5758 77.9641 12.7713 78.0215 12.4696C78.079 12.1679 78.2801 12.2972 78.4238 12.2972C79.1277 12.2972 79.8604 12.0961 80.7798 11.1623C81.7998 10.1136 82.1302 7.78631 80.5499 6.26353C78.8548 4.62582 77.0447 4.91313 75.881 6.37845C75.6368 6.68014 75.0622 6.89563 74.5594 6.88126C73.8123 6.85253 74.2864 7.44153 74.2864 7.57082C74.2864 7.70012 74.1715 7.78631 74.0997 7.75758C73.8411 7.68575 73.9416 8.05926 73.9416 8.17419C73.9416 8.28912 73.8411 8.34658 73.7836 8.34658C73.4676 8.34658 73.5538 8.6339 73.5681 8.70573C73.5825 8.77756 73.5538 8.90685 73.4388 8.96431C73.3383 9.02178 73.2233 9.266 73.2233 9.45275C73.2233 9.79754 73.5394 10.0274 74.0566 10.4153C74.5737 10.8031 74.6456 11.1767 74.6456 11.4352C74.6599 11.6938 74.6743 12.1248 74.8036 12.4121C74.9472 12.7569 74.9185 13.3746 74.2002 13.4034C73.3239 13.4321 71.758 14.1504 71.6144 14.1935C71.1116 14.3659 70.4651 14.4377 69.9479 14.3084C69.675 14.1073 69.402 13.9062 69.1578 13.662C69.0572 13.3028 69.2296 12.9293 69.4164 12.6707C69.7181 12.9724 70.149 12.9437 70.3933 12.958C70.6375 12.9724 71.8442 12.7856 72.0166 12.7282C72.189 12.6707 72.2608 12.6851 72.3614 12.7282C72.8211 12.9006 73.4532 12.9437 73.7118 12.0673C73.9704 11.191 73.367 11.4352 73.2808 11.464C73.209 11.5071 73.094 11.4927 73.1371 11.4209C73.2521 11.191 73.0797 11.2198 72.9791 11.2054C72.7349 11.1767 72.4045 11.4496 72.3039 11.5358C72.2034 11.6364 72.0884 11.622 72.0597 11.6076C71.7293 11.4496 70.7524 11.6795 70.4507 11.1479C70.4795 11.0043 70.2065 8.86375 70.0628 8.49024C70.0341 8.40405 70.0054 8.27475 70.1059 8.14546C70.3502 7.77194 71.0397 8.17419 71.4132 8.15982C71.8586 8.14546 71.9304 7.9587 72.0453 7.81504C72.1603 7.67138 72.2465 7.75758 72.3039 7.71448C72.3901 7.65702 72.3039 7.55646 72.3327 7.49899C72.3614 7.44153 72.3901 7.47026 72.4619 7.39843C72.5338 7.3266 72.4476 7.18294 72.4907 7.13985C72.6056 6.98182 72.8929 7.11111 72.7205 6.68014C72.62 6.45028 72.7636 6.1917 72.8929 6.01931C73.1084 5.74635 73.9416 4.56835 72.4763 3.36162C71.0828 2.21235 69.6606 2.29854 68.7555 3.28979C67.8505 4.28103 68.2958 5.71762 68.3964 6.09114C68.497 6.46465 68.224 6.80943 67.908 6.96746C67.6637 7.08238 67.0891 7.47026 66.6581 7.84378C66.73 4.75511 68.6119 2.02559 71.4851 0.861953C71.6144 1.01998 71.7437 1.16364 71.8873 1.29293C71.5713 1.52278 70.8673 2.15488 70.8673 2.15488C70.8673 2.15488 70.9679 2.16925 71.0541 2.19798C71.1116 2.21235 71.2408 2.25544 71.2408 2.25544C71.2408 2.25544 71.8586 1.73827 72.1459 1.52278C72.3758 1.69518 72.62 1.83883 72.8786 1.95376C72.7349 2.18362 72.3901 2.84445 72.3901 2.84445C72.3901 2.84445 72.4763 2.88754 72.5481 2.94501C72.62 2.9881 72.6631 3.0312 72.6631 3.0312C72.6631 3.0312 73.0509 2.31291 73.1946 2.06869C73.5107 2.16925 73.8554 2.24108 74.2002 2.25544V3.57711C74.0135 3.57711 73.525 3.54838 73.3239 3.53401L73.1946 3.51964L73.2664 3.6202C73.3239 3.69203 73.3526 3.77823 73.3957 3.83569L73.4101 3.86442H73.4388C73.5825 3.87879 74.0278 3.89316 74.1859 3.89316V6.30662H74.5163V5.76072C75.0047 5.73199 75.4213 5.70326 75.9098 5.66016H75.9241L76.3551 5.27228L76.1252 5.28665C75.6081 5.35848 75.1484 5.38721 74.7318 5.41594C74.7318 5.41594 74.5881 5.43031 74.5163 5.43031V3.90752C75.1196 3.89316 75.723 3.80696 76.3264 3.64893C76.4844 4.05118 76.8004 5.01369 76.8004 5.01369L77.1165 4.91313C77.1165 4.91313 76.8148 3.95062 76.6568 3.56274C77.1596 3.40472 77.648 3.20359 78.0934 2.94501C78.4669 3.40472 78.7829 3.89316 79.0415 4.42469C78.8117 4.53962 78.3663 4.68328 78.3663 4.68328C78.7111 4.72638 78.9697 4.79821 78.9697 4.79821C78.9697 4.79821 79.099 4.74074 79.1708 4.71201C79.1996 4.78384 79.257 4.9275 79.257 4.9275L79.688 5.11426L79.6305 4.99933C79.6305 4.99933 79.4869 4.65455 79.4581 4.58272C79.9178 4.35286 80.3632 4.09428 80.7942 3.80696C81.613 5.05679 82.044 6.52211 82.044 8.01617C82.1015 10.5302 80.9091 12.7569 79.0559 14.1648Z" fill="#009FE3"/>
<path d="M65.6236 2.12559L65.4943 2.24051C65.0202 2.65712 63.9428 3.7633 64.1152 4.97003L64.1295 5.05623L64.187 5.30045L64.3307 5.15679C64.9915 4.55342 65.4799 3.53344 65.6811 2.35544L65.7385 2.02502L65.6236 2.12559Z" fill="#009FE3"/>
<path d="M63.4394 4.22361L63.382 4.36727C63.3101 4.5684 63.1665 4.99937 63.0947 5.55964C62.9941 6.36413 63.0228 7.48467 63.7124 8.33226L63.7842 8.43282L63.8704 8.53338L63.971 8.01621C64.0859 7.11116 63.9279 5.21486 63.5975 4.36727L63.4825 4.07996L63.4394 4.22361Z" fill="#009FE3"/>
<path d="M62.635 7.48542L62.6206 7.62908C62.5631 8.44793 62.6062 10.4448 64.2296 11.5079L64.4163 11.6372L64.402 11.4073C64.3732 10.6459 63.4826 8.3761 62.8217 7.55725L62.635 7.32739V7.48542Z" fill="#009FE3"/>
<path d="M62.9223 11.0755L62.951 11.2191C63.1952 12.3684 64.287 14.236 65.9679 14.7819L66.1977 14.8537L66.1115 14.6238C65.7955 13.7619 64.1721 11.7507 63.1234 11.0898L62.8936 10.9462L62.9223 11.0755Z" fill="#009FE3"/>
<path d="M66.2983 3.86488L66.169 3.95108C64.9192 4.71247 64.3302 5.64625 64.3733 6.79552L64.3877 7.05411L64.5744 6.89608C65.2496 6.33581 66.0972 4.89922 66.3558 4.08037L66.442 3.77869L66.2983 3.86488Z" fill="#009FE3"/>
<path d="M65.5659 6.37831L65.4653 6.4645C65.1492 6.76619 64.1005 7.87236 64.2011 9.25149C64.2155 9.46697 64.2586 9.68246 64.3448 9.92668L64.4166 10.1422L64.5459 9.95542C65.0487 9.25149 65.6952 7.41265 65.6664 6.5507L65.6521 6.29211L65.5659 6.37831Z" fill="#009FE3"/>
<path d="M65.6235 8.74908L65.5517 8.84964C65.0202 9.6254 64.7616 10.4299 64.776 11.1625C64.7903 11.7085 64.9627 12.2256 65.2931 12.7141L65.4081 12.8721L65.4943 12.6997C65.7241 12.2687 65.8965 10.8896 65.8678 9.79779C65.8534 9.40991 65.8247 9.09386 65.7528 8.87837L65.681 8.63416L65.6235 8.74908Z" fill="#009FE3"/>
<path d="M66.2265 11.291L66.1978 11.4059C66.0397 11.9087 65.9679 12.4115 65.9823 12.8712C66.011 13.9343 66.4851 14.7675 67.3758 15.3422L67.5338 15.4427L67.5625 15.2416L67.5769 15.0836C67.5481 14.2216 66.9017 12.0524 66.3989 11.3772L66.2552 11.1904L66.2265 11.291Z" fill="#009FE3"/>
<path d="M64.4595 14.6669L64.5314 14.7818C65.2066 15.9167 66.3558 17.382 68.4963 17.0085L68.6687 16.9798L68.5682 16.8361C68.1659 16.2471 65.5657 14.7674 64.6463 14.6238L64.3877 14.5807L64.4595 14.6669Z" fill="#009FE3"/>
<path d="M67.6341 17.5398L67.3037 17.626L67.6198 17.7553C68.9845 18.3156 70.6941 18.4736 71.6853 18.1432C72.0588 18.0139 72.2887 17.8128 72.5616 17.5398C74.3143 17.7266 75.9376 19.1775 76.9001 20.3555L76.9576 20.413L77.0294 20.3843C77.13 20.3412 77.3024 20.2262 77.3742 20.14L77.446 20.0682L77.3886 19.982C76.3973 18.6891 74.8314 17.8702 74.774 17.8415C73.3518 17.195 70.8808 16.6635 67.6341 17.5398Z" fill="#009FE3"/>
<path d="M67.7061 13.9201L67.7204 14.035C67.9215 15.328 68.4531 17.0088 70.6223 16.822L70.766 16.8076L70.7373 16.6784C70.5936 16.0894 68.5967 14.3942 67.9072 13.9201L67.7061 13.8052V13.9201Z" fill="#009FE3"/>
<path d="M83.0635 2.02502L83.1209 2.35544C83.3221 3.53344 83.8249 4.55342 84.4713 5.15679L84.6294 5.30045L84.6868 5.05623L84.7012 4.97003C84.8736 3.7633 83.7961 2.65712 83.3221 2.24051L83.1928 2.12559L83.0635 2.02502Z" fill="#009FE3"/>
<path d="M85.3187 4.07996L85.2038 4.36727C84.8734 5.21486 84.7153 7.11116 84.8303 8.01621L84.9308 8.53338L85.017 8.43282L85.0888 8.33226C85.7784 7.48467 85.8071 6.36413 85.7066 5.55964C85.6348 4.99937 85.5055 4.5684 85.4193 4.36727L85.3618 4.22361L85.3187 4.07996Z" fill="#009FE3"/>
<path d="M86.1661 7.34167L85.9794 7.57153C85.3185 8.39038 84.4279 10.6602 84.3991 11.4216L84.3848 11.6514L84.5715 11.5221C86.1949 10.4591 86.238 8.44785 86.1805 7.64336L86.1661 7.4997V7.34167Z" fill="#009FE3"/>
<path d="M85.9223 10.9319L85.6925 11.0755C84.6437 11.7364 83.0204 13.7476 82.7044 14.6096L82.6182 14.8394L82.848 14.7676C84.5288 14.2217 85.6206 12.3541 85.8649 11.2048L85.8936 11.0612L85.9223 10.9319Z" fill="#009FE3"/>
<path d="M82.4316 3.74866L82.5178 4.05034C82.7477 4.86919 83.5666 6.32015 84.2417 6.89479L84.4285 7.05281L84.4429 6.79422C84.5147 5.64495 83.9401 4.71117 82.7046 3.92105L82.5753 3.83485L82.4316 3.74866Z" fill="#009FE3"/>
<path d="M83.1491 6.29211L83.1347 6.5507C83.106 7.41265 83.7524 9.25149 84.2553 9.95542L84.3845 10.1422L84.4564 9.92668C84.5426 9.69683 84.5857 9.46697 84.6 9.25149C84.6862 7.88673 83.6519 6.78055 83.3358 6.4645L83.2353 6.37831L83.1491 6.29211Z" fill="#009FE3"/>
<path d="M83.1204 8.64844L83.0485 8.89266C82.9911 9.10815 82.948 9.4242 82.9336 9.81208C82.9049 10.9039 83.0916 12.283 83.3071 12.714L83.3933 12.8864L83.5082 12.7284C83.8386 12.2399 84.011 11.7227 84.0254 11.1768C84.0398 10.4442 83.7812 9.63968 83.2496 8.86393L83.1778 8.76337L83.1204 8.64844Z" fill="#009FE3"/>
<path d="M82.5463 11.1904L82.4026 11.3772C81.8998 12.038 81.2533 14.2216 81.2246 15.0836L81.239 15.2416L81.2677 15.4427L81.4257 15.3422C82.3308 14.7675 82.7905 13.9343 82.8192 12.8712C82.8336 12.3972 82.7618 11.9087 82.6037 11.4059L82.575 11.291L82.5463 11.1904Z" fill="#009FE3"/>
<path d="M84.4141 14.5521L84.1699 14.5952C83.2505 14.7389 80.6503 16.2186 80.248 16.8076L80.1475 16.9512L80.3199 16.98C82.4747 17.3535 83.6096 15.8882 84.2848 14.7532L84.3567 14.6383L84.4141 14.5521Z" fill="#009FE3"/>
<path d="M74.0558 17.8849C73.984 17.9136 72.4325 18.7181 71.4412 20.0254L71.3838 20.1116L71.4556 20.1834C71.5274 20.2552 71.6855 20.3845 71.8004 20.4276L71.8722 20.4564L71.9297 20.3989C72.8778 19.2065 74.5156 17.7556 76.2682 17.5832C76.5411 17.8561 76.771 18.0573 77.1445 18.1866C78.1358 18.517 79.8453 18.3589 81.2101 17.7987L81.5405 17.6694L81.2101 17.5832C77.9346 16.6638 75.4493 17.1953 74.0558 17.8849Z" fill="#009FE3"/>
<path d="M81.1244 13.8052L80.9233 13.9201C80.2337 14.3942 78.2368 16.0894 78.0932 16.6784L78.0645 16.8076L78.2081 16.822C80.3774 17.0088 80.9089 15.328 81.11 14.035L81.1244 13.9201V13.8052Z" fill="#009FE3"/>
<path d="M25.5713 0.559814H28.3152V3.05948H26.8642H25.5713V0.559814ZM25.7868 5.90393H26.8499H28.0853V18.1006H25.7724V5.90393H25.7868Z" fill="#009FE3"/>
<path d="M8.36141 5.91797H10.6743V18.1146H8.41887V16.3189H8.36141C7.44199 17.856 5.87611 18.4738 4.18093 18.4738C1.62381 18.4738 0.172852 16.5344 0.172852 14.0778V5.91797H2.48576V13.1296C2.48576 15.2414 2.9742 16.7929 5.18655 16.7929C6.13469 16.7929 7.42762 16.3045 7.9017 15.0403C8.33267 13.891 8.36141 12.4688 8.36141 12.1671V5.91797Z" fill="#009FE3"/>
<path d="M15.2852 7.71433H15.3282C16.104 6.19155 17.7992 5.55945 19.0203 5.55945C19.8679 5.55945 23.6317 5.77494 23.6317 9.68246V18.1152H21.3188V10.4439C21.3188 8.43263 20.4712 7.34082 18.5318 7.34082C18.5318 7.34082 17.2676 7.26899 16.2908 8.24587C15.946 8.59065 15.3139 9.12219 15.3139 11.5069V18.144H13.001V5.94733H15.2564V7.71433H15.2852Z" fill="#009FE3"/>
<path d="M37.7532 9.82603C37.6383 8.30325 36.9056 7.24017 35.2679 7.24017C33.0699 7.24017 32.2223 9.13647 32.2223 11.9953C32.2223 14.8397 33.0699 16.7504 35.2679 16.7504C36.7907 16.7504 37.7245 15.7591 37.8538 14.0209H40.1523C39.9512 16.7504 37.9256 18.4168 35.2536 18.4168C31.3748 18.4168 29.8232 15.6729 29.8232 12.0958C29.8232 8.54747 31.6046 5.57373 35.4547 5.57373C38.0118 5.57373 39.9368 7.19707 40.0518 9.82603H37.7532Z" fill="#009FE3"/>
<path d="M43.601 12.4406C43.4286 14.5668 44.3049 16.7648 46.6465 16.7648C48.4279 16.7648 49.333 16.0608 49.5915 14.2938H52.005C51.6459 17.0521 49.5197 18.4168 46.6178 18.4168C42.7246 18.4168 41.1875 15.6729 41.1875 12.0958C41.1875 8.54747 42.9832 5.57373 46.8189 5.57373C50.4391 5.64556 52.1487 7.9441 52.1487 11.2914V12.4263H43.601V12.4406ZM49.7208 10.846C49.7639 8.82042 48.8445 7.25454 46.6322 7.25454C44.7215 7.25454 43.5866 8.86352 43.5866 10.846H49.7208Z" fill="#009FE3"/>
<path d="M54.7344 18.0579V7.54209H52.6514V5.94748H54.7344V3.34725C54.8063 0.689563 56.8031 0 58.527 0C59.0873 0 59.6188 0.143658 60.1647 0.24422V2.15488C59.7768 2.14052 59.389 2.08305 59.0011 2.08305C57.6938 2.08305 56.9468 2.42784 57.0186 3.7495V5.97621H59.8199V7.54209H57.0186V18.0579H54.7344Z" fill="#009FE3"/>
<path d="M0.128906 26.4622H85.333V26.9219H43.4277H0.128906V26.4622Z" fill="#009FE3"/>
<path d="M1.55152 43.0688V36.2163H0V35.3687H1.55152V33.731C1.55152 32.4093 2.08305 31.8203 3.40472 31.8203C3.69203 31.8203 4.00808 31.9209 4.28103 31.9927V32.7254C4.09428 32.6966 3.89316 32.6679 3.72076 32.6679C2.45657 32.6679 2.42783 33.3 2.4853 34.4062V35.3831H4.23794V36.2306H2.47093V43.0832H1.55152V43.0688Z" fill="#009FE3"/>
<path d="M11.7367 39.2191C11.7367 41.2447 10.6018 43.299 8.14518 43.299C5.68862 43.299 4.55371 41.2447 4.55371 39.2191C4.55371 37.1935 5.68862 35.1392 8.14518 35.1392C10.6018 35.1392 11.7367 37.1935 11.7367 39.2191ZM8.14518 35.9867C6.29198 35.9867 5.55932 37.7968 5.55932 39.2191C5.55932 40.6413 6.29198 42.4514 8.14518 42.4514C9.99838 42.4514 10.731 40.6413 10.731 39.2191C10.731 37.7825 9.99838 35.9867 8.14518 35.9867Z" fill="#009FE3"/>
<path d="M13.9922 43.068H13.0728V37.1062C13.0872 36.5028 13.0297 35.8994 13.001 35.3679H13.9491L13.9922 36.5028H14.021C14.2939 35.727 14.9835 35.1668 15.7592 35.138C16.0609 35.1237 16.377 35.138 16.6786 35.1524V36.0431C16.4919 36.0287 16.2908 35.9856 16.104 35.9856C14.7392 35.9856 14.021 36.9625 13.9922 38.4422V43.068Z" fill="#009FE3"/>
<path d="M21.1319 39.4346C21.1606 41.0723 21.9076 42.4514 23.8039 42.4514C24.8957 42.4514 25.8008 41.6756 26.0306 40.6126H26.9932C26.5191 42.4514 25.3698 43.299 23.5166 43.299C21.2181 43.299 20.1406 41.3165 20.1406 39.2191C20.1406 37.136 21.2899 35.1392 23.5741 35.1392C26.1456 35.1392 27.0793 37.0211 27.0793 39.4346H21.1319ZM26.0881 38.587C25.9875 37.0929 25.1831 35.9867 23.5884 35.9867C22.08 35.9867 21.2899 37.2509 21.1606 38.587H26.0881Z" fill="#009FE3"/>
<path d="M28.3295 35.3691L30.9729 41.7907L33.5444 35.3691H34.55L31.5044 43.0549H30.4557L27.3096 35.3691H28.3295Z" fill="#009FE3"/>
<path d="M35.7422 39.4346C35.771 41.0723 36.518 42.4514 38.4143 42.4514C39.5061 42.4514 40.4111 41.6756 40.641 40.6126H41.6035C41.1294 42.4514 39.9802 43.299 38.127 43.299C35.8284 43.299 34.751 41.3165 34.751 39.2191C34.751 37.136 35.9002 35.1392 38.1844 35.1392C40.7559 35.1392 41.6897 37.0211 41.6897 39.4346H35.7422ZM40.6841 38.587C40.5835 37.0929 39.779 35.9867 38.1844 35.9867C36.676 35.9867 35.8859 37.2509 35.7566 38.587H40.6841Z" fill="#009FE3"/>
<path d="M44.0313 43.068H43.1119V37.1062C43.1262 36.5028 43.0688 35.8994 43.04 35.3679H43.9882L44.0313 36.5028H44.06C44.333 35.727 45.0225 35.1668 45.7983 35.138C46.1 35.1237 46.416 35.138 46.7177 35.1524V36.0431C46.531 36.0287 46.3298 35.9856 46.1431 35.9856C44.7783 35.9856 44.06 36.9625 44.0313 38.4422V43.068Z" fill="#009FE3"/>
<path d="M48.7006 35.3691L51.2865 41.8051L53.858 35.3691H54.8636L50.6113 45.9999H49.6057L50.7693 43.0549L47.5801 35.3691H48.7006Z" fill="#009FE3"/>
<path d="M63.6265 37.7251C63.5546 36.5471 62.7932 35.9725 61.529 35.9725C60.1212 35.9725 59.2449 37.4378 59.2449 39.1904C59.2449 40.9574 60.1212 42.4371 61.529 42.4371C62.7214 42.4371 63.5546 41.7045 63.6265 40.6414H64.6177C64.3735 42.4084 63.3679 43.2847 61.6152 43.2847C59.3167 43.2847 58.2393 41.3022 58.2393 39.2048C58.2393 37.1217 59.3885 35.1249 61.6727 35.1249C63.253 35.1249 64.5459 36.073 64.6177 37.7107H63.6265V37.7251Z" fill="#009FE3"/>
<path d="M66.8296 36.5327H66.8583C67.3898 35.5846 68.2662 35.1392 69.2718 35.1392C71.7858 35.1392 71.9869 37.3659 71.9869 38.2566V43.0692H71.0675V38.0986C71.0675 36.7626 70.3061 35.9868 69.0419 35.9868C67.5191 35.9868 66.8296 37.2654 66.8296 38.6445V43.0692H65.9102V32.0074H66.8296V36.5327Z" fill="#009FE3"/>
<path d="M74.5306 33.1424H73.7979H73.4531V31.9932H74.5306V33.1424ZM74.4444 43.0693H73.525V35.3691H74.0852H74.4444V43.0693Z" fill="#009FE3"/>
<path d="M77.1733 43.0693H76.2539V39.2048V31.9932H76.9578H77.1733V43.0693Z" fill="#009FE3"/>
<path d="M84.4136 41.9344L84.3849 41.8769C83.7528 42.7963 82.819 43.2991 81.7415 43.2991C79.4574 43.2991 78.5811 41.1155 78.5811 39.1905C78.5811 37.1936 79.4574 35.1393 81.7415 35.1393C82.7759 35.1393 83.839 35.6277 84.3849 36.5328L84.4136 36.5041V31.9932H85.333V41.331C85.333 41.9344 85.3761 42.5377 85.4049 43.0693H84.4567L84.4136 41.9344ZM81.8996 35.9869C80.1469 35.9869 79.5867 37.6102 79.5867 39.0899C79.5867 40.5121 80.0033 42.4659 81.7703 42.4659C83.7815 42.4659 84.3849 40.7994 84.3849 39.0468C84.3849 37.4666 83.6953 35.9869 81.8996 35.9869Z" fill="#009FE3"/>
<path d="M250.545 25.4324H255.477C256.537 25.4324 257.44 25.592 258.187 25.9112C258.934 26.2304 259.505 26.7028 259.901 27.3285C260.303 27.9478 260.504 28.7139 260.504 29.6268C260.504 30.3227 260.377 30.9356 260.121 31.4655C259.866 31.9953 259.505 32.4422 259.039 32.8061C258.573 33.1637 258.018 33.4414 257.373 33.6393L256.645 33.9936H252.211L252.192 32.0879H255.515C256.09 32.0879 256.568 31.9858 256.951 31.7815C257.335 31.5772 257.622 31.2995 257.813 30.9483C258.011 30.5908 258.11 30.1886 258.11 29.7417C258.11 29.2565 258.014 28.8352 257.823 28.4776C257.638 28.1137 257.35 27.836 256.961 27.6445C256.572 27.4466 256.077 27.3476 255.477 27.3476H252.949V39.3755H250.545V25.4324ZM258.503 39.3755L255.228 33.1126L257.746 33.103L261.069 39.251V39.3755H258.503Z" fill="#009FE3"/>
<path d="M248.582 37.4698V39.3755H241.18V37.4698H248.582ZM241.86 25.4324V39.3755H239.456V25.4324H241.86ZM247.615 31.2548V33.1317H241.18V31.2548H247.615ZM248.534 25.4324V27.3476H241.18V25.4324H248.534Z" fill="#009FE3"/>
<path d="M231.057 25.4324V39.3755H228.653V25.4324H231.057ZM236.745 31.5325V33.4382H230.444V31.5325H236.745ZM237.54 25.4324V27.3476H230.444V25.4324H237.54Z" fill="#009FE3"/>
<path d="M224.115 35.7846C224.115 35.4973 224.07 35.242 223.981 35.0185C223.898 34.7951 223.748 34.5908 223.53 34.4056C223.313 34.2205 223.007 34.0417 222.611 33.8694C222.222 33.6906 221.724 33.5086 221.117 33.3235C220.453 33.1192 219.84 32.8926 219.279 32.6436C218.723 32.3882 218.238 32.0945 217.823 31.7626C217.408 31.4242 217.086 31.038 216.856 30.6038C216.626 30.1633 216.511 29.6558 216.511 29.0812C216.511 28.513 216.629 27.9959 216.865 27.5298C217.108 27.0638 217.449 26.6616 217.89 26.3232C218.337 25.9785 218.864 25.7135 219.47 25.5284C220.077 25.3369 220.747 25.2411 221.481 25.2411C222.515 25.2411 223.406 25.4326 224.153 25.8157C224.906 26.1987 225.484 26.7127 225.886 27.3575C226.295 28.0023 226.499 28.7141 226.499 29.493H224.115C224.115 29.0333 224.016 28.6279 223.818 28.2768C223.626 27.9193 223.333 27.6384 222.937 27.4341C222.547 27.2298 222.053 27.1276 221.452 27.1276C220.884 27.1276 220.412 27.2138 220.035 27.3862C219.658 27.5586 219.378 27.7916 219.192 28.0853C219.007 28.3789 218.915 28.7109 218.915 29.0812C218.915 29.3429 218.975 29.5824 219.097 29.7994C219.218 30.0101 219.403 30.208 219.652 30.3932C219.901 30.5719 220.214 30.7411 220.591 30.9007C220.967 31.0603 221.411 31.2135 221.922 31.3604C222.694 31.5902 223.368 31.8456 223.942 32.1265C224.517 32.401 224.996 32.7138 225.379 33.0649C225.762 33.4161 226.049 33.8151 226.241 34.262C226.432 34.7025 226.528 35.2037 226.528 35.7655C226.528 36.3528 226.41 36.8827 226.174 37.3551C225.937 37.8212 225.599 38.2202 225.158 38.5522C224.724 38.8778 224.201 39.13 223.588 39.3087C222.981 39.4811 222.305 39.5673 221.558 39.5673C220.887 39.5673 220.227 39.4779 219.575 39.2991C218.931 39.1204 218.343 38.849 217.813 38.4851C217.284 38.1149 216.862 37.6552 216.549 37.1062C216.236 36.5507 216.08 35.9027 216.08 35.1622H218.484C218.484 35.6154 218.56 36.0017 218.714 36.3209C218.873 36.6401 219.093 36.9019 219.374 37.1062C219.655 37.3041 219.981 37.4509 220.351 37.5467C220.728 37.6424 221.13 37.6903 221.558 37.6903C222.12 37.6903 222.589 37.6105 222.965 37.4509C223.349 37.2913 223.636 37.0678 223.827 36.7806C224.019 36.4933 224.115 36.1613 224.115 35.7846Z" fill="#009FE3"/>
<path d="M213.916 25.4324V39.3755H211.512L205.259 29.3874V39.3755H202.855V25.4324H205.259L211.532 35.4396V25.4324H213.916Z" fill="#009FE3"/>
<path d="M195.28 27.2902L191.114 39.3755H188.596L193.844 25.4324H195.452L195.28 27.2902ZM198.766 39.3755L194.59 27.2902L194.409 25.4324H196.027L201.294 39.3755H198.766ZM198.565 34.2043V36.11H190.98V34.2043H198.565Z" fill="#009FE3"/>
<path d="M177.497 25.4324H182.429C183.489 25.4324 184.392 25.592 185.139 25.9112C185.886 26.2304 186.457 26.7028 186.853 27.3285C187.255 27.9478 187.456 28.7139 187.456 29.6268C187.456 30.3227 187.329 30.9356 187.073 31.4655C186.818 31.9953 186.457 32.4422 185.991 32.8061C185.525 33.1637 184.97 33.4414 184.325 33.6393L183.597 33.9936H179.163L179.144 32.0879H182.467C183.042 32.0879 183.521 31.9858 183.904 31.7815C184.287 31.5772 184.574 31.2995 184.766 30.9483C184.963 30.5908 185.062 30.1886 185.062 29.7417C185.062 29.2565 184.967 28.8352 184.775 28.4776C184.59 28.1137 184.303 27.836 183.913 27.6445C183.524 27.4466 183.029 27.3476 182.429 27.3476H179.901V39.3755H177.497V25.4324ZM185.455 39.3755L182.18 33.1126L184.698 33.103L188.021 39.251V39.3755H185.455Z" fill="#009FE3"/>
<path d="M171.282 25.4324V39.3755H168.898V25.4324H171.282ZM175.659 25.4324V27.3476H164.56V25.4324H175.659Z" fill="#009FE3"/>
<path d="M156.41 31.2548V33.1605H149.007V31.2548H156.41ZM149.601 25.4324V39.3755H147.197V25.4324H149.601ZM158.258 25.4324V39.3755H155.864V25.4324H158.258Z" fill="#009FE3"/>
<path d="M142.659 35.7846C142.659 35.4973 142.614 35.242 142.524 35.0185C142.441 34.7951 142.291 34.5908 142.074 34.4056C141.857 34.2205 141.551 34.0417 141.155 33.8694C140.766 33.6906 140.268 33.5086 139.661 33.3235C138.997 33.1192 138.384 32.8926 137.823 32.6436C137.267 32.3882 136.782 32.0945 136.367 31.7626C135.952 31.4242 135.63 31.038 135.4 30.6038C135.17 30.1633 135.055 29.6558 135.055 29.0812C135.055 28.513 135.173 27.9959 135.409 27.5298C135.652 27.0638 135.993 26.6616 136.434 26.3232C136.881 25.9785 137.408 25.7135 138.014 25.5284C138.621 25.3369 139.291 25.2411 140.025 25.2411C141.059 25.2411 141.95 25.4326 142.697 25.8157C143.45 26.1987 144.028 26.7127 144.43 27.3575C144.839 28.0023 145.043 28.7141 145.043 29.493H142.659C142.659 29.0333 142.56 28.6279 142.362 28.2768C142.17 27.9193 141.876 27.6384 141.481 27.4341C141.091 27.2298 140.596 27.1276 139.996 27.1276C139.428 27.1276 138.956 27.2138 138.579 27.3862C138.202 27.5586 137.921 27.7916 137.736 28.0853C137.551 28.3789 137.459 28.7109 137.459 29.0812C137.459 29.3429 137.519 29.5824 137.641 29.7994C137.762 30.0101 137.947 30.208 138.196 30.3932C138.445 30.5719 138.758 30.7411 139.134 30.9007C139.511 31.0603 139.955 31.2135 140.466 31.3604C141.238 31.5902 141.912 31.8456 142.486 32.1265C143.061 32.401 143.54 32.7138 143.923 33.0649C144.306 33.4161 144.593 33.8151 144.785 34.262C144.976 34.7025 145.072 35.2037 145.072 35.7655C145.072 36.3528 144.954 36.8827 144.717 37.3551C144.481 37.8212 144.143 38.2202 143.702 38.5522C143.268 38.8778 142.745 39.13 142.132 39.3087C141.525 39.4811 140.849 39.5673 140.102 39.5673C139.431 39.5673 138.771 39.4779 138.119 39.2991C137.475 39.1204 136.887 38.849 136.357 38.4851C135.827 38.1149 135.406 37.6552 135.093 37.1062C134.78 36.5507 134.624 35.9027 134.624 35.1622H137.028C137.028 35.6154 137.104 36.0017 137.258 36.3209C137.417 36.6401 137.637 36.9019 137.918 37.1062C138.199 37.3041 138.525 37.4509 138.895 37.5467C139.272 37.6424 139.674 37.6903 140.102 37.6903C140.663 37.6903 141.133 37.6105 141.509 37.4509C141.892 37.2913 142.18 37.0678 142.371 36.7806C142.563 36.4933 142.659 36.1613 142.659 35.7846Z" fill="#009FE3"/>
<path d="M127.748 27.2902L123.582 39.3755H121.063L126.311 25.4324H127.92L127.748 27.2902ZM131.234 39.3755L127.058 27.2902L126.876 25.4324H128.495L133.762 39.3755H131.234ZM131.032 34.2043V36.11H123.448V34.2043H131.032Z" fill="#009FE3"/>
<path d="M117.741 34.8366H120.135C120.058 35.7495 119.803 36.5635 119.369 37.2785C118.934 37.9872 118.325 38.5458 117.54 38.9544C116.754 39.363 115.8 39.5673 114.676 39.5673C113.814 39.5673 113.039 39.414 112.349 39.1076C111.66 38.7948 111.069 38.3543 110.578 37.7861C110.086 37.2115 109.709 36.5188 109.448 35.708C109.192 34.8972 109.064 33.9907 109.064 32.9883V31.8296C109.064 30.8273 109.195 29.9207 109.457 29.1099C109.725 28.2991 110.108 27.6064 110.606 27.0319C111.104 26.4509 111.701 26.0072 112.397 25.7008C113.099 25.3943 113.888 25.2411 114.762 25.2411C115.873 25.2411 116.812 25.4454 117.578 25.854C118.344 26.2626 118.938 26.8276 119.359 27.549C119.787 28.2704 120.048 29.0972 120.144 30.0293H117.75C117.686 29.4291 117.546 28.9152 117.329 28.4875C117.118 28.0597 116.805 27.7341 116.39 27.5107C115.975 27.2808 115.433 27.1659 114.762 27.1659C114.213 27.1659 113.735 27.2681 113.326 27.4724C112.917 27.6767 112.576 27.9767 112.301 28.3725C112.027 28.7684 111.819 29.2568 111.679 29.8377C111.545 30.4123 111.478 31.0699 111.478 31.8104V32.9883C111.478 33.6906 111.538 34.329 111.66 34.9036C111.787 35.4718 111.979 35.9602 112.234 36.3688C112.496 36.7774 112.828 37.0934 113.23 37.3168C113.632 37.5403 114.114 37.652 114.676 37.652C115.359 37.652 115.912 37.5435 116.333 37.3264C116.761 37.1093 117.083 36.7933 117.3 36.3784C117.524 35.957 117.67 35.4431 117.741 34.8366Z" fill="#009FE3"/>
<path d="M251.972 4.8396V18.7827H249.568L243.315 8.79462V18.7827H240.911V4.8396H243.315L249.587 14.8469V4.8396H251.972Z" fill="#009FE3"/>
<path d="M233.337 6.69741L229.171 18.7827H226.652L231.9 4.8396H233.509L233.337 6.69741ZM236.822 18.7827L232.647 6.69741L232.465 4.8396H234.084L239.351 18.7827H236.822ZM236.621 13.6115V15.5172H229.037V13.6115H236.621Z" fill="#009FE3"/>
<path d="M224.746 4.8396V18.7827H222.343V4.8396H224.746Z" fill="#009FE3"/>
<path d="M209.826 4.8396H214.758C215.818 4.8396 216.721 4.99921 217.468 5.31842C218.215 5.63763 218.786 6.11006 219.182 6.73571C219.584 7.35498 219.786 8.12109 219.786 9.03403C219.786 9.72991 219.658 10.3428 219.402 10.8727C219.147 11.4026 218.786 11.8495 218.32 12.2134C217.854 12.5709 217.299 12.8486 216.654 13.0465L215.926 13.4008H211.492L211.473 11.4951H214.796C215.371 11.4951 215.85 11.393 216.233 11.1887C216.616 10.9844 216.903 10.7067 217.095 10.3556C217.293 9.99805 217.391 9.59584 217.391 9.14895C217.391 8.66375 217.296 8.24239 217.104 7.88487C216.919 7.52097 216.632 7.24326 216.242 7.05173C215.853 6.85382 215.358 6.75486 214.758 6.75486H212.23V18.7827H209.826V4.8396ZM217.784 18.7827L214.509 12.5198L217.028 12.5102L220.351 18.6582V18.7827H217.784Z" fill="#009FE3"/>
<path d="M202.252 6.69741L198.086 18.7827H195.567L200.815 4.8396H202.424L202.252 6.69741ZM205.737 18.7827L201.562 6.69741L201.38 4.8396H202.999L208.266 18.7827H205.737ZM205.536 13.6115V15.5172H197.952V13.6115H205.536Z" fill="#009FE3"/>
<path d="M191.526 4.8396V18.7827H189.142V4.8396H191.526ZM195.903 4.8396V6.75486H184.804V4.8396H195.903Z" fill="#009FE3"/>
<path d="M183.089 4.8396V18.7827H180.686V4.8396H183.089Z" fill="#009FE3"/>
<path d="M177.66 4.8396V18.7827H175.257L169.003 8.79462V18.7827H166.6V4.8396H169.003L175.276 14.8469V4.8396H177.66Z" fill="#009FE3"/>
<path d="M159.024 6.69741L154.858 18.7827H152.34L157.588 4.8396H159.196L159.024 6.69741ZM162.51 18.7827L158.335 6.69741L158.153 4.8396H159.771L165.038 18.7827H162.51ZM162.309 13.6115V15.5172H154.724V13.6115H162.309Z" fill="#009FE3"/>
<path d="M137.238 4.8396H139.383L143.414 15.5938L147.436 4.8396H149.581L144.257 18.7827H142.552L137.238 4.8396ZM136.261 4.8396H138.3L138.655 14.1478V18.7827H136.261V4.8396ZM148.518 4.8396H150.568V18.7827H148.164V14.1478L148.518 4.8396Z" fill="#009FE3"/>
<path d="M131.253 4.8396H133.647V14.1574C133.647 15.2171 133.417 16.1045 132.957 16.8196C132.498 17.5346 131.872 18.0741 131.08 18.438C130.295 18.7955 129.417 18.9743 128.447 18.9743C127.445 18.9743 126.551 18.7955 125.765 18.438C124.98 18.0741 124.361 17.5346 123.908 16.8196C123.461 16.1045 123.237 15.2171 123.237 14.1574V4.8396H125.631V14.1574C125.631 14.8277 125.746 15.3799 125.976 15.8141C126.206 16.2418 126.532 16.5578 126.953 16.7621C127.374 16.9664 127.872 17.0686 128.447 17.0686C129.021 17.0686 129.516 16.9664 129.931 16.7621C130.353 16.5578 130.678 16.2418 130.908 15.8141C131.138 15.3799 131.253 14.8277 131.253 14.1574V4.8396Z" fill="#009FE3"/>
<path d="M118.717 10.662V12.5677H111.315V10.662H118.717ZM111.909 4.8396V18.7827H109.505V4.8396H111.909ZM120.566 4.8396V18.7827H118.171V4.8396H120.566Z" fill="#009FE3"/>
</svg>
