<?xml version="1.0" encoding="utf-8"?>
<!-- Generator: Adobe Illustrator 25.2.1, SVG Export Plug-In . SVG Version: 6.00 Build 0)  -->
<svg version="1.1" xmlns="http://www.w3.org/2000/svg" xmlns:xlink="http://www.w3.org/1999/xlink" x="0px" y="0px"
	 viewBox="0 0 76.781 87.646" enable-background="new 0 0 76.781 87.646" xml:space="preserve">
<g id="BG">
</g>
<g id="MIDDLE">
	<g id="New_Symbol">
	</g>
	<g id="New_Symbol_1">
	</g>
	<g id="New_Symbol_2_">
	</g>
	<g id="New_Symbol_1_">
	</g>
</g>
<g id="TOP">
</g>
<g id="RIGHT">
</g>
<g id="LEFT">
</g>
<g id="GALLERY-RIGHT">
</g>
<g id="CONNECTION">
</g>
<g id="DATA_SET__x2F__QUERY">
</g>
<g id="Layer_11">
</g>
<g id="Layer_12">
</g>
<g id="Help">
	<g>
		<path fill="#419AEA" d="M21.583,61.532c3.393,2.177,7.327,3.333,11.378,3.333c11.602,0,21.041-9.443,21.041-21.043
			c0-11.606-9.439-21.05-21.041-21.05c-0.275,0-0.504,0.224-0.504,0.497v6.929c0,0.281,0.227,0.499,0.504,0.499
			c7.229,0,13.117,5.887,13.117,13.125c0,7.233-5.889,13.12-13.117,13.12c-2.527,0-4.982-0.715-7.092-2.076
			c-0.226-0.149-0.531-0.083-0.685,0.146l-3.749,5.829C21.289,61.079,21.35,61.381,21.583,61.532L21.583,61.532z"/>
		<path fill="#87BDEE" d="M32.963,19.526c13.393,0,24.285,10.901,24.285,24.297c0,6.765-2.715,13.053-7.641,17.692
			c-0.203,0.187-0.209,0.498-0.028,0.701l4.757,5.048c0.09,0.093,0.215,0.148,0.34,0.152h0.022c0.124,0,0.253-0.051,0.339-0.134
			c6.441-6.063,10.131-14.616,10.131-23.458c0-17.767-14.452-32.22-32.207-32.22c-0.277,0-0.504,0.227-0.504,0.496v6.934
			c0,0.275,0.227,0.493,0.504,0.493H32.963z"/>
		<path fill="#007FF2" d="M32.963,0c-0.277,0-0.504,0.218-0.504,0.498v6.931c0,0.271,0.227,0.487,0.504,0.487
			c19.789,0,35.895,16.111,35.895,35.907c0,19.79-16.105,35.902-35.895,35.902c-10.283,0-20.084-4.42-26.906-12.128
			c-0.173-0.202-0.491-0.223-0.699-0.038l-5.191,4.59C0.076,72.237,0.008,72.358,0,72.491c-0.002,0.131,0.041,0.261,0.133,0.359
			c8.314,9.405,20.277,14.796,32.832,14.796c24.16,0,43.816-19.66,43.816-43.822C76.781,19.659,57.125,0.001,32.963,0L32.963,0z"/>
	</g>
</g>
</svg>
