<svg width="75" height="76" viewBox="0 0 75 76" fill="none" xmlns="http://www.w3.org/2000/svg">
<path d="M5.48318 19.8862L37.195 1.57735L68.9068 19.8862V56.5038L37.195 74.8126L5.48318 56.5038V19.8862Z" stroke="#419AEA"/>
<path d="M14.6075 25.1543L37.195 12.1135L59.7824 25.1543V51.2361L37.195 64.2769L14.6075 51.2361V25.1543Z" stroke="#419AEA"/>
<path d="M29.2619 33.6146L37.195 29.0344L45.1282 33.6146V42.775L37.195 47.3552L29.2619 42.775V33.6146Z" stroke="#419AEA"/>
<path d="M33.6858 36.1688L37.195 34.1428L40.7042 36.1688V40.2209L37.195 42.2469L33.6858 40.2209V36.1688Z" stroke="#419AEA"/>
<path d="M22.073 29.4643L37.195 20.7336L52.3171 29.4643V46.9257L37.195 55.6565L22.073 46.9257V29.4643Z" stroke="#419AEA"/>
<path d="M37.1949 75.2304V1.15967" stroke="#419AEA" stroke-linecap="round"/>
<path d="M5.12141 56.7126L69.2686 19.6772" stroke="#419AEA" stroke-linecap="round"/>
<path d="M5.12142 19.6775L69.2686 56.7129" stroke="#419AEA" stroke-linecap="round"/>
<path opacity="0.7" d="M15.4846 25.5836L37.195 14.0898L60.5017 24.6258L55.7127 48.7307L37.195 67.7273L18.9966 48.7307L15.4846 25.5836Z" fill="#007FF2"/>
</svg>
