<?xml version="1.0" encoding="utf-8"?>
<!-- Generator: Adobe Illustrator 25.2.1, SVG Export Plug-In . SVG Version: 6.00 Build 0)  -->
<svg version="1.1" xmlns="http://www.w3.org/2000/svg" xmlns:xlink="http://www.w3.org/1999/xlink" x="0px" y="0px"
	 viewBox="0 0 135.841 81.203" enable-background="new 0 0 135.841 81.203" xml:space="preserve">
<g id="BG">
</g>
<g id="MIDDLE">
	<g id="New_Symbol">
	</g>
	<g id="New_Symbol_1">
	</g>
	<g id="New_Symbol_2_">
	</g>
	<g id="New_Symbol_1_">
	</g>
</g>
<g id="TOP">
</g>
<g id="RIGHT">
</g>
<g id="LEFT">
</g>
<g id="GALLERY-RIGHT">
</g>
<g id="CONNECTION">
</g>
<g id="DATA_SET__x2F__QUERY">
</g>
<g id="Layer_11">
</g>
<g id="Layer_12">
</g>
<g id="Help">
	<g>
		<path fill="#419AEA" d="M44.545,72.883H24.463V58.852h20.082V72.883z M26.289,71.521h16.43V60.215h-16.43V71.521z"/>
		<path fill="#419AEA" d="M62.801,72.883H42.719V58.852h20.082V72.883z M44.545,71.521h16.43V60.215h-16.43V71.521z"/>
		<path fill="#419AEA" d="M93.104,68.66h-32.13v-9.809h32.312v9.809H93.104z M62.8,67.298h28.663v-7.083H62.8V67.298z"/>
		<path fill="#419AEA" d="M123.592,60.214H103.51v-5.586h20.082V60.214z M105.336,58.851h16.43v-2.86h-16.43V58.851z"/>
		<path fill="#419AEA" d="M135.823,60.214h-14.058v-5.586h14.058V60.214z M123.592,58.851h10.406v-2.86h-10.406V58.851z"/>
		<path fill="#419AEA" d="M99.312,60.214H73.023v-9.808h26.104l0.001,9.808H99.312z M74.85,58.851h22.454v-7.084L74.85,51.768
			V58.851z"/>
		<path fill="#007FF2" d="M105.336,60.214h-7.85v-9.808h7.85V60.214z"/>
		<path fill="#419AEA" d="M117.568,72.883H103.51v-9.808h14.059V72.883z M105.336,71.521h10.406v-7.084h-10.406V71.521z"/>
		<path fill="#419AEA" d="M105.336,68.66H91.279v-9.809h14.057V68.66z M93.104,67.298h10.405v-7.083H93.104V67.298z"/>
		<path fill="#419AEA" d="M123.592,68.66h-7.85v-9.809h7.85V68.66z"/>
		<path fill="#419AEA" d="M117.568,64.437H103.51v-5.586h14.059V64.437z"/>
		<path fill="#419AEA" d="M135.823,64.437h-14.058v-5.586h14.058V64.437z M123.592,63.075h10.406v-2.861h-10.406V63.075z"/>
		<path fill="#419AEA" d="M123.592,43.322H103.51V29.426h20.082V43.322z M105.336,41.96h16.43V30.788h-16.43V41.96z"/>
		<path fill="#419AEA" d="M105.336,51.768h-7.85l-0.002-9.809h7.85L105.336,51.768z M99.312,50.405h4.197V43.32h-4.197V50.405z"/>
		<path fill="#419AEA" d="M99.312,51.768H85.254v-9.809h14.059V51.768z"/>
		<path fill="#419AEA" d="M105.336,39.234H91.279v-5.586h14.057V39.234z M93.104,37.873h10.405v-2.862H93.104V37.873z"/>
		<path fill="#419AEA" d="M93.104,43.322H73.023v-9.673h20.081V43.322z M74.85,41.96h16.43v-6.948H74.85V41.96z"/>
		<path fill="#007FF2" d="M93.104,41.96h10.405v-2.725H93.104V41.96z"/>
		<path fill="#419AEA" d="M87.08,51.768H73.023v-9.809H87.08V51.768z M74.85,50.405h10.406l-0.002-7.084H74.848L74.85,50.405z"/>
		<path fill="#419AEA" d="M123.592,55.991H103.51V41.959h20.082V55.991z M105.336,54.628h16.43V43.321h-16.43V54.628z"/>
		<path fill="#007FF2" d="M123.592,41.96h12.249V30.788h-12.249V41.96z"/>
		<path fill="#419AEA" d="M135.823,55.991h-14.058v-5.586h14.058V55.991z M123.592,54.628h10.406v-2.862h-10.406V54.628z"/>
		<path fill="#419AEA" d="M135.823,51.768h-14.058v-9.809h14.058V51.768z M123.592,50.405h10.406l-0.002-7.084H123.59
			L123.592,50.405z"/>
		<path fill="#419AEA" d="M111.361,81.194h-7.852v-9.81h7.852V81.194z M105.336,79.831h4.199v-7.083h-4.199V79.831z"/>
		<path fill="#419AEA" d="M62.801,81.194h-7.85v-9.81h7.85V81.194z M56.594,79.831h4.199v-7.083h-4.199V79.831z"/>
		<path fill="#419AEA" d="M44.545,81.194H24.463v-9.81h20.082V81.194z M26.289,79.831h16.43v-7.083h-16.43V79.831z"/>
		<path fill="#007FF2" d="M44.545,81.203l10.406-0.001v-8.456l-10.406,0.001V81.203z"/>
		<path fill="#419AEA" d="M135.823,76.97h-7.849v-5.585h7.849V76.97z M129.617,75.608h4.199v-2.86h-4.199V75.608z"/>
		<path fill="#007FF2" d="M111.361,81.125l4.381,0.002v-8.379h-4.381V81.125z"/>
		<path fill="#419AEA" d="M129.617,76.97h-7.85v-5.585h7.85V76.97z M123.592,75.608h4.199v-2.86h-4.199V75.608z"/>
		<path fill="#419AEA" d="M123.592,76.97h-7.85v-5.585h7.85V76.97z M117.568,75.608h4.197v-2.86h-4.197V75.608z"/>
		<path fill="#419AEA" d="M123.592,81.194h-7.85v-5.586h7.85V81.194z M117.568,79.831h4.197V76.97h-4.197V79.831z"/>
		<path fill="#419AEA" d="M105.336,81.194H91.279V67.298h14.057V81.194z M93.104,79.831h10.405V68.524H93.104V79.831z"/>
		<path fill="#419AEA" d="M129.617,81.194h-7.85v-5.586h7.85V81.194z M123.592,79.831h4.199V76.97h-4.199V79.831z"/>
		<path fill="#419AEA" d="M135.823,81.194h-7.849v-5.586h7.849V81.194z"/>
		<path fill="#419AEA" d="M26.289,81.194H0V58.852h26.105l0.002,22.343H26.289z M1.827,79.831h22.454V60.215H1.827V79.831z"/>
		<path fill="#419AEA" d="M93.104,81.194H73.023v-5.586h20.081V81.194z M74.85,79.831h16.43V76.97H74.85V79.831z"/>
		<path fill="#419AEA" d="M74.85,81.194H61.701V67.298H74.85V81.194z"/>
		<path fill="#419AEA" d="M135.823,72.747l-7.849,0.001v-9.673l7.849-0.001V72.747z"/>
		<path fill="#419AEA" d="M129.617,72.883h-7.85v-9.808h7.85V72.883z M123.592,71.521h4.199v-7.084h-4.199V71.521z"/>
		<path fill="#419AEA" d="M123.592,72.883h-7.85v-5.585h7.85V72.883z"/>
		<path fill="#419AEA" d="M74.85,60.214H0V0h74.85V60.214z M1.826,58.851h71.197V1.362H1.826V58.851z"/>
		<path fill="#419AEA" d="M105.336,35.011H73.023V0h32.312V35.011z M74.85,33.65h28.66V1.362H74.85V33.65z"/>
		<path fill="#419AEA" d="M135.823,30.788H103.51V0h32.313V30.788z M105.336,29.426h28.662l-0.002-28.063h-28.66V29.426z"/>
	</g>
</g>
</svg>
