<?xml version="1.0" encoding="utf-8"?>
<!-- Generator: Adobe Illustrator 25.2.1, SVG Export Plug-In . SVG Version: 6.00 Build 0)  -->
<svg version="1.1" xmlns="http://www.w3.org/2000/svg" xmlns:xlink="http://www.w3.org/1999/xlink" x="0px" y="0px"
	 viewBox="0 0 92.544 92.276" enable-background="new 0 0 92.544 92.276" xml:space="preserve">
<g id="BG">
</g>
<g id="MIDDLE">
	<g id="New_Symbol">
	</g>
	<g id="New_Symbol_1">
	</g>
	<g id="New_Symbol_2_">
	</g>
	<g id="New_Symbol_1_">
	</g>
</g>
<g id="TOP">
</g>
<g id="RIGHT">
</g>
<g id="LEFT">
</g>
<g id="GALLERY-RIGHT">
</g>
<g id="CONNECTION">
</g>
<g id="DATA_SET__x2F__QUERY">
</g>
<g id="Layer_11">
</g>
<g id="Layer_12">
</g>
<g id="Help">
	<g>
		<path fill="#419AEA" d="M88.386,65.27L46.122,46.05L16.544,81.297c8.049,6.842,18.467,10.978,29.859,10.978
			C65.058,92.276,81.114,81.199,88.386,65.27z"/>
		<g>
			<path fill="#007FF2" d="M45.651,0C20.651,0.124,0,20.729,0,46.135c0,14.091,6.456,26.717,16.413,35.18l29.709-35.23h-0.471V0z"/>
			<path fill="#007FF2" d="M88.386,65.27c0.004-0.005,0.006-0.012,0.009-0.018L46.122,46.05L88.386,65.27z"/>
			<path fill="#007FF2" d="M92.542,46.085H46.173h-0.051L88.395,65.27c2.657-5.825,4.149-12.286,4.149-19.107
				C92.544,46.134,92.542,46.085,92.542,46.085z"/>
			<path fill="#87BDEE" d="M92.542,46.085c-0.047-26-20.946-46.073-46.399-46.073C46.064,0.013,45.651,0,45.651,0v46.085H92.542z"/>
		</g>
	</g>
</g>
</svg>
