<?xml version="1.0" encoding="utf-8"?>
<!-- Generator: Adobe Illustrator 25.2.1, SVG Export Plug-In . SVG Version: 6.00 Build 0)  -->
<svg version="1.1" xmlns="http://www.w3.org/2000/svg" xmlns:xlink="http://www.w3.org/1999/xlink" x="0px" y="0px"
	 viewBox="0 0 122.568 91.088" enable-background="new 0 0 122.568 91.088" xml:space="preserve">
<g id="BG">
</g>
<g id="MIDDLE">
	<g id="New_Symbol">
	</g>
	<g id="New_Symbol_1">
	</g>
	<g id="New_Symbol_2_">
	</g>
	<g id="New_Symbol_1_">
	</g>
</g>
<g id="TOP">
</g>
<g id="RIGHT">
</g>
<g id="LEFT">
</g>
<g id="GALLERY-RIGHT">
</g>
<g id="CONNECTION">
</g>
<g id="DATA_SET__x2F__QUERY">
</g>
<g id="Layer_11">
</g>
<g id="Layer_12">
</g>
<g id="Help">
	<g>
		
			<line fill="none" stroke="#007FF2" stroke-width="8" stroke-linecap="round" stroke-linejoin="round" x1="4" y1="76.011" x2="118.568" y2="17.109"/>
		<path fill="#007FF2" d="M36.076,46.939c0,3.492-2.832,6.322-6.322,6.322c-3.492,0-6.322-2.83-6.322-6.322
			c0-3.491,2.83-6.322,6.322-6.322C33.244,40.617,36.076,43.448,36.076,46.939z"/>
		<path fill="#007FF2" d="M20.279,39.605c0,3.492-2.83,6.322-6.321,6.322s-6.321-2.83-6.321-6.322s2.83-6.321,6.321-6.321
			S20.279,36.114,20.279,39.605z"/>
		<path fill="#419AEA" d="M18.021,55.996c0,3.491-2.828,6.322-6.32,6.322s-6.322-2.831-6.322-6.322c0-3.492,2.83-6.321,6.322-6.321
			S18.021,52.504,18.021,55.996z"/>
		<path fill="#007FF2" d="M72.18,29.451c0,3.491-2.83,6.322-6.322,6.322c-3.492,0-6.322-2.831-6.322-6.322
			c0-3.492,2.83-6.322,6.322-6.322C69.35,23.129,72.18,25.959,72.18,29.451z"/>
		<path fill="#007FF2" d="M56.383,22.118c0,3.491-2.83,6.321-6.32,6.321c-3.492,0-6.324-2.83-6.324-6.321
			c0-3.492,2.832-6.322,6.324-6.322C53.553,15.796,56.383,18.625,56.383,22.118z"/>
		<path fill="#419AEA" d="M54.127,38.509c0,3.49-2.83,6.321-6.322,6.321c-3.49,0-6.322-2.831-6.322-6.321
			c0-3.491,2.832-6.323,6.322-6.323C51.297,32.186,54.127,35.018,54.127,38.509z"/>
		<path fill="#007FF2" d="M104.334,13.657c0,3.491-2.83,6.321-6.32,6.321c-3.492,0-6.322-2.83-6.322-6.321
			c0-3.493,2.83-6.323,6.322-6.323C101.504,7.333,104.334,10.164,104.334,13.657z"/>
		<path fill="#007FF2" d="M88.539,6.321c0,3.492-2.831,6.322-6.322,6.322c-3.492,0-6.322-2.831-6.322-6.322
			c0-3.49,2.83-6.321,6.322-6.321C85.708,0,88.539,2.831,88.539,6.321z"/>
		<path fill="#419AEA" d="M86.283,22.712c0,3.492-2.832,6.322-6.322,6.322c-3.492,0-6.322-2.83-6.322-6.322
			c0-3.491,2.83-6.322,6.322-6.322C83.451,16.391,86.283,19.221,86.283,22.712z"/>
		<path fill="#007FF2" d="M88.869,44.15c0-3.492,2.832-6.322,6.322-6.322c3.492,0,6.322,2.83,6.322,6.322
			c0,3.491-2.83,6.321-6.322,6.321C91.701,50.472,88.869,47.642,88.869,44.15z"/>
		<path fill="#007FF2" d="M104.666,51.483c0-3.492,2.83-6.322,6.322-6.322c3.49,0,6.321,2.83,6.321,6.322
			c0,3.491-2.831,6.322-6.321,6.322C107.496,57.805,104.666,54.975,104.666,51.483z"/>
		<path fill="#419AEA" d="M106.922,35.094c0-3.492,2.83-6.323,6.322-6.323c3.492,0,6.322,2.831,6.322,6.323
			c0,3.49-2.83,6.321-6.322,6.321C109.752,41.415,106.922,38.584,106.922,35.094z"/>
		<path fill="#007FF2" d="M52.766,61.637c0-3.491,2.831-6.321,6.322-6.321c3.491,0,6.322,2.83,6.322,6.321
			c0,3.492-2.831,6.323-6.322,6.323C55.597,67.96,52.766,65.129,52.766,61.637z"/>
		<path fill="#007FF2" d="M68.562,68.971c0-3.491,2.831-6.322,6.321-6.322c3.492,0,6.322,2.832,6.322,6.322
			c0,3.492-2.83,6.322-6.322,6.322C71.393,75.293,68.562,72.463,68.562,68.971z"/>
		<path fill="#419AEA" d="M70.818,52.582c0-3.493,2.83-6.323,6.322-6.323c3.491,0,6.32,2.83,6.32,6.323
			c0,3.49-2.829,6.321-6.32,6.321C73.648,58.903,70.818,56.072,70.818,52.582z"/>
		<path fill="#007FF2" d="M20.611,77.433c0-3.49,2.83-6.321,6.321-6.321c3.491,0,6.321,2.831,6.321,6.321
			c0,3.492-2.83,6.323-6.321,6.323C23.441,83.755,20.611,80.925,20.611,77.433z"/>
		<path fill="#007FF2" d="M36.406,84.767c0-3.491,2.83-6.321,6.32-6.321c3.492,0,6.322,2.831,6.322,6.321
			c0,3.492-2.83,6.322-6.322,6.322C39.236,91.088,36.406,88.259,36.406,84.767z"/>
		<path fill="#419AEA" d="M38.662,68.377c0-3.492,2.832-6.322,6.322-6.322c3.492,0,6.322,2.831,6.322,6.322
			c0,3.491-2.83,6.321-6.322,6.321C41.494,74.698,38.662,71.868,38.662,68.377z"/>
	</g>
</g>
</svg>
