<?xml version="1.0" encoding="utf-8"?>
<!-- Generator: Adobe Illustrator 25.2.1, SVG Export Plug-In . SVG Version: 6.00 Build 0)  -->
<svg version="1.1" xmlns="http://www.w3.org/2000/svg" xmlns:xlink="http://www.w3.org/1999/xlink" x="0px" y="0px"
	 viewBox="0 0 143.756 100.591" enable-background="new 0 0 143.756 100.591" xml:space="preserve">
<g id="BG">
</g>
<g id="MIDDLE">
	<g id="New_Symbol">
	</g>
	<g id="New_Symbol_1">
	</g>
	<g id="New_Symbol_2_">
	</g>
	<g id="New_Symbol_1_">
	</g>
</g>
<g id="TOP">
</g>
<g id="RIGHT">
</g>
<g id="LEFT">
</g>
<g id="GALLERY-RIGHT">
</g>
<g id="CONNECTION">
</g>
<g id="DATA_SET__x2F__QUERY">
</g>
<g id="Layer_11">
</g>
<g id="Layer_12">
</g>
<g id="Help">
	<g>
		<g>
			<path fill="#419AEA" d="M45.509,42.156c2.506,0,4.538,2.031,4.538,4.536c0,2.507-2.032,4.539-4.538,4.539
				s-4.537-2.032-4.537-4.539C40.972,44.187,43.003,42.156,45.509,42.156z"/>
			<path fill="#419AEA" d="M57.085,42.862c3.336,0,6.041,2.705,6.041,6.04c0,3.336-2.705,6.041-6.041,6.041
				c-3.336,0-6.039-2.705-6.039-6.041C51.046,45.566,53.749,42.862,57.085,42.862z"/>
			<path fill="#419AEA" d="M52.314,17.764c6.654,0,12.048,5.396,12.048,12.049c0,6.655-5.393,12.05-12.048,12.05
				c-6.655,0-12.051-5.395-12.051-12.05C40.264,23.16,45.659,17.764,52.314,17.764z"/>
			<path fill="#007FF2" d="M31.547,43.039c4.751,0,8.603,3.851,8.603,8.603c0,4.751-3.852,8.602-8.603,8.602
				s-8.603-3.851-8.603-8.602C22.944,46.89,26.796,43.039,31.547,43.039z"/>
			<path fill="#87BDEE" d="M47.102,53.112c4.067,0,7.364,3.298,7.364,7.367c0,4.068-3.297,7.365-7.364,7.365
				s-7.366-3.297-7.366-7.365C39.735,56.41,43.034,53.112,47.102,53.112z"/>
			<path fill="#87BDEE" d="M44.802,69.196c3.092,0,5.6,2.506,5.6,5.598c0,3.093-2.508,5.599-5.6,5.599s-5.598-2.506-5.598-5.599
				C39.204,71.703,41.71,69.196,44.802,69.196z"/>
			<path fill="#87BDEE" d="M16.876,53.468c4.069,0,7.367,3.296,7.367,7.365c0,4.067-3.298,7.365-7.367,7.365
				c-4.067,0-7.364-3.298-7.364-7.365C9.512,56.764,12.809,53.468,16.876,53.468z"/>
			<path fill="#419AEA" d="M31.526,62c3.58,0,6.481,2.902,6.481,6.481c0,3.58-2.901,6.483-6.481,6.483s-6.482-2.902-6.482-6.483
				C25.044,64.902,27.946,62,31.526,62z"/>
			<path fill="#419AEA" d="M30.642,77.377c6.411,0,11.608,5.197,11.608,11.606c0,6.411-5.197,11.608-11.608,11.608
				c-6.409,0-11.606-5.197-11.606-11.608C19.035,82.574,24.232,77.377,30.642,77.377z"/>
			<path fill="#007FF2" d="M121.529,35.603c2.066,0,3.741,1.677,3.741,3.743c0,2.066-1.675,3.742-3.741,3.742
				c-2.067,0-3.743-1.675-3.743-3.742C117.786,37.28,119.462,35.603,121.529,35.603z"/>
			<path fill="#007FF2" d="M72.034,75.737c4.166,0,7.543,3.377,7.543,7.543c0,4.165-3.377,7.542-7.543,7.542
				s-7.541-3.377-7.541-7.542C64.493,79.114,67.868,75.737,72.034,75.737z"/>
			<path fill="#007FF2" d="M117.721,43.659c9.827,0,17.793,7.966,17.793,17.794c0,9.828-7.966,17.793-17.793,17.793
				c-9.828,0-17.796-7.965-17.796-17.793C99.925,51.625,107.893,43.659,117.721,43.659z"/>
			<path fill="#007FF2" d="M55.683,79.185c4.751,0,8.602,3.852,8.602,8.604c0,4.751-3.851,8.602-8.602,8.602
				s-8.602-3.852-8.602-8.602C47.08,83.036,50.932,79.185,55.683,79.185z"/>
			<path fill="#007FF2" d="M84.845,63.455c4.752,0,8.603,3.851,8.603,8.603c0,4.751-3.851,8.603-8.603,8.603
				c-4.752,0-8.602-3.852-8.602-8.603C76.243,67.306,80.093,63.455,84.845,63.455z"/>
			<path fill="#007FF2" d="M109.06,26.338c4.75,0,8.603,3.851,8.603,8.602c0,4.753-3.853,8.603-8.603,8.603
				c-4.751,0-8.604-3.85-8.604-8.603C100.456,30.189,104.309,26.338,109.06,26.338z"/>
			<path fill="#007FF2" d="M115.067,9.018c4.752,0,8.604,3.851,8.604,8.602c0,4.753-3.853,8.603-8.604,8.603
				c-4.75,0-8.603-3.851-8.603-8.603C106.465,12.869,110.317,9.018,115.067,9.018z"/>
			<path fill="#007FF2" d="M122.845,24.924c2.702,0,4.891,2.191,4.891,4.891c0,2.703-2.188,4.892-4.891,4.892
				c-2.701,0-4.891-2.188-4.891-4.892C117.954,27.114,120.144,24.924,122.845,24.924z"/>
			<path fill="#007FF2" d="M95.65,60.977c1.969,0,3.566,1.597,3.566,3.566c0,1.969-1.598,3.565-3.566,3.565
				c-1.969,0-3.566-1.596-3.566-3.565C92.084,62.574,93.682,60.977,95.65,60.977z"/>
			<path fill="#87BDEE" d="M98.036,68.4c2.115,0,3.832,1.715,3.832,3.831c0,2.115-1.717,3.832-3.832,3.832
				c-2.115,0-3.832-1.717-3.832-3.832C94.204,70.115,95.921,68.4,98.036,68.4z"/>
			<path fill="#419AEA" d="M135.151,29.693c4.752,0,8.605,3.851,8.605,8.602s-3.853,8.603-8.605,8.603
				c-4.75,0-8.603-3.852-8.603-8.603S130.401,29.693,135.151,29.693z"/>
			<path fill="#007FF2" d="M8.602,74.763c4.752,0,8.604,3.852,8.604,8.603c0,4.752-3.852,8.604-8.604,8.604
				C3.852,91.97,0,88.118,0,83.366C0,78.615,3.852,74.763,8.602,74.763z"/>
			<path fill="#007FF2" d="M20.092,69.638c2.602,0,4.714,2.11,4.714,4.714c0,2.604-2.111,4.714-4.714,4.714
				c-2.604,0-4.716-2.11-4.716-4.714C15.376,71.748,17.487,69.638,20.092,69.638z"/>
			<path fill="#419AEA" d="M65.534,54.26c5.875,0,10.635,4.761,10.635,10.635c0,5.875-4.76,10.637-10.635,10.637
				S54.897,70.77,54.897,64.895C54.897,59.021,59.659,54.26,65.534,54.26z"/>
			<path fill="#007FF2" d="M67.92,46.131c2.115,0,3.829,1.715,3.829,3.83c0,2.115-1.714,3.831-3.829,3.831
				c-2.116,0-3.832-1.716-3.832-3.831C64.088,47.846,65.804,46.131,67.92,46.131z"/>
			<path fill="#87BDEE" d="M65.445,37.116c2.214,0,4.007,1.794,4.007,4.008c0,2.213-1.793,4.007-4.007,4.007
				c-2.214,0-4.008-1.794-4.008-4.007C61.438,38.91,63.231,37.116,65.445,37.116z"/>
			<path fill="#007FF2" d="M71.543,23.506c3.629,0,6.57,2.941,6.57,6.57c0,3.629-2.941,6.571-6.57,6.571s-6.57-2.942-6.57-6.571
				C64.973,26.448,67.914,23.506,71.543,23.506z"/>
			<path fill="#419AEA" d="M69.509,0c6.316,0,11.433,5.118,11.433,11.431c0,6.313-5.116,11.43-11.433,11.43
				c-6.311,0-11.43-5.117-11.43-11.43C58.079,5.118,63.197,0,69.509,0z"/>
			<path fill="#419AEA" d="M87.186,32.698c8.071,0,14.612,6.542,14.612,14.613c0,8.069-6.541,14.612-14.612,14.612
				c-8.069,0-14.614-6.543-14.614-14.612C72.571,39.24,79.116,32.698,87.186,32.698z"/>
			<path fill="#87BDEE" d="M84.888,17.674c3.873,0,7.012,3.139,7.012,7.013c0,3.874-3.139,7.013-7.012,7.013
				c-3.873,0-7.013-3.139-7.013-7.013C77.875,20.813,81.015,17.674,84.888,17.674z"/>
			<path fill="#419AEA" d="M89.306,2.474c3.874,0,7.013,3.139,7.013,7.012c0,3.874-3.139,7.013-7.013,7.013
				c-3.872,0-7.014-3.14-7.014-7.013C82.292,5.613,85.434,2.474,89.306,2.474z"/>
			<path fill="#419AEA" d="M99.381,14.14c3.872,0,7.012,3.139,7.012,7.012c0,3.872-3.14,7.013-7.012,7.013
				c-3.873,0-7.013-3.141-7.013-7.013C92.368,17.278,95.508,14.14,99.381,14.14z"/>
			<path fill="#419AEA" d="M95.187,27.532c1.676,0,3.035,1.358,3.035,3.035c0,1.677-1.359,3.036-3.035,3.036
				c-1.678,0-3.036-1.359-3.036-3.036C92.15,28.89,93.509,27.532,95.187,27.532z"/>
			<path fill="#419AEA" d="M52.68,68.005c1.237,0,2.24,1.003,2.24,2.24c0,1.238-1.003,2.241-2.24,2.241
				c-1.237,0-2.241-1.003-2.241-2.241C50.438,69.008,51.442,68.005,52.68,68.005z"/>
			<path fill="#87BDEE" d="M53.741,73.838c1.236,0,2.239,1.001,2.239,2.24c0,1.237-1.003,2.241-2.239,2.241
				c-1.24,0-2.241-1.004-2.241-2.241C51.5,74.84,52.501,73.838,53.741,73.838z"/>
			<path fill="#419AEA" d="M44.372,80.908c1.237,0,2.241,1.003,2.241,2.24c0,1.238-1.004,2.24-2.241,2.24
				c-1.236,0-2.24-1.003-2.24-2.24C42.132,81.91,43.136,80.908,44.372,80.908z"/>
			<path fill="#419AEA" d="M100.047,8.619c1.237,0,2.24,1.003,2.24,2.24c0,1.239-1.003,2.241-2.24,2.241
				c-1.237,0-2.241-1.003-2.241-2.241C97.806,9.623,98.81,8.619,100.047,8.619z"/>
		</g>
	</g>
</g>
</svg>
