<svg width="2223" height="2223" viewBox="0 0 2223 2223" fill="none" xmlns="http://www.w3.org/2000/svg">
<path d="M1700.94 169.165C1554.56 77.6065 1388.87 21.4058 1217 5.01821C1045.13 -11.3693 871.802 12.507 710.763 74.7542L860.418 461.928C961.317 422.927 1069.91 407.967 1177.6 418.234C1285.29 428.502 1389.1 463.715 1480.81 521.081L1700.94 169.165Z" fill="#87BDEE"/>
<path d="M2215.06 978.9C2194.47 807.482 2134.22 643.219 2039.1 499.133C1943.98 355.048 1816.6 235.102 1667.06 148.805L1459.59 508.324C1553.28 562.393 1633.09 637.545 1692.69 727.822C1752.28 818.099 1790.03 921.018 1802.94 1028.42L2215.06 978.9Z" fill="#0970CD"/>
<path d="M716.56 72.5318C555.176 133.879 410.301 231.977 293.421 359.051C176.542 486.124 90.8724 638.679 43.204 804.619L442.16 919.224C472.026 815.254 525.703 719.671 598.933 640.053C672.164 560.436 762.935 498.972 864.051 460.535L716.56 72.5318Z" fill="#419AEA"/>
<path d="M1977.11 1808.75C2085.41 1674.3 2160.9 1516.46 2197.6 1347.75C2234.3 1179.05 2231.19 1004.11 2188.52 836.814L1786.31 939.395C1813.04 1044.21 1814.99 1153.82 1792 1259.52C1769 1365.23 1721.7 1464.12 1653.84 1548.36L1977.11 1808.75Z" fill="#4E97D9"/>
<path d="M1083.53 2222.65C1256.13 2226.99 1427.36 2191.07 1583.66 2117.73C1739.96 2044.39 1877.03 1935.64 1983.99 1800.12L1658.16 1542.95C1591.14 1627.87 1505.26 1696 1407.33 1741.95C1309.4 1787.9 1202.12 1810.41 1093.98 1807.69L1083.53 2222.65Z" fill="#007FF2"/>
<path d="M210.152 1761.89C311.178 1901.9 443.431 2016.44 596.425 2096.45C749.419 2176.46 918.948 2219.73 1091.57 2222.82L1099.01 1807.8C990.857 1805.86 884.639 1778.75 788.78 1728.62C692.922 1678.49 610.059 1606.72 546.761 1519L210.152 1761.89Z" fill="#2B75B8"/>
<path d="M45.7254 795.974C-3.28583 961.522 -13.0577 1136.21 17.1845 1306.19C47.4268 1476.18 116.852 1636.78 219.955 1775.26L552.903 1527.38C488.304 1440.61 444.806 1339.99 425.857 1233.49C406.909 1126.98 413.032 1017.53 443.74 913.807L45.7254 795.974Z" fill="#006CCE"/>
</svg>
