<?xml version="1.0" encoding="utf-8"?>
<!-- Generator: Adobe Illustrator 16.0.0, SVG Export Plug-In . SVG Version: 6.00 Build 0)  -->
<!DOCTYPE svg PUBLIC "-//W3C//DTD SVG 1.1//EN" "http://www.w3.org/Graphics/SVG/1.1/DTD/svg11.dtd">
<svg version="1.1"
	 id="Layer_1" xmlns:dc="http://purl.org/dc/elements/1.1/" xmlns:cc="http://creativecommons.org/ns#" xmlns:rdf="http://www.w3.org/1999/02/22-rdf-syntax-ns#" xmlns:svg="http://www.w3.org/2000/svg" xmlns:sodipodi="http://sodipodi.sourceforge.net/DTD/sodipodi-0.dtd" xmlns:inkscape="http://www.inkscape.org/namespaces/inkscape"
	 xmlns="http://www.w3.org/2000/svg" xmlns:xlink="http://www.w3.org/1999/xlink" x="0px" y="0px" width="100px" height="80.5px"
	 viewBox="0 0 100 80.5" enable-background="new 0 0 100 80.5" xml:space="preserve">
<g transform="translate(0,-952.36218)">
	<path d="M22,967.562c-2.209,0-4,1.791-4,4c0,2.209,1.791,4,4,4h56c2.209,0,4-1.791,4-4c0-2.209-1.791-4-4-4H22z M22,988.362
		c-2.209,0-4,1.791-4,4s1.791,4,4,4h56c2.209,0,4-1.791,4-4s-1.791-4-4-4H22z M22,1009.162c-2.209,0-4,1.791-4,4c0,2.21,1.791,4,4,4
		h56c2.209,0,4-1.79,4-4c0-2.209-1.791-4-4-4H22z"/>
</g>
</svg>
