<?xml version="1.0" encoding="utf-8"?>
<!-- Generator: Adobe Illustrator 25.2.1, SVG Export Plug-In . SVG Version: 6.00 Build 0)  -->
<svg version="1.1" xmlns="http://www.w3.org/2000/svg" xmlns:xlink="http://www.w3.org/1999/xlink" x="0px" y="0px"
	 viewBox="0 0 13 13" enable-background="new 0 0 13 13" xml:space="preserve">
<g id="BG">
</g>
<g id="MIDDLE">
	<g id="New_Symbol">
	</g>
	<g id="New_Symbol_1">
	</g>
	<g id="New_Symbol_2_">
	</g>
	<g id="New_Symbol_1_">
	</g>
	<g>
		<path d="M7.066,5.22H5.648v0.842h0.286v3.02H5.648v0.842h1.704V9.081H7.066V5.22L7.066,5.22z M13,6.5C13,2.91,10.089,0,6.5,0
			S0,2.91,0,6.5S2.911,13,6.5,13S13,10.09,13,6.5z M6.5,0.736c3.184,0,5.764,2.58,5.764,5.764s-2.58,5.764-5.764,5.764
			c-3.184,0-5.764-2.58-5.764-5.764S3.316,0.736,6.5,0.736z M5.843,3.734c0,0.362,0.294,0.656,0.657,0.656
			c0.362,0,0.656-0.294,0.656-0.656S6.862,3.078,6.5,3.078C6.137,3.077,5.843,3.372,5.843,3.734z"/>
	</g>
</g>
<g id="TOP">
</g>
<g id="RIGHT">
</g>
<g id="LEFT">
</g>
<g id="GALLERY-RIGHT">
</g>
<g id="CONNECTION">
</g>
<g id="DATA_SET__x2F__QUERY">
</g>
<g id="Layer_11">
</g>
<g id="Layer_12">
</g>
<g id="Help">
</g>
</svg>
