<?xml version="1.0" encoding="utf-8"?>
<!-- Generator: Adobe Illustrator 16.0.0, SVG Export Plug-In . SVG Version: 6.00 Build 0)  -->
<!DOCTYPE svg PUBLIC "-//W3C//DTD SVG 1.1//EN" "http://www.w3.org/Graphics/SVG/1.1/DTD/svg11.dtd">
<svg version="1.1" xmlns="http://www.w3.org/2000/svg" xmlns:xlink="http://www.w3.org/1999/xlink" x="0px" y="0px"
	 width="17.405px" height="16.975px" viewBox="0 0 17.405 16.975" enable-background="new 0 0 17.405 16.975" xml:space="preserve">
<g id="Layer_1">
	<path fill="#666666" d="M16.8,10.347c-0.005-0.413-0.165-0.803-0.466-1.095l-0.561,0.578c0.141,0.136,0.219,0.319,0.222,0.527
		L16.8,10.347z M16.338,11.446c0.295-0.29,0.462-0.679,0.462-1.094h-0.805c0,0.194-0.077,0.376-0.222,0.519L16.338,11.446z
		 M11.729,15.933l4.606-4.486l-0.562-0.576l-4.606,4.484L11.729,15.933z M10.617,16.379c0.415,0,0.813-0.155,1.113-0.448
		l-0.563-0.575c-0.143,0.14-0.337,0.219-0.55,0.219V16.379z M9.506,15.93c0.297,0.295,0.696,0.449,1.111,0.449v-0.805
		c-0.214,0-0.405-0.079-0.544-0.217L9.506,15.93z M4.307,10.865l5.202,5.068l0.562-0.577l-5.202-5.068L4.307,10.865z M3.662,9.249
		C3.649,9.53,3.725,9.844,3.833,10.116c0.109,0.272,0.271,0.553,0.475,0.75l0.56-0.58c-0.094-0.091-0.202-0.261-0.286-0.469
		c-0.083-0.209-0.12-0.406-0.114-0.531L3.662,9.249z M3.867,5.498L3.662,9.247L4.467,9.29l0.205-3.748L3.867,5.498z M5.634,3.767
		C4.737,3.824,3.925,4.593,3.867,5.495l0.804,0.051C4.701,5.07,5.172,4.602,5.685,4.57L5.634,3.767z M6.313,3.723L5.635,3.767
		l0.05,0.803l0.679-0.042L6.313,3.723z M6.797,6.26C6.796,6.271,6.823,5.99,6.829,5.589c0.007-0.403-0.008-0.949-0.093-1.522
		L5.94,4.185c0.152,1.041,0.054,1.999,0.052,2.03L6.797,6.26z M6.703,6.161c0.049,0.005,0.1,0.051,0.092,0.122L5.994,6.193
		C5.95,6.585,6.243,6.928,6.628,6.963L6.703,6.161z M6.694,6.164c-0.009,0,0.009-0.001,0.028,0.001
		C6.748,6.168,6.774,6.174,6.8,6.183L6.531,6.942C6.612,6.97,6.681,6.969,6.694,6.969V6.164z M6.599,6.255
		c0.007-0.062,0.054-0.092,0.096-0.092v0.806c0.352,0,0.663-0.262,0.704-0.624L6.599,6.255z M6.552,4.143
		c0.15,1.082,0.052,2.051,0.046,2.125l0.802,0.066l0,0l0,0c0,0,0,0,0-0.001c0,0,0,0,0.001-0.001c0,0,0-0.002,0-0.004
		c0-0.002,0.001-0.011,0.001-0.016C7.402,6.3,7.404,6.284,7.406,6.264c0.003-0.038,0.007-0.09,0.011-0.155
		c0.009-0.13,0.018-0.303,0.021-0.512C7.445,5.18,7.432,4.623,7.35,4.031L6.552,4.143z M7.198,3.667L6.926,3.685l0.049,0.803
		l0.272-0.016L7.198,3.667z M9.633,3.663L7.222,3.667l0.001,0.805l2.411-0.004L9.633,3.663z M11.272,4.324
		c-0.2-0.197-0.486-0.358-0.764-0.469C10.23,3.744,9.913,3.663,9.634,3.663v0.806c0.143,0,0.354,0.046,0.575,0.133
		c0.221,0.09,0.402,0.203,0.501,0.298L11.272,4.324z M16.334,9.252l-5.062-4.928L10.711,4.9l5.062,4.931L16.334,9.252z M16.2,11.288
		l-4.605,4.49l0.562,0.576l4.606-4.49L16.2,11.288z M16.6,10.347c0,0.355-0.14,0.688-0.399,0.94l0.563,0.576
		c0.412-0.403,0.643-0.941,0.643-1.517H16.6z M16.201,9.414c0.258,0.249,0.398,0.582,0.398,0.933h0.806
		c0-0.569-0.229-1.112-0.645-1.512L16.201,9.414z M11.141,4.481l5.06,4.932l0.563-0.577l-5.061-4.93L11.141,4.481z M9.633,3.876
		c0.229,0,0.521,0.063,0.81,0.18c0.289,0.118,0.54,0.271,0.698,0.426l0.562-0.578c-0.255-0.247-0.604-0.452-0.959-0.594
		c-0.356-0.144-0.752-0.239-1.11-0.239V3.876z M9.629,3.876h0.004V3.071H9.629V3.876z M7.209,3.879l2.42-0.003L9.628,3.071
		l-2.42,0.002L7.209,3.879z M6.865,3.902l0.369-0.024L7.182,3.074L6.813,3.098L6.865,3.902z M5.559,1.787
		c0.452,0.444,0.729,1.095,0.887,1.801l0.786-0.175c-0.175-0.781-0.5-1.603-1.109-2.201L5.559,1.787z M5.05,1.362
		c0.172,0.122,0.343,0.263,0.511,0.426l0.561-0.579c-0.196-0.19-0.398-0.358-0.606-0.505L5.05,1.362z M4.784,1.191
		C4.778,1.187,4.777,1.186,4.789,1.194C4.799,1.2,4.811,1.207,4.824,1.216C4.854,1.234,4.89,1.258,4.925,1.28
		C4.96,1.302,4.994,1.324,5.019,1.342C5.031,1.348,5.04,1.354,5.045,1.358C5.048,1.36,5.047,1.359,5.044,1.356
		c0,0-0.007-0.004-0.015-0.011C5.026,1.344,5.015,1.333,5.001,1.322C4.995,1.315,4.979,1.298,4.962,1.276
		c-0.009-0.012-0.024-0.032-0.04-0.063C4.916,1.2,4.902,1.166,4.896,1.146C4.89,1.123,4.881,1.064,4.88,1.033h0.806
		c0-0.089-0.031-0.156-0.043-0.181c-0.016-0.029-0.031-0.05-0.039-0.063C5.586,0.767,5.569,0.75,5.563,0.744
		C5.55,0.731,5.537,0.722,5.534,0.718c-0.009-0.007-0.017-0.013-0.02-0.015c-0.007-0.005-0.014-0.01-0.019-0.012
		C5.486,0.685,5.473,0.676,5.46,0.667C5.432,0.648,5.396,0.625,5.359,0.602C5.295,0.56,5.204,0.503,5.176,0.487L4.784,1.191z
		 M4.578,1.079c-0.002,0,0.005,0.002,0.025,0.013c0.018,0.01,0.04,0.022,0.063,0.034c0.05,0.026,0.091,0.049,0.104,0.058
		l0.418-0.688C5.129,0.458,4.96,0.369,4.92,0.351L4.578,1.079z M4.194,0.921c-0.002,0,0.003,0.001,0.016,0.007
		c0.013,0.004,0.028,0.011,0.046,0.018C4.293,0.96,4.337,0.978,4.383,0.998c0.09,0.038,0.18,0.075,0.21,0.088l0.313-0.742
		C4.859,0.324,4.53,0.185,4.442,0.156L4.194,0.921z M4.309,0.539c0,0.401,0,0.401,0,0.401l0,0l0,0l0,0l0,0l0,0l0,0l0,0l0,0l0,0l0,0
		l0,0l0,0l0,0l0,0l0,0l0,0l0,0l0,0l0,0l0,0l0,0l0,0l0,0l0,0l0,0l0,0l0,0l0,0l0,0l0,0l0,0l0,0l0,0l0,0l0,0l0,0l0,0l0,0l0,0l0,0l0,0
		l0,0l0,0l0,0l0,0l0,0l0,0l0,0l0,0l0,0l0,0l0,0l0,0l0,0l0,0l0,0l0,0l0,0l0,0l0,0l0,0l0,0l0,0l0,0l0,0l0,0l0,0l0,0l0,0l0,0l0,0l0,0
		l0,0l0,0l0,0l0,0l0,0l0,0l0,0l0,0l0,0l0,0l0,0l0,0l0,0l0,0l0,0l0,0l0,0l0,0l0,0l0,0l0,0l0,0l0,0l0,0l0,0l0,0l0,0l0,0H4.31l0,0l0,0
		l0,0l0,0l0,0l0,0l0,0l0,0l0,0l0,0l0,0l0,0l0,0l0,0l0,0l0,0l0,0l0,0l0,0l0,0l0,0l0,0l0,0l0,0l0,0l0,0l0,0l0,0l0,0l0,0l0,0l0,0l0,0
		l0,0l0,0l0,0l0,0l0,0l0,0l0,0l0,0l0,0l0,0l0,0l0,0l0,0l0,0l0,0l0,0l0,0l0,0l0,0l0,0l0,0h0.001l0,0l0,0l0,0l0,0l0,0l0,0l0,0l0,0l0,0
		l0,0l0,0l0,0l0,0l0,0l0,0l0,0l0,0l0,0l0,0l0,0l0,0l0,0l0,0l0,0l0,0l0,0l0,0l0,0l0,0l0,0l0,0l0,0l0,0l0,0l0,0l0,0l0,0l0,0l0,0l0,0
		l0,0l0,0l0,0l0,0l0,0l0,0l0,0l0,0l0,0l0,0l0,0l0,0l0,0l0,0l0,0h0.001l0,0l0,0l0,0l0,0l0,0l0,0l0,0l0,0l0,0l0,0l0,0l0,0l0,0l0,0l0,0
		l0,0l0,0l0,0l0,0l0,0l0,0l0,0l0,0l0,0l0,0l0,0l0,0l0,0l0,0l0,0l0,0l0,0l0,0l0,0l0,0l0,0l0,0h0.001l0,0l0,0l0,0l0,0l0,0l0,0l0,0l0,0
		l0,0l0,0l0,0l0,0l0,0l0,0l0,0l0,0l0,0l0,0l0,0l0,0l0,0l0,0l0,0l0,0l0,0l0,0l0,0l0,0l0,0l0,0l0,0l0,0l0,0l0,0l0,0l0,0l0,0l0,0l0,0
		l0,0l0,0l0,0l0,0l0,0h0.001l0,0l0,0l0,0l0,0l0,0l0,0l0,0l0,0l0,0l0,0l0,0l0,0l0,0l0,0l0,0l0,0l0,0l0,0l0,0l0,0l0,0l0,0l0,0l0,0l0,0
		l0,0l0,0l0,0l0,0l0,0l0,0l0,0h0.001l0,0l0,0l0,0l0,0l0,0l0,0l0,0l0,0l0,0l0,0l0,0l0,0l0,0l0,0l0,0l0,0l0,0l0,0l0,0l0,0l0,0l0,0l0,0
		l0,0l0,0l0,0l0,0l0,0l0,0l0,0l0,0l0,0l0,0l0,0l0,0l0,0l0,0l0,0l0,0l0,0l0,0h0.001l0,0l0,0l0,0l0,0l0,0l0,0l0,0l0,0l0,0l0,0l0,0l0,0
		l0,0l0,0l0,0l0,0l0,0l0,0l0,0l0,0l0,0l0,0l0,0l0,0l0,0l0,0l0,0l0,0l0,0l0,0l0,0l0,0h0.001l0,0l0,0l0,0l0,0l0,0l0,0l0,0l0,0l0,0l0,0
		l0,0l0,0l0,0l0,0l0,0l0,0l0,0l0,0l0,0l0,0l0,0l0,0l0,0l0,0l0,0l0,0l0,0l0,0l0,0l0,0l0,0l0,0l0,0l0,0l0,0l0,0l0,0l0,0l0,0l0,0l0,0
		h0.001l0,0l0,0l0,0l0,0l0,0l0,0l0,0l0,0l0,0l0,0l0,0l0,0l0,0l0,0l0,0l0,0l0,0l0,0l0,0l0,0l0,0l0,0l0,0l0,0l0,0l0,0l0,0l0,0l0,0l0,0
		l0,0l0,0l0,0h0.001l0,0l0,0l0,0l0,0l0,0l0,0l0,0l0,0l0,0l0,0l0,0l0,0l0,0l0,0l0,0l0,0l0,0l0,0l0,0l0,0l0,0l0,0l0,0l0,0l0,0V0.136
		l0,0l0,0l0,0l0,0l0,0l0,0l0,0l0,0l0,0l0,0l0,0l0,0l0,0l0,0l0,0l0,0l0,0l0,0l0,0l0,0l0,0l0,0l0,0l0,0l0,0H4.317l0,0l0,0l0,0l0,0l0,0
		l0,0l0,0l0,0l0,0l0,0l0,0l0,0l0,0l0,0l0,0l0,0l0,0l0,0l0,0l0,0l0,0l0,0l0,0l0,0l0,0l0,0l0,0l0,0l0,0l0,0l0,0l0,0l0,0H4.316l0,0l0,0
		l0,0l0,0l0,0l0,0l0,0l0,0l0,0l0,0l0,0l0,0l0,0l0,0l0,0l0,0l0,0l0,0l0,0l0,0l0,0l0,0l0,0l0,0l0,0l0,0l0,0l0,0l0,0l0,0l0,0l0,0l0,0
		l0,0l0,0l0,0l0,0l0,0l0,0l0,0l0,0H4.315l0,0l0,0l0,0l0,0l0,0l0,0l0,0l0,0l0,0l0,0l0,0l0,0l0,0l0,0l0,0l0,0l0,0l0,0l0,0l0,0l0,0l0,0
		l0,0l0,0l0,0l0,0l0,0l0,0l0,0l0,0l0,0l0,0H4.314l0,0l0,0l0,0l0,0l0,0l0,0l0,0l0,0l0,0l0,0l0,0l0,0l0,0l0,0l0,0l0,0l0,0l0,0l0,0l0,0
		l0,0l0,0l0,0l0,0l0,0l0,0l0,0l0,0l0,0l0,0l0,0l0,0l0,0l0,0l0,0l0,0l0,0l0,0l0,0l0,0l0,0H4.313l0,0l0,0l0,0l0,0l0,0l0,0l0,0l0,0l0,0
		l0,0l0,0l0,0l0,0l0,0l0,0l0,0l0,0l0,0l0,0l0,0l0,0l0,0l0,0l0,0l0,0l0,0l0,0l0,0l0,0l0,0l0,0l0,0H4.313l0,0l0,0l0,0l0,0l0,0l0,0l0,0
		l0,0l0,0l0,0l0,0l0,0l0,0l0,0l0,0l0,0l0,0l0,0l0,0l0,0l0,0l0,0l0,0l0,0l0,0l0,0l0,0l0,0l0,0l0,0l0,0l0,0l0,0l0,0l0,0l0,0l0,0l0,0
		l0,0l0,0l0,0l0,0l0,0l0,0H4.312l0,0l0,0l0,0l0,0l0,0l0,0l0,0l0,0l0,0l0,0l0,0l0,0l0,0l0,0l0,0l0,0l0,0l0,0l0,0l0,0l0,0l0,0l0,0l0,0
		l0,0l0,0l0,0l0,0l0,0l0,0l0,0l0,0l0,0l0,0l0,0l0,0l0,0H4.311l0,0l0,0l0,0l0,0l0,0l0,0l0,0l0,0l0,0l0,0l0,0l0,0l0,0l0,0l0,0l0,0l0,0
		l0,0l0,0l0,0l0,0l0,0l0,0l0,0l0,0l0,0l0,0l0,0l0,0l0,0l0,0l0,0l0,0l0,0l0,0l0,0l0,0l0,0l0,0l0,0l0,0l0,0l0,0l0,0l0,0l0,0l0,0l0,0
		l0,0l0,0l0,0l0,0l0,0l0,0l0,0H4.31l0,0l0,0l0,0l0,0l0,0l0,0l0,0l0,0l0,0l0,0l0,0l0,0l0,0l0,0l0,0l0,0l0,0l0,0l0,0l0,0l0,0l0,0l0,0
		l0,0l0,0l0,0l0,0l0,0l0,0l0,0l0,0l0,0l0,0l0,0l0,0l0,0l0,0l0,0l0,0l0,0l0,0l0,0l0,0l0,0l0,0l0,0l0,0l0,0l0,0l0,0l0,0l0,0l0,0l0,0
		H4.309l0,0l0,0l0,0l0,0l0,0l0,0l0,0l0,0l0,0l0,0l0,0l0,0l0,0l0,0l0,0l0,0l0,0l0,0l0,0l0,0l0,0l0,0l0,0l0,0l0,0l0,0l0,0l0,0l0,0l0,0
		l0,0l0,0l0,0l0,0l0,0l0,0l0,0l0,0l0,0l0,0l0,0l0,0l0,0l0,0l0,0l0,0l0,0l0,0l0,0l0,0l0,0l0,0l0,0l0,0l0,0l0,0l0,0l0,0l0,0l0,0l0,0
		l0,0l0,0l0,0l0,0l0,0l0,0l0,0l0,0l0,0l0,0l0,0l0,0l0,0l0,0l0,0l0,0l0,0l0,0l0,0l0,0l0,0l0,0l0,0l0,0l0,0l0,0l0,0l0,0l0,0l0,0l0,0
		l0,0l0,0l0,0l0,0l0,0l0,0l0,0C4.309,0.136,4.309,0.136,4.309,0.539z M1.629,1.614c0.773-0.754,1.68-0.971,2.558-0.691l0.244-0.767
		c-1.19-0.38-2.4-0.058-3.364,0.881L1.629,1.614z M0.805,3.4C0.799,2.778,1.065,2.161,1.628,1.614L1.066,1.037
		C0.373,1.711-0.01,2.53,0,3.409L0.805,3.4z M1.808,5.409C1.135,4.752,0.812,4.054,0.805,3.401L0,3.409
		c0.009,0.924,0.465,1.816,1.245,2.577L1.808,5.409z M1.743,5.381c0.002,0,0.013,0,0.028,0.007c0.017,0.005,0.03,0.015,0.04,0.024
		l-0.57,0.568c0.149,0.15,0.335,0.205,0.502,0.205V5.381z M1.668,5.417c0.014-0.012,0.029-0.024,0.047-0.029
		C1.73,5.381,1.741,5.381,1.743,5.381v0.804c0.164,0,0.354-0.052,0.505-0.209L1.668,5.417z M1.679,5.57
		C1.631,5.523,1.637,5.449,1.676,5.41L2.24,5.984c0.273-0.268,0.286-0.717-0.002-0.995L1.679,5.57z M0.607,3.403
		c0.01,0.773,0.406,1.52,1.07,2.165L2.239,4.99c-0.564-0.546-0.82-1.104-0.826-1.597L0.607,3.403z M1.497,1.457
		C0.929,2.01,0.604,2.683,0.607,3.4l0.806-0.004C1.411,2.939,1.614,2.466,2.06,2.033L1.497,1.457z M4.464,0.798
		C3.421,0.372,2.354,0.623,1.497,1.457L2.06,2.033c0.654-0.638,1.387-0.78,2.1-0.488L4.464,0.798z M4.319,1.174
		C4.32,0.771,4.32,0.771,4.32,0.771l0,0l0,0h0.001h0.001c0.002,0,0.003,0,0.003,0c0.003,0,0.006,0,0.008,0
		C4.338,0.771,4.344,0.771,4.35,0.771c0.012,0,0.028,0.004,0.049,0.008c0.02,0.004,0.053,0.012,0.092,0.031
		c0.037,0.018,0.102,0.058,0.153,0.133L3.979,1.398c0.096,0.141,0.239,0.166,0.254,0.17c0.022,0.004,0.041,0.007,0.054,0.008
		c0.007,0,0.013,0,0.018,0c0.003,0,0.006,0,0.008,0c0,0,0.002,0,0.004,0h0.001h0.001l0,0l0,0C4.318,1.577,4.319,1.577,4.319,1.174z
		 M4.742,0.93C4.72,0.917,4.55,0.832,4.466,0.798L4.173,1.55c0,0,0.001,0,0.003,0c0.003,0.001,0.005,0.002,0.009,0.004
		c0.007,0.003,0.015,0.005,0.024,0.01c0.021,0.01,0.043,0.021,0.065,0.032c0.022,0.011,0.044,0.022,0.06,0.029
		c0.02,0.011,0.026,0.014,0.024,0.013L4.742,0.93z M5.09,1.137C5.062,1.119,4.986,1.073,4.918,1.032
		c-0.061-0.037-0.15-0.09-0.191-0.11L4.374,1.646C4.368,1.643,4.377,1.646,4.409,1.667c0.026,0.016,0.06,0.035,0.094,0.055
		c0.07,0.042,0.134,0.082,0.148,0.09L5.09,1.137z M5.69,1.634C5.496,1.44,5.298,1.28,5.098,1.143L4.643,1.807
		c0.164,0.112,0.323,0.241,0.479,0.396L5.69,1.634z M6.614,3.446c-0.155-0.65-0.428-1.334-0.928-1.817l-0.56,0.579
		c0.34,0.329,0.564,0.838,0.704,1.426L6.614,3.446z M5.638,3.975L6.245,3.94L6.2,3.137L5.593,3.171L5.638,3.975z M4.061,5.506
		c0.05-0.773,0.758-1.476,1.582-1.531L5.588,3.171C4.382,3.252,3.334,4.258,3.257,5.455L4.061,5.506z M3.854,9.265l0.207-3.762
		L3.256,5.459L3.049,9.22L3.854,9.265z M4.431,10.707c-0.158-0.153-0.312-0.395-0.422-0.671C3.898,9.758,3.844,9.478,3.854,9.26
		L3.049,9.227C3.033,9.585,3.12,9.979,3.261,10.333c0.141,0.353,0.35,0.7,0.609,0.954L4.431,10.707z M9.636,15.778l-5.204-5.07
		l-0.563,0.577l5.204,5.069L9.636,15.778z M10.614,16.168c-0.356,0-0.71-0.132-0.98-0.393l-0.56,0.579
		c0.429,0.414,0.986,0.62,1.54,0.62V16.168z M11.597,15.775c-0.273,0.261-0.624,0.393-0.982,0.393v0.806
		c0.558,0,1.111-0.208,1.54-0.619L11.597,15.775z M16.397,10.352H16.8v-0.004L16.397,10.352z M16.056,11.158l0.28,0.289l0.002-0.001
		L16.056,11.158z M11.448,15.644l-0.28-0.289l-0.001,0.001L11.448,15.644z M9.789,15.644l0.284-0.286l-0.003-0.002L9.789,15.644z
		 M4.588,10.577l0.28-0.289l-0.001-0.001L4.588,10.577z M4.064,9.267L3.662,9.247v0.002L4.064,9.267z M4.27,5.52L3.867,5.495v0.003
		L4.27,5.52z M5.659,4.168L5.635,3.767H5.634L5.659,4.168z M6.338,4.125l0.398-0.058L6.683,3.701L6.313,3.723L6.338,4.125z
		 M6.395,6.238l0.4,0.045l0.001-0.012l0.001-0.01L6.395,6.238z M6.665,6.562L6.8,6.183L6.753,6.166l-0.05-0.005L6.665,6.562z
		 M6.998,6.3l0.4,0.045l0.001-0.012L6.998,6.3z M6.95,4.085L6.926,3.685L6.492,3.711l0.06,0.431L6.95,4.085z M7.223,4.07
		L7.222,3.667H7.21H7.198L7.223,4.07z M9.634,4.064V3.663H9.633L9.634,4.064z M10.991,4.612L10.71,4.9h0.001L10.991,4.612z
		 M16.054,9.541l-0.281,0.29h0.001L16.054,9.541z M16.481,11.576l0.281,0.288l0,0L16.481,11.576z M16.481,9.124L16.2,9.413
		l0.001,0.001L16.481,9.124z M11.422,4.193l0.28-0.288V3.904L11.422,4.193z M9.629,3.475V3.071H9.628L9.629,3.475z M7.208,3.477
		V3.073H7.195L7.182,3.074L7.208,3.477z M6.838,3.5L6.445,3.587l0.075,0.338l0.345-0.024L6.838,3.5z M5.841,1.498l0.281-0.286
		L6.121,1.209L5.841,1.498z M5.282,1.033H4.88v0.208l0.17,0.121L5.282,1.033z M4.98,0.839L4.771,1.183l0.006,0.003l0.007,0.005
		L4.98,0.839z M4.749,0.714L4.92,0.351L4.913,0.346L4.906,0.344L4.749,0.714z M4.318,0.539l0.124-0.383l-0.061-0.02H4.318V0.539z
		 M4.309,0.539L4.187,0.922l0.06,0.018h0.063V0.539z M1.348,1.325l0.28,0.289h0.001L1.348,1.325z M0.402,3.406l0.402-0.004V3.4
		L0.402,3.406z M1.526,5.697l0.286-0.285L1.808,5.409L1.526,5.697z M1.958,5.697L1.676,5.41L1.668,5.417L1.958,5.697z M1.958,5.279
		l-0.28,0.289L1.679,5.57L1.958,5.279z M1.011,3.398L0.607,3.4v0.003L1.011,3.398z M4.312,1.171l0.332-0.228l-0.068-0.1L4.464,0.798
		L4.312,1.171z M4.319,1.174l0.146-0.376l-0.07-0.028H4.32L4.319,1.174z M4.551,1.284L4.358,1.638l0.008,0.004l0.008,0.003
		L4.551,1.284z M4.87,1.475l0.228-0.333L5.09,1.137L4.87,1.475z M5.406,1.919L5.122,2.204l0.005,0.004L5.406,1.919z M6.223,3.539
		L6.245,3.94l0.48-0.026L6.614,3.446L6.223,3.539z M5.615,3.573L5.593,3.171H5.588L5.615,3.573z M3.658,5.479L3.257,5.455
		L3.256,5.459L3.658,5.479z M3.451,9.244L3.049,9.22v0.006L3.451,9.244z M4.15,10.997l0.281-0.289l-0.001,0L4.15,10.997z
		 M9.354,16.066l-0.281,0.288l0.001,0.001L9.354,16.066z M11.875,16.066l0.279,0.29l0.002-0.002L11.875,16.066z"/>
</g>
<g id="Layer_2">
</g>
</svg>
