<svg width="2223" height="2224" viewBox="0 0 2223 2224" fill="none" xmlns="http://www.w3.org/2000/svg">
<path d="M1957.04 1483.53C1982.41 1491.22 2009.33 1476.9 2015.82 1451.2C2067.21 1247.81 2054.94 1033.1 1980.02 836.324C1905.1 639.547 1771.47 471.041 1597.83 353.326C1575.88 338.451 1546.26 345.665 1532.43 368.281L1055.89 1147.53C1039.5 1174.34 1052.85 1209.4 1082.91 1218.51L1957.04 1483.53Z" fill="#419AEA"/>
<path d="M531.665 432.591C514.303 412.558 483.904 410.312 464.692 428.579C363.86 524.451 283.263 639.572 227.68 767.123C217.089 791.425 229.6 819.221 254.365 828.68L1003.36 1114.77C1050 1132.58 1089.46 1076.22 1056.76 1038.49L531.665 432.591Z" fill="#4E97D9"/>
<path d="M290.854 836.435C264.732 831.921 239.775 849.434 236.523 875.743C210.953 1082.66 250.913 1292.44 350.761 1475.46C363.457 1498.73 393.105 1505.84 415.739 1492.04L1116.89 1064.53C1154.74 1041.45 1143.76 983.791 1100.08 976.244L290.854 836.435Z" fill="#007FF2"/>
<path d="M1675.48 210.86C1689.54 188.385 1682.77 158.67 1659.7 145.595C1460.27 32.5189 1230.34 -16.3167 1001.43 6.46306C772.524 29.2428 556.729 122.434 383.493 272.596C363.461 289.959 362.674 320.426 380.886 339.69L1068.85 1067.39C1090.43 1090.21 1127.76 1086.5 1144.42 1059.86L1675.48 210.86Z" fill="#87BDEE"/>
<path d="M1208.76 2050.11C1212.82 2076.31 1237.38 2094.36 1263.36 2089.11C1475.72 2046.2 1670.13 1938.81 1819.73 1781.03C1969.32 1623.26 2066.21 1423.4 2097.76 1209.07C2101.62 1182.84 2082.28 1159.27 2055.91 1156.61L1116.27 1061.74C1085.01 1058.58 1059.2 1085.81 1064.01 1116.85L1208.76 2050.11Z" fill="#006CCE"/>
<path d="M231.964 1472.19C207.7 1482.87 196.59 1511.26 208.354 1535.01C305.279 1730.75 460.396 1892.24 652.963 1996.94C845.531 2101.65 1065.4 2144.04 1282.37 2118.99C1308.71 2115.95 1326.49 2091.19 1322.27 2065.02L1170.4 1124.79C1165.39 1093.78 1132.43 1075.85 1103.68 1088.51L231.964 1472.19Z" fill="#2B75B8"/>
<circle cx="1111.5" cy="1112.5" r="370.5" fill="white"/>
</svg>
