<svg width="23" height="23" viewBox="0 0 23 23" fill="none" xmlns="http://www.w3.org/2000/svg">
<path d="M11.5 5.75C11.7542 5.75 11.9979 5.85097 12.1776 6.03069C12.3574 6.21041 12.4583 6.45417 12.4583 6.70833V10.5417H16.2917C16.5458 10.5417 16.7896 10.6426 16.9693 10.8224C17.149 11.0021 17.25 11.2458 17.25 11.5C17.25 11.7542 17.149 11.9979 16.9693 12.1776C16.7896 12.3574 16.5458 12.4583 16.2917 12.4583H12.4583V16.2917C12.4583 16.5458 12.3574 16.7896 12.1776 16.9693C11.9979 17.149 11.7542 17.25 11.5 17.25C11.2458 17.25 11.0021 17.149 10.8224 16.9693C10.6426 16.7896 10.5417 16.5458 10.5417 16.2917V12.4583H6.70833C6.45417 12.4583 6.21041 12.3574 6.03069 12.1776C5.85097 11.9979 5.75 11.7542 5.75 11.5C5.75 11.2458 5.85097 11.0021 6.03069 10.8224C6.21041 10.6426 6.45417 10.5417 6.70833 10.5417H10.5417V6.70833C10.5417 6.45417 10.6426 6.21041 10.8224 6.03069C11.0021 5.85097 11.2458 5.75 11.5 5.75V5.75Z" fill="#666666"/>
<path d="M0 11.5C-2.25038e-08 9.9898 0.297456 8.49438 0.875385 7.09914C1.45331 5.7039 2.3004 4.43615 3.36827 3.36827C4.43615 2.3004 5.7039 1.45331 7.09914 0.875385C8.49438 0.297456 9.9898 0 11.5 0C13.0102 0 14.5056 0.297456 15.9009 0.875385C17.2961 1.45331 18.5639 2.3004 19.6317 3.36827C20.6996 4.43615 21.5467 5.7039 22.1246 7.09914C22.7025 8.49438 23 9.9898 23 11.5C23 14.55 21.7884 17.4751 19.6317 19.6317C17.4751 21.7884 14.55 23 11.5 23C8.45001 23 5.52494 21.7884 3.36827 19.6317C1.2116 17.4751 4.54484e-08 14.55 0 11.5V11.5ZM11.5 1.91667C8.95834 1.91667 6.52078 2.92634 4.72356 4.72356C2.92634 6.52078 1.91667 8.95834 1.91667 11.5C1.91667 14.0417 2.92634 16.4792 4.72356 18.2764C6.52078 20.0737 8.95834 21.0833 11.5 21.0833C14.0417 21.0833 16.4792 20.0737 18.2764 18.2764C20.0737 16.4792 21.0833 14.0417 21.0833 11.5C21.0833 8.95834 20.0737 6.52078 18.2764 4.72356C16.4792 2.92634 14.0417 1.91667 11.5 1.91667V1.91667Z" fill="#666666"/>
</svg>
