<?xml version="1.0" encoding="utf-8"?>
<!-- Generator: Adobe Illustrator 24.3.0, SVG Export Plug-In . SVG Version: 6.00 Build 0)  -->
<svg version="1.1" id="Layer_1" xmlns="http://www.w3.org/2000/svg" xmlns:xlink="http://www.w3.org/1999/xlink" x="0px" y="0px"
	 viewBox="0 0 459.5 464" style="enable-background:new 0 0 459.5 464;" xml:space="preserve">
<g>
	<path d="M395.3,72L257,3.7C239.3-5,217.8,2.2,209,20l-159.9,324c-8.7,17.7-1.4,39.3,16.3,48l138.4,68.3h0c5,2.5,10.4,3.7,15.8,3.7
		c3.9,0,7.8-0.6,11.5-1.9c9.1-3.1,16.4-9.5,20.6-18.1l159.9-324c4.3-8.6,4.9-18.3,1.8-27.4C410.4,83.5,403.9,76.2,395.3,72L395.3,72
		z M283.9,35.5l73,36l-14,12.5l-60.4-29.8L283.9,35.5z M396.7,112.6l-159.9,324c-2.3,4.6-6.2,8-11,9.7c-4.9,1.7-10.1,1.3-14.6-1h0
		L72.7,377c-9.5-4.7-13.4-16.2-8.7-25.7L224,27.3c4.7-9.5,16.2-13.4,25.7-8.7l18.1,8.9l-2.4,31c-0.3,3.4,1.6,6.6,4.6,8.1l70.5,34.8
		c1.2,0.6,2.4,0.9,3.7,0.9c2,0,4-0.7,5.6-2.1l23.2-20.8l15.1,7.4c4.6,2.3,8,6.2,9.7,11C399.3,102.8,398.9,108,396.7,112.6
		L396.7,112.6z"/>
	<path d="M165.8,377.8c-1.7-3.3-5.3-5-8.9-4.4l-17.8,3.3c-4.5,0.8-7.5,5.2-6.7,9.7c0.8,4.5,5.2,7.4,9.7,6.7l11.7-2.1l5.4,10.6
		c1.5,2.9,4.4,4.6,7.4,4.6c1.3,0,2.6-0.3,3.8-0.9c4.1-2.1,5.7-7.1,3.6-11.2L165.8,377.8z"/>
	<path d="M419.8,20.6l16.6,0h0c4.6,0,8.3-3.7,8.3-8.3c0-4.6-3.7-8.3-8.3-8.4l-37.6-0.1h0c-0.2,0-0.4,0.1-0.6,0.1
		c-0.6,0-1.1,0.2-1.6,0.3c-0.5,0.1-1,0.3-1.5,0.5c-0.4,0.2-0.8,0.5-1.2,0.8c-0.5,0.4-0.9,0.7-1.3,1.2c-0.1,0.1-0.3,0.2-0.4,0.4
		c-0.2,0.3-0.2,0.6-0.4,0.8c-0.3,0.5-0.6,1-0.8,1.6c-0.2,0.5-0.3,1-0.3,1.6c0,0.3-0.2,0.7-0.2,1l-0.1,36.6c0,4.6,3.7,8.3,8.3,8.4h0
		c4.6,0,8.3-3.7,8.3-8.3l0-17.7c22.6,23.4,61.3,78.5,11.6,146.9c-2.7,3.7-1.9,8.9,1.8,11.6c1.5,1.1,3.2,1.6,4.9,1.6
		c2.6,0,5.1-1.2,6.7-3.4C487.8,111.2,445.5,48.2,419.8,20.6L419.8,20.6z"/>
	<path d="M74,453.8c0-0.3,0.2-0.6,0.1-0.9l-1.8-36.5c-0.2-4.6-4.1-8-8.7-7.9c-4.6,0.2-8.1,4.1-7.9,8.7l0.9,17.8
		c-23.8-22.2-65.4-75.1-19.1-146.2c2.5-3.8,1.4-9-2.4-11.5c-3.9-2.5-9-1.4-11.5,2.4c-51.6,79.2-6.1,140.1,20.9,166.3l-16.5,0.8
		c-4.6,0.2-8.1,4.1-7.9,8.7c0.2,4.5,3.9,7.9,8.3,7.9c0.1,0,0.3,0,0.4,0l37.5-1.8c1.2-0.1,2.3-0.4,3.3-0.9c0.2-0.1,0.3-0.3,0.5-0.4
		c0.9-0.5,1.7-1.2,2.3-2.1c0.1-0.1,0.3-0.2,0.4-0.3c0.2-0.3,0.2-0.6,0.4-0.9c0.3-0.5,0.5-1,0.6-1.5C73.9,455,74,454.4,74,453.8
		L74,453.8z"/>
</g>
</svg>
