<?xml version="1.0" encoding="utf-8"?>
<!-- Generator: Adobe Illustrator 25.2.1, SVG Export Plug-In . SVG Version: 6.00 Build 0)  -->
<svg version="1.1" id="Layer_1" xmlns="http://www.w3.org/2000/svg" xmlns:xlink="http://www.w3.org/1999/xlink" x="0px" y="0px"
	 viewBox="0 0 35.1 31" style="enable-background:new 0 0 35.1 31;" xml:space="preserve">
<style type="text/css">
	.st0{fill:#2A2B6A;}
</style>
<g id="BG">
</g>
<g id="MIDDLE">
	<g id="New_Symbol">
	</g>
	<g id="New_Symbol_1">
	</g>
	<g id="New_Symbol_2_">
	</g>
	<g id="New_Symbol_1_">
	</g>
</g>
<g id="TOP">
</g>
<g id="RIGHT">
</g>
<g id="LEFT">
</g>
<g id="GALLERY-RIGHT">
</g>
<g id="CONNECTION">
</g>
<g id="DATA_SET__x2F__QUERY">
</g>
<g id="Layer_11">
</g>
<g id="Layer_12">
</g>
<g id="Help">
	<g>
		<path class="st0" d="M16.1,1.5V4c-2.5,0.6-4.4,3-4.4,5.7s1.9,5,4.4,5.7v14.2c0,0.8,0.6,1.4,1.4,1.4s1.4-0.6,1.4-1.4V15.3
			c2.5-0.6,4.4-3,4.4-5.6S21.5,4.6,19,4V1.5C19,0.7,18.4,0,17.5,0C16.7,0,16.1,0.7,16.1,1.5z M21,9.6c0,1.9-1.6,3.5-3.5,3.5
			s-3.5-1.6-3.5-3.5s1.6-3.5,3.5-3.5C19.5,6.1,21,7.7,21,9.6z"/>
		<path class="st0" d="M7.3,29.5v-2.6c2.5-0.6,4.4-3,4.4-5.7c0-2.7-1.9-5-4.4-5.7V1.4C7.3,0.6,6.7,0,5.9,0S4.4,0.6,4.4,1.4v14.2
			c-2.5,0.6-4.4,3-4.4,5.7s1.8,5,4.4,5.6v2.6C4.4,30.3,5,31,5.9,31C6.7,31,7.3,30.3,7.3,29.5z M2.4,21.3c0-1.9,1.6-3.5,3.5-3.5
			c1.9,0,3.5,1.6,3.5,3.5c0,1.9-1.6,3.5-3.5,3.5S2.4,23.2,2.4,21.3z"/>
		<path class="st0" d="M27.8,1.5v14.1c-2.5,0.6-4.4,3-4.4,5.7s1.9,5,4.4,5.7v2.6c0,0.8,0.6,1.4,1.4,1.4s1.4-0.6,1.4-1.4V27
			c2.5-0.6,4.4-3,4.4-5.7s-1.9-5-4.4-5.7V1.5C30.6,0.7,30,0,29.2,0C28.4,0,27.8,0.7,27.8,1.5z M32.7,21.3c0,1.9-1.6,3.5-3.5,3.5
			s-3.5-1.6-3.5-3.5s1.6-3.5,3.5-3.5C31.1,17.8,32.7,19.3,32.7,21.3z"/>
	</g>
</g>
</svg>
