<svg width="14" height="14" viewBox="0 0 14 14" fill="none" xmlns="http://www.w3.org/2000/svg">
<path d="M11.17 9.16443C10.7722 9.1643 10.3788 9.23606 10.0156 9.37499C9.65252 9.51392 9.32786 9.71688 9.06297 9.97057L5.42219 7.9708C5.57932 7.66517 5.66045 7.33497 5.66045 7.00114C5.66045 6.66731 5.57932 6.33712 5.42219 6.03149L9.06297 4.03172C9.53796 4.48449 10.1952 4.76769 10.9036 4.82486C11.612 4.88204 12.3196 4.709 12.8854 4.34023C13.4512 3.97146 13.8336 3.43404 13.9564 2.83508C14.0792 2.23613 13.9334 1.61961 13.548 1.10842C13.1627 0.597227 12.5661 0.228892 11.8771 0.0768255C11.1882 -0.0752407 10.4574 0.000129275 9.83061 0.287914C9.20378 0.575698 8.72686 1.05476 8.4949 1.62963C8.26294 2.2045 8.29298 2.83295 8.57903 3.38974L4.93825 5.3895C4.55628 5.02447 4.05362 4.76716 3.49678 4.65162C2.93994 4.53608 2.35517 4.56776 1.81986 4.74247C1.28455 4.91717 0.823929 5.22666 0.498963 5.62999C0.173996 6.03331 0 6.51146 0 7.00114C0 7.49083 0.173996 7.96897 0.498963 8.3723C0.823929 8.77563 1.28455 9.08512 1.81986 9.25982C2.35517 9.43453 2.93994 9.46621 3.49678 9.35067C4.05362 9.23513 4.55628 8.97782 4.93825 8.61279L8.57903 10.6126C8.33462 11.0896 8.277 11.6214 8.41475 12.1287C8.55249 12.636 8.87824 13.0918 9.34351 13.4281C9.80878 13.7645 10.3887 13.9634 10.997 13.9954C11.6052 14.0274 12.2093 13.8907 12.7194 13.6057C13.2294 13.3206 13.6181 12.9024 13.8276 12.4134C14.0371 11.9243 14.0562 11.3905 13.8821 10.8915C13.708 10.3924 13.3499 9.95467 12.8613 9.64349C12.3726 9.33231 11.7794 9.16429 11.17 9.16443ZM11.17 0.765802C11.5529 0.765802 11.9271 0.862823 12.2455 1.0446C12.5638 1.22637 12.8119 1.48473 12.9585 1.78701C13.105 2.08929 13.1433 2.42191 13.0686 2.74281C12.9939 3.06371 12.8095 3.35847 12.5388 3.58983C12.2681 3.82118 11.9232 3.97873 11.5477 4.04256C11.1722 4.1064 10.7829 4.07363 10.4292 3.94843C10.0755 3.82322 9.77317 3.61119 9.56046 3.33914C9.34775 3.0671 9.23422 2.74726 9.23422 2.42008C9.23422 1.98134 9.43817 1.56056 9.8012 1.25033C10.1642 0.940091 10.6566 0.765802 11.17 0.765802ZM2.83121 8.65542C2.44835 8.65542 2.07408 8.5584 1.75574 8.37662C1.4374 8.19485 1.18929 7.93649 1.04277 7.63421C0.896255 7.33193 0.857919 6.99931 0.932612 6.67841C1.00731 6.35751 1.19167 6.06275 1.4624 5.8314C1.73312 5.60004 2.07805 5.44249 2.45356 5.37866C2.82906 5.31483 3.21829 5.34759 3.57201 5.47279C3.92573 5.598 4.22806 5.81003 4.44076 6.08208C4.65347 6.35412 4.767 6.67396 4.767 7.00114C4.767 7.43989 4.56305 7.86066 4.20002 8.17089C3.83699 8.48113 3.34461 8.65542 2.83121 8.65542ZM11.17 13.2365C10.7871 13.2365 10.4129 13.1395 10.0945 12.9577C9.7762 12.7759 9.52809 12.5176 9.38157 12.2153C9.23506 11.913 9.19672 11.5804 9.27141 11.2595C9.34611 10.9386 9.53047 10.6438 9.8012 10.4125C10.0719 10.1811 10.4168 10.0236 10.7924 9.95972C11.1679 9.89589 11.5571 9.92865 11.9108 10.0539C12.2645 10.1791 12.5669 10.3911 12.7796 10.6631C12.9923 10.9352 13.1058 11.255 13.1058 11.5822C13.1058 11.7995 13.0557 12.0146 12.9585 12.2153C12.8612 12.416 12.7186 12.5983 12.5388 12.752C12.3591 12.9056 12.1457 13.0274 11.9108 13.1106C11.6759 13.1937 11.4242 13.2365 11.17 13.2365Z" fill="black"/>
</svg>
