<svg width="160" height="94" viewBox="0 0 160 94" fill="none" xmlns="http://www.w3.org/2000/svg">
<path d="M0 22.9923L28.1818 28.8339L65.4545 15.4895L85 22.9923L118.636 0L160 27.9945V49.3916H63.1892H0V22.9923Z" fill="#BDE0FF"/>
<path d="M0 38.4278L28.1818 44.2695L65.4545 30.9251L85 38.4278L118.636 15.4355L160 43.43V64.8272H63.1892H0V38.4278Z" fill="#87BDEE"/>
<path d="M0 47.9903L28.1818 53.832L65.4545 40.4876L85 47.9903L118.636 24.998L160 52.9925V74.3897H63.1892H0V47.9903Z" fill="#007FF2"/>
<path d="M0 59.739L33.6364 54.4916L67.2727 63.9951L103.636 31.6006L160 42.4873V74.3898H126.378H63.1892H0L0 59.739Z" fill="#419AEA"/>
</svg>
