<?xml version="1.0" encoding="utf-8"?>
<!-- Generator: Adobe Illustrator 25.2.1, SVG Export Plug-In . SVG Version: 6.00 Build 0)  -->
<svg version="1.1" id="Layer_1" xmlns="http://www.w3.org/2000/svg" xmlns:xlink="http://www.w3.org/1999/xlink" x="0px" y="0px"
	 viewBox="0 0 128.3 135.4" style="enable-background:new 0 0 128.3 135.4;" xml:space="preserve">
<style type="text/css">
	.st0{fill:#FFFFFF;filter:url(#Adobe_OpacityMaskFilter);}
	.st1{mask:url(#path-1-inside-1_141_33_1_);fill:#87BDEE;stroke:#FFFFFF;stroke-width:2;}
	.st2{fill:#FFFFFF;filter:url(#Adobe_OpacityMaskFilter_1_);}
	.st3{mask:url(#path-2-inside-2_141_33_1_);fill:#87BDEE;stroke:#FFFFFF;stroke-width:2;}
	.st4{fill:#FFFFFF;filter:url(#Adobe_OpacityMaskFilter_2_);}
	.st5{mask:url(#path-3-inside-3_141_33_1_);fill:#87BDEE;stroke:#FFFFFF;stroke-width:2;}
	.st6{fill:#FFFFFF;filter:url(#Adobe_OpacityMaskFilter_3_);}
	.st7{mask:url(#path-4-inside-4_141_33_1_);fill:#87BDEE;stroke:#FFFFFF;stroke-width:2;}
	.st8{fill:#FFFFFF;filter:url(#Adobe_OpacityMaskFilter_4_);}
	.st9{mask:url(#path-5-inside-5_141_33_1_);fill:#87BDEE;stroke:#FFFFFF;stroke-width:2;}
	.st10{fill:#FFFFFF;filter:url(#Adobe_OpacityMaskFilter_5_);}
	.st11{mask:url(#path-6-inside-6_141_33_1_);fill:#BDE0FF;stroke:#FFFFFF;stroke-width:2;}
	.st12{fill:#419AEA;stroke:#FFFFFF;}
	.st13{fill:#FFFFFF;filter:url(#Adobe_OpacityMaskFilter_6_);}
	.st14{mask:url(#path-8-inside-7_141_33_1_);fill:#007FF2;stroke:#FFFFFF;stroke-width:2;}
	.st15{fill:#FFFFFF;filter:url(#Adobe_OpacityMaskFilter_7_);}
	.st16{mask:url(#path-9-inside-8_141_33_1_);fill:none;stroke:#FFFFFF;stroke-width:2;}
	.st17{fill:none;stroke:#FFFFFF;}
</style>
<g>
	<defs>
		<filter id="Adobe_OpacityMaskFilter" filterUnits="userSpaceOnUse" x="58.8" y="6.9" width="68" height="62.2">
			<feColorMatrix  type="matrix" values="1 0 0 0 0  0 1 0 0 0  0 0 1 0 0  0 0 0 1 0"/>
		</filter>
	</defs>
	<mask maskUnits="userSpaceOnUse" x="58.8" y="6.9" width="68" height="62.2" id="path-1-inside-1_141_33_1_">
		<path class="st0" d="M125.6,52.4c-2.2-9.4-6.5-18.2-12.5-25.9c-6-7.6-13.5-13.8-22.2-18.2L60.7,67.7L125.6,52.4z"/>
	</mask>
	<path class="st1" d="M125.6,52.4c-2.2-9.4-6.5-18.2-12.5-25.9c-6-7.6-13.5-13.8-22.2-18.2L60.7,67.7L125.6,52.4z"/>
	<defs>
		<filter id="Adobe_OpacityMaskFilter_1_" filterUnits="userSpaceOnUse" x="60.4" y="50.1" width="67.9" height="25.9">
			<feColorMatrix  type="matrix" values="1 0 0 0 0  0 1 0 0 0  0 0 1 0 0  0 0 0 1 0"/>
		</filter>
	</defs>
	<mask maskUnits="userSpaceOnUse" x="60.4" y="50.1" width="67.9" height="25.9" id="path-2-inside-2_141_33_1_">
		<path class="st2" d="M127,74.9c0.9-7.9,0.3-15.9-1.6-23.6L60.7,67.7L127,74.9z"/>
	</mask>
	<path class="st3" d="M127,74.9c0.9-7.9,0.3-15.9-1.6-23.6L60.7,67.7L127,74.9z"/>
	<defs>
		<filter id="Adobe_OpacityMaskFilter_2_" filterUnits="userSpaceOnUse" x="39.6" y="0" width="53.4" height="70.3">
			<feColorMatrix  type="matrix" values="1 0 0 0 0  0 1 0 0 0  0 0 1 0 0  0 0 0 1 0"/>
		</filter>
	</defs>
	<mask maskUnits="userSpaceOnUse" x="39.6" y="0" width="53.4" height="70.3" id="path-3-inside-3_141_33_1_">
		<path class="st4" d="M91.7,8.6c-7.8-4.1-16.2-6.6-25-7.4C58,0.5,49.2,1.4,40.8,4l19.8,63.7L91.7,8.6z"/>
	</mask>
	<path class="st5" d="M91.7,8.6c-7.8-4.1-16.2-6.6-25-7.4C58,0.5,49.2,1.4,40.8,4l19.8,63.7L91.7,8.6z"/>
	<defs>
		<filter id="Adobe_OpacityMaskFilter_3_" filterUnits="userSpaceOnUse" x="0.2" y="65.8" width="61.9" height="68.4">
			<feColorMatrix  type="matrix" values="1 0 0 0 0  0 1 0 0 0  0 0 1 0 0  0 0 0 1 0"/>
		</filter>
	</defs>
	<mask maskUnits="userSpaceOnUse" x="0.2" y="65.8" width="61.9" height="68.4" id="path-4-inside-4_141_33_1_">
		<path class="st6" d="M1.5,98.5c4.6,8.9,11.2,16.6,19.2,22.6c8,6,17.2,10.1,27,12l12.9-65.4L1.5,98.5z"/>
	</mask>
	<path class="st7" d="M1.5,98.5c4.6,8.9,11.2,16.6,19.2,22.6c8,6,17.2,10.1,27,12l12.9-65.4L1.5,98.5z"/>
	<defs>
		<filter id="Adobe_OpacityMaskFilter_4_" filterUnits="userSpaceOnUse" x="46" y="64.1" width="39.4" height="71.3">
			<feColorMatrix  type="matrix" values="1 0 0 0 0  0 1 0 0 0  0 0 1 0 0  0 0 0 1 0"/>
		</filter>
	</defs>
	<mask maskUnits="userSpaceOnUse" x="46" y="64.1" width="39.4" height="71.3" id="path-5-inside-5_141_33_1_">
		<path class="st8" d="M47.1,133c12.3,2.6,25.2,1.6,37-2.9L60.7,67.7L47.1,133z"/>
	</mask>
	<path class="st9" d="M47.1,133c12.3,2.6,25.2,1.6,37-2.9L60.7,67.7L47.1,133z"/>
	<defs>
		<filter id="Adobe_OpacityMaskFilter_5_" filterUnits="userSpaceOnUse" x="13.3" y="20.3" width="94.7" height="94.7">
			<feColorMatrix  type="matrix" values="1 0 0 0 0  0 1 0 0 0  0 0 1 0 0  0 0 0 1 0"/>
		</filter>
	</defs>
	<mask maskUnits="userSpaceOnUse" x="13.3" y="20.3" width="94.7" height="94.7" id="path-6-inside-6_141_33_1_">
		<path class="st10" d="M52,113.2c12.1,2.3,24.6-0.3,34.7-7.2c10.2-6.9,17.2-17.6,19.5-29.7s-0.3-24.6-7.2-34.7S81.5,24.5,69.4,22.1
			c-12.1-2.3-24.6,0.3-34.7,7.2c-10.2,6.9-17.2,17.6-19.5,29.6c-2.3,12.1,0.3,24.6,7.2,34.8C29.2,103.9,39.8,110.9,52,113.2
			l8.7-45.6L52,113.2z"/>
	</mask>
	<path class="st11" d="M52,113.2c12.1,2.3,24.6-0.3,34.7-7.2c10.2-6.9,17.2-17.6,19.5-29.7s-0.3-24.6-7.2-34.7S81.5,24.5,69.4,22.1
		c-12.1-2.3-24.6,0.3-34.7,7.2c-10.2,6.9-17.2,17.6-19.5,29.6c-2.3,12.1,0.3,24.6,7.2,34.8C29.2,103.9,39.8,110.9,52,113.2l8.7-45.6
		L52,113.2z"/>
	<circle class="st12" cx="60.7" cy="67.7" r="23.9"/>
	<defs>
		<filter id="Adobe_OpacityMaskFilter_6_" filterUnits="userSpaceOnUse" x="0" y="2.9" width="62.4" height="66.7">
			<feColorMatrix  type="matrix" values="1 0 0 0 0  0 1 0 0 0  0 0 1 0 0  0 0 0 1 0"/>
		</filter>
	</defs>
	<mask maskUnits="userSpaceOnUse" x="0" y="2.9" width="62.4" height="66.7" id="path-8-inside-7_141_33_1_">
		<path class="st13" d="M40.3,4.2c-8.3,2.7-16.1,7-22.7,12.6C10.8,22.5,5.3,29.4,1.3,37.2l59.3,30.5L40.3,4.2z"/>
	</mask>
	<path class="st14" d="M40.3,4.2c-8.3,2.7-16.1,7-22.7,12.6C10.8,22.5,5.3,29.4,1.3,37.2l59.3,30.5L40.3,4.2z"/>
	<defs>
		<filter id="Adobe_OpacityMaskFilter_7_" filterUnits="userSpaceOnUse" x="13.3" y="20.3" width="94.7" height="94.7">
			<feColorMatrix  type="matrix" values="1 0 0 0 0  0 1 0 0 0  0 0 1 0 0  0 0 0 1 0"/>
		</filter>
	</defs>
	<mask maskUnits="userSpaceOnUse" x="13.3" y="20.3" width="94.7" height="94.7" id="path-9-inside-8_141_33_1_">
		<path class="st15" d="M52,113.2c12.1,2.3,24.6-0.3,34.7-7.2c10.2-6.9,17.2-17.6,19.5-29.7s-0.3-24.6-7.2-34.7S81.5,24.5,69.4,22.1
			c-12.1-2.3-24.6,0.3-34.7,7.2c-10.2,6.9-17.2,17.6-19.5,29.6c-2.3,12.1,0.3,24.6,7.2,34.8C29.2,103.9,39.8,110.9,52,113.2
			l8.7-45.6L52,113.2z"/>
	</mask>
	<path class="st16" d="M52,113.2c12.1,2.3,24.6-0.3,34.7-7.2c10.2-6.9,17.2-17.6,19.5-29.7s-0.3-24.6-7.2-34.7S81.5,24.5,69.4,22.1
		c-12.1-2.3-24.6,0.3-34.7,7.2c-10.2,6.9-17.2,17.6-19.5,29.6c-2.3,12.1,0.3,24.6,7.2,34.8C29.2,103.9,39.8,110.9,52,113.2l8.7-45.6
		L52,113.2z"/>
	<circle class="st17" cx="60.7" cy="67.7" r="23.9"/>
</g>
</svg>
