<svg width="38" height="38" viewBox="0 0 38 38" fill="none" xmlns="http://www.w3.org/2000/svg">
<path fill-rule="evenodd" clip-rule="evenodd" d="M5.56497 32.435C2.00178 28.8718 -4.97001e-07 24.0391 -8.30516e-07 19C-9.39581e-07 16.5049 0.491448 14.0342 1.44629 11.729C2.40113 9.42383 3.80066 7.32928 5.56497 5.56497C7.32928 3.80066 9.42383 2.40113 11.729 1.44629C14.0342 0.491449 16.5049 -2.44614e-07 19 -3.53679e-07C21.4951 -4.62744e-07 23.9658 0.491449 26.271 1.44629C28.5762 2.40113 30.6707 3.80066 32.435 5.56497C34.1993 7.32928 35.5989 9.42382 36.5537 11.729C37.5085 14.0342 38 16.5049 38 19C38 24.0391 35.9982 28.8718 32.435 32.435C28.8718 35.9982 24.0391 38 19 38C13.9609 38 9.12816 35.9982 5.56497 32.435ZM3.8 19C3.8 23.0313 5.40142 26.8975 8.25198 29.748C11.1025 32.5986 14.9687 34.2 19 34.2C23.0313 34.2 26.8975 32.5986 29.748 29.748C32.5986 26.8975 34.2 23.0313 34.2 19C34.2 17.0039 33.8068 15.0274 33.043 13.1832C32.2791 11.3391 31.1595 9.66343 29.748 8.25198C28.3366 6.84053 26.6609 5.7209 24.8168 4.95703C22.9726 4.19316 20.9961 3.8 19 3.8C17.0039 3.8 15.0274 4.19316 13.1832 4.95703C11.3391 5.7209 9.66343 6.84053 8.25197 8.25198C6.84052 9.66343 5.7209 11.3391 4.95703 13.1832C4.19316 15.0274 3.8 17.0039 3.8 19ZM26.6 20.9L11.4 20.9L11.4 17.1L26.6 17.1L26.6 20.9Z" fill="#000"/>
</svg>
