<svg width="16" height="16" viewBox="0 0 16 16" fill="none" xmlns="http://www.w3.org/2000/svg">
<path d="M1 1.00165V5.37613H1.50925M1.50925 5.37613C2.09012 3.93966 3.13122 2.73649 4.4694 1.95516C5.80758 1.17384 7.3672 0.858524 8.90385 1.05864C10.4405 1.25875 11.8673 1.96298 12.9607 3.06096C14.0541 4.15894 14.7522 5.58861 14.9457 7.12593M1.50925 5.37613H5.375M15 15V10.6255H14.4916M14.4916 10.6255C13.9099 12.0611 12.8685 13.2634 11.5305 14.044C10.1924 14.8246 8.63327 15.1396 7.09709 14.9395C5.5609 14.7395 4.13442 14.0358 3.04097 12.9385C1.94751 11.8413 1.24881 10.4124 1.05425 8.87572M14.4916 10.6255H10.625" stroke="black" stroke-width="1.3" stroke-linecap="round" stroke-linejoin="round"/>
</svg>
