<svg width="110" height="94" viewBox="0 0 110 94" fill="none" xmlns="http://www.w3.org/2000/svg">
<path d="M4 1V93H106V1H55H4ZM42.25 59.5455V42.8182H67.75V59.5455H42.25ZM67.75 67.9091V84.6364H42.25V67.9091H67.75ZM67.75 17.7273V34.4545H42.25V17.7273H67.75ZM35.875 17.7273V34.4545H10.375V17.7273H35.875ZM10.375 42.8182H35.875V59.5455H10.375V42.8182ZM74.125 42.8182H99.625V59.5455H74.125V42.8182ZM74.125 34.4545V17.7273H99.625V34.4545H74.125ZM10.375 67.9091H35.875V84.6364H10.375V67.9091ZM74.125 84.6364V67.9091H99.625V84.6364H74.125Z" fill="#5A4EC5"/>
</svg>
