<svg width="76" height="68" viewBox="0 0 76 68" fill="none" xmlns="http://www.w3.org/2000/svg">
<path d="M74.9428 60.8839C74.295 60.8839 73.6472 60.832 72.9994 60.8969C72.2739 60.9878 71.5484 60.9229 70.8229 60.9878C70.1556 61.0528 69.4884 61.1177 68.8212 61.1826C67.9208 61.2735 67.0268 61.4164 66.1264 61.5722C65.3102 61.702 64.494 61.8709 63.6778 61.9747C62.9393 62.0656 62.2073 62.2474 61.4688 62.3383C65.9645 62.3383 70.4536 62.3383 74.9493 62.3383C74.9493 62.4033 74.9493 62.4682 74.9493 62.5461C70.3435 62.5461 65.7377 62.5461 61.1255 62.5461C61.5207 62.663 61.9158 62.663 62.311 62.7279C63.1013 62.8578 63.898 62.9487 64.6883 63.1175C65.1871 63.2214 65.6859 63.2474 66.1782 63.3253C66.9232 63.4421 67.6681 63.585 68.4131 63.7019C68.7176 63.7538 69.0285 63.7798 69.3265 63.7928C70.052 63.8187 70.7775 63.8707 71.503 63.9356C72.6496 64.0395 73.7962 63.9616 74.9428 64.0135C74.9428 64.0785 74.9428 64.1434 74.9428 64.2083C74.0747 64.2083 73.2132 64.2343 72.3452 64.1953C71.3476 64.1564 70.3435 64.1044 69.3459 64.0005C68.4455 63.9096 67.5451 63.7668 66.6511 63.611C65.8025 63.4681 64.9539 63.3512 64.1053 63.2084C63.2567 63.0656 62.4081 62.8967 61.5531 62.8448C61.5207 62.8448 61.4883 62.8578 61.4559 62.8967C61.8834 63.0136 62.311 63.1175 62.7385 63.2344C63.5353 63.4681 64.3256 63.7278 65.1223 63.9486C66.0098 64.2083 66.8973 64.5459 67.7847 64.8057C68.7694 65.1043 69.7605 65.2602 70.7516 65.4549C71.0625 65.5199 71.38 65.5199 71.6909 65.5588C72.7727 65.7147 73.8545 65.6497 74.9363 65.6757C74.9363 65.7406 74.9363 65.8056 74.9298 65.8705C74.4116 65.8705 73.8934 65.8835 73.3751 65.8575C72.5265 65.8056 71.6844 65.7796 70.8358 65.6497C69.4236 65.442 68.0244 65.1173 66.6252 64.6239C65.3944 64.1953 64.1507 63.8187 62.9134 63.4421C62.4729 63.3123 62.0259 63.2214 61.579 63.1694C62.9328 63.6629 64.2608 64.3252 65.5952 64.9875C66.8131 65.5978 68.0309 66.1822 69.2682 66.5977C69.8771 66.8055 70.499 66.8834 71.1079 67.0262C72.0537 67.247 72.9994 67.273 73.9517 67.4028C74.2756 67.4418 74.5994 67.4158 74.9233 67.4158C74.9233 67.4807 74.9233 67.5457 74.9233 67.6106C73.9905 67.6236 73.0512 67.5197 72.1184 67.4028C69.6633 67.1041 67.2665 66.0913 64.8956 64.8316C63.7685 64.2343 62.6284 63.7278 61.4818 63.3642C60.7045 63.1175 59.9206 62.9617 59.1368 62.8318C58.3336 62.7019 57.5303 62.676 56.7206 62.624C56.4355 62.6111 56.144 62.5591 55.8525 62.5591C55.8525 62.4942 55.8525 62.4293 55.8525 62.3513C59.0526 62.3903 62.2008 61.6501 65.2908 59.9879C64.0924 60.7541 62.8681 61.2995 61.5984 61.702C61.8057 61.8709 61.9676 61.6891 62.1296 61.6761C62.3045 61.6501 62.4794 61.6111 62.6543 61.5592C63.4705 61.3125 64.2867 61.0657 65.1029 60.806C65.8608 60.5593 66.6252 60.2866 67.3831 60.0658C68.1216 59.8451 68.8665 59.6763 69.605 59.5334C70.6544 59.3256 71.7038 59.2217 72.7597 59.1308C73.4788 59.0659 74.1978 59.1179 74.9104 59.0659C74.9104 59.1308 74.9104 59.1958 74.9104 59.2607C74.3468 59.2607 73.7768 59.2218 73.2132 59.2737C72.1897 59.3776 71.1727 59.4165 70.1556 59.6243C69.2358 59.8061 68.3159 59.9749 67.4026 60.2476C66.3791 60.5463 65.362 60.9229 64.3385 61.2475C63.6001 61.4813 62.8616 61.6761 62.1231 61.8838C61.9417 61.9358 61.7603 61.9747 61.579 62.0397C62.0324 62.1565 62.4794 61.9618 62.9328 61.9488C63.2308 61.9488 63.5223 61.8189 63.8203 61.7929C64.7855 61.6761 65.7442 61.4943 66.7029 61.3125C67.1823 61.2216 67.6681 61.1566 68.1475 61.1047C69.6957 60.9619 71.2374 60.806 72.7856 60.78C73.4917 60.7671 74.2043 60.7671 74.9169 60.7151C74.9428 60.7541 74.9428 60.819 74.9428 60.8839ZM61.0672 62.0656C61.0672 62.0786 61.0672 62.0916 61.0672 62.1176C61.1773 62.1176 61.281 62.1176 61.3911 62.1176C61.3911 62.1046 61.3911 62.0916 61.3911 62.0656C61.2875 62.0656 61.1773 62.0656 61.0672 62.0656ZM60.8729 62.7799C60.9765 62.8318 61.0413 62.8578 61.1126 62.7799C61.0478 62.7149 60.9895 62.7279 60.8729 62.7799ZM61.2032 63.0526C61.2032 63.0656 61.2032 63.0785 61.2032 63.0915C61.268 63.0915 61.3328 63.0915 61.3976 63.0915C61.3976 63.0785 61.3976 63.0656 61.3976 63.0526C61.3393 63.0526 61.268 63.0526 61.2032 63.0526ZM61.4429 61.8449C61.4041 61.8059 61.3522 61.702 61.3069 61.8449C61.3522 61.8449 61.3976 61.8449 61.4429 61.8449Z" fill="#419AEA"/>
<path d="M65.5752 59.91C65.5817 59.7022 65.6724 59.7282 65.7371 59.6892C66.9355 59.0529 68.1404 58.5205 69.3647 58.1439C70.2522 57.8712 71.1461 57.6894 72.0401 57.5466C73.0053 57.4037 73.9705 57.3647 74.9357 57.3647C74.9357 57.4297 74.9357 57.4946 74.9422 57.5595C74.547 57.5595 74.1519 57.5595 73.7567 57.5725C72.811 57.6115 71.8652 57.7543 70.9194 57.9361C69.1769 58.2608 67.4797 58.975 65.789 59.8321C65.7177 59.884 65.6465 59.897 65.5752 59.91Z" fill="#419AEA"/>
<path d="M74.943 57.5722C74.943 57.5073 74.943 57.4423 74.9365 57.3774C74.9689 57.1307 75.0402 56.9878 75.1762 57.0008C75.2734 57.0138 75.3446 57.1177 75.3705 57.2995C75.3965 57.4813 75.3835 57.6631 75.2993 57.767C75.1438 57.9747 75.0272 57.8838 74.943 57.5722Z" fill="#007FF2"/>
<path d="M74.9424 60.8842C74.9424 60.8193 74.9424 60.7544 74.9424 60.6894C75.1173 60.2609 75.2339 60.209 75.3311 60.5206C75.4023 60.7414 75.4153 60.9751 75.2857 61.1569C75.1043 61.4037 75.0266 61.131 74.9424 60.8842Z" fill="#007FF2"/>
<path d="M74.9365 65.8579C74.9365 65.793 74.9365 65.728 74.943 65.6631C74.9948 65.4553 75.0661 65.3384 75.1892 65.3644C75.2799 65.3904 75.3446 65.4813 75.3641 65.6501C75.4029 65.8968 75.3705 66.1176 75.241 66.2085C75.092 66.3124 74.9819 66.1825 74.9365 65.8579Z" fill="#007FF2"/>
<path d="M74.9365 64.1949C74.9365 64.1299 74.9365 64.065 74.9365 64.0001C74.9948 63.7793 75.079 63.6624 75.2086 63.7144C75.2863 63.7404 75.3446 63.8442 75.3641 63.9871C75.3965 64.2338 75.3641 64.4546 75.241 64.5455C75.092 64.6494 74.9819 64.5325 74.9365 64.1949Z" fill="#007FF2"/>
<path d="M74.9424 59.2346C74.9424 59.1697 74.9424 59.1048 74.9424 59.0398C75.0007 58.7931 75.0655 58.5723 75.2274 58.6762C75.344 58.7411 75.3894 58.9229 75.3764 59.1567C75.3699 59.3385 75.3181 59.4554 75.2339 59.5073C75.0979 59.5852 75.0007 59.4813 74.9424 59.2346Z" fill="#007FF2"/>
<path d="M74.9365 62.5466C74.9365 62.4817 74.9365 62.4168 74.9365 62.3388C74.9819 62.196 75.0272 62.0661 75.1179 62.0532C75.228 62.0272 75.3122 62.1051 75.3576 62.3129C75.3965 62.5077 75.39 62.6895 75.2863 62.8193C75.1892 62.9362 75.1049 62.9622 75.0272 62.7674C75.0013 62.7025 74.9689 62.6245 74.9365 62.5466Z" fill="#007FF2"/>
<path d="M55.872 62.338C55.872 62.403 55.872 62.4679 55.872 62.5458C55.6323 63.3639 55.4703 62.5588 55.2695 62.4289C55.4703 62.39 55.6388 61.6368 55.872 62.338ZM55.7618 62.4419C55.7424 62.325 55.6971 62.2471 55.6258 62.2601C55.5675 62.2731 55.5416 62.338 55.5416 62.4419C55.5416 62.5848 55.5869 62.6367 55.6517 62.6367C55.7035 62.6367 55.7554 62.6237 55.7618 62.4419Z" fill="#007FF2"/>
<path d="M74.9424 67.5844C74.9424 67.5194 74.9424 67.4545 74.9424 67.3896C74.9942 67.1688 75.0525 66.9481 75.208 67.013C75.3116 67.0649 75.3699 67.1948 75.3829 67.4156C75.3894 67.6363 75.344 67.7921 75.2404 67.8571C75.0978 67.948 75.0007 67.8441 74.9424 67.5844ZM75.2663 67.5065C75.2598 67.3896 75.2274 67.3247 75.1756 67.3117C75.1108 67.2987 75.0655 67.3506 75.059 67.4805C75.0525 67.5974 75.0978 67.6623 75.1497 67.6753C75.208 67.6883 75.2533 67.6363 75.2663 67.5065Z" fill="#007FF2"/>
<path d="M65.5755 59.9102C65.569 59.9231 65.569 59.9361 65.5625 59.9491C65.569 59.9361 65.569 59.9231 65.5755 59.9102Z" fill="#D6D6D6"/>
<path d="M61.0674 62.0654C61.1775 62.0654 61.2812 62.0654 61.3913 62.0654C61.3913 62.0784 61.3913 62.0914 61.3913 62.1174C61.2812 62.1174 61.1775 62.1174 61.0674 62.1174C61.0674 62.1044 61.0674 62.0914 61.0674 62.0654Z" fill="#FEFEFE"/>
<path d="M60.8721 62.7798C60.9822 62.7279 61.047 62.7149 61.1117 62.7798C61.047 62.8577 60.9822 62.8317 60.8721 62.7798Z" fill="#FEFEFE"/>
<path d="M61.2031 63.0527C61.2679 63.0527 61.3327 63.0527 61.3975 63.0527C61.3975 63.0657 61.3975 63.0787 61.3975 63.0917C61.3327 63.0917 61.2679 63.0917 61.2031 63.0917C61.2031 63.0787 61.2031 63.0657 61.2031 63.0527Z" fill="#FEFEFE"/>
<path d="M61.4427 61.8445C61.3973 61.8445 61.352 61.8445 61.3066 61.8445C61.352 61.7017 61.4038 61.8056 61.4427 61.8445Z" fill="#FEFEFE"/>
<path d="M55.7619 62.4424C55.7619 62.6242 55.7036 62.6502 55.6453 62.6502C55.5805 62.6502 55.5352 62.5982 55.5352 62.4554C55.5352 62.3385 55.5675 62.2736 55.6194 62.2736C55.6971 62.2476 55.7424 62.3255 55.7619 62.4424Z" fill="#FEFEFE"/>
<path d="M75.2665 67.5066C75.2536 67.6364 75.2082 67.7014 75.1434 67.6754C75.0916 67.6624 75.0527 67.5975 75.0527 67.4806C75.0592 67.3508 75.111 67.2858 75.1693 67.3118C75.2276 67.3248 75.26 67.3897 75.2665 67.5066Z" fill="#FEFEFE"/>
<path d="M74.9426 22.783C74.0811 22.718 73.213 22.8089 72.3515 22.8998C70.745 23.0686 69.1514 23.4193 67.5708 24.0036C66.2752 24.4841 64.9926 25.0814 63.6971 25.5619C63.0687 25.7957 62.4339 25.9904 61.7343 26.2242C62.097 26.3541 62.3821 26.1852 62.6671 26.1463C63.2112 26.0684 63.7554 25.9125 64.293 25.7827C64.8501 25.6528 65.4072 25.497 65.9643 25.3541C66.4437 25.2373 66.923 25.1074 67.3959 25.0035C68.0243 24.8737 68.6591 24.7438 69.2874 24.6269C69.553 24.575 69.8186 24.562 70.0842 24.536C71.0235 24.4581 71.9693 24.3413 72.9086 24.2893C73.5887 24.2503 74.2624 24.2503 74.9426 24.2244C74.9426 24.2893 74.9426 24.3542 74.9426 24.4192C74.392 24.4192 73.8414 24.3932 73.2908 24.4322C72.4422 24.4711 71.6 24.536 70.7514 24.6269C69.9093 24.7178 69.0672 24.8477 68.2251 25.0165C67.3117 25.2113 66.4048 25.4061 65.4979 25.6658C64.7529 25.8736 63.995 26.0034 63.2436 26.1723C62.7124 26.3021 62.1748 26.445 61.6436 26.5229C62.0452 26.5229 62.4404 26.5229 62.842 26.5229C62.9391 26.5229 63.0363 26.4709 63.127 26.4709C63.846 26.5099 64.5651 26.38 65.2841 26.3411C66.2105 26.2891 67.1368 26.2502 68.0631 26.1463C68.7498 26.0684 69.4364 26.1593 70.1231 26.0554C70.8745 25.9385 71.6259 26.0164 72.3774 25.9775C73.2325 25.9385 74.0875 25.9125 74.9426 25.8866C74.9426 25.9515 74.9426 26.0164 74.9426 26.0814C73.4462 26.0814 71.9563 26.1723 70.4599 26.1982C69.8057 26.2112 69.1514 26.1982 68.5036 26.2761C67.5125 26.38 66.5214 26.419 65.5303 26.4839C64.6882 26.5359 63.8396 26.6008 62.9974 26.6917C62.4598 26.7436 61.9221 26.7047 61.378 26.7826C61.4104 27.0163 61.4881 26.9514 61.5464 26.9514C62.408 26.8865 63.276 27.0293 64.1376 27.0813C65.0898 27.1332 66.0356 27.1981 66.9878 27.276C68.0502 27.354 69.1125 27.3929 70.1814 27.4708C71.6778 27.5747 73.1677 27.5228 74.6641 27.5617C74.7612 27.5617 74.8519 27.6137 74.9491 27.6397C74.9491 27.6786 74.9491 27.7176 74.9491 27.7565C73.8673 27.7565 72.779 27.7695 71.6972 27.7435C70.7838 27.7176 69.8704 27.6786 68.9635 27.6397C67.9789 27.5877 66.9943 27.5098 66.0161 27.4449C65.1287 27.3799 64.2412 27.328 63.3602 27.2371C62.8744 27.1851 62.395 27.1981 61.9092 27.2241C62.2849 27.302 62.6541 27.3669 63.0298 27.4578C63.6452 27.6007 64.2606 27.7565 64.8695 27.8994C65.4655 28.0422 66.0679 28.1851 66.6639 28.3279C67.1886 28.4578 67.7133 28.5746 68.2445 28.6915C68.6461 28.7824 69.0413 28.8603 69.4429 28.9123C70.7644 29.0811 72.0794 29.198 73.4074 29.2369C73.9256 29.2499 74.4373 29.2629 74.9556 29.3018C74.9556 29.3668 74.9556 29.4317 74.9556 29.4966C73.9774 29.5226 72.9993 29.4057 72.0276 29.3798C71.1531 29.3668 70.2721 29.2629 69.3976 29.0941C68.1538 28.8473 66.9036 28.6136 65.6598 28.263C64.7594 28.0033 63.859 27.8604 62.9521 27.6526C62.5375 27.5617 62.1229 27.4579 61.7084 27.3669C61.5982 27.341 61.4816 27.3669 61.3715 27.3929C62.0193 27.5617 62.6606 27.7825 63.2954 28.0292C64.6363 28.5616 65.9773 29.1071 67.3182 29.6265C68.1279 29.9381 68.9441 30.1979 69.7733 30.3797C71.0818 30.6653 72.3839 30.8472 73.6989 30.8861C74.1134 30.8991 74.5345 30.9251 74.9556 30.951C74.9556 31.016 74.9556 31.0809 74.9556 31.1458C74.1912 31.1718 73.4203 31.0679 72.6559 31.029C71.5093 30.964 70.3563 30.7692 69.2227 30.4446C68.0243 30.107 66.8259 29.6914 65.6404 29.146C64.442 28.6006 63.2307 28.1591 62.0193 27.7565C61.9675 27.7435 61.9092 27.7565 61.8509 27.8085C62.4922 28.1331 63.14 28.4188 63.7748 28.7694C65.1675 29.5226 66.5408 30.4186 67.94 31.0939C68.9182 31.5614 69.9028 31.925 70.9069 32.1457C71.7685 32.3405 72.6365 32.4574 73.5045 32.5483C73.9904 32.6002 74.4697 32.5873 74.9556 32.6132C74.9556 32.6782 74.9556 32.7431 74.9556 32.808C74.2624 32.8729 73.5693 32.7691 72.8762 32.6911C70.6672 32.4444 68.5036 31.7302 66.3789 30.4446C65.1611 29.7044 63.9432 28.9772 62.6995 28.4058C61.9092 28.0422 61.1189 27.7435 60.3091 27.5358C59.3375 27.276 58.3593 27.1332 57.3811 27.0423C56.8824 26.9904 56.3836 27.0163 55.8848 26.9774C55.8848 26.9124 55.8848 26.8475 55.8848 26.7696C56.6103 26.8475 57.3358 26.7047 58.0613 26.6527C58.6638 26.6008 59.2597 26.432 59.8622 26.3151C60.9375 26.0943 61.9934 25.7048 63.0363 25.1594C64.4226 24.4192 65.7959 23.627 67.1757 22.8609C68.3093 22.2246 69.4559 21.7701 70.6219 21.4584C71.2243 21.2896 71.8332 21.2117 72.4486 21.1208C73.2843 21.0039 74.1199 20.939 74.962 20.939C74.962 21.0039 74.962 21.0688 74.962 21.1338C74.1977 21.0948 73.4268 21.1467 72.6624 21.2506C71.7102 21.3805 70.7579 21.5753 69.8122 21.8869C68.0761 22.4453 66.3983 23.4972 64.7141 24.4581C63.7554 25.0035 62.7902 25.523 61.812 25.9125C61.7731 25.9255 61.7407 25.9775 61.7084 26.0034C61.6436 26.0164 61.5723 25.9645 61.4816 26.0943C61.5853 26.0814 61.6501 26.1463 61.7084 26.0034C62.4015 25.9125 63.0752 25.6268 63.7554 25.3671C65.4396 24.7049 67.1174 23.9257 68.821 23.4063C69.6308 23.1595 70.447 22.9907 71.2632 22.8739C71.9693 22.77 72.6818 22.744 73.3879 22.6661C73.9126 22.6141 74.4373 22.6271 74.962 22.5882C74.9426 22.6531 74.9426 22.718 74.9426 22.783ZM61.2938 26.3281C61.4363 26.38 61.514 26.393 61.6177 26.3151C61.514 26.2632 61.4363 26.2761 61.2938 26.3281ZM61.4104 27.1202C61.3326 27.0423 61.2679 27.0553 61.1901 27.1072C61.2679 27.1851 61.3391 27.1722 61.4104 27.1202ZM61.5205 27.7046C61.6047 27.7435 61.6501 27.7825 61.7019 27.6916C61.6436 27.6267 61.5918 27.6267 61.5205 27.7046ZM61.2614 27.5488C61.2549 27.5747 61.2549 27.5877 61.2484 27.6137C61.2679 27.6267 61.2938 27.6526 61.3132 27.6397C61.3391 27.6267 61.3909 27.6916 61.3845 27.5747C61.3845 27.5617 61.3067 27.5617 61.2614 27.5488Z" fill="#419AEA"/>
<path d="M55.872 26.7693C55.872 26.8342 55.872 26.8991 55.872 26.977C55.6388 27.7302 55.4703 26.977 55.2695 26.8732C55.4703 26.7693 55.6323 25.9122 55.872 26.7693ZM55.6452 26.6784C55.5805 26.6784 55.5351 26.7173 55.5351 26.8602C55.5351 27.003 55.5675 27.0679 55.6323 27.055C55.6906 27.055 55.7424 27.016 55.7489 26.8732C55.7554 26.7433 55.7035 26.6914 55.6452 26.6784Z" fill="#007FF2"/>
<path d="M74.9424 22.7831C74.9424 22.7182 74.9424 22.6532 74.9424 22.5883C74.9942 22.3935 75.0331 22.1468 75.1821 22.2247C75.2792 22.2767 75.3634 22.3546 75.3764 22.5883C75.3958 22.835 75.3375 22.9909 75.2404 23.0948C75.0719 23.2636 75.0201 22.9649 74.9424 22.7831ZM75.1562 22.4974C75.0914 22.5104 75.046 22.5753 75.0525 22.7182C75.059 22.8221 75.1043 22.874 75.1562 22.874C75.208 22.874 75.2533 22.8221 75.2598 22.7182C75.2728 22.5753 75.2209 22.5104 75.1562 22.4974Z" fill="#007FF2"/>
<path d="M74.9424 31.1459C74.9424 31.081 74.9424 31.016 74.9424 30.9511C74.9942 30.7303 75.0525 30.5096 75.208 30.5745C75.3051 30.6135 75.357 30.7433 75.3764 30.9381C75.3958 31.1849 75.3311 31.3537 75.2404 31.4576C75.0719 31.6394 75.0201 31.3277 74.9424 31.1459ZM75.2663 31.029C75.2468 30.8992 75.2015 30.8472 75.1367 30.8602C75.0849 30.8732 75.046 30.9511 75.0525 31.055C75.0655 31.1849 75.1108 31.2368 75.1756 31.2238C75.2339 31.2108 75.2663 31.1459 75.2663 31.029Z" fill="#007FF2"/>
<path d="M74.9424 21.1207C74.9424 21.0557 74.9424 20.9908 74.9424 20.9259C74.9748 20.6532 75.059 20.5103 75.2015 20.5493C75.3116 20.5753 75.3699 20.7181 75.3764 20.9389C75.3894 21.1337 75.344 21.2895 75.2598 21.3674C75.1302 21.4843 75.0266 21.3934 74.9553 21.1596C74.9489 21.1466 74.9424 21.1337 74.9424 21.1207ZM75.1562 20.835C75.1043 20.848 75.059 20.8999 75.0525 21.0038C75.046 21.1466 75.0914 21.2116 75.1562 21.2116C75.208 21.2116 75.2533 21.1596 75.2598 21.0557C75.2728 20.9129 75.2209 20.861 75.1562 20.835Z" fill="#007FF2"/>
<path d="M74.9424 29.4843C74.9424 29.4194 74.9424 29.3544 74.9424 29.2895C74.9877 28.9648 75.0914 28.835 75.2468 28.9389C75.3699 29.0298 75.4088 29.2505 75.3699 29.4973C75.3311 29.744 75.2209 29.8219 75.0978 29.77C75.0201 29.731 74.9748 29.6141 74.9424 29.4843ZM75.1626 29.1986C75.1043 29.2116 75.0525 29.2505 75.0525 29.3934C75.0525 29.5103 75.0978 29.5622 75.1497 29.5622C75.2144 29.5622 75.2598 29.5103 75.2598 29.3674C75.2598 29.2635 75.2145 29.2246 75.1626 29.1986Z" fill="#007FF2"/>
<path d="M74.9424 32.7948C74.9424 32.7299 74.9424 32.665 74.9424 32.6C75.0331 32.3663 75.1173 32.0287 75.2987 32.3793C75.4023 32.5741 75.4282 32.8078 75.3246 33.0156C75.2274 33.2104 75.1108 33.2363 75.0136 32.9896C74.9877 32.9247 74.9618 32.8598 74.9424 32.7948ZM75.2663 32.7039C75.2598 32.613 75.2339 32.5351 75.1821 32.5221C75.1173 32.4961 75.0655 32.5481 75.0525 32.678C75.0395 32.7948 75.0784 32.8598 75.1302 32.8857C75.2015 32.9117 75.2404 32.8468 75.2663 32.7039Z" fill="#007FF2"/>
<path d="M74.9365 26.0943C74.9365 26.0293 74.9365 25.9644 74.9365 25.8995C74.9948 25.6787 75.079 25.5619 75.2086 25.6138C75.2863 25.6398 75.3446 25.7437 75.3641 25.8865C75.3965 26.1332 75.3641 26.354 75.241 26.4449C75.092 26.5488 74.9819 26.4189 74.9365 26.0943ZM75.0466 26.0034C75.0466 26.1592 75.0985 26.1852 75.1568 26.1852C75.2151 26.1852 75.2734 26.1592 75.2669 26.0034C75.2604 25.8735 75.2216 25.7956 75.1568 25.7956C75.0985 25.8086 75.0596 25.8865 75.0466 26.0034Z" fill="#007FF2"/>
<path d="M74.9365 27.7434C74.9365 27.7045 74.9365 27.6655 74.9365 27.6266C74.9689 27.3539 75.0596 27.211 75.2021 27.25C75.2993 27.276 75.3576 27.4058 75.3705 27.6136C75.3835 27.8473 75.3382 28.0421 75.2216 28.107C75.079 28.185 74.9754 28.0551 74.9365 27.7434ZM75.1568 27.4577C75.092 27.4707 75.0531 27.5357 75.0466 27.6655C75.0402 27.8214 75.0855 27.9123 75.1568 27.9123C75.2151 27.9123 75.2604 27.8343 75.2669 27.7045C75.2799 27.5616 75.2345 27.4837 75.1568 27.4577Z" fill="#007FF2"/>
<path d="M74.9424 24.4317C74.9424 24.3668 74.9424 24.3018 74.9424 24.2369C74.9877 24.0811 75.0395 23.9512 75.1432 23.9382C75.2533 23.9252 75.3311 24.0161 75.3699 24.2239C75.4023 24.4187 75.3894 24.6005 75.2857 24.7174C75.1885 24.8342 75.1043 24.8342 75.0331 24.6524C74.9942 24.5875 74.9683 24.5096 74.9424 24.4317ZM75.2728 24.3538C75.2598 24.2239 75.2209 24.146 75.1626 24.146C75.0978 24.146 75.059 24.2239 75.0525 24.3538C75.046 24.5096 75.1043 24.5356 75.1626 24.5356C75.2145 24.5356 75.2728 24.5096 75.2728 24.3538Z" fill="#007FF2"/>
<path d="M61.2939 26.3286C61.4365 26.2637 61.5142 26.2507 61.6178 26.3156C61.5142 26.3936 61.4365 26.3936 61.2939 26.3286Z" fill="#FEFEFE"/>
<path d="M61.4107 27.1197C61.3329 27.1717 61.2682 27.1977 61.1904 27.1068C61.2682 27.0418 61.3394 27.0418 61.4107 27.1197Z" fill="#FEFEFE"/>
<path d="M61.5205 27.7052C61.5982 27.6273 61.6436 27.6273 61.7019 27.6922C61.6501 27.7831 61.5982 27.7312 61.5205 27.7052Z" fill="#FEFEFE"/>
<path d="M61.6955 25.9907C61.6372 26.1336 61.5724 26.0686 61.4688 26.0816C61.5594 25.9518 61.6242 26.0037 61.6955 25.9907C61.6955 25.9907 61.689 25.9907 61.6955 25.9907Z" fill="#FEFEFE"/>
<path d="M61.261 27.5488C61.3063 27.5618 61.3841 27.5618 61.3841 27.5748C61.3906 27.6917 61.3387 27.6267 61.3128 27.6397C61.2934 27.6527 61.274 27.6267 61.248 27.6138C61.2545 27.5878 61.2545 27.5748 61.261 27.5488Z" fill="#FEFEFE"/>
<path d="M55.645 26.6791C55.7033 26.692 55.7551 26.744 55.7487 26.8868C55.7422 27.0167 55.6903 27.0686 55.632 27.0686C55.5673 27.0686 55.5284 27.0037 55.5349 26.8738C55.5349 26.705 55.5802 26.6661 55.645 26.6791Z" fill="#FEFEFE"/>
<path d="M75.156 22.4976C75.2207 22.5105 75.2661 22.5755 75.2596 22.7183C75.2531 22.8222 75.2078 22.8741 75.156 22.8741C75.1041 22.8741 75.0588 22.8222 75.0523 22.7183C75.0458 22.5755 75.0977 22.5105 75.156 22.4976Z" fill="#FEFEFE"/>
<path d="M75.2666 31.0289C75.2666 31.1458 75.2342 31.2108 75.1824 31.2237C75.1176 31.2497 75.0658 31.1978 75.0593 31.0549C75.0528 30.9381 75.0917 30.8731 75.1435 30.8601C75.2018 30.8342 75.2472 30.8991 75.2666 31.0289Z" fill="#FEFEFE"/>
<path d="M75.156 20.8354C75.2143 20.8614 75.2661 20.9134 75.2597 21.0432C75.2532 21.1471 75.2078 21.212 75.156 21.1991C75.0912 21.1991 75.0459 21.1341 75.0524 20.9913C75.0589 20.9004 75.1042 20.8484 75.156 20.8354Z" fill="#FEFEFE"/>
<path d="M75.1629 29.1978C75.2147 29.2107 75.26 29.2627 75.26 29.3796C75.26 29.5224 75.2082 29.5743 75.1499 29.5743C75.0981 29.5743 75.0527 29.5094 75.0527 29.4055C75.0527 29.2627 75.1046 29.2107 75.1629 29.1978Z" fill="#FEFEFE"/>
<path d="M75.2661 32.7047C75.2402 32.8475 75.1948 32.8995 75.1301 32.8735C75.0782 32.8475 75.0394 32.7826 75.0523 32.6657C75.0653 32.5359 75.1171 32.4839 75.1819 32.5099C75.2337 32.5359 75.2596 32.6268 75.2661 32.7047Z" fill="#FEFEFE"/>
<path d="M75.0459 26.0037C75.0589 25.8738 75.0977 25.7959 75.156 25.7959C75.2208 25.7959 75.2597 25.8738 75.2661 26.0037C75.2726 26.1595 75.2143 26.1855 75.156 26.1855C75.1042 26.1855 75.0459 26.1595 75.0459 26.0037Z" fill="#FEFEFE"/>
<path d="M75.1566 27.4575C75.2279 27.4835 75.2732 27.5614 75.2668 27.7172C75.2603 27.8471 75.2149 27.925 75.1566 27.925C75.0854 27.925 75.04 27.8341 75.0465 27.6783C75.053 27.5354 75.0983 27.4705 75.1566 27.4575Z" fill="#FEFEFE"/>
<path d="M75.2735 24.3538C75.2735 24.5096 75.2217 24.5356 75.1634 24.5356C75.1051 24.5356 75.0468 24.5096 75.0532 24.3538C75.0597 24.2239 75.0986 24.146 75.1634 24.146C75.2217 24.146 75.2605 24.2239 75.2735 24.3538Z" fill="#FEFEFE"/>
<path d="M74.9438 52.2499C74.2507 52.3148 73.5576 52.2239 72.8645 52.133C70.662 51.8603 68.4919 51.1461 66.3672 49.8865C64.8449 48.9775 63.3291 48.0555 61.7744 47.4192C61.7225 47.3932 61.6642 47.3932 61.5995 47.4581C61.7679 47.549 61.9298 47.6529 62.0983 47.7308C63.2578 48.2892 64.3785 49.1463 65.4862 50.0163C67.0927 51.2759 68.7251 52.3927 70.4288 52.9901C71.1802 53.2498 71.9381 53.4056 72.7025 53.5225C73.4475 53.6394 74.1989 53.7173 74.9503 53.7043C74.9503 53.7692 74.9503 53.8342 74.9503 53.8991C74.1341 53.938 73.3244 53.8342 72.5147 53.6913C70.8693 53.3926 69.2563 52.8083 67.6757 51.7824C66.3931 50.9383 65.1558 49.8994 63.8862 49.0034C62.7849 48.2243 61.6642 47.588 60.5112 47.1984C59.4683 46.8348 58.4188 46.5621 57.35 46.4842C56.8577 46.4452 56.3654 46.4452 55.873 46.4192C55.873 46.3543 55.873 46.2764 55.873 46.2115C56.9225 46.0427 57.9784 46.1206 59.0278 45.8479C60.5565 45.4583 62.0594 44.835 63.5104 43.8351C64.6246 43.0819 65.7129 42.1729 66.8141 41.3678C67.9413 40.5626 69.0943 39.8874 70.2798 39.4718C71.1219 39.1861 71.964 38.9654 72.8126 38.8355C73.5187 38.7186 74.2313 38.6667 74.9374 38.7057C74.9374 38.7706 74.9374 38.8355 74.9438 38.9004C74.2248 38.8615 73.5058 38.9134 72.7932 39.0303C71.3227 39.2641 69.8717 39.6926 68.453 40.5107C67.3194 41.173 66.2182 41.9911 65.1169 42.8352C64.0546 43.6533 62.9922 44.4454 61.878 44.9648C61.8327 44.9908 61.7873 45.0298 61.7485 45.0947C61.9622 45.1466 62.1566 44.9778 62.3574 44.8999C63.5882 44.3675 64.7866 43.6273 65.9915 42.9261C67.2805 42.1729 68.5826 41.4716 69.9106 41.0691C70.7397 40.8224 71.5689 40.6406 72.4045 40.5367C73.2531 40.4328 74.0953 40.3419 74.9438 40.3549C74.9438 40.4198 74.9438 40.4847 74.9438 40.5497C74.1795 40.5107 73.4086 40.5626 72.6442 40.6665C71.692 40.7964 70.7397 41.0042 69.794 41.3028C68.0514 41.8482 66.3801 42.9001 64.6959 43.861C63.7177 44.4064 62.7461 44.9648 61.7485 45.3804C62.0335 45.4583 62.3056 45.3025 62.5711 45.1986C64.1647 44.6402 65.7388 43.913 67.3259 43.3156C68.2781 42.952 69.2433 42.6663 70.2085 42.4975C71.1932 42.3157 72.1778 42.1859 73.1689 42.095C73.7584 42.043 74.3479 42.069 74.9374 42.017C74.9374 42.082 74.9374 42.1469 74.9374 42.2118C74.5357 42.2118 74.1276 42.1859 73.726 42.2248C72.7219 42.3287 71.7179 42.4196 70.7138 42.5754C68.4789 42.9261 66.3024 43.926 64.1129 44.809C63.3291 45.1207 62.5323 45.3804 61.6902 45.6791C62.0594 45.7829 62.3703 45.6401 62.6748 45.5752C63.3226 45.4583 63.9639 45.2765 64.6117 45.1207C65.1882 44.9778 65.7583 44.835 66.3348 44.6921C66.8465 44.5753 67.3583 44.4454 67.8636 44.3415C68.5113 44.2117 69.1591 44.0818 69.8069 43.9649C70.0984 43.913 70.3899 43.887 70.6749 43.874C71.3746 43.8351 72.0806 43.7701 72.7802 43.7312C73.4993 43.6922 74.2183 43.6662 74.9309 43.6533C74.9309 43.7182 74.9309 43.7831 74.9309 43.848C74.3868 43.848 73.8491 43.8221 73.3049 43.861C72.4045 43.913 71.4976 43.9519 70.5972 44.0558C69.632 44.1727 68.6733 44.3415 67.7146 44.5363C66.8465 44.7181 65.9785 44.9778 65.1105 45.1856C64.3461 45.3674 63.5752 45.5232 62.8108 45.692C62.4222 45.7829 62.0335 45.8868 61.6383 45.9388C62.04 45.9388 62.4351 45.9388 62.8367 45.9388C62.9145 45.9388 62.9987 45.8868 63.0764 45.8868C63.8214 45.8479 64.5598 45.8479 65.3048 45.77C66.257 45.6791 67.2093 45.6531 68.1551 45.5622C68.8288 45.4973 69.496 45.5752 70.1632 45.4843C71.2968 45.3284 72.424 45.4713 73.5576 45.3804C74.0175 45.3414 74.4774 45.3154 74.9374 45.3154C74.9374 45.3804 74.9374 45.4453 74.9374 45.5102C73.4086 45.4843 71.8863 45.6141 70.3575 45.6401C69.7227 45.6531 69.0814 45.6401 68.4466 45.718C67.4554 45.8219 66.4643 45.8609 65.4732 45.9258C64.6376 45.9777 63.7955 46.0297 62.9598 46.1336C62.2473 46.2115 61.5282 46.1465 60.8156 46.2634C61.1201 46.3283 61.4246 46.3803 61.729 46.3803C62.5388 46.3803 63.342 46.4712 64.1517 46.5231C65.1105 46.5751 66.0692 46.64 67.0279 46.7179C68.1421 46.8088 69.2563 46.8218 70.364 46.9127C71.8928 47.0296 73.4151 46.9387 74.9438 47.0036C74.9438 47.0685 74.9438 47.1335 74.9374 47.1984C73.8426 47.1984 72.7543 47.2374 71.6661 47.1724C70.7462 47.1205 69.8263 47.1335 68.9065 47.0685C67.9413 47.0036 66.9761 46.9387 66.0044 46.8737C65.1169 46.8088 64.2295 46.7569 63.3485 46.666C62.8627 46.614 62.3833 46.64 61.8975 46.653C62.2602 46.7309 62.623 46.8088 62.9922 46.8867C63.64 47.0296 64.2878 47.1594 64.9291 47.3412C65.525 47.5101 66.1275 47.6269 66.7235 47.7698C67.3907 47.9256 68.0644 48.0814 68.7316 48.2373C68.9648 48.2892 69.198 48.3152 69.4312 48.3282C70.1956 48.3801 70.96 48.497 71.7244 48.5749C72.7997 48.6788 73.875 48.6009 74.9438 48.6658C74.9438 48.7307 74.9438 48.7957 74.9374 48.8476C74.3285 48.8476 73.726 48.8606 73.1171 48.8346C72.4628 48.8216 71.8086 48.7957 71.1608 48.7307C70.3964 48.6528 69.632 48.6009 68.8741 48.432C67.8053 48.1983 66.7299 48.0165 65.6676 47.6919C64.9291 47.4711 64.1841 47.3412 63.4392 47.1724C62.8821 47.0426 62.325 46.9127 61.7614 46.7958C61.6772 46.7828 61.5865 46.7958 61.4958 46.8348C62.2019 47.0815 62.908 47.2893 63.6141 47.562C64.8578 48.0425 66.1016 48.5619 67.3518 49.0554C68.181 49.38 69.0101 49.6267 69.8523 49.8085C71.1284 50.0942 72.3981 50.2631 73.6807 50.302C74.0953 50.315 74.5163 50.341 74.9374 50.3669C74.9374 50.4319 74.9374 50.4968 74.9374 50.5617C74.16 50.5877 73.3892 50.4968 72.6118 50.4448C71.4458 50.3539 70.2863 50.1332 69.1332 49.8085C67.585 49.38 66.0692 48.7048 64.5404 48.0814C63.7048 47.7438 62.8627 47.4711 62.027 47.1724C61.9622 47.1465 61.8975 47.1724 61.8327 47.2374C62.2343 47.4192 62.6424 47.575 63.0376 47.7957C64.4951 48.6009 65.9526 49.419 67.4166 50.2241C68.4984 50.8214 69.5931 51.25 70.7009 51.5227C71.3033 51.6655 71.9187 51.7694 72.5276 51.8473C73.3309 51.9512 74.1341 52.0421 74.9438 52.0291C74.9438 52.12 74.9438 52.185 74.9438 52.2499ZM61.3144 46.5361C61.3144 46.5491 61.3144 46.5621 61.3209 46.5751C61.4246 46.5751 61.5347 46.5751 61.6383 46.5751C61.6383 46.5621 61.6383 46.5491 61.6383 46.5361C61.5282 46.5361 61.4181 46.5361 61.3144 46.5361ZM61.4893 45.8089C61.4181 45.718 61.3404 45.705 61.2173 45.8089C61.3339 45.8089 61.4116 45.8089 61.4893 45.8089ZM61.2497 46.7049C61.146 46.7309 61.0812 46.666 60.9776 46.8088C61.0812 46.7828 61.146 46.8608 61.2497 46.7049ZM61.3922 47.0945C61.3987 47.0685 61.3987 47.0556 61.4051 47.0296C61.3857 47.0166 61.3598 46.9906 61.3404 47.0036C61.3144 47.0166 61.2626 46.9387 61.2691 47.0685C61.2691 47.0815 61.3533 47.0815 61.3922 47.0945ZM61.5412 47.1465C61.593 47.2244 61.6448 47.2244 61.7096 47.1465C61.6383 47.0815 61.593 47.0815 61.5412 47.1465ZM61.4829 47.3412C61.4375 47.3153 61.4116 47.3023 61.3922 47.3023C61.3792 47.3023 61.3663 47.3153 61.3533 47.3283C61.3663 47.3412 61.3857 47.3802 61.3987 47.3802C61.4181 47.3802 61.4375 47.3672 61.4829 47.3412ZM61.4116 45.2765C61.3857 45.2635 61.3598 45.2505 61.3404 45.2505C61.3274 45.2505 61.3144 45.2765 61.3015 45.2895C61.3274 45.3025 61.3533 45.3284 61.3857 45.3284C61.3857 45.3414 61.3987 45.3025 61.4116 45.2765ZM61.6059 45.4713C61.58 45.4583 61.5541 45.4453 61.5347 45.4453C61.5217 45.4453 61.5088 45.4713 61.4958 45.4843C61.5217 45.4973 61.5476 45.5232 61.58 45.5232C61.58 45.5362 61.593 45.4973 61.6059 45.4713ZM61.6124 45.2116C61.5995 45.1986 61.5865 45.1726 61.5736 45.1726C61.5606 45.1726 61.5476 45.1986 61.5347 45.2116C61.5476 45.2245 61.5606 45.2505 61.5736 45.2505C61.5865 45.2375 61.5995 45.2245 61.6124 45.2116Z" fill="#419AEA"/>
<path d="M74.9434 40.5756C74.9434 40.5107 74.9434 40.4457 74.9434 40.3808C74.9822 40.0562 75.0923 39.9263 75.2478 40.0302C75.3709 40.1211 75.4098 40.3418 75.3709 40.5886C75.332 40.8353 75.2219 40.9132 75.0988 40.8613C75.0211 40.8223 74.9757 40.7054 74.9434 40.5756ZM75.1636 40.6665C75.2154 40.6535 75.2608 40.6016 75.2608 40.4847C75.2608 40.3418 75.2089 40.2899 75.1506 40.2899C75.0988 40.2899 75.0535 40.3548 75.0535 40.4587C75.0535 40.6145 75.1053 40.6535 75.1636 40.6665Z" fill="#007FF2"/>
<path d="M74.9434 52.2504C74.9434 52.1855 74.9434 52.1206 74.9434 52.0557C75.1183 51.6271 75.2349 51.5752 75.332 51.8868C75.4033 52.1076 75.4162 52.3413 75.2867 52.5231C75.1053 52.7699 75.0276 52.4972 74.9434 52.2504ZM75.2737 52.1595C75.2608 52.0297 75.2219 51.9648 75.1571 51.9648C75.0923 51.9777 75.0535 52.0427 75.0535 52.1725C75.0535 52.3284 75.1118 52.3413 75.1701 52.3413C75.2284 52.3543 75.2737 52.3154 75.2737 52.1595Z" fill="#007FF2"/>
<path d="M74.9434 43.8872C74.9434 43.8222 74.9434 43.7573 74.9434 43.6924C75.1183 43.2638 75.2349 43.2119 75.332 43.5236C75.4033 43.7443 75.4162 43.9781 75.2867 44.1599C75.1053 44.4066 75.0276 44.1339 74.9434 43.8872ZM75.1701 43.9911C75.2219 43.9781 75.2802 43.9521 75.2737 43.8093C75.2673 43.6794 75.2219 43.6145 75.1571 43.6145C75.0923 43.6145 75.0535 43.6924 75.0535 43.8222C75.047 43.9781 75.1053 43.9781 75.1701 43.9911Z" fill="#007FF2"/>
<path d="M74.9375 45.5494C74.9375 45.4844 74.9375 45.4195 74.9375 45.3546C74.9958 45.1338 75.08 45.0169 75.2096 45.0689C75.2873 45.0948 75.3391 45.1987 75.365 45.3416C75.3974 45.5883 75.3715 45.8091 75.242 45.9C75.093 46.0039 74.9828 45.874 74.9375 45.5494ZM75.2743 45.4844C75.2679 45.3676 75.2355 45.2766 75.1772 45.2637C75.1124 45.2507 75.0671 45.3156 75.0541 45.4325C75.0347 45.5753 75.0865 45.6273 75.1513 45.6403C75.2031 45.6403 75.2614 45.6403 75.2743 45.4844Z" fill="#007FF2"/>
<path d="M74.9434 42.2377C74.9434 42.1728 74.9434 42.1078 74.9434 42.0429C75.0017 41.8741 75.06 41.6663 75.1766 41.6793C75.2543 41.6923 75.332 41.7702 75.3644 41.926C75.3968 42.0819 75.3903 42.2377 75.332 42.3805C75.2673 42.5364 75.183 42.5623 75.0923 42.5234C75.0211 42.4844 74.9757 42.3675 74.9434 42.2377ZM75.1701 41.952C75.1053 41.952 75.06 42.0039 75.0535 42.1468C75.0535 42.2637 75.0923 42.3156 75.1442 42.3286C75.2089 42.3416 75.2543 42.2766 75.2608 42.1468C75.2672 42.0169 75.2219 41.965 75.1701 41.952Z" fill="#007FF2"/>
<path d="M74.9375 53.9119C74.9375 53.847 74.9375 53.7821 74.9375 53.7171C74.9569 53.6652 74.9699 53.6003 74.9958 53.5613C75.1124 53.3535 75.2355 53.3405 75.3262 53.5873C75.4104 53.808 75.4039 54.0548 75.2679 54.1976C75.1124 54.3664 74.9958 54.2495 74.9375 53.9119ZM75.1642 53.6262C75.0994 53.6262 75.0606 53.6912 75.0476 53.821C75.0347 53.9768 75.093 54.0028 75.1513 54.0028C75.2096 54.0028 75.2679 53.9898 75.2679 53.834C75.2679 53.7171 75.229 53.6392 75.1642 53.6262Z" fill="#007FF2"/>
<path d="M74.9434 50.5878C74.9434 50.5229 74.9434 50.4579 74.9434 50.393C75.0017 50.2242 75.06 50.0164 75.1766 50.0294C75.2543 50.0424 75.332 50.1203 75.3644 50.2761C75.3968 50.432 75.3903 50.5878 75.332 50.7306C75.2673 50.8865 75.183 50.9124 75.0923 50.8735C75.0211 50.8475 74.9757 50.7306 74.9434 50.5878ZM75.2673 50.5229C75.2673 50.406 75.2349 50.341 75.183 50.3151C75.1183 50.2891 75.0664 50.3411 75.0535 50.4709C75.0405 50.5748 75.0794 50.6527 75.1312 50.6787C75.2025 50.7047 75.2413 50.6397 75.2673 50.5229Z" fill="#007FF2"/>
<path d="M55.8726 46.2118C55.8726 46.2767 55.8726 46.3546 55.8726 46.4195C55.8078 46.6663 55.7042 46.7702 55.5681 46.6793C55.4515 46.6013 55.4321 46.2637 55.2637 46.2897C55.4774 46.1339 55.6523 45.4586 55.8726 46.2118ZM55.756 46.3157C55.743 46.1728 55.7042 46.0689 55.6329 46.0689C55.5617 46.0559 55.5422 46.1728 55.5357 46.3027C55.5293 46.4455 55.5681 46.5104 55.6394 46.5104C55.6977 46.4975 55.743 46.4585 55.756 46.3157Z" fill="#007FF2"/>
<path d="M74.9375 47.1987C74.9375 47.1338 74.9375 47.0688 74.944 47.0039C74.9958 46.7961 75.0671 46.6793 75.1901 46.7052C75.2808 46.7182 75.3456 46.8221 75.365 46.9909C75.4039 47.2377 75.3715 47.4584 75.242 47.5493C75.093 47.6532 74.9828 47.5233 74.9375 47.1987ZM75.2743 47.1468C75.2614 47.0039 75.2225 46.913 75.1448 46.926C75.08 46.939 75.0411 47.0299 75.0411 47.1468C75.0411 47.2896 75.0865 47.3805 75.1642 47.3675C75.2355 47.3545 75.2679 47.2766 75.2743 47.1468Z" fill="#007FF2"/>
<path d="M74.944 38.914C74.944 38.849 74.944 38.7841 74.9375 38.7192C74.9764 38.3945 75.0865 38.2647 75.242 38.3686C75.3586 38.4465 75.391 38.6413 75.3715 38.875C75.3521 39.0438 75.3003 39.1607 75.2096 39.1997C75.0865 39.2646 74.9958 39.1477 74.944 38.914ZM75.2743 38.7711C75.2614 38.6543 75.229 38.5504 75.1448 38.5634C75.08 38.5763 75.0411 38.6672 75.0411 38.7841C75.0411 38.927 75.0865 39.0179 75.1642 39.0049C75.2355 38.9919 75.2679 38.914 75.2743 38.7711Z" fill="#007FF2"/>
<path d="M74.9375 48.8606C74.9375 48.7956 74.9375 48.7307 74.944 48.6788C75.0282 48.432 75.1254 48.2632 75.2808 48.445C75.365 48.5489 75.3909 48.7177 75.378 48.8995C75.3586 49.0943 75.3003 49.2112 75.2031 49.2372C75.0606 49.2631 74.9699 49.1333 74.9375 48.8606ZM75.2743 48.8086C75.2679 48.6788 75.2355 48.5879 75.1577 48.5749C75.093 48.5749 75.0541 48.6528 75.0476 48.7826C75.0411 48.9385 75.0865 49.0294 75.1577 49.0294C75.2225 49.0294 75.2614 48.9515 75.2743 48.8086Z" fill="#007FF2"/>
<path d="M61.3145 46.5361C61.4246 46.5361 61.5282 46.5361 61.6383 46.5361C61.6383 46.5491 61.6383 46.5621 61.6383 46.5751C61.5347 46.5751 61.4246 46.5751 61.3209 46.5751C61.3145 46.5621 61.3145 46.5491 61.3145 46.5361Z" fill="#FEFEFE"/>
<path d="M61.4889 45.8092C61.4111 45.8092 61.3334 45.8092 61.2168 45.8092C61.3334 45.7054 61.4176 45.7313 61.4889 45.8092Z" fill="#FEFEFE"/>
<path d="M61.2496 46.7051C61.146 46.8479 61.0812 46.77 60.9775 46.809C61.0747 46.6661 61.146 46.731 61.2496 46.7051Z" fill="#FEFEFE"/>
<path d="M61.3922 47.095C61.3468 47.082 61.2691 47.082 61.2691 47.069C61.2626 46.9521 61.3145 47.017 61.3404 47.0041C61.3598 46.9911 61.3857 47.017 61.4051 47.03C61.3987 47.056 61.3987 47.082 61.3922 47.095Z" fill="#FEFEFE"/>
<path d="M61.541 47.147C61.5928 47.0821 61.6447 47.095 61.7094 47.147C61.6447 47.2119 61.5928 47.2249 61.541 47.147Z" fill="#FEFEFE"/>
<path d="M61.4831 47.3411C61.4377 47.3671 61.4183 47.3931 61.3989 47.3931C61.3794 47.3931 61.3665 47.3541 61.3535 47.3411C61.3665 47.3281 61.3794 47.3152 61.3924 47.3152C61.4183 47.3022 61.4377 47.3152 61.4831 47.3411Z" fill="#FEFEFE"/>
<path d="M61.4115 45.2765C61.3986 45.3024 61.3856 45.3414 61.3791 45.3284C61.3532 45.3154 61.3273 45.3024 61.2949 45.2894C61.3079 45.2765 61.3208 45.2505 61.3338 45.2505C61.3597 45.2635 61.3856 45.2765 61.4115 45.2765Z" fill="#FEFEFE"/>
<path d="M61.6068 45.4713C61.5939 45.4973 61.5809 45.5362 61.5744 45.5232C61.5485 45.5102 61.5226 45.4973 61.4902 45.4843C61.5032 45.4713 61.5161 45.4453 61.5291 45.4453C61.555 45.4453 61.5809 45.4583 61.6068 45.4713Z" fill="#FEFEFE"/>
<path d="M61.6119 45.2118C61.599 45.2248 61.586 45.2508 61.573 45.2508C61.5601 45.2508 61.5471 45.2248 61.5342 45.2118C61.5471 45.1989 61.5601 45.1729 61.573 45.1729C61.586 45.1599 61.599 45.1859 61.6119 45.2118Z" fill="#FEFEFE"/>
<path d="M75.1638 40.6668C75.1055 40.6538 75.0537 40.6149 75.0537 40.472C75.0537 40.3552 75.0991 40.3032 75.1509 40.3032C75.2157 40.3032 75.261 40.3552 75.261 40.498C75.261 40.6019 75.2157 40.6538 75.1638 40.6668Z" fill="#FEFEFE"/>
<path d="M75.274 52.1591C75.2804 52.315 75.2286 52.3409 75.1703 52.3409C75.112 52.3409 75.0537 52.328 75.0537 52.1721C75.0537 52.0423 75.0991 51.9644 75.1574 51.9644C75.2157 51.9644 75.2545 52.0423 75.274 52.1591Z" fill="#FEFEFE"/>
<path d="M75.1708 43.9913C75.1125 43.9783 75.0477 43.9783 75.0542 43.8225C75.0542 43.6927 75.0995 43.6147 75.1578 43.6147C75.2226 43.6147 75.2615 43.6797 75.2744 43.8095C75.2809 43.9524 75.2226 43.9783 75.1708 43.9913Z" fill="#FEFEFE"/>
<path d="M75.2742 45.4841C75.2613 45.6269 75.203 45.6399 75.1511 45.6399C75.0864 45.6399 75.041 45.588 75.054 45.4321C75.0669 45.3153 75.1123 45.2373 75.1771 45.2633C75.2354 45.2763 75.2677 45.3672 75.2742 45.4841Z" fill="#FEFEFE"/>
<path d="M75.1709 41.9521C75.2228 41.9781 75.2681 42.0171 75.2616 42.1339C75.2616 42.2768 75.2098 42.3287 75.145 42.3158C75.0932 42.3028 75.0479 42.2508 75.0543 42.1339C75.0608 42.0041 75.1062 41.9521 75.1709 41.9521Z" fill="#FEFEFE"/>
<path d="M75.1643 53.627C75.2226 53.6529 75.268 53.7179 75.268 53.8347C75.268 53.9906 75.2097 54.0035 75.1514 54.0035C75.0931 54.0035 75.0348 53.9776 75.0477 53.8217C75.0607 53.6919 75.106 53.627 75.1643 53.627Z" fill="#FEFEFE"/>
<path d="M75.2674 50.5234C75.248 50.6402 75.2026 50.7051 75.1379 50.6792C75.086 50.6532 75.0472 50.5883 75.0601 50.4714C75.0731 50.3415 75.1249 50.2896 75.1897 50.3156C75.235 50.3415 75.2674 50.4065 75.2674 50.5234Z" fill="#FEFEFE"/>
<path d="M55.757 46.3154C55.744 46.4582 55.6987 46.4972 55.6339 46.4972C55.5627 46.4972 55.5303 46.4323 55.5303 46.2894C55.5303 46.1725 55.5562 46.0557 55.6274 46.0557C55.6987 46.0686 55.744 46.1855 55.757 46.3154Z" fill="#FEFEFE"/>
<path d="M75.2736 47.1468C75.2671 47.2767 75.2347 47.3546 75.17 47.3676C75.0922 47.3805 75.0469 47.2896 75.0469 47.1468C75.0469 47.0299 75.0857 46.939 75.1505 46.926C75.2283 46.913 75.2606 47.0039 75.2736 47.1468Z" fill="#FEFEFE"/>
<path d="M75.2736 38.771C75.2671 38.9139 75.2347 39.0048 75.17 39.0048C75.0922 39.0178 75.0469 38.9269 75.0469 38.784C75.0469 38.6671 75.0857 38.5762 75.1505 38.5632C75.2283 38.5503 75.2606 38.6412 75.2736 38.771Z" fill="#FEFEFE"/>
<path d="M75.2742 48.8089C75.2613 48.9648 75.2224 49.0427 75.1576 49.0297C75.0864 49.0297 75.041 48.9388 75.0475 48.783C75.054 48.6531 75.0993 48.5752 75.1576 48.5752C75.2353 48.5752 75.2677 48.6791 75.2742 48.8089Z" fill="#FEFEFE"/>
<path d="M74.937 17.2227C74.1208 17.2617 73.3111 17.1578 72.5013 17.0149C70.856 16.7163 69.2365 16.1319 67.6624 15.106C66.3927 14.2749 65.1555 13.2491 63.8923 12.34C63.3287 11.9375 62.7457 11.6128 62.1627 11.3142C62.3765 11.6518 62.6356 11.7557 62.8753 11.9245C63.9506 12.6907 64.9611 13.7425 65.9976 14.6775C67.1377 15.7164 68.2843 16.7033 69.4956 17.3396C70.4284 17.8331 71.3742 18.1837 72.3394 18.3914C73.2074 18.5732 74.069 18.7031 74.9435 18.6771C74.9435 18.7421 74.9435 18.807 74.937 18.8719C73.0843 18.8719 71.2576 18.4823 69.4697 17.5084C68.4527 16.95 67.4616 16.2098 66.4964 15.3268C64.8899 13.8464 63.3093 12.2621 61.6121 11.2492C60.8088 10.7817 59.9926 10.4571 59.1634 10.1974C58.0687 9.87274 56.9739 9.70392 55.8662 9.71691C55.8662 9.65198 55.8662 9.57407 55.8662 9.50914C56.1771 9.37928 56.4946 9.41824 56.8055 9.41824C57.8225 9.40525 58.8266 9.15852 59.8242 8.79492C61.489 8.19757 63.0566 7.05482 64.5854 5.63936C66.0688 4.24988 67.5458 2.82144 69.1199 1.88646C70.0009 1.36702 70.8948 0.990435 71.8082 0.75669C72.6892 0.535931 73.5637 0.354129 74.4577 0.367115C74.6196 0.367115 74.7751 0.250243 74.937 0.289201C74.937 0.35413 74.937 0.419059 74.937 0.483988C73.8941 0.587875 72.8511 0.652804 71.8082 0.938492C70.1369 1.40598 68.5369 2.34096 66.9887 3.63954C66.1401 4.35376 65.3109 5.15889 64.4818 5.93804C63.7757 6.60031 63.0437 7.17169 62.3052 7.69112C62.2404 7.73008 62.1562 7.73008 62.0914 7.93785C62.3505 7.89889 62.5708 7.71709 62.7846 7.58724C64.1514 6.76913 65.4664 5.62638 66.8073 4.67841C67.9409 3.87329 69.0875 3.18504 70.273 2.79546C71.2965 2.44485 72.3264 2.22409 73.3629 2.09423C73.8876 2.0293 74.4123 2.06826 74.937 2.01631C74.937 2.08124 74.937 2.14617 74.9435 2.2111C74.2245 2.17214 73.5054 2.22409 72.7928 2.34096C71.3224 2.57471 69.8713 3.00324 68.4527 3.82134C67.3191 4.48362 66.2178 5.30173 65.1166 6.14581C64.0542 6.96391 62.9919 7.75605 61.8777 8.27548C61.8323 8.30146 61.787 8.34041 61.7481 8.40534C61.9619 8.45729 62.1562 8.28847 62.357 8.21056C63.6461 7.63918 64.9093 6.86003 66.179 6.11984C67.5782 5.31471 68.9903 4.61348 70.4414 4.24988C71.3872 4.01613 72.3264 3.8603 73.2787 3.75642C73.8358 3.69149 74.3929 3.71746 74.95 3.6785C74.95 3.74343 74.95 3.80836 74.95 3.87329C74.1856 3.83433 73.4147 3.88627 72.6503 3.99016C71.6981 4.12002 70.7458 4.32779 69.8001 4.62647C68.0575 5.17187 66.3862 6.22372 64.702 7.18467C63.7238 7.73008 62.7522 8.28847 61.7611 8.70402C62.0461 8.78193 62.3182 8.6261 62.5837 8.52221C64.1708 7.91188 65.7514 7.23662 67.3385 6.63927C68.2907 6.27567 69.2559 5.98998 70.2211 5.82116C71.2058 5.63936 72.1904 5.5095 73.1815 5.4186C73.771 5.36666 74.3605 5.39263 74.95 5.34069C74.95 5.40562 74.95 5.47054 74.95 5.53547C74.5483 5.53547 74.1402 5.5095 73.7386 5.54846C72.7345 5.65235 71.7305 5.74325 70.7264 5.89908C68.5758 6.23671 66.4899 7.17169 64.3846 8.02875C63.5101 8.37937 62.6356 8.66506 61.7157 9.00269C62.072 9.10658 62.3829 8.95075 62.6939 8.8988C63.3417 8.78193 63.983 8.60013 64.6307 8.4443C65.2073 8.30146 65.7773 8.15861 66.3539 8.01577C66.8656 7.8989 67.3774 7.76904 67.8826 7.66515C68.5304 7.53529 69.1782 7.40543 69.826 7.28856C70.1175 7.23662 70.409 7.21065 70.694 7.19766C71.3936 7.1587 72.0997 7.09377 72.7993 7.05482C73.5184 7.01586 74.2374 6.98989 74.9564 6.9769C74.9564 7.04183 74.9564 7.10676 74.9564 7.17169C74.4123 7.17169 73.8746 7.14572 73.3305 7.18467C72.4301 7.23662 71.5232 7.27557 70.6228 7.37946C69.6576 7.49633 68.6988 7.66515 67.7401 7.85994C66.8721 8.04174 66.0041 8.30146 65.136 8.50923C64.3716 8.69103 63.6008 8.84686 62.8364 9.01568C62.4477 9.10658 62.059 9.22345 61.6639 9.26241C62.0655 9.26241 62.4607 9.26241 62.8623 9.26241C62.94 9.26241 63.0242 9.21046 63.102 9.21046C63.8469 9.17151 64.5854 9.17151 65.3304 9.09359C66.2826 9.00269 67.2348 8.97672 68.1806 8.88582C68.8543 8.82089 69.5215 8.8988 70.1887 8.8079C71.3353 8.63909 72.4819 8.79492 73.6285 8.70402C74.069 8.66506 74.516 8.63909 74.9564 8.6261C74.9564 8.69103 74.9564 8.75596 74.9564 8.82089C73.4277 8.79492 71.9054 8.92478 70.3766 8.95075C69.7418 8.96373 69.1005 8.95075 68.4656 9.02866C67.4745 9.13255 66.4834 9.17151 65.4923 9.23643C64.6567 9.28838 63.8145 9.34032 62.9789 9.44421C62.2663 9.52212 61.5473 9.45719 60.8347 9.57407C61.1392 9.639 61.4436 9.69094 61.7481 9.69094C62.6356 9.69094 63.523 9.79483 64.4105 9.83378C65.3368 9.87274 66.2632 9.93767 67.1895 10.0286C68.2713 10.1325 69.3531 10.1325 70.4284 10.2234C71.9378 10.3532 73.4471 10.2493 74.9564 10.3143C74.9564 10.3792 74.9564 10.4441 74.95 10.509C73.8552 10.509 72.7669 10.548 71.6787 10.4831C70.7588 10.4311 69.8389 10.4441 68.9191 10.3792C68.0381 10.3143 67.1636 10.2493 66.2826 10.1844C65.3563 10.1065 64.4299 10.0545 63.5036 9.97663C62.9724 9.93767 62.4412 9.93767 61.9101 9.96364C62.2728 10.0416 62.6356 10.1195 63.0048 10.1974C63.6526 10.3402 64.3004 10.4701 64.9417 10.6519C65.5376 10.8207 66.1401 10.9376 66.7361 11.0804C67.4033 11.2363 68.077 11.3921 68.7442 11.5479C68.9774 11.5999 69.2106 11.6258 69.4438 11.6388C70.2082 11.6908 70.9726 11.8076 71.737 11.8855C72.8123 11.9894 73.8876 11.9115 74.9564 11.9764C74.9564 12.0414 74.9564 12.1063 74.95 12.1582C74.3411 12.1582 73.7386 12.1712 73.1297 12.1453C72.4754 12.1323 71.8212 12.1063 71.1734 12.0414C70.409 11.9635 69.6446 11.9115 68.8867 11.7427C67.8179 11.509 66.7425 11.3272 65.6802 11.0025C64.9417 10.7817 64.1967 10.6519 63.4518 10.4831C62.8947 10.3532 62.3376 10.2234 61.774 10.1065C61.6704 10.0805 61.5667 10.1065 61.4631 10.1325C62.2922 10.3922 63.1214 10.6519 63.9376 10.9765C65.0777 11.431 66.2178 11.9115 67.3644 12.366C68.1936 12.6907 69.0227 12.9374 69.8649 13.1192C71.141 13.4049 72.4106 13.5737 73.6933 13.6127C74.1078 13.6256 74.5289 13.6516 74.95 13.6776C74.95 13.7425 74.95 13.8074 74.95 13.8724C74.1726 13.8983 73.4018 13.8074 72.6244 13.7555C71.4584 13.6646 70.2989 13.4438 69.1458 13.1192C67.5976 12.6907 66.0818 12.0154 64.553 11.3921C63.7174 11.0545 62.8753 10.7817 62.0396 10.4831C61.9748 10.4571 61.9101 10.4831 61.8453 10.509C62.7392 10.9376 63.6332 11.3921 64.5141 11.8985C65.7903 12.6257 67.0599 13.4179 68.3555 14.0022C69.2106 14.3918 70.0721 14.6905 70.9467 14.8723C71.8665 15.0671 72.7864 15.2229 73.7127 15.2748C74.1208 15.3008 74.5354 15.3268 74.9435 15.3398C74.9435 15.4047 74.9435 15.4696 74.9435 15.5346C74.2504 15.4956 73.5572 15.5216 72.8641 15.4307C70.6616 15.145 68.4915 14.4438 66.3668 13.1841C64.8575 12.2881 63.3481 11.3531 61.7999 10.7298C61.7287 10.7038 61.6639 10.6649 61.5538 10.7298C62.085 11.0285 62.5773 11.2882 63.0696 11.5869C64.0542 12.1842 65.0194 12.9504 65.9781 13.7036C67.3774 14.7944 68.809 15.6644 70.2859 16.2228C70.9143 16.4566 71.5556 16.5994 72.1969 16.7293C73.1103 16.9111 74.0236 17.0279 74.9435 17.002C74.9435 17.0929 74.9435 17.1578 74.937 17.2227ZM61.8906 11.1843C61.8647 11.1064 61.8323 11.0804 61.7934 11.1064C61.787 11.1064 61.787 11.1324 61.7805 11.1454C61.8129 11.1713 61.8517 11.1843 61.8906 11.1843C61.91 11.2622 61.9424 11.2882 61.9878 11.2622C61.9943 11.2622 61.9943 11.2363 62.0007 11.2233C61.9619 11.2233 61.923 11.2103 61.8906 11.1843ZM61.8388 8.0807C61.8777 8.06771 61.91 8.05472 61.9489 8.04174C61.9424 8.02875 61.9424 8.00278 61.936 8.00278C61.8906 7.97681 61.8582 8.00278 61.8388 8.0807C61.7999 8.09368 61.7675 8.10667 61.7287 8.11965C61.7351 8.13264 61.7351 8.15861 61.7416 8.15861C61.787 8.18458 61.8194 8.15861 61.8388 8.0807ZM61.625 9.89871C61.6315 9.88573 61.638 9.87274 61.6445 9.85975C61.5343 9.85975 61.4177 9.85975 61.3076 9.85975C61.3076 9.87274 61.3076 9.88573 61.3076 9.89871C61.4113 9.89871 61.5149 9.89871 61.625 9.89871ZM61.5667 9.08061C61.4177 9.08061 61.34 9.08061 61.2623 9.08061C61.34 9.15852 61.4177 9.15852 61.5667 9.08061ZM61.2493 10.3662C61.3011 10.4441 61.353 10.4311 61.4177 10.3662C61.353 10.3013 61.3011 10.3013 61.2493 10.3662ZM61.5538 10.4311C61.5926 10.4701 61.6445 10.587 61.6898 10.4311C61.6445 10.4311 61.5991 10.4311 61.5538 10.4311ZM61.2299 10.0805C61.1521 10.0286 61.1068 10.0156 61.055 10.0805C61.1068 10.1454 61.1521 10.1325 61.2299 10.0805ZM61.353 8.56117C61.3335 8.58714 61.3141 8.60013 61.2947 8.6261C61.3141 8.63909 61.34 8.65207 61.3594 8.66506C61.3724 8.66506 61.3853 8.63909 61.3983 8.6261C61.3918 8.60013 61.3724 8.58714 61.353 8.56117ZM61.6056 8.79492C61.5797 8.78193 61.5538 8.76895 61.5343 8.76895C61.5214 8.76895 61.5084 8.79492 61.4955 8.8079C61.5149 8.87283 61.5473 8.85985 61.5732 8.84686C61.5797 8.84686 61.5926 8.82089 61.6056 8.79492ZM61.3983 10.7038C61.4177 10.6908 61.4372 10.6779 61.4566 10.6649C61.4372 10.6519 61.4177 10.6129 61.3983 10.6129C61.3853 10.6129 61.3659 10.6389 61.353 10.6649C61.3659 10.6779 61.3789 10.6908 61.3983 10.7038ZM61.6121 8.22354C61.5991 8.21055 61.5862 8.18458 61.5732 8.18458C61.5602 8.18458 61.5473 8.21055 61.5343 8.22354C61.5473 8.23653 61.5602 8.2625 61.5732 8.2625C61.5862 8.2625 61.5991 8.23653 61.6121 8.22354ZM61.6185 11.0934C61.6315 11.0804 61.6445 11.0674 61.6574 11.0545C61.6445 11.0415 61.6315 11.0155 61.6185 11.0155C61.6056 11.0155 61.5926 11.0415 61.5797 11.0545C61.5926 11.0545 61.6056 11.0804 61.6185 11.0934ZM61.6121 8.52221C61.5991 8.50923 61.5862 8.48326 61.5732 8.48326C61.5602 8.48326 61.5473 8.50923 61.5343 8.52221C61.5473 8.5352 61.5602 8.56117 61.5732 8.56117C61.5862 8.56117 61.5991 8.5352 61.6121 8.52221Z" fill="#419AEA"/>
<path d="M74.9424 3.89965C74.9424 3.83472 74.9424 3.76979 74.9424 3.70486C75.0007 3.45813 75.0655 3.23737 75.2274 3.34126C75.344 3.40619 75.3894 3.58799 75.3764 3.82173C75.3699 4.00353 75.3116 4.12041 75.2339 4.17235C75.0979 4.25026 75.0007 4.13339 74.9424 3.89965Z" fill="#007FF2"/>
<path d="M55.8722 9.53506C55.8722 9.59998 55.8722 9.6779 55.8722 9.74283C55.7621 10.0805 55.6261 10.1584 55.4771 9.8597C55.4188 9.74283 55.3216 9.78179 55.2568 9.63894C55.4641 9.50908 55.6261 8.72993 55.8722 9.53506ZM55.6326 9.82074C55.6909 9.80776 55.7492 9.7688 55.7492 9.62596C55.7492 9.48311 55.6973 9.37923 55.6261 9.37923C55.5548 9.36624 55.5354 9.48311 55.5289 9.61297C55.5289 9.75582 55.5678 9.82074 55.6326 9.82074Z" fill="#007FF2"/>
<path d="M74.9365 0.497043C74.9365 0.432114 74.9365 0.367185 74.9365 0.302256C74.9883 0.0944828 75.0596 -0.0223901 75.1827 0.00358161C75.2734 0.0295533 75.3382 0.120455 75.3576 0.28927C75.3965 0.536001 75.3641 0.75676 75.2345 0.84766C75.092 0.951547 74.9819 0.834675 74.9365 0.497043ZM75.2734 0.419129C75.2604 0.28927 75.2216 0.224341 75.1568 0.224341C75.092 0.237327 75.0531 0.302256 75.0531 0.432114C75.0531 0.587944 75.1114 0.60093 75.1697 0.60093C75.2216 0.60093 75.2734 0.561973 75.2734 0.419129Z" fill="#007FF2"/>
<path d="M74.9424 7.21041C74.9424 7.14548 74.9424 7.08055 74.9424 7.01562C75.1173 6.58709 75.2339 6.53514 75.3311 6.8468C75.4023 7.06756 75.4153 7.30131 75.2857 7.48311C75.1043 7.71685 75.0266 7.44415 74.9424 7.21041ZM75.1367 6.92472C75.0914 6.95069 75.046 7.01562 75.046 7.14548C75.046 7.30131 75.1108 7.30131 75.1626 7.30131C75.2209 7.30131 75.2728 7.26235 75.2663 7.10652C75.2598 6.98965 75.2145 6.92472 75.1367 6.92472Z" fill="#007FF2"/>
<path d="M74.9365 8.86039C74.9365 8.79546 74.9365 8.73053 74.9365 8.6656C74.9948 8.44484 75.079 8.32797 75.2086 8.37991C75.2863 8.40588 75.3382 8.50977 75.3641 8.65261C75.3965 8.89934 75.3705 9.1201 75.241 9.211C75.092 9.31489 74.9819 9.19802 74.9365 8.86039ZM75.2734 8.78247C75.2604 8.65261 75.2215 8.5747 75.1632 8.5747C75.0985 8.5747 75.0596 8.65261 75.0531 8.78247C75.0466 8.9383 75.1049 8.96427 75.1632 8.96427C75.2151 8.96427 75.2734 8.9383 75.2734 8.78247Z" fill="#007FF2"/>
<path d="M74.9424 15.5737C74.9424 15.5088 74.9424 15.4438 74.9424 15.3789C75.1173 14.9504 75.2339 14.8984 75.3311 15.2231C75.4023 15.4438 75.4153 15.6906 75.2857 15.8594C75.1043 16.0801 75.0266 15.8074 74.9424 15.5737ZM75.2728 15.5088C75.2663 15.3919 75.2339 15.301 75.1691 15.288C75.1043 15.275 75.059 15.34 75.0525 15.4698C75.0395 15.6127 75.0914 15.6646 75.1497 15.6646C75.2015 15.6646 75.2598 15.6646 75.2728 15.5088Z" fill="#007FF2"/>
<path d="M74.9424 13.9117C74.9424 13.8468 74.9424 13.7819 74.9424 13.7169C75.0007 13.4962 75.0655 13.2884 75.2144 13.3793C75.2987 13.4313 75.3764 13.5221 75.3764 13.7429C75.3829 13.9637 75.3375 14.1325 75.2339 14.1974C75.1043 14.2753 75.0007 14.1585 74.9424 13.9117ZM75.2663 13.8078C75.2533 13.678 75.2144 13.6131 75.1497 13.626C75.0978 13.639 75.059 13.704 75.059 13.8078C75.0655 13.9507 75.1108 14.0026 75.1756 13.9896C75.2274 13.9896 75.2598 13.9247 75.2663 13.8078Z" fill="#007FF2"/>
<path d="M74.9424 5.54872C74.9424 5.48379 74.9424 5.41886 74.9424 5.35393C75.0007 5.18511 75.059 4.97734 75.1756 4.99033C75.2533 5.00331 75.3311 5.08123 75.3634 5.23706C75.3958 5.39289 75.3894 5.54872 75.3311 5.69156C75.2663 5.84739 75.1821 5.87336 75.0914 5.8344C75.0201 5.79545 74.9748 5.67858 74.9424 5.54872ZM75.1562 5.26303C75.1043 5.27601 75.059 5.32796 75.0525 5.43184C75.046 5.57469 75.0979 5.63962 75.1562 5.63962C75.208 5.63962 75.2533 5.58767 75.2598 5.4708C75.2663 5.32796 75.2145 5.27601 75.1562 5.26303Z" fill="#007FF2"/>
<path d="M74.9365 17.2227C74.9365 17.1578 74.9365 17.0929 74.9365 17.028C74.9754 16.8851 75.0272 16.7553 75.1114 16.7423C75.2151 16.7163 75.3058 16.7812 75.3511 16.976C75.39 17.1448 75.39 17.3266 75.3122 17.4565C75.228 17.5993 75.1309 17.6643 75.0337 17.4825C75.0013 17.4045 74.943 17.3526 74.9365 17.2227ZM75.2734 17.1448C75.2604 17.015 75.2216 16.95 75.1568 16.95C75.092 16.95 75.0531 17.028 75.0466 17.1578C75.0402 17.3136 75.1049 17.3266 75.1568 17.3266C75.2216 17.3266 75.2734 17.3007 75.2734 17.1448Z" fill="#007FF2"/>
<path d="M74.9365 10.5219C74.9365 10.457 74.9365 10.3921 74.943 10.3272C74.9948 10.1194 75.0661 10.0025 75.1892 10.0285C75.2799 10.0415 75.3446 10.1454 75.3641 10.3142C75.4029 10.5609 75.3705 10.7817 75.241 10.8726C75.092 10.9764 74.9819 10.8466 74.9365 10.5219ZM75.2734 10.483C75.2734 10.3272 75.2345 10.2363 75.1568 10.2363C75.092 10.2363 75.0531 10.3142 75.0466 10.444C75.0402 10.5999 75.0855 10.6908 75.1568 10.6908C75.2216 10.6908 75.2604 10.6128 75.2734 10.483Z" fill="#007FF2"/>
<path d="M74.943 2.23721C74.943 2.17228 74.943 2.10735 74.9365 2.04242C74.9754 1.71778 75.0855 1.58792 75.241 1.69181C75.3576 1.76972 75.39 1.96451 75.3705 2.19825C75.3511 2.36707 75.2993 2.48394 75.2086 2.5229C75.0855 2.58783 74.9948 2.47096 74.943 2.23721ZM75.2734 2.12034C75.2734 1.96451 75.2345 1.87361 75.1568 1.87361C75.092 1.87361 75.0531 1.95152 75.0466 2.08138C75.0402 2.23721 75.0855 2.32811 75.1568 2.32811C75.2216 2.32811 75.2604 2.2502 75.2734 2.12034Z" fill="#007FF2"/>
<path d="M74.9365 18.8852C74.9365 18.8203 74.9365 18.7554 74.943 18.6904C74.9948 18.4827 75.0661 18.3658 75.1892 18.3918C75.2799 18.4177 75.3382 18.5086 75.3641 18.6775C75.4029 18.9242 75.3641 19.1449 75.241 19.2358C75.0855 19.3397 74.9819 19.2099 74.9365 18.8852ZM75.1827 19.054C75.228 19.0281 75.2734 18.9502 75.2734 18.8203C75.2669 18.6775 75.228 18.5866 75.1503 18.5995C75.0855 18.6125 75.0466 18.7034 75.0466 18.8203C75.0466 18.9761 75.092 19.054 75.1827 19.054Z" fill="#007FF2"/>
<path d="M74.9365 12.1711C74.9365 12.1062 74.9365 12.0412 74.943 11.9893C75.0272 11.7426 75.1244 11.5738 75.2798 11.7556C75.3641 11.8594 75.39 12.0283 75.377 12.2101C75.3576 12.4049 75.2993 12.5217 75.2021 12.5477C75.0596 12.5867 74.9689 12.4438 74.9365 12.1711ZM75.2734 12.1062C75.2604 11.9893 75.228 11.8854 75.1438 11.8984C75.079 11.9114 75.0402 12.0023 75.0402 12.1192C75.0402 12.262 75.0855 12.3529 75.1632 12.3399C75.2345 12.3269 75.2669 12.249 75.2734 12.1062Z" fill="#007FF2"/>
<path d="M61.6241 9.89882C61.5204 9.89882 61.4103 9.89882 61.3066 9.89882C61.3066 9.88584 61.3066 9.87285 61.3066 9.85986C61.4168 9.85986 61.5334 9.85986 61.6435 9.85986C61.637 9.87285 61.6305 9.88584 61.6241 9.89882Z" fill="#FEFEFE"/>
<path d="M61.5662 9.08057C61.4172 9.15848 61.3395 9.15848 61.2617 9.08057C61.3395 9.08057 61.4172 9.08057 61.5662 9.08057Z" fill="#FEFEFE"/>
<path d="M61.249 10.3657C61.3008 10.3008 61.3527 10.3138 61.4174 10.3657C61.3527 10.4307 61.3008 10.4437 61.249 10.3657Z" fill="#FEFEFE"/>
<path d="M61.5537 10.4316C61.5991 10.4316 61.6444 10.4316 61.6897 10.4316C61.6444 10.5875 61.5926 10.4706 61.5537 10.4316Z" fill="#FEFEFE"/>
<path d="M61.2296 10.0805C61.1519 10.1455 61.1065 10.1455 61.0547 10.0805C61.1065 10.0026 61.1519 10.0156 61.2296 10.0805Z" fill="#FEFEFE"/>
<path d="M61.3526 8.56104C61.372 8.58701 61.385 8.59999 61.4044 8.62596C61.3915 8.63895 61.3785 8.66492 61.3656 8.66492C61.3461 8.66492 61.3202 8.63895 61.3008 8.62596C61.3137 8.59999 61.3332 8.58701 61.3526 8.56104Z" fill="#FEFEFE"/>
<path d="M61.6049 8.79501C61.5854 8.82099 61.579 8.84696 61.566 8.84696C61.5401 8.84696 61.5077 8.87293 61.4883 8.808C61.5012 8.79501 61.5142 8.76904 61.5271 8.76904C61.5531 8.76904 61.579 8.78203 61.6049 8.79501Z" fill="#FEFEFE"/>
<path d="M61.3969 10.7037C61.3775 10.6907 61.3645 10.6777 61.3516 10.6647C61.3645 10.6517 61.384 10.6128 61.3969 10.6128C61.4163 10.6128 61.4358 10.6388 61.4552 10.6647C61.4358 10.6777 61.4163 10.6907 61.3969 10.7037Z" fill="#FEFEFE"/>
<path d="M61.8379 8.08082C61.8638 8.0029 61.8962 7.97693 61.9351 8.0029C61.9415 8.0029 61.9415 8.02888 61.948 8.04186C61.9091 8.05485 61.8768 8.06783 61.8379 8.08082Z" fill="#FEFEFE"/>
<path d="M61.8386 8.08105C61.8127 8.15897 61.7868 8.18494 61.7415 8.15897C61.735 8.15897 61.735 8.133 61.7285 8.12001C61.7674 8.10703 61.7998 8.09404 61.8386 8.08105Z" fill="#FEFEFE"/>
<path d="M61.6119 8.22353C61.599 8.23651 61.586 8.26248 61.573 8.26248C61.5601 8.26248 61.5471 8.23651 61.5342 8.22353C61.5471 8.21054 61.5601 8.18457 61.573 8.18457C61.586 8.18457 61.599 8.21054 61.6119 8.22353Z" fill="#FEFEFE"/>
<path d="M61.8896 11.1846C61.9285 11.1976 61.9609 11.2105 61.9998 11.2235C61.9933 11.2365 61.9933 11.2625 61.9868 11.2625C61.9415 11.3014 61.9091 11.2755 61.8896 11.1846Z" fill="#FEFEFE"/>
<path d="M61.8839 11.1975C61.8515 11.1845 61.8127 11.1715 61.7803 11.1586C61.7868 11.1456 61.7868 11.1196 61.7932 11.1196C61.8321 11.0936 61.8645 11.1196 61.8839 11.1975C61.8839 11.1975 61.8904 11.1845 61.8839 11.1975Z" fill="#FEFEFE"/>
<path d="M61.617 11.0938C61.604 11.0808 61.5911 11.0679 61.5781 11.0419C61.5911 11.0289 61.604 11.0029 61.617 11.0029C61.6299 11.0029 61.6429 11.0289 61.6559 11.0419C61.6429 11.0679 61.6299 11.0808 61.617 11.0938Z" fill="#FEFEFE"/>
<path d="M61.6119 8.52236C61.599 8.53534 61.586 8.56131 61.573 8.56131C61.5601 8.56131 61.5471 8.53534 61.5342 8.52236C61.5471 8.50937 61.5601 8.4834 61.573 8.4834C61.586 8.4834 61.599 8.50937 61.6119 8.52236Z" fill="#FEFEFE"/>
<path d="M55.632 9.82042C55.5607 9.82042 55.5283 9.7555 55.5283 9.61265C55.5283 9.49578 55.5542 9.37891 55.6255 9.37891C55.6967 9.39189 55.7486 9.48279 55.7486 9.62564C55.755 9.78147 55.6967 9.80744 55.632 9.82042Z" fill="#FEFEFE"/>
<path d="M75.273 0.41885C75.2795 0.561694 75.2276 0.60065 75.1693 0.60065C75.111 0.60065 75.0527 0.587665 75.0527 0.431835C75.0527 0.301977 75.0981 0.224062 75.1564 0.224062C75.2147 0.211076 75.2535 0.288991 75.273 0.41885Z" fill="#FEFEFE"/>
<path d="M75.1376 6.92529C75.2153 6.92529 75.2542 6.99022 75.2671 7.1071C75.2801 7.26293 75.2283 7.30188 75.1635 7.30188C75.1052 7.30188 75.0469 7.30188 75.0469 7.14605C75.0469 7.0162 75.0922 6.95126 75.1376 6.92529Z" fill="#FEFEFE"/>
<path d="M75.2735 8.7815C75.2735 8.93733 75.2217 8.96331 75.1634 8.96331C75.1051 8.96331 75.0468 8.93733 75.0532 8.7815C75.0597 8.65164 75.0986 8.57373 75.1634 8.57373C75.2217 8.58672 75.2605 8.65164 75.2735 8.7815Z" fill="#FEFEFE"/>
<path d="M75.2732 15.5088C75.2668 15.6646 75.2085 15.6646 75.1502 15.6646C75.0854 15.6646 75.04 15.6127 75.053 15.4698C75.066 15.353 75.1048 15.275 75.1696 15.288C75.2344 15.301 75.2668 15.3789 75.2732 15.5088Z" fill="#FEFEFE"/>
<path d="M75.2669 13.8075C75.2604 13.9243 75.228 13.9893 75.1762 13.9893C75.1114 14.0022 75.066 13.9503 75.0596 13.8075C75.0596 13.6906 75.0984 13.6386 75.1503 13.6257C75.2086 13.6127 75.2539 13.6776 75.2669 13.8075Z" fill="#FEFEFE"/>
<path d="M75.156 5.26318C75.2143 5.27617 75.2661 5.32811 75.2597 5.47096C75.2532 5.57484 75.2078 5.63977 75.156 5.63977C75.0912 5.63977 75.0459 5.57484 75.0524 5.432C75.0589 5.32811 75.1042 5.27617 75.156 5.26318Z" fill="#FEFEFE"/>
<path d="M75.2735 17.1444C75.2735 17.3003 75.2217 17.3262 75.1634 17.3262C75.1051 17.3262 75.0468 17.3133 75.0532 17.1574C75.0532 17.0276 75.0986 16.9496 75.1634 16.9496C75.2217 16.9367 75.2605 17.0146 75.2735 17.1444Z" fill="#FEFEFE"/>
<path d="M75.2732 10.4835C75.2603 10.6134 75.2214 10.6913 75.1566 10.6913C75.0854 10.6913 75.04 10.6004 75.0465 10.4446C75.053 10.3147 75.0983 10.2368 75.1566 10.2368C75.2344 10.2368 75.2732 10.3407 75.2732 10.4835Z" fill="#FEFEFE"/>
<path d="M75.2732 2.12027C75.2603 2.25012 75.2214 2.32804 75.1566 2.32804C75.0854 2.32804 75.04 2.23714 75.0465 2.08131C75.053 1.95145 75.0983 1.87354 75.1566 1.87354C75.2344 1.87354 75.2732 1.97742 75.2732 2.12027Z" fill="#FEFEFE"/>
<path d="M75.1829 19.0539C75.0922 19.0539 75.0469 18.976 75.0469 18.8201C75.0469 18.7033 75.0857 18.6124 75.1505 18.5994C75.2283 18.5864 75.2736 18.6773 75.2736 18.8201C75.2736 18.95 75.2283 19.0279 75.1829 19.0539Z" fill="#FEFEFE"/>
<path d="M75.2736 12.1068C75.2671 12.2496 75.2347 12.3405 75.17 12.3405C75.0922 12.3535 75.0469 12.2626 75.0469 12.1198C75.0469 12.0029 75.0857 11.912 75.1505 11.899C75.2283 11.8731 75.2606 11.9769 75.2736 12.1068Z" fill="#FEFEFE"/>
<path d="M1 35.9999C5.82212 35.8332 17.2123 33.4999 24.1961 25.4999C32.9258 15.4999 41.9049 7.49987 52.63 8.99987" stroke="#419AEA" stroke-width="0.25"/>
<path d="M1 36C8 36 17.0162 36 24 44C32.7297 54 43.2749 64 54 62.5" stroke="#419AEA" stroke-width="0.25"/>
<path d="M1.5 36C11.5 35.5003 21.2051 33.3831 28 29.5001C31.5 27.5 37.5 22.5 54 26.0002" stroke="#419AEA" stroke-width="0.25"/>
<path d="M1 36C10.5 35 19.2051 36.617 26 40.5C29.5 42.5001 37.5 49.2885 54 45.7883" stroke="#419AEA" stroke-width="0.25"/>
</svg>
