<svg width="19" height="27" viewBox="0 0 19 27" fill="none" xmlns="http://www.w3.org/2000/svg">
<path fill-rule="evenodd" clip-rule="evenodd" d="M17.4167 0C18.2911 0 19 0.711077 19 1.58824V25.4118C19 26.2889 18.2911 27 17.4167 27C16.5422 27 15.8333 26.2889 15.8333 25.4118V1.58824C15.8333 0.711077 16.5422 0 17.4167 0ZM9.5 9.52941C10.3745 9.52941 11.0833 10.2405 11.0833 11.1176V25.4118C11.0833 26.2889 10.3745 27 9.5 27C8.62555 27 7.91667 26.2889 7.91667 25.4118V11.1176C7.91667 10.2405 8.62555 9.52941 9.5 9.52941ZM1.58333 14.2941C2.45778 14.2941 3.16667 15.0052 3.16667 15.8824V25.4118C3.16667 26.2889 2.45778 27 1.58333 27C0.708882 27 0 26.2889 0 25.4118V15.8824C0 15.0052 0.708882 14.2941 1.58333 14.2941Z" fill="black"/>
</svg>
